<svg xmlns="http://www.w3.org/2000/svg" viewBox="0 0 920 470" font-family="system-ui,-apple-system,'Segoe UI',sans-serif" role="img" aria-label="L’écart de clôture entre les deux voies Binance">
<rect width="920" height="470" fill="#0d1117"/>
<text x="76" y="34" font-size="19" fill="#ffffff" text-anchor="start" font-weight="600">L’écart sur la journée témoin, au fil des heures</text>
<text x="76" y="56" font-size="12.5" fill="#c3c2b7" text-anchor="start">Clôture voie B − clôture voie A ($), 5 juin 2026 — même résolution que la journée (1 seconde)</text>
<line x1="76.0" y1="143.3" x2="896.0" y2="143.3" stroke="#21262d"/>
<text x="68.0" y="147.3" font-size="11" fill="#898781" text-anchor="end">+10 $</text>
<line x1="76.0" y1="348.7" x2="896.0" y2="348.7" stroke="#21262d"/>
<text x="68.0" y="352.7" font-size="11" fill="#898781" text-anchor="end">−10 $</text>
<line x1="76.0" y1="246.0" x2="896.0" y2="246.0" stroke="#383835" stroke-width="1.2"/>
<text x="68.0" y="250.0" font-size="11" fill="#898781" text-anchor="end">0</text>
<polygon points="76.0,233.7 77.0,241.9 78.0,209.0 79.0,233.7 80.0,216.2 81.0,238.8 82.0,212.1 83.0,241.9 84.0,204.9 85.0,212.1 86.0,239.8 87.0,210.1 88.0,227.5 89.0,195.7 90.0,234.7 91.0,218.3 92.0,219.3 93.0,218.3 94.0,230.6 95.0,233.7 96.0,229.6 97.0,226.5 98.0,222.4 99.0,209.0 100.0,216.2 101.0,192.6 102.0,224.4 103.0,233.7 104.0,239.8 105.0,210.1 106.0,221.4 107.0,236.8 108.0,228.5 109.0,227.5 110.0,245.0 111.0,229.6 112.0,207.0 113.0,228.5 114.0,245.0 115.0,223.4 116.0,216.2 117.0,237.8 118.0,233.7 119.0,240.9 120.0,200.8 121.0,225.5 122.0,234.7 123.0,246.0 124.0,215.2 125.0,226.5 126.0,212.1 127.0,213.1 128.0,219.3 129.0,233.7 130.0,245.0 131.0,221.4 132.0,233.7 133.0,231.6 134.0,235.7 135.0,226.5 136.0,242.9 137.0,221.4 138.0,225.5 139.0,226.5 140.0,203.9 141.0,220.3 142.0,224.4 143.0,222.4 144.0,212.1 145.0,224.4 146.0,245.0 147.0,210.1 148.0,199.8 149.0,231.6 150.0,229.6 151.0,198.8 152.0,239.8 153.0,242.9 154.0,190.5 155.0,246.0 156.0,231.6 157.0,239.8 158.0,233.7 159.0,227.5 160.0,228.5 161.0,234.7 162.0,231.6 163.0,221.4 164.0,246.0 165.0,243.9 166.0,237.8 167.0,230.6 168.0,226.5 169.0,243.9 170.0,241.9 171.0,240.9 172.0,240.9 173.0,246.0 174.0,218.3 175.0,229.6 176.0,246.0 177.0,241.9 178.0,226.5 179.0,233.7 180.0,234.7 181.0,235.7 182.0,210.1 183.0,240.9 184.0,237.8 185.0,218.3 186.0,242.9 187.0,243.9 188.0,241.9 189.0,233.7 190.0,201.8 191.0,238.8 192.0,235.7 193.0,229.6 194.0,234.7 195.0,217.2 196.0,238.8 197.0,246.0 198.0,221.4 199.0,208.0 200.0,246.0 201.0,207.0 202.0,216.2 203.0,239.8 204.0,232.6 205.0,241.9 206.0,221.4 207.0,222.4 208.0,232.6 209.0,241.9 210.0,209.0 211.0,220.3 212.0,246.0 213.0,240.9 214.0,238.8 215.0,238.8 216.0,230.6 217.0,241.9 218.0,234.7 219.0,227.5 220.0,237.8 221.0,226.5 222.0,239.8 223.0,246.0 224.0,237.8 225.0,209.0 226.0,241.9 227.0,226.5 228.0,236.8 229.0,229.6 230.0,246.0 231.0,243.9 232.0,212.1 233.0,236.8 234.0,215.2 235.0,219.3 236.0,231.6 237.0,198.8 238.0,233.7 239.0,235.7 240.0,235.7 241.0,239.8 242.0,246.0 243.0,241.9 244.0,246.0 245.0,235.7 246.0,223.4 247.0,223.4 248.0,229.6 249.0,223.4 250.0,229.6 251.0,213.1 252.0,235.7 253.0,230.6 254.0,226.5 255.0,216.2 256.0,231.6 257.0,246.0 258.0,241.9 259.0,243.9 260.0,228.5 261.0,240.9 262.0,232.6 263.0,235.7 264.0,232.6 265.0,218.3 266.0,213.1 267.0,215.2 268.0,205.9 269.0,237.8 270.0,197.7 271.0,230.6 272.0,246.0 273.0,216.2 274.0,230.6 275.0,214.2 276.0,245.0 277.0,217.2 278.0,224.4 279.0,212.1 280.0,143.3 281.0,205.9 282.0,238.8 283.0,225.5 284.0,218.3 285.0,246.0 286.0,235.7 287.0,239.8 288.0,246.0 289.0,233.7 290.0,196.7 291.0,220.3 292.0,213.1 293.0,197.7 294.0,182.3 295.0,157.7 296.0,243.9 297.0,239.8 298.0,235.7 299.0,240.9 300.0,239.8 301.0,234.7 302.0,232.6 303.0,210.1 304.0,227.5 305.0,242.9 306.0,218.3 307.0,241.9 308.0,217.2 309.0,239.8 310.0,217.2 311.0,217.2 312.0,246.0 313.0,240.9 314.0,227.5 315.0,201.8 316.0,215.2 317.0,243.9 318.0,224.4 319.0,227.5 320.0,183.4 321.0,225.5 322.0,241.9 323.0,224.4 324.0,232.6 325.0,237.8 326.0,204.9 327.0,246.0 328.0,228.5 329.0,231.6 330.0,216.2 331.0,214.2 332.0,235.7 333.0,246.0 334.0,204.9 335.0,210.1 336.0,246.0 337.0,233.7 338.0,246.0 339.0,208.0 340.0,211.1 341.0,245.0 342.0,236.8 343.0,240.9 344.0,222.4 345.0,230.6 346.0,242.9 347.0,240.9 348.0,242.9 349.0,229.6 350.0,203.9 351.0,233.7 352.0,195.7 353.0,240.9 354.0,148.4 355.0,235.7 356.0,246.0 357.0,219.3 358.0,242.9 359.0,222.4 360.0,245.0 361.0,234.7 362.0,223.4 363.0,232.6 364.0,214.2 365.0,219.3 366.0,213.1 367.0,232.6 368.0,211.1 369.0,237.8 370.0,213.1 371.0,229.6 372.0,240.9 373.0,230.6 374.0,230.6 375.0,231.6 376.0,239.8 377.0,236.8 378.0,222.4 379.0,241.9 380.0,227.5 381.0,236.8 382.0,227.5 383.0,230.6 384.0,240.9 385.0,219.3 386.0,245.0 387.0,200.8 388.0,246.0 389.0,229.6 390.0,229.6 391.0,215.2 392.0,232.6 393.0,246.0 394.0,231.6 395.0,242.9 396.0,245.0 397.0,233.7 398.0,220.3 399.0,222.4 400.0,239.8 401.0,239.8 402.0,226.5 403.0,236.8 404.0,214.2 405.0,228.5 406.0,239.8 407.0,233.7 408.0,246.0 409.0,239.8 410.0,242.9 411.0,236.8 412.0,246.0 413.0,231.6 414.0,232.6 415.0,246.0 416.0,227.5 417.0,235.7 418.0,225.5 419.0,230.6 420.0,213.1 421.0,234.7 422.0,197.7 423.0,193.6 424.0,233.7 425.0,211.1 426.0,207.0 427.0,241.9 428.0,243.9 429.0,227.5 430.0,246.0 431.0,204.9 432.0,246.0 433.0,240.9 434.0,234.7 435.0,227.5 436.0,229.6 437.0,217.2 438.0,219.3 439.0,246.0 440.0,239.8 441.0,236.8 442.0,235.7 443.0,218.3 444.0,236.8 445.0,245.0 446.0,219.3 447.0,227.5 448.0,241.9 449.0,240.9 450.0,232.6 451.0,236.8 452.0,237.8 453.0,236.8 454.0,241.9 455.0,228.5 456.0,242.9 457.0,231.6 458.0,239.8 459.0,228.5 460.0,221.4 461.0,237.8 462.0,226.5 463.0,240.9 464.0,226.5 465.0,202.9 466.0,238.8 467.0,232.6 468.0,236.8 469.0,238.8 470.0,242.9 471.0,246.0 472.0,222.4 473.0,246.0 474.0,203.9 475.0,233.7 476.0,246.0 477.0,239.8 478.0,246.0 479.0,231.6 480.0,229.6 481.0,196.7 482.0,243.9 483.0,234.7 484.0,231.6 485.0,239.8 486.0,220.3 487.0,195.7 488.0,246.0 489.0,245.0 490.0,222.4 491.0,243.9 492.0,231.6 493.0,221.4 494.0,217.2 495.0,246.0 496.0,219.3 497.0,207.0 498.0,230.6 499.0,210.1 500.0,245.0 501.0,234.7 502.0,232.6 503.0,217.2 504.0,229.6 505.0,230.6 506.0,227.5 507.0,219.3 508.0,224.4 509.0,230.6 510.0,227.5 511.0,231.6 512.0,246.0 513.0,211.1 514.0,229.6 515.0,225.5 516.0,213.1 517.0,242.9 518.0,235.7 519.0,246.0 520.0,241.9 521.0,204.9 522.0,224.4 523.0,223.4 524.0,228.5 525.0,223.4 526.0,210.1 527.0,234.7 528.0,215.2 529.0,230.6 530.0,228.5 531.0,229.6 532.0,234.7 533.0,230.6 534.0,224.4 535.0,227.5 536.0,188.5 537.0,235.7 538.0,229.6 539.0,227.5 540.0,214.2 541.0,198.8 542.0,204.9 543.0,227.5 544.0,225.5 545.0,207.0 546.0,216.2 547.0,215.2 548.0,238.8 549.0,234.7 550.0,223.4 551.0,217.2 552.0,237.8 553.0,238.8 554.0,194.6 555.0,236.8 556.0,187.5 557.0,243.9 558.0,242.9 559.0,210.1 560.0,222.4 561.0,236.8 562.0,246.0 563.0,220.3 564.0,233.7 565.0,232.6 566.0,207.0 567.0,235.7 568.0,237.8 569.0,204.9 570.0,240.9 571.0,246.0 572.0,229.6 573.0,237.8 574.0,231.6 575.0,216.2 576.0,234.7 577.0,234.7 578.0,229.6 579.0,223.4 580.0,222.4 581.0,236.8 582.0,215.2 583.0,231.6 584.0,231.6 585.0,227.5 586.0,236.8 587.0,236.8 588.0,228.5 589.0,188.5 590.0,231.6 591.0,233.7 592.0,230.6 593.0,233.7 594.0,210.1 595.0,204.9 596.0,237.8 597.0,229.6 598.0,240.9 599.0,241.9 600.0,210.1 601.0,239.8 602.0,230.6 603.0,218.3 604.0,237.8 605.0,229.6 606.0,217.2 607.0,246.0 608.0,212.1 609.0,210.1 610.0,241.9 611.0,225.5 612.0,208.0 613.0,211.1 614.0,245.0 615.0,234.7 616.0,224.4 617.0,237.8 618.0,230.6 619.0,223.4 620.0,236.8 621.0,229.6 622.0,245.0 623.0,239.8 624.0,235.7 625.0,243.9 626.0,208.0 627.0,213.1 628.0,226.5 629.0,158.7 630.0,208.0 631.0,218.3 632.0,188.5 633.0,202.9 634.0,219.3 635.0,222.4 636.0,233.7 637.0,229.6 638.0,235.7 639.0,240.9 640.0,233.7 641.0,225.5 642.0,228.5 643.0,222.4 644.0,202.9 645.0,242.9 646.0,210.1 647.0,212.1 648.0,239.8 649.0,236.8 650.0,235.7 651.0,213.1 652.0,245.0 653.0,232.6 654.0,208.0 655.0,233.7 656.0,204.9 657.0,237.8 658.0,245.0 659.0,235.7 660.0,220.3 661.0,229.6 662.0,120.7 663.0,229.6 664.0,224.4 665.0,213.1 666.0,228.5 667.0,232.6 668.0,231.6 669.0,215.2 670.0,221.4 671.0,246.0 672.0,240.9 673.0,232.6 674.0,242.9 675.0,214.2 676.0,216.2 677.0,224.4 678.0,246.0 679.0,215.2 680.0,213.1 681.0,222.4 682.0,238.8 683.0,236.8 684.0,231.6 685.0,213.1 686.0,246.0 687.0,246.0 688.0,219.3 689.0,212.1 690.0,191.6 691.0,232.6 692.0,241.9 693.0,221.4 694.0,231.6 695.0,222.4 696.0,223.4 697.0,246.0 698.0,233.7 699.0,195.7 700.0,230.6 701.0,242.9 702.0,219.3 703.0,246.0 704.0,194.6 705.0,156.6 706.0,231.6 707.0,217.2 708.0,240.9 709.0,238.8 710.0,222.4 711.0,239.8 712.0,234.7 713.0,228.5 714.0,215.2 715.0,230.6 716.0,200.8 717.0,243.9 718.0,233.7 719.0,205.9 720.0,210.1 721.0,229.6 722.0,231.6 723.0,213.1 724.0,237.8 725.0,218.3 726.0,235.7 727.0,242.9 728.0,213.1 729.0,240.9 730.0,241.9 731.0,221.4 732.0,229.6 733.0,234.7 734.0,235.7 735.0,233.7 736.0,222.4 737.0,231.6 738.0,225.5 739.0,239.8 740.0,237.8 741.0,227.5 742.0,219.3 743.0,229.6 744.0,236.8 745.0,213.1 746.0,228.5 747.0,221.4 748.0,192.6 749.0,212.1 750.0,246.0 751.0,215.2 752.0,211.1 753.0,235.7 754.0,245.0 755.0,193.6 756.0,233.7 757.0,223.4 758.0,235.7 759.0,242.9 760.0,183.4 761.0,228.5 762.0,241.9 763.0,227.5 764.0,218.3 765.0,245.0 766.0,237.8 767.0,243.9 768.0,234.7 769.0,237.8 770.0,229.6 771.0,213.1 772.0,240.9 773.0,227.5 774.0,211.1 775.0,215.2 776.0,237.8 777.0,215.2 778.0,233.7 779.0,240.9 780.0,205.9 781.0,224.4 782.0,240.9 783.0,232.6 784.0,207.0 785.0,212.1 786.0,245.0 787.0,218.3 788.0,218.3 789.0,197.7 790.0,208.0 791.0,192.6 792.0,228.5 793.0,230.6 794.0,207.0 795.0,201.8 796.0,192.6 797.0,194.6 798.0,236.8 799.0,190.5 800.0,226.5 801.0,188.5 802.0,229.6 803.0,241.9 804.0,221.4 805.0,212.1 806.0,218.3 807.0,191.6 808.0,196.7 809.0,246.0 810.0,226.5 811.0,205.9 812.0,234.7 813.0,221.4 814.0,238.8 815.0,242.9 816.0,222.4 817.0,212.1 818.0,216.2 819.0,234.7 820.0,200.8 821.0,210.1 822.0,230.6 823.0,210.1 824.0,235.7 825.0,230.6 826.0,230.6 827.0,238.8 828.0,229.6 829.0,242.9 830.0,239.8 831.0,217.2 832.0,241.9 833.0,236.8 834.0,211.1 835.0,230.6 836.0,219.3 837.0,225.5 838.0,221.4 839.0,215.2 840.0,198.8 841.0,220.3 842.0,208.0 843.0,205.9 844.0,224.4 845.0,201.8 846.0,210.1 847.0,180.3 848.0,227.5 849.0,218.3 850.0,225.5 851.0,190.5 852.0,232.6 853.0,221.4 854.0,225.5 855.0,219.3 856.0,213.1 857.0,232.6 858.0,239.8 859.0,238.8 860.0,228.5 861.0,237.8 862.0,193.6 863.0,233.7 864.0,246.0 865.0,225.5 866.0,221.4 867.0,194.6 868.0,239.8 869.0,238.8 870.0,211.1 871.0,242.9 872.0,189.5 873.0,236.8 874.0,245.0 875.0,198.8 876.0,246.0 877.0,239.8 878.0,223.4 879.0,209.0 880.0,235.7 881.0,202.9 882.0,246.0 883.0,201.8 884.0,220.3 885.0,230.6 886.0,231.6 887.0,232.6 888.0,233.7 889.0,240.9 890.0,212.1 891.0,183.4 892.0,223.4 893.0,246.0 894.0,237.8 894.0,295.3 893.0,264.5 892.0,249.1 891.0,284.0 890.0,273.7 889.0,277.8 888.0,266.5 887.0,265.5 886.0,285.0 885.0,269.6 884.0,258.3 883.0,256.3 882.0,258.3 881.0,281.9 880.0,263.5 879.0,263.5 878.0,297.4 877.0,263.5 876.0,262.4 875.0,287.1 874.0,269.6 873.0,279.9 872.0,269.6 871.0,257.3 870.0,258.3 869.0,290.2 868.0,287.1 867.0,290.2 866.0,261.4 865.0,263.5 864.0,271.7 863.0,257.3 862.0,262.4 861.0,253.2 860.0,256.3 859.0,287.1 858.0,255.2 857.0,272.7 856.0,253.2 855.0,293.2 854.0,278.9 853.0,289.1 852.0,275.8 851.0,293.2 850.0,268.6 849.0,283.0 848.0,258.3 847.0,281.9 846.0,289.1 845.0,289.1 844.0,291.2 843.0,299.4 842.0,275.8 841.0,275.8 840.0,276.8 839.0,313.8 838.0,275.8 837.0,283.0 836.0,246.0 835.0,291.2 834.0,248.1 833.0,295.3 832.0,262.4 831.0,303.5 830.0,286.1 829.0,256.3 828.0,258.3 827.0,256.3 826.0,248.1 825.0,246.0 824.0,269.6 823.0,247.0 822.0,274.8 821.0,246.0 820.0,284.0 819.0,258.3 818.0,283.0 817.0,253.2 816.0,287.1 815.0,252.2 814.0,283.0 813.0,285.0 812.0,256.3 811.0,275.8 810.0,302.5 809.0,259.4 808.0,298.4 807.0,280.9 806.0,261.4 805.0,260.4 804.0,264.5 803.0,280.9 802.0,273.7 801.0,283.0 800.0,268.6 799.0,275.8 798.0,259.4 797.0,274.8 796.0,258.3 795.0,278.9 794.0,280.9 793.0,256.3 792.0,293.2 791.0,285.0 790.0,257.3 789.0,264.5 788.0,268.6 787.0,287.1 786.0,324.1 785.0,258.3 784.0,281.9 783.0,288.1 782.0,277.8 781.0,271.7 780.0,253.2 779.0,256.3 778.0,267.6 777.0,270.6 776.0,271.7 775.0,264.5 774.0,256.3 773.0,248.1 772.0,259.4 771.0,269.6 770.0,305.6 769.0,267.6 768.0,281.9 767.0,255.2 766.0,272.7 765.0,247.0 764.0,292.2 763.0,304.5 762.0,293.2 761.0,251.1 760.0,276.8 759.0,278.9 758.0,274.8 757.0,271.7 756.0,250.1 755.0,273.7 754.0,252.2 753.0,272.7 752.0,251.1 751.0,261.4 750.0,275.8 749.0,260.4 748.0,271.7 747.0,262.4 746.0,255.2 745.0,258.3 744.0,259.4 743.0,257.3 742.0,252.2 741.0,297.4 740.0,259.4 739.0,289.1 738.0,266.5 737.0,247.0 736.0,274.8 735.0,275.8 734.0,279.9 733.0,269.6 732.0,266.5 731.0,261.4 730.0,268.6 729.0,250.1 728.0,263.5 727.0,283.0 726.0,267.6 725.0,279.9 724.0,258.3 723.0,276.8 722.0,272.7 721.0,262.4 720.0,376.4 719.0,263.5 718.0,250.1 717.0,268.6 716.0,256.3 715.0,261.4 714.0,262.4 713.0,264.5 712.0,248.1 711.0,269.6 710.0,260.4 709.0,265.5 708.0,281.9 707.0,262.4 706.0,263.5 705.0,285.0 704.0,262.4 703.0,261.4 702.0,287.1 701.0,253.2 700.0,263.5 699.0,248.1 698.0,276.8 697.0,264.5 696.0,260.4 695.0,259.4 694.0,253.2 693.0,260.4 692.0,268.6 691.0,257.3 690.0,260.4 689.0,254.2 688.0,266.5 687.0,257.3 686.0,266.5 685.0,257.3 684.0,288.1 683.0,288.1 682.0,279.9 681.0,260.4 680.0,256.3 679.0,257.3 678.0,261.4 677.0,246.0 676.0,290.2 675.0,252.2 674.0,257.3 673.0,246.0 672.0,251.1 671.0,267.6 670.0,262.4 669.0,261.4 668.0,281.9 667.0,279.9 666.0,256.3 665.0,264.5 664.0,248.1 663.0,274.8 662.0,257.3 661.0,258.3 660.0,252.2 659.0,253.2 658.0,266.5 657.0,273.7 656.0,256.3 655.0,257.3 654.0,258.3 653.0,249.1 652.0,260.4 651.0,271.7 650.0,249.1 649.0,279.9 648.0,258.3 647.0,289.1 646.0,285.0 645.0,261.4 644.0,279.9 643.0,262.4 642.0,266.5 641.0,268.6 640.0,271.7 639.0,261.4 638.0,273.7 637.0,265.5 636.0,254.2 635.0,266.5 634.0,273.7 633.0,264.5 632.0,275.8 631.0,266.5 630.0,349.7 629.0,268.6 628.0,369.2 627.0,250.1 626.0,260.4 625.0,296.3 624.0,265.5 623.0,284.0 622.0,322.0 621.0,251.1 620.0,285.0 619.0,253.2 618.0,258.3 617.0,288.1 616.0,286.1 615.0,260.4 614.0,252.2 613.0,290.2 612.0,271.7 611.0,258.3 610.0,262.4 609.0,292.2 608.0,266.5 607.0,259.4 606.0,263.5 605.0,260.4 604.0,291.2 603.0,264.5 602.0,273.7 601.0,322.0 600.0,259.4 599.0,271.7 598.0,267.6 597.0,253.2 596.0,274.8 595.0,255.2 594.0,253.2 593.0,252.2 592.0,248.1 591.0,269.6 590.0,246.0 589.0,292.2 588.0,326.1 587.0,266.5 586.0,254.2 585.0,290.2 584.0,251.1 583.0,256.3 582.0,285.0 581.0,249.1 580.0,246.0 579.0,263.5 578.0,295.3 577.0,269.6 576.0,284.0 575.0,249.1 574.0,263.5 573.0,295.3 572.0,261.4 571.0,254.2 570.0,246.0 569.0,247.0 568.0,249.1 567.0,288.1 566.0,301.5 565.0,265.5 564.0,276.8 563.0,275.8 562.0,273.7 561.0,294.3 560.0,272.7 559.0,247.0 558.0,285.0 557.0,248.1 556.0,267.6 555.0,267.6 554.0,262.4 553.0,261.4 552.0,298.4 551.0,246.0 550.0,260.4 549.0,250.1 548.0,274.8 547.0,256.3 546.0,287.1 545.0,273.7 544.0,259.4 543.0,258.3 542.0,254.2 541.0,286.1 540.0,277.8 539.0,290.2 538.0,286.1 537.0,295.3 536.0,255.2 535.0,260.4 534.0,280.9 533.0,259.4 532.0,268.6 531.0,258.3 530.0,251.1 529.0,256.3 528.0,249.1 527.0,266.5 526.0,277.8 525.0,287.1 524.0,279.9 523.0,286.1 522.0,272.7 521.0,281.9 520.0,293.2 519.0,267.6 518.0,259.4 517.0,283.0 516.0,278.9 515.0,257.3 514.0,257.3 513.0,259.4 512.0,252.2 511.0,283.0 510.0,253.2 509.0,267.6 508.0,301.5 507.0,351.8 506.0,284.0 505.0,263.5 504.0,269.6 503.0,268.6 502.0,263.5 501.0,285.0 500.0,257.3 499.0,261.4 498.0,256.3 497.0,251.1 496.0,263.5 495.0,259.4 494.0,259.4 493.0,253.2 492.0,246.0 491.0,258.3 490.0,246.0 489.0,262.4 488.0,252.2 487.0,280.9 486.0,328.2 485.0,271.7 484.0,251.1 483.0,257.3 482.0,261.4 481.0,257.3 480.0,253.2 479.0,266.5 478.0,248.1 477.0,285.0 476.0,246.0 475.0,261.4 474.0,253.2 473.0,260.4 472.0,256.3 471.0,251.1 470.0,277.8 469.0,246.0 468.0,280.9 467.0,275.8 466.0,268.6 465.0,267.6 464.0,264.5 463.0,248.1 462.0,254.2 461.0,248.1 460.0,278.9 459.0,252.2 458.0,263.5 457.0,248.1 456.0,251.1 455.0,276.8 454.0,278.9 453.0,260.4 452.0,259.4 451.0,247.0 450.0,292.2 449.0,269.6 448.0,250.1 447.0,272.7 446.0,261.4 445.0,252.2 444.0,246.0 443.0,258.3 442.0,247.0 441.0,257.3 440.0,251.1 439.0,261.4 438.0,279.9 437.0,246.0 436.0,276.8 435.0,264.5 434.0,257.3 433.0,248.1 432.0,270.6 431.0,254.2 430.0,252.2 429.0,265.5 428.0,249.1 427.0,256.3 426.0,246.0 425.0,254.2 424.0,285.0 423.0,263.5 422.0,251.1 421.0,247.0 420.0,246.0 419.0,246.0 418.0,271.7 417.0,277.8 416.0,264.5 415.0,268.6 414.0,285.0 413.0,253.2 412.0,253.2 411.0,268.6 410.0,246.0 409.0,257.3 408.0,257.3 407.0,278.9 406.0,276.8 405.0,278.9 404.0,246.0 403.0,248.1 402.0,246.0 401.0,258.3 400.0,251.1 399.0,266.5 398.0,246.0 397.0,246.0 396.0,268.6 395.0,274.8 394.0,278.9 393.0,264.5 392.0,264.5 391.0,281.9 390.0,287.1 389.0,284.0 388.0,257.3 387.0,280.9 386.0,250.1 385.0,265.5 384.0,286.1 383.0,279.9 382.0,247.0 381.0,258.3 380.0,279.9 379.0,265.5 378.0,258.3 377.0,262.4 376.0,255.2 375.0,246.0 374.0,263.5 373.0,255.2 372.0,258.3 371.0,251.1 370.0,246.0 369.0,266.5 368.0,254.2 367.0,250.1 366.0,254.2 365.0,267.6 364.0,268.6 363.0,268.6 362.0,286.1 361.0,256.3 360.0,260.4 359.0,248.1 358.0,252.2 357.0,260.4 356.0,253.2 355.0,299.4 354.0,275.8 353.0,261.4 352.0,251.1 351.0,264.5 350.0,267.6 349.0,285.0 348.0,267.6 347.0,255.2 346.0,252.2 345.0,265.5 344.0,273.7 343.0,251.1 342.0,279.9 341.0,246.0 340.0,248.1 339.0,246.0 338.0,258.3 337.0,277.8 336.0,276.8 335.0,268.6 334.0,259.4 333.0,256.3 332.0,246.0 331.0,249.1 330.0,261.4 329.0,246.0 328.0,306.6 327.0,261.4 326.0,272.7 325.0,260.4 324.0,283.0 323.0,266.5 322.0,275.8 321.0,264.5 320.0,271.7 319.0,297.4 318.0,291.2 317.0,253.2 316.0,278.9 315.0,265.5 314.0,261.4 313.0,268.6 312.0,253.2 311.0,283.0 310.0,285.0 309.0,246.0 308.0,280.9 307.0,259.4 306.0,288.1 305.0,255.2 304.0,261.4 303.0,263.5 302.0,285.0 301.0,273.7 300.0,261.4 299.0,262.4 298.0,278.9 297.0,270.6 296.0,279.9 295.0,261.4 294.0,314.8 293.0,286.1 292.0,255.2 291.0,257.3 290.0,296.3 289.0,262.4 288.0,273.7 287.0,284.0 286.0,250.1 285.0,292.2 284.0,346.7 283.0,264.5 282.0,293.2 281.0,298.4 280.0,248.1 279.0,281.9 278.0,249.1 277.0,257.3 276.0,269.6 275.0,281.9 274.0,271.7 273.0,271.7 272.0,253.2 271.0,270.6 270.0,257.3 269.0,254.2 268.0,251.1 267.0,292.2 266.0,297.4 265.0,273.7 264.0,248.1 263.0,246.0 262.0,270.6 261.0,262.4 260.0,281.9 259.0,252.2 258.0,274.8 257.0,261.4 256.0,246.0 255.0,246.0 254.0,246.0 253.0,246.0 252.0,265.5 251.0,299.4 250.0,246.0 249.0,252.2 248.0,246.0 247.0,286.1 246.0,319.9 245.0,257.3 244.0,246.0 243.0,275.8 242.0,268.6 241.0,262.4 240.0,253.2 239.0,252.2 238.0,256.3 237.0,263.5 236.0,249.1 235.0,258.3 234.0,259.4 233.0,251.1 232.0,260.4 231.0,254.2 230.0,255.2 229.0,266.5 228.0,252.2 227.0,325.1 226.0,261.4 225.0,280.9 224.0,278.9 223.0,285.0 222.0,259.4 221.0,266.5 220.0,257.3 219.0,283.0 218.0,246.0 217.0,265.5 216.0,257.3 215.0,257.3 214.0,252.2 213.0,263.5 212.0,252.2 211.0,268.6 210.0,257.3 209.0,257.3 208.0,256.3 207.0,253.2 206.0,276.8 205.0,247.0 204.0,280.9 203.0,250.1 202.0,246.0 201.0,265.5 200.0,280.9 199.0,256.3 198.0,275.8 197.0,273.7 196.0,264.5 195.0,252.2 194.0,263.5 193.0,272.7 192.0,279.9 191.0,262.4 190.0,256.3 189.0,268.6 188.0,262.4 187.0,255.2 186.0,289.1 185.0,262.4 184.0,246.0 183.0,251.1 182.0,289.1 181.0,246.0 180.0,265.5 179.0,260.4 178.0,277.8 177.0,246.0 176.0,275.8 175.0,255.2 174.0,253.2 173.0,254.2 172.0,296.3 171.0,267.6 170.0,267.6 169.0,267.6 168.0,250.1 167.0,248.1 166.0,246.0 165.0,290.2 164.0,261.4 163.0,268.6 162.0,261.4 161.0,251.1 160.0,258.3 159.0,262.4 158.0,256.3 157.0,270.6 156.0,278.9 155.0,269.6 154.0,271.7 153.0,260.4 152.0,260.4 151.0,261.4 150.0,265.5 149.0,269.6 148.0,297.4 147.0,256.3 146.0,258.3 145.0,262.4 144.0,255.2 143.0,274.8 142.0,253.2 141.0,253.2 140.0,277.8 139.0,257.3 138.0,265.5 137.0,276.8 136.0,257.3 135.0,277.8 134.0,271.7 133.0,257.3 132.0,275.8 131.0,253.2 130.0,265.5 129.0,267.6 128.0,280.9 127.0,285.0 126.0,254.2 125.0,254.2 124.0,283.0 123.0,272.7 122.0,262.4 121.0,289.1 120.0,297.4 119.0,256.3 118.0,264.5 117.0,284.0 116.0,292.2 115.0,278.9 114.0,255.2 113.0,288.1 112.0,265.5 111.0,258.3 110.0,276.8 109.0,257.3 108.0,251.1 107.0,251.1 106.0,283.0 105.0,262.4 104.0,250.1 103.0,264.5 102.0,259.4 101.0,252.2 100.0,272.7 99.0,268.6 98.0,249.1 97.0,265.5 96.0,260.4 95.0,285.0 94.0,246.0 93.0,275.8 92.0,257.3 91.0,280.9 90.0,279.9 89.0,253.2 88.0,247.0 87.0,256.3 86.0,268.6 85.0,273.7 84.0,270.6 83.0,246.0 82.0,280.9 81.0,246.0 80.0,248.1 79.0,267.6 78.0,246.0 77.0,281.9 76.0,268.6" fill="#199e70" fill-opacity="0.35"/>
<polyline points="76.0,246.0 77.0,246.0 78.0,246.0 79.0,246.0 80.0,246.0 81.0,246.0 82.0,246.0 83.0,246.0 84.0,246.0 85.0,246.0 86.0,246.0 87.0,246.0 88.0,246.0 89.0,243.9 90.0,246.0 91.0,246.0 92.0,246.0 93.0,246.0 94.0,246.0 95.0,246.0 96.0,246.0 97.0,246.0 98.0,246.0 99.0,246.0 100.0,246.0 101.0,246.0 102.0,246.0 103.0,246.0 104.0,246.0 105.0,246.0 106.0,246.0 107.0,246.0 108.0,246.0 109.0,246.0 110.0,246.0 111.0,246.0 112.0,246.0 113.0,253.2 114.0,246.0 115.0,246.0 116.0,246.0 117.0,246.0 118.0,242.9 119.0,246.0 120.0,246.0 121.0,246.0 122.0,246.0 123.0,246.0 124.0,246.0 125.0,246.0 126.0,246.0 127.0,246.0 128.0,246.0 129.0,246.0 130.0,246.0 131.0,246.0 132.0,246.0 133.0,246.0 134.0,246.0 135.0,246.0 136.0,246.0 137.0,258.3 138.0,246.0 139.0,246.0 140.0,246.0 141.0,246.0 142.0,246.0 143.0,246.0 144.0,246.0 145.0,259.4 146.0,246.0 147.0,246.0 148.0,245.0 149.0,246.0 150.0,246.0 151.0,246.0 152.0,246.0 153.0,246.0 154.0,246.0 155.0,246.0 156.0,246.0 157.0,246.0 158.0,246.0 159.0,233.7 160.0,246.0 161.0,246.0 162.0,246.0 163.0,246.0 164.0,246.0 165.0,246.0 166.0,246.0 167.0,246.0 168.0,243.9 169.0,246.0 170.0,246.0 171.0,246.0 172.0,246.0 173.0,246.0 174.0,246.0 175.0,246.0 176.0,246.0 177.0,246.0 178.0,246.0 179.0,245.0 180.0,246.0 181.0,246.0 182.0,246.0 183.0,246.0 184.0,246.0 185.0,246.0 186.0,252.2 187.0,246.0 188.0,246.0 189.0,246.0 190.0,246.0 191.0,246.0 192.0,246.0 193.0,229.6 194.0,246.0 195.0,246.0 196.0,246.0 197.0,246.0 198.0,246.0 199.0,246.0 200.0,246.0 201.0,246.0 202.0,246.0 203.0,246.0 204.0,246.0 205.0,246.0 206.0,246.0 207.0,246.0 208.0,246.0 209.0,246.0 210.0,246.0 211.0,246.0 212.0,246.0 213.0,246.0 214.0,246.0 215.0,246.0 216.0,230.6 217.0,246.0 218.0,246.0 219.0,246.0 220.0,246.0 221.0,246.0 222.0,246.0 223.0,246.0 224.0,246.0 225.0,246.0 226.0,246.0 227.0,246.0 228.0,246.0 229.0,246.0 230.0,246.0 231.0,246.0 232.0,246.0 233.0,246.0 234.0,246.0 235.0,246.0 236.0,246.0 237.0,246.0 238.0,246.0 239.0,246.0 240.0,246.0 241.0,246.0 242.0,246.0 243.0,246.0 244.0,246.0 245.0,246.0 246.0,246.0 247.0,246.0 248.0,246.0 249.0,246.0 250.0,246.0 251.0,246.0 252.0,246.0 253.0,246.0 254.0,246.0 255.0,246.0 256.0,246.0 257.0,246.0 258.0,246.0 259.0,246.0 260.0,246.0 261.0,252.2 262.0,246.0 263.0,246.0 264.0,246.0 265.0,246.0 266.0,246.0 267.0,246.0 268.0,246.0 269.0,246.0 270.0,246.0 271.0,246.0 272.0,246.0 273.0,246.0 274.0,230.6 275.0,246.0 276.0,246.0 277.0,246.0 278.0,246.0 279.0,246.0 280.0,246.0 281.0,260.4 282.0,246.0 283.0,246.0 284.0,246.0 285.0,246.0 286.0,246.0 287.0,246.0 288.0,246.0 289.0,233.7 290.0,246.0 291.0,246.0 292.0,246.0 293.0,246.0 294.0,246.0 295.0,253.2 296.0,246.0 297.0,246.0 298.0,246.0 299.0,246.0 300.0,246.0 301.0,246.0 302.0,246.0 303.0,246.0 304.0,246.0 305.0,246.0 306.0,246.0 307.0,246.0 308.0,246.0 309.0,246.0 310.0,246.0 311.0,246.0 312.0,246.0 313.0,246.0 314.0,246.0 315.0,246.0 316.0,246.0 317.0,246.0 318.0,246.0 319.0,246.0 320.0,241.9 321.0,246.0 322.0,246.0 323.0,246.0 324.0,246.0 325.0,246.0 326.0,246.0 327.0,246.0 328.0,246.0 329.0,246.0 330.0,246.0 331.0,246.0 332.0,246.0 333.0,246.0 334.0,246.0 335.0,246.0 336.0,246.0 337.0,246.0 338.0,246.0 339.0,246.0 340.0,248.1 341.0,246.0 342.0,246.0 343.0,246.0 344.0,246.0 345.0,246.0 346.0,246.0 347.0,246.0 348.0,246.0 349.0,246.0 350.0,246.0 351.0,246.0 352.0,246.0 353.0,246.0 354.0,246.0 355.0,246.0 356.0,246.0 357.0,219.3 358.0,246.0 359.0,246.0 360.0,246.0 361.0,246.0 362.0,246.0 363.0,246.0 364.0,246.0 365.0,246.0 366.0,246.0 367.0,246.0 368.0,246.0 369.0,246.0 370.0,246.0 371.0,246.0 372.0,246.0 373.0,230.6 374.0,246.0 375.0,246.0 376.0,246.0 377.0,246.0 378.0,246.0 379.0,246.0 380.0,246.0 381.0,246.0 382.0,246.0 383.0,246.0 384.0,246.0 385.0,246.0 386.0,246.0 387.0,246.0 388.0,246.0 389.0,246.0 390.0,246.0 391.0,246.0 392.0,246.0 393.0,246.0 394.0,246.0 395.0,246.0 396.0,246.0 397.0,242.9 398.0,246.0 399.0,246.0 400.0,246.0 401.0,246.0 402.0,246.0 403.0,246.0 404.0,246.0 405.0,246.0 406.0,246.0 407.0,246.0 408.0,246.0 409.0,246.0 410.0,246.0 411.0,246.0 412.0,246.0 413.0,246.0 414.0,246.0 415.0,246.0 416.0,246.0 417.0,246.0 418.0,246.0 419.0,246.0 420.0,246.0 421.0,246.0 422.0,246.0 423.0,246.0 424.0,246.0 425.0,246.0 426.0,246.0 427.0,246.0 428.0,246.0 429.0,246.0 430.0,246.0 431.0,246.0 432.0,246.0 433.0,246.0 434.0,246.0 435.0,246.0 436.0,246.0 437.0,246.0 438.0,246.0 439.0,246.0 440.0,246.0 441.0,246.0 442.0,246.0 443.0,246.0 444.0,240.9 445.0,246.0 446.0,246.0 447.0,251.1 448.0,246.0 449.0,246.0 450.0,246.0 451.0,246.0 452.0,246.0 453.0,246.0 454.0,246.0 455.0,246.0 456.0,246.0 457.0,246.0 458.0,246.0 459.0,246.0 460.0,246.0 461.0,246.0 462.0,246.0 463.0,246.0 464.0,246.0 465.0,246.0 466.0,246.0 467.0,246.0 468.0,246.0 469.0,246.0 470.0,246.0 471.0,246.0 472.0,246.0 473.0,246.0 474.0,246.0 475.0,246.0 476.0,246.0 477.0,246.0 478.0,246.0 479.0,246.0 480.0,246.0 481.0,246.0 482.0,246.0 483.0,246.0 484.0,246.0 485.0,246.0 486.0,246.0 487.0,246.0 488.0,246.0 489.0,246.0 490.0,246.0 491.0,243.9 492.0,246.0 493.0,246.0 494.0,246.0 495.0,246.0 496.0,246.0 497.0,246.0 498.0,246.0 499.0,246.0 500.0,246.0 501.0,246.0 502.0,246.0 503.0,246.0 504.0,246.0 505.0,246.0 506.0,246.0 507.0,246.0 508.0,246.0 509.0,246.0 510.0,246.0 511.0,246.0 512.0,246.0 513.0,246.0 514.0,246.0 515.0,246.0 516.0,236.8 517.0,246.0 518.0,246.0 519.0,246.0 520.0,246.0 521.0,246.0 522.0,246.0 523.0,246.0 524.0,246.0 525.0,246.0 526.0,246.0 527.0,246.0 528.0,246.0 529.0,246.0 530.0,246.0 531.0,246.0 532.0,246.0 533.0,252.2 534.0,246.0 535.0,246.0 536.0,254.2 537.0,246.0 538.0,246.0 539.0,246.0 540.0,246.0 541.0,246.0 542.0,246.0 543.0,227.5 544.0,246.0 545.0,246.0 546.0,246.0 547.0,246.0 548.0,246.0 549.0,246.0 550.0,246.0 551.0,246.0 552.0,246.0 553.0,246.0 554.0,255.2 555.0,246.0 556.0,246.0 557.0,246.0 558.0,246.0 559.0,246.0 560.0,246.0 561.0,246.0 562.0,246.0 563.0,246.0 564.0,246.0 565.0,232.6 566.0,276.8 567.0,246.0 568.0,246.0 569.0,246.0 570.0,246.0 571.0,246.0 572.0,246.0 573.0,246.0 574.0,246.0 575.0,246.0 576.0,246.0 577.0,246.0 578.0,236.8 579.0,246.0 580.0,246.0 581.0,246.0 582.0,246.0 583.0,246.0 584.0,246.0 585.0,246.0 586.0,246.0 587.0,246.0 588.0,246.0 589.0,246.0 590.0,246.0 591.0,246.0 592.0,246.0 593.0,246.0 594.0,246.0 595.0,246.0 596.0,246.0 597.0,246.0 598.0,246.0 599.0,246.0 600.0,246.0 601.0,246.0 602.0,246.0 603.0,246.0 604.0,246.0 605.0,246.0 606.0,246.0 607.0,246.0 608.0,246.0 609.0,246.0 610.0,246.0 611.0,258.3 612.0,246.0 613.0,246.0 614.0,246.0 615.0,246.0 616.0,246.0 617.0,246.0 618.0,246.0 619.0,246.0 620.0,246.0 621.0,246.0 622.0,246.0 623.0,246.0 624.0,246.0 625.0,246.0 626.0,246.0 627.0,246.0 628.0,246.0 629.0,246.0 630.0,246.0 631.0,246.0 632.0,246.0 633.0,246.0 634.0,246.0 635.0,246.0 636.0,246.0 637.0,246.0 638.0,246.0 639.0,246.0 640.0,246.0 641.0,246.0 642.0,246.0 643.0,246.0 644.0,246.0 645.0,246.0 646.0,246.0 647.0,246.0 648.0,246.0 649.0,246.0 650.0,246.0 651.0,246.0 652.0,246.0 653.0,246.0 654.0,246.0 655.0,246.0 656.0,246.0 657.0,247.0 658.0,246.0 659.0,246.0 660.0,246.0 661.0,246.0 662.0,246.0 663.0,246.0 664.0,246.0 665.0,246.0 666.0,246.0 667.0,246.0 668.0,246.0 669.0,246.0 670.0,246.0 671.0,246.0 672.0,246.0 673.0,246.0 674.0,246.0 675.0,246.0 676.0,246.0 677.0,246.0 678.0,246.0 679.0,246.0 680.0,246.0 681.0,246.0 682.0,246.0 683.0,246.0 684.0,246.0 685.0,246.0 686.0,246.0 687.0,246.0 688.0,246.0 689.0,246.0 690.0,246.0 691.0,246.0 692.0,246.0 693.0,246.0 694.0,246.0 695.0,246.0 696.0,246.0 697.0,246.0 698.0,246.0 699.0,246.0 700.0,246.0 701.0,246.0 702.0,251.1 703.0,246.0 704.0,246.0 705.0,285.0 706.0,246.0 707.0,246.0 708.0,246.0 709.0,246.0 710.0,246.0 711.0,246.0 712.0,246.0 713.0,246.0 714.0,246.0 715.0,246.0 716.0,246.0 717.0,246.0 718.0,246.0 719.0,246.0 720.0,246.0 721.0,246.0 722.0,246.0 723.0,246.0 724.0,246.0 725.0,246.0 726.0,246.0 727.0,246.0 728.0,246.0 729.0,246.0 730.0,246.0 731.0,246.0 732.0,246.0 733.0,246.0 734.0,263.5 735.0,246.0 736.0,246.0 737.0,246.0 738.0,246.0 739.0,246.0 740.0,246.0 741.0,246.0 742.0,246.0 743.0,246.0 744.0,246.0 745.0,246.0 746.0,246.0 747.0,246.0 748.0,236.8 749.0,246.0 750.0,246.0 751.0,246.0 752.0,246.0 753.0,253.2 754.0,246.0 755.0,246.0 756.0,246.0 757.0,223.4 758.0,246.0 759.0,246.0 760.0,246.0 761.0,246.0 762.0,246.0 763.0,246.0 764.0,246.0 765.0,246.0 766.0,246.0 767.0,246.0 768.0,246.0 769.0,246.0 770.0,246.0 771.0,246.0 772.0,246.0 773.0,246.0 774.0,246.0 775.0,246.0 776.0,246.0 777.0,246.0 778.0,246.0 779.0,243.9 780.0,246.0 781.0,246.0 782.0,246.0 783.0,246.0 784.0,246.0 785.0,246.0 786.0,246.0 787.0,246.0 788.0,246.0 789.0,246.0 790.0,246.0 791.0,246.0 792.0,246.0 793.0,246.0 794.0,246.0 795.0,246.0 796.0,246.0 797.0,246.0 798.0,246.0 799.0,246.0 800.0,246.0 801.0,246.0 802.0,246.0 803.0,246.0 804.0,246.0 805.0,246.0 806.0,246.0 807.0,246.0 808.0,246.0 809.0,246.0 810.0,246.0 811.0,246.0 812.0,246.0 813.0,246.0 814.0,246.0 815.0,246.0 816.0,246.0 817.0,246.0 818.0,246.0 819.0,246.0 820.0,246.0 821.0,246.0 822.0,246.0 823.0,246.0 824.0,246.0 825.0,246.0 826.0,246.0 827.0,246.0 828.0,246.0 829.0,246.0 830.0,246.0 831.0,246.0 832.0,246.0 833.0,246.0 834.0,246.0 835.0,246.0 836.0,246.0 837.0,256.3 838.0,246.0 839.0,246.0 840.0,246.0 841.0,238.8 842.0,246.0 843.0,246.0 844.0,246.0 845.0,246.0 846.0,246.0 847.0,246.0 848.0,246.0 849.0,246.0 850.0,246.0 851.0,246.0 852.0,246.0 853.0,246.0 854.0,246.0 855.0,246.0 856.0,246.0 857.0,246.0 858.0,246.0 859.0,246.0 860.0,240.9 861.0,246.0 862.0,246.0 863.0,246.0 864.0,246.0 865.0,246.0 866.0,246.0 867.0,246.0 868.0,246.0 869.0,246.0 870.0,246.0 871.0,246.0 872.0,246.0 873.0,246.0 874.0,246.0 875.0,246.0 876.0,246.0 877.0,246.0 878.0,246.0 879.0,246.0 880.0,246.0 881.0,246.0 882.0,246.0 883.0,246.0 884.0,246.0 885.0,246.0 886.0,246.0 887.0,246.0 888.0,246.0 889.0,246.0 890.0,246.0 891.0,246.0 892.0,246.0 893.0,246.0 894.0,246.0" fill="none" stroke="#199e70" stroke-width="1.0"/>
<text x="76.0" y="452" font-size="12" fill="#c3c2b7" text-anchor="start">Écart maximal : 13 $ — moyenne des écarts absolus : 0,1 $.</text>
<text x="76.0" y="418" font-size="11" fill="#898781" text-anchor="middle">00:00</text>
<text x="212.7" y="418" font-size="11" fill="#898781" text-anchor="middle">04:00</text>
<text x="349.3" y="418" font-size="11" fill="#898781" text-anchor="middle">08:00</text>
<text x="486.0" y="418" font-size="11" fill="#898781" text-anchor="middle">12:00</text>
<text x="622.7" y="418" font-size="11" fill="#898781" text-anchor="middle">16:00</text>
<text x="759.3" y="418" font-size="11" fill="#898781" text-anchor="middle">20:00</text>
<text x="896.0" y="418" font-size="11" fill="#898781" text-anchor="middle">24:00</text>
</svg>
