<svg xmlns="http://www.w3.org/2000/svg" viewBox="0 0 920 470" font-family="system-ui,-apple-system,'Segoe UI',sans-serif" role="img" aria-label="L’écart de clôture entre les deux voies Binance">
<rect width="920" height="470" fill="#0d1117"/>
<text x="76" y="34" font-size="19" fill="#ffffff" text-anchor="start" font-weight="600">L’écart entre les deux historiques, minute par minute</text>
<text x="76" y="56" font-size="12.5" fill="#c3c2b7" text-anchor="start">Clôture voie B − clôture voie A ($), chaque minute des quarante jours — même résolution que la vue d’ensemble</text>
<line x1="76.0" y1="167.9" x2="896.0" y2="167.9" stroke="#21262d"/>
<text x="68.0" y="171.9" font-size="11" fill="#898781" text-anchor="end">+10 $</text>
<line x1="76.0" y1="324.1" x2="896.0" y2="324.1" stroke="#21262d"/>
<text x="68.0" y="328.1" font-size="11" fill="#898781" text-anchor="end">−10 $</text>
<line x1="76.0" y1="246.0" x2="896.0" y2="246.0" stroke="#383835" stroke-width="1.2"/>
<text x="68.0" y="250.0" font-size="11" fill="#898781" text-anchor="end">0</text>
<polygon points="76.0,246.0 77.0,224.1 78.0,240.5 79.0,246.0 80.0,246.0 81.0,239.0 82.0,234.3 83.0,220.2 84.0,246.0 85.0,246.0 86.0,244.4 87.0,241.3 88.0,246.0 89.0,244.4 90.0,217.1 91.0,246.0 92.0,246.0 93.0,231.2 94.0,246.0 95.0,246.0 96.0,246.0 97.0,240.5 98.0,245.2 99.0,246.0 100.0,222.6 101.0,246.0 102.0,246.0 103.0,246.0 104.0,246.0 105.0,244.4 106.0,239.8 107.0,246.0 108.0,242.9 109.0,246.0 110.0,246.0 111.0,244.4 112.0,239.8 113.0,241.3 114.0,246.0 115.0,246.0 116.0,241.3 117.0,225.7 118.0,235.8 119.0,246.0 120.0,240.5 121.0,240.5 122.0,222.6 123.0,246.0 124.0,242.1 125.0,246.0 126.0,232.7 127.0,243.7 128.0,246.0 129.0,246.0 130.0,245.2 131.0,246.0 132.0,228.8 133.0,238.2 134.0,206.2 135.0,232.7 136.0,229.6 137.0,224.1 138.0,221.8 139.0,245.2 140.0,240.5 141.0,241.3 142.0,217.9 143.0,231.2 144.0,226.5 145.0,234.3 146.0,246.0 147.0,226.5 148.0,226.5 149.0,237.4 150.0,246.0 151.0,236.6 152.0,246.0 153.0,246.0 154.0,228.0 155.0,238.2 156.0,246.0 157.0,246.0 158.0,246.0 159.0,246.0 160.0,246.0 161.0,246.0 162.0,246.0 163.0,246.0 164.0,230.4 165.0,235.8 166.0,231.2 167.0,235.8 168.0,240.5 169.0,223.3 170.0,239.0 171.0,236.6 172.0,232.7 173.0,228.8 174.0,205.4 175.0,216.3 176.0,234.3 177.0,229.6 178.0,245.2 179.0,230.4 180.0,239.0 181.0,225.7 182.0,207.7 183.0,217.9 184.0,232.7 185.0,245.2 186.0,218.7 187.0,239.0 188.0,246.0 189.0,246.0 190.0,232.7 191.0,246.0 192.0,224.1 193.0,221.8 194.0,214.0 195.0,219.4 196.0,232.7 197.0,217.9 198.0,242.1 199.0,244.4 200.0,216.3 201.0,226.5 202.0,239.8 203.0,241.3 204.0,228.8 205.0,225.7 206.0,229.6 207.0,246.0 208.0,241.3 209.0,246.0 210.0,224.9 211.0,239.8 212.0,221.8 213.0,246.0 214.0,238.2 215.0,232.7 216.0,214.0 217.0,246.0 218.0,237.4 219.0,225.7 220.0,242.9 221.0,217.1 222.0,245.2 223.0,234.3 224.0,240.5 225.0,246.0 226.0,226.5 227.0,246.0 228.0,236.6 229.0,206.2 230.0,223.3 231.0,213.2 232.0,244.4 233.0,242.1 234.0,246.0 235.0,239.8 236.0,246.0 237.0,221.8 238.0,230.4 239.0,234.3 240.0,226.5 241.0,241.3 242.0,239.8 243.0,245.2 244.0,246.0 245.0,230.4 246.0,246.0 247.0,246.0 248.0,240.5 249.0,246.0 250.0,231.2 251.0,246.0 252.0,240.5 253.0,246.0 254.0,239.0 255.0,237.4 256.0,246.0 257.0,245.2 258.0,237.4 259.0,228.0 260.0,246.0 261.0,238.2 262.0,242.1 263.0,246.0 264.0,218.7 265.0,231.9 266.0,235.8 267.0,246.0 268.0,246.0 269.0,246.0 270.0,239.0 271.0,246.0 272.0,238.2 273.0,246.0 274.0,246.0 275.0,244.4 276.0,233.5 277.0,236.6 278.0,235.8 279.0,239.0 280.0,223.3 281.0,246.0 282.0,246.0 283.0,217.1 284.0,231.2 285.0,219.4 286.0,246.0 287.0,231.2 288.0,235.8 289.0,246.0 290.0,246.0 291.0,246.0 292.0,238.2 293.0,239.0 294.0,246.0 295.0,246.0 296.0,246.0 297.0,244.4 298.0,239.8 299.0,244.4 300.0,246.0 301.0,219.4 302.0,240.5 303.0,246.0 304.0,246.0 305.0,220.2 306.0,246.0 307.0,246.0 308.0,246.0 309.0,224.9 310.0,231.9 311.0,246.0 312.0,234.3 313.0,225.7 314.0,246.0 315.0,233.5 316.0,235.1 317.0,246.0 318.0,246.0 319.0,246.0 320.0,221.0 321.0,246.0 322.0,246.0 323.0,246.0 324.0,246.0 325.0,246.0 326.0,232.7 327.0,239.8 328.0,240.5 329.0,246.0 330.0,235.8 331.0,237.4 332.0,246.0 333.0,243.7 334.0,239.0 335.0,246.0 336.0,246.0 337.0,246.0 338.0,246.0 339.0,246.0 340.0,243.7 341.0,246.0 342.0,241.3 343.0,246.0 344.0,232.7 345.0,234.3 346.0,246.0 347.0,246.0 348.0,246.0 349.0,246.0 350.0,246.0 351.0,246.0 352.0,240.5 353.0,246.0 354.0,207.7 355.0,242.9 356.0,246.0 357.0,246.0 358.0,246.0 359.0,244.4 360.0,218.7 361.0,221.8 362.0,236.6 363.0,246.0 364.0,218.7 365.0,246.0 366.0,236.6 367.0,221.8 368.0,246.0 369.0,246.0 370.0,246.0 371.0,246.0 372.0,238.2 373.0,236.6 374.0,246.0 375.0,246.0 376.0,246.0 377.0,245.2 378.0,246.0 379.0,246.0 380.0,235.1 381.0,224.9 382.0,232.7 383.0,242.9 384.0,246.0 385.0,246.0 386.0,246.0 387.0,239.8 388.0,229.6 389.0,233.5 390.0,246.0 391.0,239.8 392.0,239.8 393.0,246.0 394.0,239.0 395.0,244.4 396.0,236.6 397.0,246.0 398.0,245.2 399.0,246.0 400.0,236.6 401.0,246.0 402.0,246.0 403.0,238.2 404.0,246.0 405.0,210.9 406.0,246.0 407.0,246.0 408.0,246.0 409.0,246.0 410.0,242.9 411.0,246.0 412.0,241.3 413.0,246.0 414.0,239.0 415.0,235.8 416.0,214.0 417.0,246.0 418.0,234.3 419.0,242.1 420.0,237.4 421.0,240.5 422.0,246.0 423.0,243.7 424.0,246.0 425.0,233.5 426.0,226.5 427.0,246.0 428.0,246.0 429.0,217.9 430.0,246.0 431.0,246.0 432.0,238.2 433.0,246.0 434.0,235.8 435.0,246.0 436.0,228.0 437.0,224.1 438.0,216.3 439.0,246.0 440.0,246.0 441.0,246.0 442.0,233.5 443.0,239.8 444.0,246.0 445.0,246.0 446.0,246.0 447.0,226.5 448.0,246.0 449.0,246.0 450.0,246.0 451.0,246.0 452.0,246.0 453.0,242.9 454.0,246.0 455.0,233.5 456.0,233.5 457.0,246.0 458.0,233.5 459.0,214.0 460.0,207.7 461.0,238.2 462.0,246.0 463.0,231.2 464.0,246.0 465.0,243.7 466.0,217.9 467.0,237.4 468.0,246.0 469.0,232.7 470.0,246.0 471.0,246.0 472.0,246.0 473.0,246.0 474.0,246.0 475.0,246.0 476.0,246.0 477.0,246.0 478.0,246.0 479.0,246.0 480.0,241.3 481.0,246.0 482.0,239.8 483.0,241.3 484.0,244.4 485.0,242.9 486.0,227.3 487.0,242.1 488.0,246.0 489.0,237.4 490.0,246.0 491.0,246.0 492.0,246.0 493.0,232.7 494.0,243.7 495.0,246.0 496.0,246.0 497.0,243.7 498.0,246.0 499.0,246.0 500.0,246.0 501.0,242.1 502.0,224.9 503.0,246.0 504.0,228.8 505.0,217.1 506.0,246.0 507.0,242.9 508.0,231.2 509.0,238.2 510.0,246.0 511.0,233.5 512.0,241.3 513.0,221.8 514.0,231.2 515.0,235.1 516.0,246.0 517.0,239.0 518.0,234.3 519.0,243.7 520.0,246.0 521.0,242.1 522.0,246.0 523.0,244.4 524.0,246.0 525.0,246.0 526.0,246.0 527.0,246.0 528.0,244.4 529.0,246.0 530.0,239.8 531.0,233.5 532.0,246.0 533.0,219.4 534.0,246.0 535.0,246.0 536.0,246.0 537.0,242.9 538.0,240.5 539.0,234.3 540.0,235.1 541.0,223.3 542.0,246.0 543.0,237.4 544.0,232.7 545.0,242.9 546.0,217.9 547.0,243.7 548.0,233.5 549.0,243.7 550.0,246.0 551.0,228.0 552.0,246.0 553.0,236.6 554.0,246.0 555.0,246.0 556.0,246.0 557.0,242.9 558.0,241.3 559.0,246.0 560.0,233.5 561.0,246.0 562.0,236.6 563.0,242.1 564.0,238.2 565.0,245.2 566.0,230.4 567.0,246.0 568.0,231.2 569.0,217.9 570.0,244.4 571.0,237.4 572.0,246.0 573.0,246.0 574.0,236.6 575.0,246.0 576.0,246.0 577.0,246.0 578.0,246.0 579.0,232.7 580.0,242.9 581.0,236.6 582.0,224.1 583.0,233.5 584.0,245.2 585.0,246.0 586.0,216.3 587.0,225.7 588.0,244.4 589.0,236.6 590.0,236.6 591.0,242.9 592.0,244.4 593.0,245.2 594.0,246.0 595.0,246.0 596.0,234.3 597.0,242.9 598.0,246.0 599.0,231.9 600.0,228.0 601.0,184.3 602.0,237.4 603.0,231.9 604.0,240.5 605.0,242.1 606.0,219.4 607.0,246.0 608.0,246.0 609.0,235.1 610.0,246.0 611.0,241.3 612.0,239.8 613.0,243.7 614.0,235.1 615.0,246.0 616.0,246.0 617.0,246.0 618.0,242.9 619.0,246.0 620.0,246.0 621.0,239.8 622.0,234.3 623.0,246.0 624.0,222.6 625.0,238.2 626.0,233.5 627.0,246.0 628.0,238.2 629.0,246.0 630.0,246.0 631.0,220.2 632.0,243.7 633.0,246.0 634.0,246.0 635.0,246.0 636.0,223.3 637.0,228.8 638.0,232.7 639.0,239.0 640.0,246.0 641.0,241.3 642.0,246.0 643.0,241.3 644.0,246.0 645.0,232.7 646.0,226.5 647.0,239.0 648.0,229.6 649.0,235.1 650.0,215.5 651.0,242.1 652.0,246.0 653.0,239.8 654.0,224.1 655.0,246.0 656.0,238.2 657.0,246.0 658.0,220.2 659.0,235.8 660.0,220.2 661.0,234.3 662.0,244.4 663.0,246.0 664.0,241.3 665.0,245.2 666.0,238.2 667.0,246.0 668.0,228.8 669.0,246.0 670.0,227.3 671.0,246.0 672.0,246.0 673.0,246.0 674.0,246.0 675.0,236.6 676.0,242.9 677.0,217.9 678.0,244.4 679.0,246.0 680.0,246.0 681.0,224.9 682.0,236.6 683.0,237.4 684.0,228.8 685.0,246.0 686.0,245.2 687.0,226.5 688.0,246.0 689.0,231.2 690.0,246.0 691.0,232.7 692.0,225.7 693.0,246.0 694.0,246.0 695.0,237.4 696.0,241.3 697.0,246.0 698.0,246.0 699.0,246.0 700.0,230.4 701.0,246.0 702.0,235.1 703.0,246.0 704.0,220.2 705.0,242.1 706.0,246.0 707.0,246.0 708.0,238.2 709.0,239.8 710.0,239.8 711.0,225.7 712.0,246.0 713.0,246.0 714.0,227.3 715.0,242.9 716.0,246.0 717.0,235.8 718.0,246.0 719.0,232.7 720.0,223.3 721.0,225.7 722.0,246.0 723.0,235.1 724.0,232.7 725.0,238.2 726.0,246.0 727.0,238.2 728.0,246.0 729.0,246.0 730.0,246.0 731.0,246.0 732.0,246.0 733.0,246.0 734.0,246.0 735.0,237.4 736.0,246.0 737.0,246.0 738.0,246.0 739.0,240.5 740.0,246.0 741.0,246.0 742.0,242.9 743.0,235.8 744.0,246.0 745.0,246.0 746.0,235.1 747.0,246.0 748.0,246.0 749.0,240.5 750.0,239.0 751.0,246.0 752.0,245.2 753.0,245.2 754.0,242.1 755.0,246.0 756.0,246.0 757.0,238.2 758.0,244.4 759.0,246.0 760.0,246.0 761.0,246.0 762.0,235.1 763.0,245.2 764.0,235.8 765.0,228.8 766.0,244.4 767.0,246.0 768.0,238.2 769.0,236.6 770.0,230.4 771.0,244.4 772.0,230.4 773.0,232.7 774.0,217.1 775.0,242.1 776.0,246.0 777.0,246.0 778.0,246.0 779.0,242.9 780.0,236.6 781.0,246.0 782.0,241.3 783.0,246.0 784.0,244.4 785.0,246.0 786.0,246.0 787.0,237.4 788.0,246.0 789.0,246.0 790.0,246.0 791.0,246.0 792.0,236.6 793.0,227.3 794.0,115.6 795.0,241.3 796.0,246.0 797.0,246.0 798.0,246.0 799.0,246.0 800.0,239.8 801.0,246.0 802.0,246.0 803.0,243.7 804.0,232.7 805.0,242.9 806.0,242.9 807.0,207.7 808.0,246.0 809.0,236.6 810.0,239.0 811.0,237.4 812.0,246.0 813.0,246.0 814.0,246.0 815.0,246.0 816.0,246.0 817.0,246.0 818.0,246.0 819.0,233.5 820.0,225.7 821.0,231.2 822.0,246.0 823.0,246.0 824.0,230.4 825.0,246.0 826.0,246.0 827.0,242.9 828.0,246.0 829.0,238.2 830.0,245.2 831.0,234.3 832.0,246.0 833.0,246.0 834.0,240.5 835.0,241.3 836.0,246.0 837.0,246.0 838.0,242.9 839.0,224.1 840.0,239.0 841.0,238.2 842.0,246.0 843.0,228.8 844.0,246.0 845.0,246.0 846.0,241.3 847.0,239.8 848.0,246.0 849.0,224.9 850.0,246.0 851.0,246.0 852.0,222.6 853.0,246.0 854.0,246.0 855.0,237.4 856.0,242.1 857.0,246.0 858.0,246.0 859.0,246.0 860.0,246.0 861.0,246.0 862.0,242.1 863.0,224.1 864.0,245.2 865.0,238.2 866.0,246.0 867.0,240.5 868.0,246.0 869.0,223.3 870.0,242.9 871.0,246.0 872.0,238.2 873.0,241.3 874.0,242.1 875.0,240.5 876.0,244.4 877.0,244.4 878.0,246.0 879.0,246.0 880.0,246.0 881.0,246.0 882.0,246.0 883.0,223.3 884.0,246.0 885.0,246.0 886.0,246.0 887.0,232.7 888.0,238.2 889.0,246.0 890.0,239.8 891.0,246.0 892.0,246.0 893.0,242.1 894.0,246.0 894.0,252.2 893.0,246.8 892.0,246.0 891.0,246.0 890.0,246.0 889.0,246.0 888.0,252.2 887.0,251.5 886.0,246.0 885.0,257.7 884.0,246.0 883.0,246.0 882.0,246.0 881.0,246.0 880.0,246.0 879.0,246.0 878.0,247.6 877.0,246.0 876.0,246.8 875.0,253.8 874.0,256.2 873.0,246.0 872.0,246.0 871.0,246.0 870.0,246.0 869.0,256.2 868.0,246.0 867.0,246.0 866.0,249.1 865.0,246.8 864.0,254.6 863.0,246.0 862.0,246.0 861.0,246.0 860.0,246.0 859.0,246.0 858.0,246.0 857.0,246.0 856.0,271.8 855.0,254.6 854.0,253.8 853.0,252.2 852.0,246.0 851.0,260.8 850.0,246.0 849.0,246.0 848.0,246.0 847.0,246.0 846.0,246.0 845.0,246.0 844.0,267.9 843.0,246.0 842.0,246.8 841.0,257.7 840.0,246.0 839.0,252.2 838.0,269.4 837.0,248.3 836.0,269.4 835.0,252.2 834.0,256.2 833.0,252.2 832.0,260.1 831.0,248.3 830.0,246.0 829.0,255.4 828.0,246.0 827.0,249.1 826.0,246.0 825.0,246.0 824.0,249.9 823.0,253.0 822.0,246.0 821.0,249.1 820.0,246.0 819.0,246.0 818.0,256.9 817.0,246.0 816.0,249.1 815.0,250.7 814.0,267.9 813.0,246.0 812.0,253.8 811.0,270.2 810.0,266.3 809.0,256.2 808.0,246.0 807.0,246.0 806.0,254.6 805.0,246.0 804.0,257.7 803.0,246.0 802.0,259.3 801.0,255.4 800.0,258.5 799.0,246.0 798.0,246.0 797.0,252.2 796.0,246.0 795.0,266.3 794.0,253.8 793.0,249.9 792.0,246.0 791.0,246.8 790.0,264.0 789.0,246.0 788.0,266.3 787.0,246.0 786.0,274.9 785.0,246.0 784.0,256.2 783.0,246.0 782.0,274.1 781.0,263.2 780.0,250.7 779.0,246.0 778.0,267.1 777.0,246.0 776.0,246.0 775.0,246.0 774.0,249.9 773.0,249.9 772.0,257.7 771.0,246.0 770.0,246.0 769.0,260.8 768.0,246.0 767.0,267.1 766.0,246.0 765.0,246.0 764.0,252.2 763.0,251.5 762.0,246.8 761.0,248.3 760.0,246.0 759.0,246.0 758.0,246.0 757.0,250.7 756.0,246.0 755.0,247.6 754.0,253.8 753.0,262.4 752.0,246.0 751.0,256.2 750.0,253.0 749.0,246.8 748.0,261.6 747.0,259.3 746.0,246.8 745.0,246.0 744.0,257.7 743.0,246.0 742.0,249.9 741.0,246.0 740.0,265.5 739.0,246.0 738.0,252.2 737.0,246.0 736.0,251.5 735.0,248.3 734.0,246.0 733.0,258.5 732.0,246.0 731.0,274.9 730.0,257.7 729.0,246.0 728.0,267.9 727.0,246.0 726.0,251.5 725.0,255.4 724.0,254.6 723.0,282.7 722.0,274.9 721.0,246.0 720.0,253.8 719.0,249.1 718.0,246.0 717.0,246.0 716.0,267.9 715.0,246.8 714.0,246.0 713.0,262.4 712.0,271.0 711.0,246.0 710.0,246.0 709.0,246.0 708.0,246.0 707.0,246.0 706.0,246.8 705.0,246.0 704.0,246.0 703.0,246.8 702.0,246.0 701.0,261.6 700.0,250.7 699.0,249.9 698.0,246.0 697.0,253.8 696.0,246.8 695.0,254.6 694.0,246.0 693.0,246.0 692.0,246.0 691.0,278.8 690.0,249.1 689.0,253.8 688.0,248.3 687.0,246.0 686.0,263.2 685.0,246.0 684.0,246.0 683.0,249.9 682.0,253.8 681.0,299.9 680.0,250.7 679.0,246.0 678.0,246.0 677.0,260.1 676.0,246.0 675.0,246.0 674.0,246.0 673.0,246.0 672.0,254.6 671.0,258.5 670.0,246.0 669.0,253.0 668.0,246.0 667.0,246.0 666.0,275.7 665.0,246.0 664.0,246.0 663.0,277.2 662.0,246.0 661.0,266.3 660.0,247.6 659.0,269.4 658.0,253.8 657.0,251.5 656.0,246.0 655.0,246.8 654.0,278.0 653.0,253.8 652.0,246.0 651.0,246.0 650.0,276.5 649.0,249.9 648.0,271.0 647.0,246.0 646.0,246.0 645.0,257.7 644.0,253.0 643.0,246.0 642.0,246.0 641.0,246.0 640.0,246.0 639.0,267.9 638.0,246.0 637.0,251.5 636.0,247.6 635.0,246.0 634.0,246.0 633.0,258.5 632.0,252.2 631.0,246.0 630.0,246.0 629.0,246.0 628.0,246.0 627.0,246.0 626.0,246.0 625.0,246.0 624.0,246.0 623.0,256.2 622.0,246.0 621.0,253.8 620.0,246.0 619.0,246.0 618.0,246.0 617.0,246.0 616.0,246.0 615.0,246.0 614.0,246.0 613.0,249.9 612.0,272.6 611.0,256.9 610.0,246.0 609.0,246.0 608.0,246.0 607.0,251.5 606.0,255.4 605.0,246.0 604.0,248.3 603.0,252.2 602.0,246.0 601.0,251.5 600.0,248.3 599.0,261.6 598.0,255.4 597.0,246.0 596.0,246.0 595.0,246.0 594.0,246.0 593.0,264.0 592.0,246.0 591.0,246.8 590.0,256.2 589.0,246.8 588.0,262.4 587.0,246.0 586.0,270.2 585.0,246.0 584.0,249.1 583.0,260.8 582.0,249.1 581.0,250.7 580.0,258.5 579.0,246.0 578.0,246.0 577.0,246.0 576.0,277.2 575.0,249.9 574.0,246.0 573.0,246.0 572.0,246.0 571.0,246.0 570.0,269.4 569.0,256.9 568.0,272.6 567.0,246.0 566.0,253.0 565.0,246.0 564.0,246.0 563.0,246.0 562.0,246.0 561.0,254.6 560.0,253.8 559.0,246.0 558.0,246.0 557.0,246.0 556.0,281.9 555.0,249.9 554.0,246.0 553.0,260.1 552.0,246.0 551.0,271.8 550.0,251.5 549.0,253.8 548.0,253.0 547.0,280.4 546.0,246.0 545.0,249.9 544.0,246.0 543.0,246.0 542.0,246.0 541.0,246.0 540.0,246.0 539.0,259.3 538.0,250.7 537.0,246.0 536.0,246.0 535.0,246.0 534.0,262.4 533.0,251.5 532.0,246.0 531.0,246.0 530.0,257.7 529.0,275.7 528.0,258.5 527.0,246.0 526.0,246.0 525.0,253.8 524.0,246.0 523.0,246.0 522.0,248.3 521.0,247.6 520.0,249.1 519.0,260.8 518.0,246.0 517.0,246.0 516.0,246.0 515.0,246.0 514.0,246.0 513.0,249.1 512.0,246.8 511.0,246.0 510.0,249.9 509.0,246.0 508.0,277.2 507.0,263.2 506.0,269.4 505.0,257.7 504.0,273.3 503.0,252.2 502.0,257.7 501.0,250.7 500.0,252.2 499.0,246.0 498.0,246.0 497.0,246.0 496.0,246.0 495.0,256.2 494.0,264.0 493.0,246.0 492.0,246.0 491.0,246.0 490.0,251.5 489.0,246.0 488.0,246.8 487.0,246.0 486.0,246.0 485.0,253.8 484.0,246.0 483.0,253.0 482.0,254.6 481.0,248.3 480.0,274.9 479.0,246.0 478.0,256.9 477.0,251.5 476.0,246.0 475.0,246.0 474.0,246.0 473.0,246.0 472.0,246.0 471.0,246.0 470.0,250.7 469.0,264.7 468.0,246.0 467.0,246.0 466.0,256.2 465.0,246.0 464.0,246.0 463.0,269.4 462.0,253.0 461.0,263.2 460.0,246.0 459.0,246.0 458.0,246.0 457.0,252.2 456.0,267.9 455.0,246.0 454.0,265.5 453.0,246.0 452.0,269.4 451.0,258.5 450.0,246.0 449.0,246.0 448.0,278.8 447.0,246.0 446.0,250.7 445.0,246.0 444.0,278.8 443.0,264.0 442.0,248.3 441.0,254.6 440.0,246.0 439.0,253.0 438.0,246.0 437.0,246.0 436.0,254.6 435.0,268.7 434.0,261.6 433.0,246.0 432.0,246.0 431.0,246.0 430.0,246.0 429.0,246.0 428.0,246.0 427.0,259.3 426.0,257.7 425.0,249.9 424.0,246.0 423.0,267.9 422.0,246.0 421.0,246.0 420.0,246.0 419.0,249.1 418.0,246.0 417.0,266.3 416.0,255.4 415.0,259.3 414.0,249.1 413.0,248.3 412.0,246.0 411.0,246.8 410.0,246.0 409.0,247.6 408.0,246.0 407.0,246.0 406.0,246.0 405.0,246.0 404.0,246.0 403.0,261.6 402.0,254.6 401.0,246.0 400.0,246.0 399.0,246.0 398.0,246.0 397.0,251.5 396.0,253.8 395.0,259.3 394.0,258.5 393.0,246.0 392.0,246.0 391.0,250.7 390.0,255.4 389.0,250.7 388.0,247.6 387.0,246.0 386.0,246.0 385.0,252.2 384.0,251.5 383.0,249.9 382.0,246.0 381.0,261.6 380.0,249.9 379.0,246.0 378.0,266.3 377.0,246.8 376.0,250.7 375.0,246.0 374.0,259.3 373.0,269.4 372.0,246.0 371.0,254.6 370.0,246.0 369.0,252.2 368.0,268.7 367.0,260.8 366.0,246.0 365.0,246.0 364.0,260.1 363.0,251.5 362.0,249.1 361.0,255.4 360.0,246.0 359.0,246.0 358.0,246.0 357.0,246.0 356.0,246.0 355.0,261.6 354.0,246.0 353.0,246.0 352.0,246.0 351.0,246.0 350.0,246.0 349.0,246.0 348.0,246.0 347.0,254.6 346.0,246.0 345.0,246.0 344.0,260.1 343.0,246.0 342.0,246.0 341.0,246.0 340.0,246.0 339.0,246.0 338.0,249.1 337.0,246.0 336.0,246.0 335.0,246.0 334.0,246.0 333.0,246.0 332.0,246.0 331.0,255.4 330.0,257.7 329.0,247.6 328.0,246.0 327.0,246.0 326.0,246.0 325.0,264.0 324.0,246.0 323.0,253.0 322.0,260.8 321.0,250.7 320.0,246.0 319.0,246.0 318.0,246.0 317.0,246.0 316.0,252.2 315.0,246.0 314.0,252.2 313.0,262.4 312.0,246.0 311.0,260.8 310.0,264.0 309.0,254.6 308.0,246.0 307.0,246.0 306.0,246.0 305.0,246.0 304.0,246.0 303.0,248.3 302.0,253.8 301.0,246.0 300.0,246.0 299.0,255.4 298.0,246.0 297.0,246.0 296.0,258.5 295.0,246.0 294.0,253.0 293.0,246.0 292.0,253.8 291.0,280.4 290.0,246.0 289.0,246.0 288.0,255.4 287.0,246.0 286.0,264.0 285.0,246.0 284.0,285.1 283.0,252.2 282.0,253.8 281.0,256.2 280.0,246.8 279.0,246.8 278.0,261.6 277.0,246.0 276.0,262.4 275.0,271.0 274.0,260.1 273.0,246.0 272.0,249.9 271.0,246.8 270.0,248.3 269.0,246.0 268.0,250.7 267.0,260.1 266.0,246.0 265.0,246.0 264.0,247.6 263.0,246.0 262.0,253.8 261.0,270.2 260.0,250.7 259.0,248.3 258.0,253.0 257.0,246.0 256.0,246.0 255.0,252.2 254.0,246.0 253.0,267.9 252.0,252.2 251.0,257.7 250.0,267.1 249.0,246.0 248.0,256.2 247.0,251.5 246.0,247.6 245.0,246.0 244.0,246.0 243.0,253.0 242.0,246.0 241.0,274.1 240.0,255.4 239.0,249.9 238.0,246.0 237.0,274.9 236.0,246.0 235.0,246.0 234.0,246.0 233.0,246.0 232.0,254.6 231.0,256.9 230.0,264.7 229.0,253.0 228.0,248.3 227.0,252.2 226.0,260.1 225.0,267.9 224.0,250.7 223.0,248.3 222.0,246.0 221.0,256.2 220.0,262.4 219.0,274.9 218.0,247.6 217.0,274.1 216.0,255.4 215.0,261.6 214.0,254.6 213.0,246.0 212.0,246.0 211.0,268.7 210.0,246.0 209.0,268.7 208.0,246.0 207.0,259.3 206.0,246.0 205.0,253.0 204.0,251.5 203.0,246.0 202.0,253.8 201.0,269.4 200.0,256.9 199.0,279.6 198.0,273.3 197.0,247.6 196.0,246.0 195.0,267.9 194.0,262.4 193.0,256.2 192.0,246.0 191.0,255.4 190.0,273.3 189.0,286.6 188.0,252.2 187.0,277.2 186.0,263.2 185.0,253.0 184.0,249.1 183.0,253.0 182.0,271.0 181.0,281.1 180.0,254.6 179.0,288.2 178.0,275.7 177.0,273.3 176.0,289.7 175.0,246.0 174.0,257.7 173.0,259.3 172.0,248.3 171.0,246.0 170.0,277.2 169.0,253.0 168.0,256.2 167.0,247.6 166.0,246.0 165.0,272.6 164.0,271.8 163.0,246.0 162.0,278.0 161.0,261.6 160.0,254.6 159.0,264.0 158.0,254.6 157.0,264.7 156.0,247.6 155.0,246.0 154.0,256.9 153.0,255.4 152.0,246.0 151.0,254.6 150.0,246.0 149.0,265.5 148.0,246.0 147.0,246.0 146.0,267.1 145.0,247.6 144.0,271.8 143.0,249.9 142.0,259.3 141.0,246.0 140.0,246.0 139.0,262.4 138.0,260.8 137.0,246.0 136.0,256.9 135.0,263.2 134.0,250.7 133.0,249.1 132.0,252.2 131.0,249.9 130.0,281.9 129.0,271.0 128.0,246.0 127.0,250.7 126.0,248.3 125.0,246.0 124.0,266.3 123.0,246.0 122.0,328.0 121.0,253.8 120.0,246.0 119.0,246.0 118.0,252.2 117.0,260.1 116.0,263.2 115.0,247.6 114.0,281.1 113.0,246.0 112.0,246.0 111.0,246.0 110.0,253.0 109.0,257.7 108.0,246.0 107.0,253.0 106.0,246.0 105.0,256.2 104.0,248.3 103.0,246.0 102.0,246.0 101.0,253.0 100.0,267.9 99.0,246.0 98.0,246.0 97.0,246.0 96.0,247.6 95.0,246.0 94.0,246.0 93.0,246.0 92.0,246.0 91.0,246.0 90.0,252.2 89.0,246.0 88.0,246.0 87.0,253.8 86.0,246.0 85.0,246.0 84.0,251.5 83.0,246.8 82.0,246.0 81.0,246.8 80.0,246.0 79.0,246.0 78.0,255.4 77.0,246.0 76.0,271.8" fill="#199e70" fill-opacity="0.35"/>
<polyline points="76.0,246.0 77.0,246.0 78.0,246.0 79.0,246.0 80.0,246.0 81.0,246.0 82.0,246.0 83.0,246.0 84.0,246.0 85.0,246.0 86.0,246.0 87.0,246.0 88.0,246.0 89.0,246.0 90.0,246.0 91.0,246.0 92.0,246.0 93.0,231.2 94.0,246.0 95.0,246.0 96.0,246.0 97.0,246.0 98.0,246.0 99.0,246.0 100.0,246.0 101.0,246.0 102.0,246.0 103.0,246.0 104.0,246.0 105.0,246.0 106.0,246.0 107.0,246.0 108.0,246.0 109.0,246.0 110.0,246.0 111.0,246.0 112.0,246.0 113.0,246.0 114.0,246.0 115.0,246.0 116.0,246.0 117.0,246.0 118.0,246.0 119.0,246.0 120.0,246.0 121.0,246.0 122.0,246.0 123.0,246.0 124.0,246.0 125.0,246.0 126.0,246.0 127.0,246.0 128.0,246.0 129.0,246.0 130.0,246.0 131.0,246.0 132.0,246.0 133.0,246.0 134.0,246.0 135.0,246.0 136.0,246.0 137.0,246.0 138.0,260.8 139.0,246.0 140.0,246.0 141.0,246.0 142.0,246.0 143.0,246.0 144.0,246.0 145.0,246.0 146.0,246.0 147.0,246.0 148.0,246.0 149.0,246.0 150.0,246.0 151.0,246.0 152.0,246.0 153.0,246.0 154.0,246.0 155.0,246.0 156.0,246.0 157.0,246.0 158.0,246.0 159.0,246.0 160.0,246.0 161.0,246.0 162.0,246.0 163.0,246.0 164.0,246.0 165.0,246.0 166.0,246.0 167.0,246.0 168.0,246.0 169.0,246.0 170.0,246.0 171.0,246.0 172.0,246.0 173.0,246.0 174.0,246.0 175.0,246.0 176.0,246.0 177.0,246.0 178.0,246.0 179.0,246.0 180.0,246.0 181.0,246.0 182.0,246.0 183.0,246.0 184.0,246.0 185.0,246.0 186.0,246.0 187.0,246.0 188.0,246.0 189.0,246.0 190.0,269.4 191.0,246.0 192.0,246.0 193.0,246.0 194.0,246.0 195.0,246.0 196.0,246.0 197.0,246.0 198.0,246.0 199.0,246.0 200.0,246.0 201.0,246.0 202.0,246.0 203.0,246.0 204.0,246.0 205.0,246.0 206.0,229.6 207.0,246.0 208.0,246.0 209.0,246.0 210.0,246.0 211.0,246.0 212.0,246.0 213.0,246.0 214.0,246.0 215.0,246.0 216.0,246.0 217.0,246.0 218.0,246.0 219.0,246.0 220.0,246.0 221.0,246.0 222.0,246.0 223.0,246.0 224.0,246.0 225.0,246.0 226.0,246.0 227.0,246.0 228.0,246.0 229.0,246.0 230.0,246.0 231.0,246.0 232.0,246.0 233.0,246.0 234.0,246.0 235.0,246.0 236.0,246.0 237.0,239.8 238.0,246.0 239.0,246.0 240.0,246.0 241.0,241.3 242.0,246.0 243.0,246.0 244.0,246.0 245.0,246.0 246.0,246.0 247.0,246.0 248.0,246.0 249.0,246.0 250.0,240.5 251.0,246.0 252.0,246.0 253.0,246.0 254.0,246.0 255.0,246.0 256.0,246.0 257.0,246.0 258.0,246.0 259.0,246.0 260.0,246.0 261.0,246.0 262.0,246.0 263.0,246.0 264.0,246.0 265.0,246.0 266.0,246.0 267.0,246.0 268.0,246.0 269.0,246.0 270.0,246.0 271.0,246.0 272.0,246.0 273.0,246.0 274.0,246.0 275.0,246.0 276.0,246.0 277.0,246.0 278.0,246.0 279.0,246.0 280.0,246.0 281.0,246.0 282.0,246.0 283.0,246.0 284.0,246.0 285.0,246.0 286.0,246.0 287.0,246.0 288.0,246.0 289.0,246.0 290.0,246.0 291.0,246.0 292.0,246.0 293.0,246.0 294.0,246.0 295.0,246.0 296.0,246.0 297.0,246.0 298.0,246.0 299.0,246.0 300.0,246.0 301.0,246.0 302.0,246.0 303.0,246.0 304.0,246.0 305.0,246.0 306.0,246.0 307.0,246.0 308.0,246.0 309.0,246.0 310.0,246.0 311.0,246.0 312.0,246.0 313.0,246.0 314.0,246.0 315.0,246.0 316.0,246.0 317.0,246.0 318.0,246.0 319.0,246.0 320.0,246.0 321.0,246.0 322.0,246.0 323.0,246.0 324.0,246.0 325.0,246.0 326.0,246.0 327.0,246.0 328.0,246.0 329.0,246.0 330.0,246.0 331.0,246.0 332.0,246.0 333.0,246.0 334.0,246.0 335.0,246.0 336.0,246.0 337.0,246.0 338.0,246.0 339.0,246.0 340.0,246.0 341.0,246.0 342.0,246.0 343.0,246.0 344.0,246.0 345.0,246.0 346.0,246.0 347.0,246.0 348.0,246.0 349.0,246.0 350.0,246.0 351.0,246.0 352.0,246.0 353.0,246.0 354.0,246.0 355.0,246.0 356.0,246.0 357.0,246.0 358.0,246.0 359.0,246.0 360.0,246.0 361.0,246.0 362.0,246.0 363.0,246.0 364.0,246.0 365.0,246.0 366.0,246.0 367.0,246.0 368.0,246.0 369.0,246.0 370.0,246.0 371.0,246.0 372.0,246.0 373.0,246.0 374.0,246.0 375.0,246.0 376.0,246.0 377.0,246.0 378.0,246.0 379.0,246.0 380.0,246.0 381.0,246.0 382.0,246.0 383.0,242.9 384.0,246.0 385.0,246.0 386.0,246.0 387.0,246.0 388.0,246.0 389.0,246.0 390.0,246.0 391.0,246.0 392.0,246.0 393.0,246.0 394.0,246.0 395.0,246.0 396.0,246.0 397.0,246.0 398.0,246.0 399.0,246.0 400.0,246.0 401.0,246.0 402.0,246.0 403.0,246.0 404.0,246.0 405.0,246.0 406.0,246.0 407.0,246.0 408.0,246.0 409.0,246.0 410.0,246.0 411.0,246.0 412.0,246.0 413.0,246.0 414.0,246.0 415.0,246.0 416.0,246.0 417.0,246.0 418.0,246.0 419.0,246.0 420.0,246.0 421.0,246.0 422.0,246.0 423.0,246.0 424.0,246.0 425.0,246.0 426.0,246.0 427.0,246.0 428.0,246.0 429.0,246.0 430.0,246.0 431.0,246.0 432.0,246.0 433.0,246.0 434.0,246.0 435.0,246.0 436.0,246.0 437.0,246.0 438.0,246.0 439.0,246.0 440.0,246.0 441.0,246.0 442.0,246.0 443.0,246.0 444.0,246.0 445.0,246.0 446.0,246.0 447.0,246.0 448.0,246.0 449.0,246.0 450.0,246.0 451.0,246.0 452.0,246.0 453.0,246.0 454.0,246.0 455.0,246.0 456.0,246.0 457.0,246.0 458.0,246.0 459.0,246.0 460.0,246.0 461.0,246.0 462.0,246.0 463.0,246.0 464.0,246.0 465.0,246.0 466.0,246.0 467.0,246.0 468.0,246.0 469.0,246.0 470.0,246.0 471.0,246.0 472.0,246.0 473.0,246.0 474.0,246.0 475.0,246.0 476.0,246.0 477.0,246.0 478.0,246.0 479.0,246.0 480.0,246.0 481.0,246.0 482.0,246.0 483.0,246.0 484.0,246.0 485.0,246.0 486.0,246.0 487.0,246.0 488.0,246.0 489.0,246.0 490.0,246.0 491.0,246.0 492.0,246.0 493.0,246.0 494.0,246.0 495.0,246.0 496.0,246.0 497.0,246.0 498.0,246.0 499.0,246.0 500.0,246.0 501.0,246.0 502.0,246.0 503.0,246.0 504.0,246.0 505.0,246.0 506.0,246.0 507.0,246.0 508.0,246.0 509.0,246.0 510.0,246.0 511.0,246.0 512.0,246.0 513.0,246.0 514.0,246.0 515.0,246.0 516.0,246.0 517.0,246.0 518.0,246.0 519.0,246.0 520.0,246.0 521.0,246.0 522.0,246.0 523.0,246.0 524.0,246.0 525.0,246.0 526.0,246.0 527.0,246.0 528.0,246.0 529.0,246.0 530.0,246.0 531.0,246.0 532.0,246.0 533.0,246.0 534.0,246.0 535.0,246.0 536.0,246.0 537.0,246.0 538.0,247.6 539.0,246.0 540.0,246.0 541.0,246.0 542.0,246.0 543.0,246.0 544.0,246.0 545.0,246.0 546.0,246.0 547.0,280.4 548.0,246.0 549.0,246.0 550.0,246.0 551.0,246.0 552.0,246.0 553.0,246.0 554.0,246.0 555.0,246.0 556.0,246.0 557.0,246.0 558.0,246.0 559.0,246.0 560.0,246.0 561.0,246.0 562.0,246.0 563.0,246.0 564.0,246.0 565.0,246.0 566.0,246.0 567.0,246.0 568.0,246.0 569.0,246.0 570.0,246.0 571.0,246.0 572.0,246.0 573.0,246.0 574.0,246.0 575.0,246.0 576.0,277.2 577.0,246.0 578.0,246.0 579.0,246.0 580.0,246.0 581.0,246.0 582.0,246.0 583.0,246.0 584.0,246.0 585.0,246.0 586.0,246.0 587.0,246.0 588.0,246.0 589.0,246.0 590.0,246.0 591.0,246.0 592.0,246.0 593.0,246.0 594.0,246.0 595.0,246.0 596.0,246.0 597.0,246.0 598.0,246.0 599.0,246.0 600.0,246.0 601.0,246.0 602.0,246.0 603.0,246.0 604.0,246.0 605.0,246.0 606.0,246.0 607.0,246.0 608.0,246.0 609.0,246.0 610.0,246.0 611.0,246.0 612.0,246.0 613.0,246.0 614.0,246.0 615.0,246.0 616.0,246.0 617.0,246.0 618.0,246.0 619.0,246.0 620.0,246.0 621.0,246.0 622.0,246.0 623.0,246.0 624.0,246.0 625.0,246.0 626.0,246.0 627.0,246.0 628.0,246.0 629.0,246.0 630.0,246.0 631.0,246.0 632.0,246.0 633.0,246.0 634.0,246.0 635.0,246.0 636.0,246.0 637.0,246.0 638.0,246.0 639.0,246.0 640.0,246.0 641.0,246.0 642.0,246.0 643.0,246.0 644.0,246.0 645.0,246.0 646.0,246.0 647.0,246.0 648.0,246.0 649.0,246.0 650.0,246.0 651.0,246.0 652.0,246.0 653.0,246.0 654.0,246.0 655.0,246.0 656.0,246.0 657.0,246.0 658.0,246.0 659.0,246.0 660.0,246.0 661.0,246.0 662.0,246.0 663.0,246.0 664.0,246.0 665.0,246.0 666.0,246.0 667.0,246.0 668.0,246.0 669.0,246.0 670.0,246.0 671.0,246.0 672.0,246.0 673.0,246.0 674.0,246.0 675.0,246.0 676.0,246.0 677.0,246.0 678.0,246.0 679.0,246.0 680.0,250.7 681.0,246.0 682.0,246.0 683.0,246.0 684.0,246.0 685.0,246.0 686.0,246.0 687.0,246.0 688.0,246.0 689.0,252.2 690.0,246.0 691.0,246.0 692.0,246.0 693.0,246.0 694.0,246.0 695.0,246.0 696.0,246.0 697.0,246.0 698.0,246.0 699.0,246.0 700.0,246.0 701.0,246.0 702.0,246.0 703.0,246.0 704.0,246.0 705.0,246.0 706.0,246.0 707.0,246.0 708.0,246.0 709.0,246.0 710.0,246.0 711.0,246.0 712.0,246.0 713.0,246.0 714.0,246.0 715.0,246.0 716.0,246.0 717.0,246.0 718.0,246.0 719.0,249.1 720.0,246.0 721.0,246.0 722.0,246.0 723.0,246.0 724.0,246.0 725.0,246.0 726.0,246.0 727.0,246.0 728.0,246.0 729.0,246.0 730.0,246.0 731.0,246.0 732.0,246.0 733.0,246.0 734.0,246.0 735.0,246.0 736.0,246.0 737.0,246.0 738.0,246.0 739.0,246.0 740.0,246.0 741.0,246.0 742.0,246.0 743.0,246.0 744.0,246.0 745.0,246.0 746.0,246.0 747.0,259.3 748.0,246.0 749.0,246.0 750.0,246.0 751.0,246.0 752.0,246.0 753.0,246.0 754.0,246.0 755.0,246.0 756.0,246.0 757.0,246.0 758.0,246.0 759.0,246.0 760.0,246.0 761.0,246.0 762.0,246.0 763.0,246.0 764.0,246.0 765.0,246.0 766.0,246.0 767.0,246.0 768.0,246.0 769.0,246.0 770.0,246.0 771.0,246.0 772.0,246.0 773.0,246.0 774.0,246.0 775.0,246.0 776.0,246.0 777.0,246.0 778.0,246.0 779.0,246.0 780.0,246.0 781.0,246.0 782.0,246.0 783.0,246.0 784.0,246.0 785.0,246.0 786.0,246.0 787.0,246.0 788.0,246.0 789.0,246.0 790.0,264.0 791.0,246.0 792.0,246.0 793.0,246.0 794.0,246.0 795.0,246.0 796.0,246.0 797.0,246.0 798.0,246.0 799.0,246.0 800.0,246.0 801.0,246.0 802.0,246.0 803.0,246.0 804.0,246.0 805.0,246.0 806.0,246.0 807.0,246.0 808.0,246.0 809.0,246.0 810.0,246.0 811.0,246.0 812.0,246.0 813.0,246.0 814.0,246.0 815.0,246.0 816.0,246.0 817.0,246.0 818.0,246.0 819.0,246.0 820.0,246.0 821.0,246.0 822.0,246.0 823.0,246.0 824.0,246.0 825.0,246.0 826.0,246.0 827.0,249.1 828.0,246.0 829.0,246.0 830.0,246.0 831.0,246.0 832.0,246.0 833.0,246.0 834.0,246.0 835.0,246.0 836.0,246.0 837.0,246.0 838.0,246.0 839.0,246.0 840.0,246.0 841.0,246.0 842.0,246.0 843.0,228.8 844.0,246.0 845.0,246.0 846.0,246.0 847.0,246.0 848.0,246.0 849.0,246.0 850.0,246.0 851.0,246.0 852.0,246.0 853.0,246.0 854.0,246.0 855.0,246.0 856.0,246.0 857.0,246.0 858.0,246.0 859.0,246.0 860.0,246.0 861.0,246.0 862.0,246.0 863.0,246.0 864.0,246.0 865.0,246.0 866.0,246.0 867.0,246.0 868.0,246.0 869.0,246.0 870.0,246.0 871.0,246.0 872.0,246.0 873.0,246.0 874.0,246.0 875.0,246.0 876.0,246.0 877.0,246.0 878.0,246.0 879.0,246.0 880.0,246.0 881.0,246.0 882.0,246.0 883.0,246.0 884.0,246.0 885.0,246.0 886.0,246.0 887.0,246.0 888.0,246.0 889.0,246.0 890.0,246.0 891.0,246.0 892.0,246.0 893.0,246.0 894.0,246.0" fill="none" stroke="#199e70" stroke-width="1.0"/>
<text x="76.0" y="452" font-size="12" fill="#c3c2b7" text-anchor="start">Écart maximal : 17 $ — moyenne des écarts absolus : 0,0 $.</text>
<text x="76.0" y="418" font-size="11" fill="#898781" text-anchor="middle">1er juin</text>
<text x="219.5" y="418" font-size="11" fill="#898781" text-anchor="middle">8 juin</text>
<text x="363.0" y="418" font-size="11" fill="#898781" text-anchor="middle">15 juin</text>
<text x="506.5" y="418" font-size="11" fill="#898781" text-anchor="middle">22 juin</text>
<text x="650.0" y="418" font-size="11" fill="#898781" text-anchor="middle">29 juin</text>
<text x="793.5" y="418" font-size="11" fill="#898781" text-anchor="middle">6 juil.</text>
<text x="875.5" y="418" font-size="11" fill="#898781" text-anchor="middle">10 juil.</text>
</svg>
