<svg xmlns="http://www.w3.org/2000/svg" viewBox="0 0 920 520" font-family="system-ui,-apple-system,'Segoe UI',sans-serif" role="img" aria-label="L’historique complet Bitget par les deux voies, superposées">
<rect width="920" height="520" fill="#0d1117"/>
<text x="76" y="34" font-size="19" fill="#ffffff" text-anchor="start" font-weight="600">Quarante jours, deux historiques superposés</text>
<text x="76" y="56" font-size="12.5" fill="#c3c2b7" text-anchor="start">BTCUSDT perpétuel Bitget, 1er juin → 10 juil. 2026 (UTC) — bande high-low et clôture de chaque minute, voie B tracée par-dessus la voie A</text>
<rect x="76" y="70" width="10" height="10" rx="2" fill="#3987e5"/>
<text x="92" y="79" font-size="12" fill="#ffffff" text-anchor="start">voie A — archives officielles</text>
<rect x="360" y="70" width="10" height="10" rx="2" fill="#199e70"/>
<text x="376" y="79" font-size="12" fill="#ffffff" text-anchor="start">voie B — chandelles 1 m de l’API de marché</text>
<line x1="76.0" y1="381.5" x2="896.0" y2="381.5" stroke="#21262d"/>
<text x="68.0" y="385.5" font-size="11" fill="#898781" text-anchor="end">60 000</text>
<line x1="76.0" y1="285.5" x2="896.0" y2="285.5" stroke="#21262d"/>
<text x="68.0" y="289.5" font-size="11" fill="#898781" text-anchor="end">65 000</text>
<line x1="76.0" y1="189.5" x2="896.0" y2="189.5" stroke="#21262d"/>
<text x="68.0" y="193.5" font-size="11" fill="#898781" text-anchor="end">70 000</text>
<polygon points="76.0,111.6 77.0,119.8 78.0,113.1 79.0,113.7 80.0,121.1 81.0,124.1 82.0,128.5 83.0,131.6 84.0,130.5 85.0,136.1 86.0,136.5 87.0,146.7 88.0,153.3 89.0,160.0 90.0,155.5 91.0,155.3 92.0,157.9 93.0,157.4 94.0,164.0 95.0,161.5 96.0,159.4 97.0,163.4 98.0,171.7 99.0,169.8 100.0,169.9 101.0,175.2 102.0,181.6 103.0,185.2 104.0,192.7 105.0,194.5 106.0,197.3 107.0,200.6 108.0,207.1 109.0,223.0 110.0,225.6 111.0,231.3 112.0,234.9 113.0,238.0 114.0,229.9 115.0,233.4 116.0,249.9 117.0,243.8 118.0,246.7 119.0,250.5 120.0,254.9 121.0,240.2 122.0,237.9 123.0,241.1 124.0,243.1 125.0,238.5 126.0,239.9 127.0,244.5 128.0,242.9 129.0,247.6 130.0,253.6 131.0,263.1 132.0,263.0 133.0,264.1 134.0,274.3 135.0,269.6 136.0,280.5 137.0,293.1 138.0,312.0 139.0,312.5 140.0,293.3 141.0,290.7 142.0,296.1 143.0,296.9 144.0,304.4 145.0,309.8 146.0,321.6 147.0,319.4 148.0,305.7 149.0,295.7 150.0,297.4 151.0,305.3 152.0,310.6 153.0,303.0 154.0,302.3 155.0,307.6 156.0,310.8 157.0,306.6 158.0,305.5 159.0,313.5 160.0,325.3 161.0,319.6 162.0,311.2 163.0,331.5 164.0,322.2 165.0,319.2 166.0,322.0 167.0,329.9 168.0,334.7 169.0,337.2 170.0,359.1 171.0,351.9 172.0,353.1 173.0,362.6 174.0,373.2 175.0,343.4 176.0,343.5 177.0,344.0 178.0,352.8 179.0,355.5 180.0,359.3 181.0,364.0 182.0,362.6 183.0,357.4 184.0,358.6 185.0,353.4 186.0,354.8 187.0,366.2 188.0,361.0 189.0,358.9 190.0,361.8 191.0,362.8 192.0,363.5 193.0,366.7 194.0,366.9 195.0,368.5 196.0,362.6 197.0,365.3 198.0,363.8 199.0,350.4 200.0,350.1 201.0,347.9 202.0,346.4 203.0,340.4 204.0,338.5 205.0,335.2 206.0,325.2 207.0,331.5 208.0,329.3 209.0,330.9 210.0,345.3 211.0,337.5 212.0,337.4 213.0,337.4 214.0,338.1 215.0,340.9 216.0,343.4 217.0,299.2 218.0,316.7 219.0,307.7 220.0,309.4 221.0,319.3 222.0,315.6 223.0,324.0 224.0,321.6 225.0,317.7 226.0,317.9 227.0,313.4 228.0,313.5 229.0,307.6 230.0,306.3 231.0,306.3 232.0,301.3 233.0,304.4 234.0,311.8 235.0,311.2 236.0,313.7 237.0,307.9 238.0,309.2 239.0,313.1 240.0,321.0 241.0,326.8 242.0,325.0 243.0,316.3 244.0,314.5 245.0,314.8 246.0,317.5 247.0,324.2 248.0,328.3 249.0,327.7 250.0,326.5 251.0,330.5 252.0,345.6 253.0,354.6 254.0,345.4 255.0,344.3 256.0,341.3 257.0,338.3 258.0,344.4 259.0,344.1 260.0,345.9 261.0,344.2 262.0,346.8 263.0,351.5 264.0,352.8 265.0,353.6 266.0,347.5 267.0,348.1 268.0,354.8 269.0,354.0 270.0,344.2 271.0,336.4 272.0,335.0 273.0,327.2 274.0,332.0 275.0,339.9 276.0,343.1 277.0,342.2 278.0,346.8 279.0,351.8 280.0,343.8 281.0,339.3 282.0,336.4 283.0,332.3 284.0,327.3 285.0,329.7 286.0,324.5 287.0,325.5 288.0,323.2 289.0,324.8 290.0,319.5 291.0,320.8 292.0,319.9 293.0,323.1 294.0,326.6 295.0,312.6 296.0,309.4 297.0,306.7 298.0,313.0 299.0,311.7 300.0,309.8 301.0,309.4 302.0,310.6 303.0,309.5 304.0,309.6 305.0,308.1 306.0,315.8 307.0,320.4 308.0,312.4 309.0,305.9 310.0,307.6 311.0,307.7 312.0,314.1 313.0,305.2 314.0,297.6 315.0,303.2 316.0,306.6 317.0,306.9 318.0,310.4 319.0,312.3 320.0,311.6 321.0,312.8 322.0,311.0 323.0,308.2 324.0,310.5 325.0,312.0 326.0,312.7 327.0,310.1 328.0,307.4 329.0,307.0 330.0,306.9 331.0,305.9 332.0,301.2 333.0,300.7 334.0,299.1 335.0,298.7 336.0,302.3 337.0,299.9 338.0,299.0 339.0,299.4 340.0,290.6 341.0,293.9 342.0,294.2 343.0,291.8 344.0,293.2 345.0,294.7 346.0,296.4 347.0,295.6 348.0,296.7 349.0,295.3 350.0,293.5 351.0,292.6 352.0,293.0 353.0,297.5 354.0,298.6 355.0,302.4 356.0,301.1 357.0,305.9 358.0,307.9 359.0,303.7 360.0,273.1 361.0,273.5 362.0,268.5 363.0,271.3 364.0,271.3 365.0,266.3 366.0,267.7 367.0,268.5 368.0,266.7 369.0,267.2 370.0,270.7 371.0,267.6 372.0,259.6 373.0,251.8 374.0,248.7 375.0,250.8 376.0,242.0 377.0,243.9 378.0,249.1 379.0,249.9 380.0,253.8 381.0,257.8 382.0,259.7 383.0,258.1 384.0,259.0 385.0,263.7 386.0,261.5 387.0,264.5 388.0,255.8 389.0,256.6 390.0,247.8 391.0,251.5 392.0,253.4 393.0,251.1 394.0,257.2 395.0,261.8 396.0,266.9 397.0,269.3 398.0,261.8 399.0,268.2 400.0,269.4 401.0,268.2 402.0,269.2 403.0,270.6 404.0,269.8 405.0,264.2 406.0,268.6 407.0,265.8 408.0,268.3 409.0,269.1 410.0,274.8 411.0,284.3 412.0,286.1 413.0,288.5 414.0,283.9 415.0,277.3 416.0,276.3 417.0,258.6 418.0,263.2 419.0,265.5 420.0,278.1 421.0,295.9 422.0,296.9 423.0,295.2 424.0,291.8 425.0,289.4 426.0,290.4 427.0,297.6 428.0,304.6 429.0,302.7 430.0,295.4 431.0,292.7 432.0,296.1 433.0,300.6 434.0,298.8 435.0,296.6 436.0,301.3 437.0,310.7 438.0,328.0 439.0,325.3 440.0,324.5 441.0,319.2 442.0,322.1 443.0,325.5 444.0,324.1 445.0,322.6 446.0,322.4 447.0,323.9 448.0,326.1 449.0,327.2 450.0,326.0 451.0,328.7 452.0,330.8 453.0,332.2 454.0,330.3 455.0,324.6 456.0,316.6 457.0,316.5 458.0,317.1 459.0,320.1 460.0,321.1 461.0,321.8 462.0,319.1 463.0,317.5 464.0,311.6 465.0,309.6 466.0,312.6 467.0,315.0 468.0,313.5 469.0,307.1 470.0,309.9 471.0,309.1 472.0,313.5 473.0,309.3 474.0,310.2 475.0,309.1 476.0,311.9 477.0,302.2 478.0,297.8 479.0,303.4 480.0,305.1 481.0,305.9 482.0,305.6 483.0,302.1 484.0,298.5 485.0,298.9 486.0,299.3 487.0,299.3 488.0,296.1 489.0,294.0 490.0,298.3 491.0,299.1 492.0,300.3 493.0,300.4 494.0,296.1 495.0,296.3 496.0,301.2 497.0,302.2 498.0,298.3 499.0,300.2 500.0,301.0 501.0,299.4 502.0,300.2 503.0,302.9 504.0,306.3 505.0,307.9 506.0,303.5 507.0,289.2 508.0,293.9 509.0,298.1 510.0,298.8 511.0,299.0 512.0,297.5 513.0,298.6 514.0,299.9 515.0,290.7 516.0,282.0 517.0,274.3 518.0,278.1 519.0,283.6 520.0,289.6 521.0,290.9 522.0,295.6 523.0,292.4 524.0,297.1 525.0,299.8 526.0,304.2 527.0,299.9 528.0,300.0 529.0,301.3 530.0,303.9 531.0,312.8 532.0,322.6 533.0,324.7 534.0,333.8 535.0,332.4 536.0,331.4 537.0,334.5 538.0,327.3 539.0,331.7 540.0,327.8 541.0,330.4 542.0,335.5 543.0,333.0 544.0,331.5 545.0,328.8 546.0,328.0 547.0,324.0 548.0,322.1 549.0,328.2 550.0,327.5 551.0,323.1 552.0,326.2 553.0,327.4 554.0,328.1 555.0,329.9 556.0,324.7 557.0,319.9 558.0,331.6 559.0,354.3 560.0,359.8 561.0,370.9 562.0,383.2 563.0,382.0 564.0,358.7 565.0,357.5 566.0,362.0 567.0,359.6 568.0,363.6 569.0,363.1 570.0,364.6 571.0,348.5 572.0,347.1 573.0,344.3 574.0,344.9 575.0,347.8 576.0,348.5 577.0,355.1 578.0,347.5 579.0,360.8 580.0,385.9 581.0,379.6 582.0,385.9 583.0,386.6 584.0,386.8 585.0,381.6 586.0,376.4 587.0,378.1 588.0,383.7 589.0,389.2 590.0,390.8 591.0,377.2 592.0,381.2 593.0,373.2 594.0,367.3 595.0,374.9 596.0,379.6 597.0,389.7 598.0,381.5 599.0,376.1 600.0,377.1 601.0,370.6 602.0,374.5 603.0,378.9 604.0,380.0 605.0,385.3 606.0,380.9 607.0,379.6 608.0,378.1 609.0,380.5 610.0,373.9 611.0,373.1 612.0,372.7 613.0,374.9 614.0,372.1 615.0,371.0 616.0,372.2 617.0,372.7 618.0,374.1 619.0,369.5 620.0,367.9 621.0,363.8 622.0,365.6 623.0,369.3 624.0,370.4 625.0,376.2 626.0,372.6 627.0,376.9 628.0,375.8 629.0,378.2 630.0,375.3 631.0,376.6 632.0,377.4 633.0,378.7 634.0,378.4 635.0,377.0 636.0,371.3 637.0,374.2 638.0,374.7 639.0,372.9 640.0,378.4 641.0,377.1 642.0,380.2 643.0,384.7 644.0,387.6 645.0,387.7 646.0,386.2 647.0,383.6 648.0,384.8 649.0,385.2 650.0,387.6 651.0,378.4 652.0,377.6 653.0,382.2 654.0,375.4 655.0,378.4 656.0,379.7 657.0,375.8 658.0,376.0 659.0,366.9 660.0,374.4 661.0,387.5 662.0,382.7 663.0,372.6 664.0,368.8 665.0,372.7 666.0,371.4 667.0,370.6 668.0,371.8 669.0,375.0 670.0,377.5 671.0,381.0 672.0,381.2 673.0,387.7 674.0,388.1 675.0,387.0 676.0,390.0 677.0,392.4 678.0,392.9 679.0,393.1 680.0,397.5 681.0,395.7 682.0,398.2 683.0,404.9 684.0,408.2 685.0,406.7 686.0,403.3 687.0,403.6 688.0,404.8 689.0,407.7 690.0,406.0 691.0,401.0 692.0,397.9 693.0,394.8 694.0,392.3 695.0,397.3 696.0,404.5 697.0,401.2 698.0,399.3 699.0,405.1 700.0,406.1 701.0,396.6 702.0,380.4 703.0,371.5 704.0,376.9 705.0,377.4 706.0,375.2 707.0,377.7 708.0,365.6 709.0,356.0 710.0,374.8 711.0,381.6 712.0,373.9 713.0,363.7 714.0,360.4 715.0,365.1 716.0,369.4 717.0,374.1 718.0,361.4 719.0,354.3 720.0,355.6 721.0,349.4 722.0,339.9 723.0,346.5 724.0,347.0 725.0,344.3 726.0,346.2 727.0,349.3 728.0,350.2 729.0,351.0 730.0,351.1 731.0,351.1 732.0,348.6 733.0,349.9 734.0,351.6 735.0,347.1 736.0,346.3 737.0,346.1 738.0,345.5 739.0,347.8 740.0,341.9 741.0,340.3 742.0,340.1 743.0,338.1 744.0,336.0 745.0,338.2 746.0,338.5 747.0,337.7 748.0,326.3 749.0,325.3 750.0,329.9 751.0,325.6 752.0,328.1 753.0,332.8 754.0,329.4 755.0,329.3 756.0,331.9 757.0,331.4 758.0,331.9 759.0,330.5 760.0,333.5 761.0,332.4 762.0,330.2 763.0,328.7 764.0,322.6 765.0,324.4 766.0,316.3 767.0,317.9 768.0,315.4 769.0,316.0 770.0,315.8 771.0,319.9 772.0,320.4 773.0,323.6 774.0,328.2 775.0,326.7 776.0,325.3 777.0,327.8 778.0,322.4 779.0,323.1 780.0,326.4 781.0,328.1 782.0,328.9 783.0,327.9 784.0,325.3 785.0,325.5 786.0,327.9 787.0,328.4 788.0,326.7 789.0,327.4 790.0,320.0 791.0,305.3 792.0,306.4 793.0,306.7 794.0,307.6 795.0,315.0 796.0,316.7 797.0,319.7 798.0,322.7 799.0,319.6 800.0,325.2 801.0,323.6 802.0,324.4 803.0,339.7 804.0,335.5 805.0,332.5 806.0,307.8 807.0,305.8 808.0,307.4 809.0,307.4 810.0,291.0 811.0,294.9 812.0,298.5 813.0,299.1 814.0,303.3 815.0,307.6 816.0,317.2 817.0,319.3 818.0,316.7 819.0,315.7 820.0,319.5 821.0,315.0 822.0,316.9 823.0,307.6 824.0,313.7 825.0,312.2 826.0,303.1 827.0,300.5 828.0,300.8 829.0,302.6 830.0,307.0 831.0,307.7 832.0,310.8 833.0,310.8 834.0,309.7 835.0,320.3 836.0,322.5 837.0,326.2 838.0,327.2 839.0,327.3 840.0,325.4 841.0,337.0 842.0,339.5 843.0,335.5 844.0,336.4 845.0,340.1 846.0,342.6 847.0,341.8 848.0,335.8 849.0,336.8 850.0,337.7 851.0,338.4 852.0,336.8 853.0,336.9 854.0,337.5 855.0,331.1 856.0,341.5 857.0,337.7 858.0,331.6 859.0,326.4 860.0,318.9 861.0,322.9 862.0,323.5 863.0,325.5 864.0,325.3 865.0,319.7 866.0,320.5 867.0,319.4 868.0,327.0 869.0,314.8 870.0,317.2 871.0,316.8 872.0,316.9 873.0,316.3 874.0,318.2 875.0,315.6 876.0,304.2 877.0,304.5 878.0,302.0 879.0,301.6 880.0,305.2 881.0,297.6 882.0,296.3 883.0,296.0 884.0,293.7 885.0,295.4 886.0,291.8 887.0,301.0 888.0,300.7 889.0,301.6 890.0,304.9 891.0,304.2 892.0,303.2 893.0,302.0 894.0,301.1 894.0,304.9 893.0,305.7 892.0,310.5 891.0,311.8 890.0,310.3 889.0,308.6 888.0,308.7 887.0,307.4 886.0,309.3 885.0,302.2 884.0,299.1 883.0,300.5 882.0,303.6 881.0,307.2 880.0,309.3 879.0,307.6 878.0,308.3 877.0,309.0 876.0,317.5 875.0,326.2 874.0,325.4 873.0,323.4 872.0,320.7 871.0,321.2 870.0,321.6 869.0,329.2 868.0,333.1 867.0,329.2 866.0,331.1 865.0,333.8 864.0,335.1 863.0,332.1 862.0,328.9 861.0,328.2 860.0,328.5 859.0,335.2 858.0,339.3 857.0,346.4 856.0,349.5 855.0,347.8 854.0,342.6 853.0,340.5 852.0,342.5 851.0,344.7 850.0,342.2 849.0,343.0 848.0,343.0 847.0,351.4 846.0,352.5 845.0,350.7 844.0,346.6 843.0,342.6 842.0,345.5 841.0,348.7 840.0,346.5 839.0,334.6 838.0,334.5 837.0,330.7 836.0,330.2 835.0,333.5 834.0,326.1 833.0,318.8 832.0,317.3 831.0,320.6 830.0,312.7 829.0,317.2 828.0,306.2 827.0,309.2 826.0,316.2 825.0,331.0 824.0,324.9 823.0,321.6 822.0,322.6 821.0,321.6 820.0,324.8 819.0,323.4 818.0,324.7 817.0,328.6 816.0,321.7 815.0,319.5 814.0,309.7 813.0,305.3 812.0,304.4 811.0,302.1 810.0,312.0 809.0,313.2 808.0,313.3 807.0,313.9 806.0,336.7 805.0,346.0 804.0,356.9 803.0,352.4 802.0,346.3 801.0,331.2 800.0,331.6 799.0,327.6 798.0,326.6 797.0,325.5 796.0,321.0 795.0,322.0 794.0,317.2 793.0,318.1 792.0,316.3 791.0,324.2 790.0,332.1 789.0,330.3 788.0,330.0 787.0,332.3 786.0,332.1 785.0,330.9 784.0,331.2 783.0,331.3 782.0,332.9 781.0,332.1 780.0,335.4 779.0,326.9 778.0,330.0 777.0,331.1 776.0,330.9 775.0,331.1 774.0,332.3 773.0,328.6 772.0,326.7 771.0,325.9 770.0,320.9 769.0,321.6 768.0,322.3 767.0,322.6 766.0,328.5 765.0,328.9 764.0,331.7 763.0,333.4 762.0,333.3 761.0,334.9 760.0,335.2 759.0,335.7 758.0,334.6 757.0,337.4 756.0,335.5 755.0,332.4 754.0,334.7 753.0,335.8 752.0,336.2 751.0,333.5 750.0,333.7 749.0,334.1 748.0,340.3 747.0,341.0 746.0,341.7 745.0,345.6 744.0,347.3 743.0,349.6 742.0,345.5 741.0,346.2 740.0,350.0 739.0,352.2 738.0,353.0 737.0,350.4 736.0,351.1 735.0,355.5 734.0,356.4 733.0,357.2 732.0,357.4 731.0,358.1 730.0,356.1 729.0,353.1 728.0,356.4 727.0,355.2 726.0,350.4 725.0,355.2 724.0,360.3 723.0,355.5 722.0,352.7 721.0,360.3 720.0,360.6 719.0,365.5 718.0,374.9 717.0,380.0 716.0,378.8 715.0,374.1 714.0,368.5 713.0,376.4 712.0,382.0 711.0,389.9 710.0,386.8 709.0,376.4 708.0,380.3 707.0,384.5 706.0,380.6 705.0,383.9 704.0,386.3 703.0,391.4 702.0,398.2 701.0,414.2 700.0,413.4 699.0,409.3 698.0,407.1 697.0,411.2 696.0,409.0 695.0,410.2 694.0,398.6 693.0,404.2 692.0,407.8 691.0,424.4 690.0,414.6 689.0,410.5 688.0,410.8 687.0,409.7 686.0,409.1 685.0,413.8 684.0,414.5 683.0,415.4 682.0,416.9 681.0,416.1 680.0,414.5 679.0,399.0 678.0,395.6 677.0,397.7 676.0,393.9 675.0,392.4 674.0,394.4 673.0,393.0 672.0,389.3 671.0,386.7 670.0,388.3 669.0,379.4 668.0,375.4 667.0,377.1 666.0,376.2 665.0,379.0 664.0,375.9 663.0,390.0 662.0,399.4 661.0,401.2 660.0,391.1 659.0,389.9 658.0,384.3 657.0,386.3 656.0,387.1 655.0,383.7 654.0,388.9 653.0,393.9 652.0,384.5 651.0,403.3 650.0,397.4 649.0,401.2 648.0,403.5 647.0,397.9 646.0,391.1 645.0,396.0 644.0,391.6 643.0,393.8 642.0,389.6 641.0,384.4 640.0,382.7 639.0,381.8 638.0,379.8 637.0,380.8 636.0,377.9 635.0,380.1 634.0,385.8 633.0,386.8 632.0,380.3 631.0,380.1 630.0,381.0 629.0,382.4 628.0,383.1 627.0,385.3 626.0,379.3 625.0,380.6 624.0,379.4 623.0,373.5 622.0,374.2 621.0,371.3 620.0,372.5 619.0,376.4 618.0,378.4 617.0,375.9 616.0,376.7 615.0,375.0 614.0,376.6 613.0,379.9 612.0,378.3 611.0,378.8 610.0,383.5 609.0,383.3 608.0,384.4 607.0,384.7 606.0,388.1 605.0,390.1 604.0,390.7 603.0,389.4 602.0,383.0 601.0,382.8 600.0,393.8 599.0,410.8 598.0,402.1 597.0,396.6 596.0,392.4 595.0,380.7 594.0,378.8 593.0,387.9 592.0,387.4 591.0,393.9 590.0,414.2 589.0,413.6 588.0,392.9 587.0,387.1 586.0,387.2 585.0,394.7 584.0,397.7 583.0,398.0 582.0,398.3 581.0,398.6 580.0,403.9 579.0,418.8 578.0,365.2 577.0,360.2 576.0,361.8 575.0,351.4 574.0,349.5 573.0,350.3 572.0,353.1 571.0,367.0 570.0,369.1 569.0,368.8 568.0,368.5 567.0,365.6 566.0,366.7 565.0,369.4 564.0,384.2 563.0,393.1 562.0,399.4 561.0,394.8 560.0,377.6 559.0,365.7 558.0,359.3 557.0,332.5 556.0,338.1 555.0,335.0 554.0,331.3 553.0,332.0 552.0,330.4 551.0,330.2 550.0,333.6 549.0,335.0 548.0,330.8 547.0,329.5 546.0,334.3 545.0,333.7 544.0,336.6 543.0,338.5 542.0,341.8 541.0,338.6 540.0,337.5 539.0,340.3 538.0,339.5 537.0,344.5 536.0,336.6 535.0,339.1 534.0,337.5 533.0,345.5 532.0,330.5 531.0,332.9 530.0,314.1 529.0,306.0 528.0,307.4 527.0,306.9 526.0,308.6 525.0,309.5 524.0,302.6 523.0,298.3 522.0,299.8 521.0,298.0 520.0,298.2 519.0,293.2 518.0,289.4 517.0,287.3 516.0,294.4 515.0,303.8 514.0,304.4 513.0,304.6 512.0,304.4 511.0,306.4 510.0,306.2 509.0,307.8 508.0,307.4 507.0,308.2 506.0,317.3 505.0,319.5 504.0,313.6 503.0,314.9 502.0,304.2 501.0,305.5 500.0,306.6 499.0,304.6 498.0,305.2 497.0,305.4 496.0,306.6 495.0,305.4 494.0,301.5 493.0,306.9 492.0,307.4 491.0,302.1 490.0,301.8 489.0,300.9 488.0,300.9 487.0,301.3 486.0,301.4 485.0,301.0 484.0,304.0 483.0,306.9 482.0,308.2 481.0,309.5 480.0,310.7 479.0,308.0 478.0,307.3 477.0,321.0 476.0,319.3 475.0,314.4 474.0,313.2 473.0,314.2 472.0,317.0 471.0,315.4 470.0,313.3 469.0,314.3 468.0,316.9 467.0,318.5 466.0,317.2 465.0,316.0 464.0,319.4 463.0,323.7 462.0,324.0 461.0,325.8 460.0,324.8 459.0,327.2 458.0,326.3 457.0,324.3 456.0,329.5 455.0,337.0 454.0,335.1 453.0,336.7 452.0,337.8 451.0,334.3 450.0,330.9 449.0,333.3 448.0,335.9 447.0,336.5 446.0,327.1 445.0,327.6 444.0,328.5 443.0,329.6 442.0,327.2 441.0,325.9 440.0,332.1 439.0,333.9 438.0,338.7 437.0,338.2 436.0,313.7 435.0,309.5 434.0,307.5 433.0,307.0 432.0,307.0 431.0,299.5 430.0,305.0 429.0,308.2 428.0,311.2 427.0,309.0 426.0,298.4 425.0,296.2 424.0,296.8 423.0,300.5 422.0,307.0 421.0,302.0 420.0,304.6 419.0,290.2 418.0,279.3 417.0,278.0 416.0,290.7 415.0,289.2 414.0,294.2 413.0,294.5 412.0,290.7 411.0,289.3 410.0,287.2 409.0,276.9 408.0,272.0 407.0,271.0 406.0,272.5 405.0,273.6 404.0,277.2 403.0,274.3 402.0,273.2 401.0,273.7 400.0,275.4 399.0,275.5 398.0,272.4 397.0,272.5 396.0,272.9 395.0,279.2 394.0,268.2 393.0,260.0 392.0,259.5 391.0,258.0 390.0,260.3 389.0,261.1 388.0,266.0 387.0,270.6 386.0,272.0 385.0,273.7 384.0,264.3 383.0,262.5 382.0,264.7 381.0,265.2 380.0,260.7 379.0,260.5 378.0,253.4 377.0,254.2 376.0,252.0 375.0,259.2 374.0,261.5 373.0,263.7 372.0,270.2 371.0,276.2 370.0,276.5 369.0,274.3 368.0,273.0 367.0,274.3 366.0,274.5 365.0,278.3 364.0,277.7 363.0,279.5 362.0,276.7 361.0,287.5 360.0,305.3 359.0,310.1 358.0,310.5 357.0,311.4 356.0,306.9 355.0,305.4 354.0,307.9 353.0,300.6 352.0,299.2 351.0,296.5 350.0,299.2 349.0,297.9 348.0,301.0 347.0,300.8 346.0,299.8 345.0,296.6 344.0,296.5 343.0,295.8 342.0,298.3 341.0,297.3 340.0,300.7 339.0,301.2 338.0,302.7 337.0,306.2 336.0,307.1 335.0,306.1 334.0,303.0 333.0,304.3 332.0,307.0 331.0,309.4 330.0,310.8 329.0,309.5 328.0,310.7 327.0,313.9 326.0,314.9 325.0,315.2 324.0,316.5 323.0,312.0 322.0,314.7 321.0,316.3 320.0,316.0 319.0,316.9 318.0,316.5 317.0,312.4 316.0,311.5 315.0,311.1 314.0,314.7 313.0,322.6 312.0,323.7 311.0,316.0 310.0,313.5 309.0,315.3 308.0,322.7 307.0,325.8 306.0,327.6 305.0,316.9 304.0,317.8 303.0,315.5 302.0,318.8 301.0,314.6 300.0,317.8 299.0,316.2 298.0,319.5 297.0,317.2 296.0,318.4 295.0,337.2 294.0,333.2 293.0,333.5 292.0,330.9 291.0,334.3 290.0,325.2 289.0,328.6 288.0,328.7 287.0,332.3 286.0,332.2 285.0,333.4 284.0,336.0 283.0,343.8 282.0,344.9 281.0,348.0 280.0,359.8 279.0,361.1 278.0,359.0 277.0,349.7 276.0,351.4 275.0,350.4 274.0,345.2 273.0,347.4 272.0,347.3 271.0,354.5 270.0,365.2 269.0,365.7 268.0,368.3 267.0,359.7 266.0,355.6 265.0,360.2 264.0,361.5 263.0,356.5 262.0,358.5 261.0,351.8 260.0,354.7 259.0,352.4 258.0,350.3 257.0,344.5 256.0,349.2 255.0,351.6 254.0,367.1 253.0,365.6 252.0,360.1 251.0,347.8 250.0,335.4 249.0,334.2 248.0,332.4 247.0,331.9 246.0,329.0 245.0,320.3 244.0,322.3 243.0,329.4 242.0,333.4 241.0,332.8 240.0,336.1 239.0,325.0 238.0,320.5 237.0,317.5 236.0,321.6 235.0,318.1 234.0,319.6 233.0,318.5 232.0,311.6 231.0,316.6 230.0,321.4 229.0,330.3 228.0,323.7 227.0,322.2 226.0,324.9 225.0,328.2 224.0,336.1 223.0,334.2 222.0,328.5 221.0,326.3 220.0,330.1 219.0,322.5 218.0,328.7 217.0,350.5 216.0,354.1 215.0,359.5 214.0,342.6 213.0,344.1 212.0,347.1 211.0,349.9 210.0,350.3 209.0,352.1 208.0,338.3 207.0,337.9 206.0,336.4 205.0,342.7 204.0,351.3 203.0,350.7 202.0,353.8 201.0,359.2 200.0,359.5 199.0,368.0 198.0,371.4 197.0,373.9 196.0,370.1 195.0,372.2 194.0,373.8 193.0,374.4 192.0,373.3 191.0,374.7 190.0,367.6 189.0,370.0 188.0,369.9 187.0,378.3 186.0,368.3 185.0,365.4 184.0,369.1 183.0,370.5 182.0,392.1 181.0,380.6 180.0,369.3 179.0,364.0 178.0,372.1 177.0,372.4 176.0,359.0 175.0,383.4 174.0,399.1 173.0,396.3 172.0,369.6 171.0,386.5 170.0,375.8 169.0,373.6 168.0,351.2 167.0,344.1 166.0,336.6 165.0,338.5 164.0,355.8 163.0,360.6 162.0,336.4 161.0,334.4 160.0,337.3 159.0,329.3 158.0,323.7 157.0,317.4 156.0,320.9 155.0,323.3 154.0,321.1 153.0,321.3 152.0,325.7 151.0,316.1 150.0,311.4 149.0,312.1 148.0,323.7 147.0,340.1 146.0,339.6 145.0,330.2 144.0,320.0 143.0,315.8 142.0,312.3 141.0,311.6 140.0,317.1 139.0,356.0 138.0,335.9 137.0,323.5 136.0,298.6 135.0,284.2 134.0,291.1 133.0,281.6 132.0,271.7 131.0,274.7 130.0,275.5 129.0,258.9 128.0,254.7 127.0,251.9 126.0,245.7 125.0,254.5 124.0,251.3 123.0,248.2 122.0,250.3 121.0,261.8 120.0,278.4 119.0,267.1 118.0,258.1 117.0,254.7 116.0,263.3 115.0,260.4 114.0,244.5 113.0,259.1 112.0,245.2 111.0,240.2 110.0,245.7 109.0,246.4 108.0,236.1 107.0,211.6 106.0,204.6 105.0,202.4 104.0,202.9 103.0,193.9 102.0,195.1 101.0,185.7 100.0,178.8 99.0,175.3 98.0,188.0 97.0,174.6 96.0,167.8 95.0,170.6 94.0,174.1 93.0,165.0 92.0,163.4 91.0,163.5 90.0,171.9 89.0,176.6 88.0,162.3 87.0,163.4 86.0,153.7 85.0,140.4 84.0,138.8 83.0,139.8 82.0,138.3 81.0,133.2 80.0,126.3 79.0,124.9 78.0,123.5 77.0,128.5 76.0,121.7" fill="#3987e5" fill-opacity="0.3"/>
<polyline points="76.0,120.8 77.0,122.3 78.0,114.0 79.0,123.1 80.0,124.1 81.0,130.9 82.0,135.3 83.0,132.1 84.0,138.8 85.0,137.4 86.0,147.5 87.0,154.7 88.0,160.4 89.0,171.8 90.0,160.4 91.0,162.5 92.0,160.3 93.0,164.6 94.0,170.6 95.0,164.9 96.0,165.6 97.0,173.3 98.0,175.3 99.0,172.5 100.0,175.3 101.0,182.6 102.0,186.4 103.0,193.9 104.0,201.0 105.0,197.5 106.0,204.3 107.0,208.8 108.0,228.5 109.0,244.0 110.0,237.5 111.0,236.0 112.0,243.2 113.0,242.4 114.0,234.1 115.0,255.8 116.0,253.4 117.0,253.3 118.0,253.9 119.0,266.2 120.0,258.6 121.0,241.7 122.0,247.4 123.0,246.0 124.0,250.5 125.0,243.8 126.0,245.6 127.0,246.0 128.0,252.4 129.0,258.8 130.0,272.2 131.0,264.5 132.0,265.2 133.0,277.2 134.0,276.0 135.0,280.8 136.0,293.6 137.0,320.3 138.0,335.6 139.0,316.5 140.0,294.5 141.0,311.5 142.0,303.4 143.0,305.5 144.0,312.7 145.0,321.6 146.0,338.8 147.0,320.1 148.0,310.4 149.0,305.3 150.0,309.6 151.0,315.1 152.0,321.3 153.0,305.4 154.0,316.0 155.0,316.7 156.0,311.4 157.0,309.5 158.0,316.6 159.0,328.2 160.0,331.1 161.0,327.1 162.0,336.0 163.0,352.4 164.0,331.5 165.0,322.4 166.0,336.3 167.0,339.6 168.0,343.0 169.0,364.5 170.0,367.3 171.0,363.4 172.0,364.2 173.0,395.4 174.0,378.3 175.0,347.6 176.0,353.3 177.0,372.1 178.0,358.8 179.0,359.6 180.0,366.1 181.0,379.6 182.0,365.4 183.0,362.0 184.0,361.8 185.0,355.0 186.0,366.2 187.0,369.2 188.0,367.2 189.0,366.6 190.0,363.5 191.0,366.3 192.0,369.2 193.0,373.4 194.0,370.3 195.0,369.2 196.0,365.6 197.0,371.4 198.0,366.8 199.0,355.9 200.0,358.6 201.0,351.8 202.0,347.4 203.0,350.1 204.0,341.0 205.0,335.7 206.0,333.0 207.0,337.4 208.0,332.1 209.0,348.0 210.0,347.6 211.0,346.6 212.0,339.5 213.0,339.3 214.0,341.9 215.0,351.9 216.0,345.7 217.0,323.4 218.0,321.3 219.0,313.3 220.0,321.0 221.0,321.8 222.0,324.0 223.0,330.2 224.0,325.3 225.0,317.9 226.0,322.0 227.0,317.1 228.0,315.1 229.0,319.8 230.0,314.9 231.0,307.0 232.0,310.5 233.0,315.8 234.0,313.4 235.0,314.8 236.0,317.5 237.0,310.2 238.0,316.5 239.0,324.3 240.0,328.5 241.0,329.4 242.0,328.2 243.0,318.2 244.0,316.8 245.0,318.3 246.0,325.5 247.0,329.6 248.0,330.3 249.0,331.2 250.0,331.2 251.0,347.7 252.0,355.5 253.0,364.6 254.0,350.8 255.0,347.8 256.0,342.5 257.0,344.3 258.0,347.8 259.0,351.3 260.0,351.0 261.0,348.1 262.0,354.4 263.0,353.8 264.0,357.4 265.0,355.4 266.0,348.1 267.0,358.7 268.0,357.8 269.0,359.8 270.0,350.0 271.0,336.4 272.0,345.3 273.0,335.0 274.0,341.5 275.0,346.0 276.0,345.1 277.0,348.1 278.0,357.0 279.0,356.1 280.0,344.2 281.0,340.6 282.0,343.1 283.0,335.8 284.0,330.4 285.0,331.2 286.0,330.6 287.0,325.5 288.0,326.1 289.0,325.2 290.0,323.8 291.0,327.2 292.0,326.7 293.0,330.7 294.0,330.7 295.0,315.0 296.0,313.8 297.0,314.7 298.0,314.0 299.0,313.7 300.0,312.4 301.0,310.9 302.0,315.5 303.0,314.7 304.0,310.6 305.0,315.9 306.0,324.6 307.0,321.2 308.0,315.3 309.0,310.0 310.0,308.8 311.0,314.7 312.0,321.4 313.0,305.8 314.0,310.1 315.0,308.2 316.0,309.6 317.0,310.9 318.0,315.8 319.0,314.1 320.0,315.4 321.0,313.1 322.0,312.0 323.0,311.4 324.0,314.5 325.0,314.2 326.0,313.2 327.0,310.5 328.0,309.1 329.0,309.2 330.0,308.4 331.0,306.3 332.0,302.2 333.0,303.0 334.0,300.1 335.0,303.5 336.0,306.0 337.0,302.1 338.0,299.9 339.0,300.7 340.0,295.8 341.0,297.1 342.0,294.8 343.0,293.6 344.0,295.2 345.0,296.4 346.0,298.3 347.0,300.2 348.0,297.1 349.0,296.7 350.0,294.9 351.0,294.1 352.0,298.7 353.0,299.3 354.0,302.6 355.0,303.1 356.0,306.1 357.0,310.4 358.0,309.8 359.0,303.9 360.0,277.0 361.0,275.4 362.0,272.8 363.0,277.1 364.0,275.4 365.0,268.5 366.0,274.0 367.0,269.2 368.0,267.7 369.0,272.3 370.0,276.0 371.0,270.1 372.0,263.1 373.0,252.3 374.0,256.8 375.0,250.9 376.0,245.9 377.0,250.7 378.0,250.4 379.0,256.4 380.0,259.8 381.0,259.8 382.0,260.8 383.0,261.3 384.0,263.8 385.0,271.8 386.0,269.3 387.0,265.3 388.0,257.5 389.0,260.0 390.0,252.6 391.0,253.4 392.0,259.4 393.0,257.5 394.0,264.5 395.0,270.7 396.0,271.0 397.0,271.5 398.0,269.8 399.0,273.2 400.0,269.9 401.0,271.3 402.0,271.7 403.0,272.2 404.0,273.6 405.0,269.5 406.0,269.8 407.0,270.8 408.0,269.1 409.0,275.9 410.0,286.1 411.0,287.3 412.0,290.2 413.0,289.2 414.0,285.6 415.0,282.6 416.0,276.9 417.0,269.7 418.0,278.9 419.0,278.4 420.0,298.2 421.0,298.6 422.0,300.2 423.0,295.5 424.0,293.2 425.0,295.1 426.0,298.0 427.0,306.5 428.0,306.7 429.0,303.2 430.0,295.6 431.0,296.5 432.0,305.6 433.0,306.3 434.0,299.1 435.0,307.2 436.0,311.5 437.0,332.5 438.0,332.6 439.0,329.9 440.0,325.7 441.0,323.0 442.0,325.6 443.0,328.1 444.0,324.1 445.0,326.7 446.0,324.9 447.0,330.9 448.0,331.2 449.0,327.9 450.0,330.7 451.0,330.9 452.0,336.3 453.0,333.3 454.0,331.8 455.0,329.3 456.0,318.4 457.0,319.3 458.0,324.7 459.0,321.9 460.0,323.4 461.0,323.1 462.0,322.2 463.0,318.2 464.0,313.6 465.0,316.0 466.0,317.1 467.0,316.0 468.0,313.9 469.0,312.7 470.0,310.5 471.0,314.3 472.0,314.2 473.0,311.6 474.0,310.7 475.0,313.8 476.0,317.6 477.0,307.2 478.0,304.1 479.0,305.1 480.0,308.5 481.0,306.7 482.0,306.4 483.0,302.6 484.0,300.0 485.0,300.2 486.0,300.5 487.0,300.5 488.0,297.9 489.0,300.9 490.0,300.4 491.0,300.7 492.0,306.3 493.0,301.0 494.0,297.6 495.0,305.0 496.0,302.6 497.0,304.6 498.0,300.5 499.0,302.6 500.0,305.1 501.0,301.3 502.0,302.9 503.0,306.3 504.0,310.1 505.0,316.9 506.0,307.7 507.0,295.3 508.0,298.1 509.0,305.3 510.0,301.6 511.0,304.4 512.0,299.2 513.0,302.7 514.0,302.0 515.0,294.3 516.0,283.7 517.0,278.3 518.0,285.9 519.0,292.4 520.0,297.0 521.0,296.3 522.0,295.7 523.0,297.2 524.0,300.0 525.0,304.5 526.0,305.0 527.0,306.6 528.0,301.4 529.0,304.0 530.0,313.8 531.0,330.5 532.0,325.0 533.0,337.2 534.0,335.1 535.0,336.5 536.0,336.3 537.0,335.3 538.0,332.5 539.0,337.5 540.0,334.7 541.0,336.5 542.0,337.1 543.0,334.6 544.0,331.8 545.0,333.0 546.0,329.5 547.0,325.8 548.0,329.9 549.0,328.3 550.0,329.7 551.0,327.1 552.0,330.2 553.0,330.4 554.0,330.3 555.0,332.6 556.0,325.9 557.0,331.7 558.0,356.0 559.0,363.0 560.0,371.3 561.0,392.2 562.0,393.1 563.0,384.2 564.0,369.4 565.0,364.0 566.0,362.9 567.0,364.9 568.0,363.7 569.0,366.8 570.0,365.8 571.0,348.9 572.0,349.1 573.0,345.5 574.0,348.2 575.0,348.9 576.0,355.3 577.0,358.3 578.0,361.9 579.0,394.2 580.0,389.1 581.0,398.3 582.0,392.1 583.0,395.2 584.0,390.2 585.0,383.9 586.0,384.5 587.0,385.8 588.0,389.8 589.0,403.4 590.0,392.4 591.0,384.4 592.0,384.7 593.0,373.8 594.0,376.3 595.0,379.8 596.0,390.6 597.0,394.7 598.0,397.9 599.0,381.0 600.0,380.4 601.0,379.2 602.0,380.3 603.0,389.0 604.0,385.7 605.0,386.6 606.0,383.2 607.0,382.2 608.0,382.8 609.0,382.9 610.0,377.2 611.0,374.1 612.0,377.1 613.0,376.5 614.0,372.9 615.0,373.2 616.0,373.8 617.0,375.8 618.0,375.8 619.0,370.1 620.0,369.5 621.0,365.8 622.0,371.2 623.0,372.3 624.0,378.8 625.0,376.8 626.0,379.2 627.0,377.7 628.0,379.9 629.0,378.9 630.0,379.2 631.0,378.5 632.0,378.7 633.0,382.4 634.0,379.3 635.0,377.9 636.0,374.9 637.0,379.3 638.0,375.1 639.0,381.4 640.0,379.0 641.0,381.0 642.0,388.5 643.0,390.6 644.0,389.1 645.0,390.6 646.0,388.1 647.0,394.1 648.0,385.4 649.0,395.0 650.0,392.8 651.0,380.5 652.0,384.0 653.0,388.8 654.0,380.8 655.0,379.7 656.0,384.8 657.0,377.7 658.0,383.5 659.0,375.2 660.0,389.8 661.0,391.4 662.0,386.0 663.0,373.4 664.0,373.8 665.0,375.9 666.0,374.1 667.0,371.9 668.0,375.4 669.0,377.8 670.0,381.2 671.0,382.4 672.0,389.0 673.0,391.8 674.0,390.6 675.0,390.9 676.0,393.3 677.0,395.1 678.0,394.1 679.0,397.5 680.0,408.4 681.0,401.9 682.0,412.7 683.0,412.1 684.0,413.8 685.0,407.2 686.0,404.3 687.0,409.3 688.0,409.9 689.0,409.0 690.0,408.7 691.0,404.7 692.0,401.4 693.0,396.7 694.0,397.5 695.0,407.0 696.0,406.4 697.0,401.3 698.0,406.1 699.0,406.4 700.0,412.3 701.0,397.1 702.0,389.5 703.0,378.0 704.0,383.9 705.0,379.4 706.0,377.7 707.0,380.3 708.0,366.2 709.0,375.5 710.0,386.6 711.0,381.6 712.0,375.0 713.0,365.1 714.0,368.4 715.0,373.7 716.0,378.8 717.0,374.8 718.0,362.2 719.0,357.7 720.0,356.8 721.0,349.4 722.0,349.0 723.0,349.1 724.0,355.0 725.0,349.1 726.0,349.6 727.0,354.5 728.0,352.6 729.0,352.5 730.0,352.8 731.0,356.1 732.0,352.3 733.0,354.9 734.0,354.8 735.0,348.1 736.0,350.1 737.0,348.1 738.0,350.4 739.0,350.0 740.0,343.9 741.0,345.5 742.0,342.3 743.0,340.1 744.0,344.1 745.0,339.4 746.0,340.3 747.0,338.6 748.0,328.5 749.0,329.9 750.0,333.0 751.0,328.5 752.0,334.2 753.0,334.2 754.0,331.2 755.0,331.9 756.0,335.4 757.0,332.0 758.0,331.9 759.0,334.7 760.0,333.6 761.0,332.9 762.0,331.5 763.0,330.9 764.0,326.9 765.0,327.2 766.0,318.2 767.0,320.3 768.0,320.0 769.0,316.3 770.0,320.8 771.0,320.4 772.0,324.7 773.0,328.3 774.0,329.9 775.0,326.9 776.0,330.3 777.0,329.1 778.0,323.3 779.0,326.4 780.0,329.7 781.0,330.5 782.0,330.1 783.0,328.6 784.0,325.9 785.0,330.1 786.0,328.4 787.0,329.7 788.0,328.5 789.0,329.3 790.0,322.7 791.0,306.8 792.0,315.5 793.0,307.8 794.0,316.8 795.0,319.7 796.0,320.5 797.0,322.9 798.0,324.7 799.0,327.2 800.0,331.2 801.0,327.8 802.0,343.5 803.0,352.0 804.0,341.6 805.0,336.5 806.0,311.1 807.0,313.3 808.0,311.1 809.0,311.8 810.0,299.5 811.0,301.4 812.0,303.1 813.0,304.6 814.0,308.4 815.0,318.5 816.0,319.3 817.0,321.2 818.0,317.1 819.0,323.3 820.0,319.6 821.0,317.2 822.0,320.4 823.0,313.7 824.0,323.6 825.0,315.4 826.0,307.8 827.0,303.1 828.0,304.3 829.0,308.2 830.0,311.7 831.0,316.9 832.0,310.8 833.0,312.8 834.0,323.7 835.0,324.7 836.0,329.3 837.0,327.8 838.0,333.4 839.0,327.5 840.0,344.6 841.0,341.4 842.0,340.7 843.0,337.1 844.0,346.5 845.0,345.0 846.0,350.7 847.0,342.8 848.0,339.4 849.0,342.0 850.0,339.3 851.0,342.4 852.0,338.1 853.0,337.5 854.0,339.8 855.0,343.5 856.0,345.4 857.0,339.0 858.0,335.2 859.0,326.8 860.0,325.3 861.0,327.7 862.0,326.8 863.0,330.6 864.0,332.3 865.0,324.0 866.0,322.0 867.0,327.9 868.0,328.2 869.0,318.8 870.0,319.2 871.0,317.6 872.0,319.2 873.0,320.3 874.0,325.2 875.0,317.4 876.0,305.9 877.0,305.2 878.0,305.8 879.0,307.5 880.0,306.6 881.0,302.1 882.0,298.2 883.0,297.0 884.0,297.6 885.0,301.7 886.0,304.5 887.0,305.8 888.0,301.6 889.0,306.5 890.0,307.7 891.0,310.3 892.0,303.9 893.0,302.9 894.0,302.1" fill="none" stroke="#3987e5" stroke-width="1.6"/>
<polygon points="76.0,111.6 77.0,119.8 78.0,113.1 79.0,113.7 80.0,121.1 81.0,124.1 82.0,128.5 83.0,131.6 84.0,130.5 85.0,136.1 86.0,136.5 87.0,146.7 88.0,153.3 89.0,160.0 90.0,155.5 91.0,155.3 92.0,157.9 93.0,157.4 94.0,164.0 95.0,161.5 96.0,159.4 97.0,163.4 98.0,171.7 99.0,169.8 100.0,169.9 101.0,175.2 102.0,181.6 103.0,185.2 104.0,192.7 105.0,194.5 106.0,197.3 107.0,200.6 108.0,207.1 109.0,223.0 110.0,225.6 111.0,231.3 112.0,234.9 113.0,238.0 114.0,229.9 115.0,233.4 116.0,249.9 117.0,243.8 118.0,246.7 119.0,250.5 120.0,254.9 121.0,240.2 122.0,237.9 123.0,241.1 124.0,243.1 125.0,238.5 126.0,239.9 127.0,244.5 128.0,242.9 129.0,247.6 130.0,253.6 131.0,263.1 132.0,263.0 133.0,264.1 134.0,274.3 135.0,269.6 136.0,280.5 137.0,293.1 138.0,312.0 139.0,312.5 140.0,293.3 141.0,290.7 142.0,296.1 143.0,296.9 144.0,304.4 145.0,309.8 146.0,321.6 147.0,319.4 148.0,305.7 149.0,295.7 150.0,297.4 151.0,305.3 152.0,310.6 153.0,303.0 154.0,302.3 155.0,307.6 156.0,310.8 157.0,306.6 158.0,305.5 159.0,313.5 160.0,325.3 161.0,319.6 162.0,311.2 163.0,331.5 164.0,322.2 165.0,319.2 166.0,322.0 167.0,329.9 168.0,334.7 169.0,337.2 170.0,359.1 171.0,351.9 172.0,353.1 173.0,362.6 174.0,373.2 175.0,343.4 176.0,343.5 177.0,344.0 178.0,352.8 179.0,355.5 180.0,359.3 181.0,364.0 182.0,362.6 183.0,357.4 184.0,358.6 185.0,353.4 186.0,354.8 187.0,366.2 188.0,361.0 189.0,358.9 190.0,361.8 191.0,362.8 192.0,363.5 193.0,366.7 194.0,366.9 195.0,368.5 196.0,362.6 197.0,365.3 198.0,363.8 199.0,350.4 200.0,350.1 201.0,347.9 202.0,346.4 203.0,340.4 204.0,338.5 205.0,335.2 206.0,325.2 207.0,331.5 208.0,329.3 209.0,330.9 210.0,345.3 211.0,337.5 212.0,337.4 213.0,337.4 214.0,338.1 215.0,340.9 216.0,343.4 217.0,299.2 218.0,316.7 219.0,307.7 220.0,309.4 221.0,319.3 222.0,315.6 223.0,324.0 224.0,321.6 225.0,317.7 226.0,317.9 227.0,313.4 228.0,313.5 229.0,307.6 230.0,306.3 231.0,306.3 232.0,301.3 233.0,304.4 234.0,311.8 235.0,311.2 236.0,313.7 237.0,307.9 238.0,309.2 239.0,313.1 240.0,321.0 241.0,326.8 242.0,325.0 243.0,316.3 244.0,314.5 245.0,314.8 246.0,317.5 247.0,324.2 248.0,328.3 249.0,327.7 250.0,326.5 251.0,330.5 252.0,345.6 253.0,354.6 254.0,345.4 255.0,344.3 256.0,341.3 257.0,338.3 258.0,344.3 259.0,344.1 260.0,345.9 261.0,344.2 262.0,346.8 263.0,351.5 264.0,352.8 265.0,353.6 266.0,347.5 267.0,348.1 268.0,354.8 269.0,354.0 270.0,344.2 271.0,336.4 272.0,335.0 273.0,327.2 274.0,332.0 275.0,339.9 276.0,343.1 277.0,342.2 278.0,346.8 279.0,351.8 280.0,343.8 281.0,339.3 282.0,336.4 283.0,332.3 284.0,327.3 285.0,329.7 286.0,324.5 287.0,325.5 288.0,323.2 289.0,324.8 290.0,319.5 291.0,320.8 292.0,319.9 293.0,323.1 294.0,326.6 295.0,312.6 296.0,309.4 297.0,306.7 298.0,313.0 299.0,311.7 300.0,309.8 301.0,309.4 302.0,310.6 303.0,309.5 304.0,309.6 305.0,308.1 306.0,315.8 307.0,320.4 308.0,312.4 309.0,305.9 310.0,307.6 311.0,307.7 312.0,314.1 313.0,305.2 314.0,297.6 315.0,303.2 316.0,306.6 317.0,306.9 318.0,310.4 319.0,312.3 320.0,311.6 321.0,312.8 322.0,311.0 323.0,308.2 324.0,310.5 325.0,312.0 326.0,312.7 327.0,310.1 328.0,307.4 329.0,307.0 330.0,306.9 331.0,305.9 332.0,301.2 333.0,300.7 334.0,299.1 335.0,298.7 336.0,302.3 337.0,299.9 338.0,299.0 339.0,299.4 340.0,290.6 341.0,293.9 342.0,294.2 343.0,291.8 344.0,293.2 345.0,294.7 346.0,296.4 347.0,295.6 348.0,296.7 349.0,295.3 350.0,293.5 351.0,292.6 352.0,293.0 353.0,297.5 354.0,298.6 355.0,302.4 356.0,301.1 357.0,305.9 358.0,307.9 359.0,303.7 360.0,273.1 361.0,273.5 362.0,268.5 363.0,271.3 364.0,271.3 365.0,266.3 366.0,267.7 367.0,268.5 368.0,266.7 369.0,267.2 370.0,270.7 371.0,267.6 372.0,259.6 373.0,251.8 374.0,248.7 375.0,250.8 376.0,242.0 377.0,243.9 378.0,249.1 379.0,249.9 380.0,253.8 381.0,257.8 382.0,259.7 383.0,258.1 384.0,259.0 385.0,263.7 386.0,261.5 387.0,264.5 388.0,255.8 389.0,256.6 390.0,247.8 391.0,251.5 392.0,253.4 393.0,251.1 394.0,257.2 395.0,261.8 396.0,266.9 397.0,269.3 398.0,261.8 399.0,268.2 400.0,269.4 401.0,268.2 402.0,269.2 403.0,270.6 404.0,269.8 405.0,264.2 406.0,268.6 407.0,265.8 408.0,268.3 409.0,269.1 410.0,274.8 411.0,284.3 412.0,286.1 413.0,288.5 414.0,283.9 415.0,277.3 416.0,276.3 417.0,258.6 418.0,263.2 419.0,265.5 420.0,278.1 421.0,295.9 422.0,296.9 423.0,295.2 424.0,291.8 425.0,289.4 426.0,290.4 427.0,297.6 428.0,304.6 429.0,302.7 430.0,295.4 431.0,292.7 432.0,296.1 433.0,300.6 434.0,298.8 435.0,296.6 436.0,301.3 437.0,310.7 438.0,328.0 439.0,325.3 440.0,324.5 441.0,319.2 442.0,322.1 443.0,325.5 444.0,324.1 445.0,322.6 446.0,322.4 447.0,323.9 448.0,326.1 449.0,327.2 450.0,326.0 451.0,328.7 452.0,330.8 453.0,332.2 454.0,330.3 455.0,324.6 456.0,316.6 457.0,316.5 458.0,317.1 459.0,320.1 460.0,321.1 461.0,321.8 462.0,319.1 463.0,317.5 464.0,311.6 465.0,309.6 466.0,312.6 467.0,315.0 468.0,313.5 469.0,307.1 470.0,309.9 471.0,309.1 472.0,313.5 473.0,309.3 474.0,310.2 475.0,309.1 476.0,311.9 477.0,302.2 478.0,297.8 479.0,303.4 480.0,305.1 481.0,305.9 482.0,305.6 483.0,302.1 484.0,298.5 485.0,298.9 486.0,299.3 487.0,299.3 488.0,296.1 489.0,294.0 490.0,298.3 491.0,299.1 492.0,300.3 493.0,300.4 494.0,296.1 495.0,296.3 496.0,301.2 497.0,302.2 498.0,298.3 499.0,300.2 500.0,301.0 501.0,299.4 502.0,300.2 503.0,302.9 504.0,306.3 505.0,307.9 506.0,303.5 507.0,289.2 508.0,293.9 509.0,298.1 510.0,298.8 511.0,299.0 512.0,297.5 513.0,298.6 514.0,299.9 515.0,290.7 516.0,282.0 517.0,274.3 518.0,278.1 519.0,283.6 520.0,289.6 521.0,290.9 522.0,295.6 523.0,292.4 524.0,297.1 525.0,299.8 526.0,304.2 527.0,299.9 528.0,300.0 529.0,301.3 530.0,303.9 531.0,312.8 532.0,322.6 533.0,324.7 534.0,333.8 535.0,332.4 536.0,331.4 537.0,334.5 538.0,327.3 539.0,331.7 540.0,327.8 541.0,330.4 542.0,335.5 543.0,333.0 544.0,331.5 545.0,328.8 546.0,328.0 547.0,324.0 548.0,322.1 549.0,328.2 550.0,327.5 551.0,323.1 552.0,326.2 553.0,327.4 554.0,328.1 555.0,329.9 556.0,324.7 557.0,319.9 558.0,331.6 559.0,354.3 560.0,359.8 561.0,370.9 562.0,383.2 563.0,382.0 564.0,358.7 565.0,357.5 566.0,362.0 567.0,359.6 568.0,363.6 569.0,363.1 570.0,364.6 571.0,348.5 572.0,347.1 573.0,344.3 574.0,344.9 575.0,347.8 576.0,348.5 577.0,355.1 578.0,347.5 579.0,360.8 580.0,385.9 581.0,379.6 582.0,385.9 583.0,386.6 584.0,386.8 585.0,381.6 586.0,376.4 587.0,378.1 588.0,383.7 589.0,389.2 590.0,390.8 591.0,377.2 592.0,381.2 593.0,373.2 594.0,367.3 595.0,374.9 596.0,379.6 597.0,389.7 598.0,381.5 599.0,376.1 600.0,377.1 601.0,370.6 602.0,374.5 603.0,378.9 604.0,380.0 605.0,385.3 606.0,380.9 607.0,379.6 608.0,378.1 609.0,380.5 610.0,373.9 611.0,373.1 612.0,372.7 613.0,374.9 614.0,372.1 615.0,371.0 616.0,372.2 617.0,372.7 618.0,374.1 619.0,369.5 620.0,367.9 621.0,363.8 622.0,365.6 623.0,369.3 624.0,370.4 625.0,376.2 626.0,372.6 627.0,376.9 628.0,375.8 629.0,378.2 630.0,375.3 631.0,376.6 632.0,377.4 633.0,378.7 634.0,378.4 635.0,377.0 636.0,371.3 637.0,374.2 638.0,374.7 639.0,372.9 640.0,378.4 641.0,377.1 642.0,380.2 643.0,384.7 644.0,387.6 645.0,387.7 646.0,386.2 647.0,383.6 648.0,384.8 649.0,385.2 650.0,387.6 651.0,378.4 652.0,377.6 653.0,382.2 654.0,375.4 655.0,378.4 656.0,379.7 657.0,375.8 658.0,376.0 659.0,366.9 660.0,374.4 661.0,387.5 662.0,382.7 663.0,372.6 664.0,368.8 665.0,372.7 666.0,371.4 667.0,370.6 668.0,371.8 669.0,375.0 670.0,377.5 671.0,381.0 672.0,381.2 673.0,387.7 674.0,388.1 675.0,387.0 676.0,390.0 677.0,392.4 678.0,392.9 679.0,393.1 680.0,397.5 681.0,395.7 682.0,398.2 683.0,404.9 684.0,408.2 685.0,406.7 686.0,403.3 687.0,403.6 688.0,404.8 689.0,407.7 690.0,406.0 691.0,401.0 692.0,397.9 693.0,394.8 694.0,392.3 695.0,397.3 696.0,404.5 697.0,401.2 698.0,399.3 699.0,405.1 700.0,406.1 701.0,396.6 702.0,380.4 703.0,371.5 704.0,376.9 705.0,377.4 706.0,375.2 707.0,377.7 708.0,365.6 709.0,356.0 710.0,374.8 711.0,381.6 712.0,373.9 713.0,363.7 714.0,360.4 715.0,365.1 716.0,369.4 717.0,374.1 718.0,361.4 719.0,354.3 720.0,355.6 721.0,349.4 722.0,339.9 723.0,346.5 724.0,347.0 725.0,344.3 726.0,346.2 727.0,349.3 728.0,350.2 729.0,351.0 730.0,351.1 731.0,351.1 732.0,348.6 733.0,349.9 734.0,351.6 735.0,347.1 736.0,346.3 737.0,346.1 738.0,345.5 739.0,347.8 740.0,341.9 741.0,340.3 742.0,340.1 743.0,338.1 744.0,336.0 745.0,338.2 746.0,338.5 747.0,337.7 748.0,326.3 749.0,325.3 750.0,329.9 751.0,325.6 752.0,328.1 753.0,332.8 754.0,329.4 755.0,329.3 756.0,331.9 757.0,331.4 758.0,331.9 759.0,330.5 760.0,333.5 761.0,332.4 762.0,330.2 763.0,328.7 764.0,322.6 765.0,324.4 766.0,316.3 767.0,317.9 768.0,315.4 769.0,316.0 770.0,315.8 771.0,319.9 772.0,320.4 773.0,323.6 774.0,328.2 775.0,326.7 776.0,325.3 777.0,327.8 778.0,322.4 779.0,323.1 780.0,326.4 781.0,328.1 782.0,328.9 783.0,327.9 784.0,325.3 785.0,325.5 786.0,327.9 787.0,328.4 788.0,326.7 789.0,327.4 790.0,320.0 791.0,305.3 792.0,306.4 793.0,306.7 794.0,307.6 795.0,315.0 796.0,316.7 797.0,319.7 798.0,322.7 799.0,319.6 800.0,325.2 801.0,323.6 802.0,324.4 803.0,339.7 804.0,335.5 805.0,332.5 806.0,307.8 807.0,305.8 808.0,307.4 809.0,307.4 810.0,291.0 811.0,294.9 812.0,298.5 813.0,299.1 814.0,303.3 815.0,307.6 816.0,317.2 817.0,319.3 818.0,316.7 819.0,315.7 820.0,319.5 821.0,315.0 822.0,316.9 823.0,307.6 824.0,313.7 825.0,312.2 826.0,303.1 827.0,300.5 828.0,300.8 829.0,302.6 830.0,307.0 831.0,307.7 832.0,310.8 833.0,310.8 834.0,309.7 835.0,320.3 836.0,322.5 837.0,326.2 838.0,327.2 839.0,327.3 840.0,325.4 841.0,337.0 842.0,339.5 843.0,335.5 844.0,336.4 845.0,340.1 846.0,342.6 847.0,341.8 848.0,335.8 849.0,336.8 850.0,337.7 851.0,338.4 852.0,336.8 853.0,336.9 854.0,337.5 855.0,331.1 856.0,341.5 857.0,337.7 858.0,331.6 859.0,326.4 860.0,318.9 861.0,322.9 862.0,323.5 863.0,325.5 864.0,325.3 865.0,319.7 866.0,320.5 867.0,319.4 868.0,327.0 869.0,314.8 870.0,317.2 871.0,316.8 872.0,316.9 873.0,316.3 874.0,318.2 875.0,315.6 876.0,304.2 877.0,304.5 878.0,302.0 879.0,301.6 880.0,305.2 881.0,297.6 882.0,296.3 883.0,296.0 884.0,293.7 885.0,295.4 886.0,291.8 887.0,301.0 888.0,300.7 889.0,301.6 890.0,304.9 891.0,304.2 892.0,303.2 893.0,302.0 894.0,301.1 894.0,304.9 893.0,305.7 892.0,310.5 891.0,311.8 890.0,310.3 889.0,308.6 888.0,308.7 887.0,307.4 886.0,309.3 885.0,302.2 884.0,299.1 883.0,300.5 882.0,303.6 881.0,307.2 880.0,309.3 879.0,307.6 878.0,308.3 877.0,309.0 876.0,317.5 875.0,326.2 874.0,325.4 873.0,323.4 872.0,320.7 871.0,321.2 870.0,321.6 869.0,329.2 868.0,333.1 867.0,329.2 866.0,331.1 865.0,333.8 864.0,335.1 863.0,332.1 862.0,328.9 861.0,328.2 860.0,328.5 859.0,335.2 858.0,339.3 857.0,346.4 856.0,349.5 855.0,347.8 854.0,342.6 853.0,340.5 852.0,342.5 851.0,344.7 850.0,342.2 849.0,343.0 848.0,343.0 847.0,351.4 846.0,352.5 845.0,350.7 844.0,346.6 843.0,342.6 842.0,345.5 841.0,348.7 840.0,346.5 839.0,334.6 838.0,334.5 837.0,330.7 836.0,330.2 835.0,333.5 834.0,326.1 833.0,318.8 832.0,317.3 831.0,320.6 830.0,312.7 829.0,317.2 828.0,306.2 827.0,309.2 826.0,316.2 825.0,331.0 824.0,324.9 823.0,321.6 822.0,322.6 821.0,321.6 820.0,324.8 819.0,323.4 818.0,324.7 817.0,328.6 816.0,321.7 815.0,319.5 814.0,309.7 813.0,305.3 812.0,304.4 811.0,302.1 810.0,312.0 809.0,313.2 808.0,313.3 807.0,313.9 806.0,336.7 805.0,346.0 804.0,356.9 803.0,352.4 802.0,346.3 801.0,331.2 800.0,331.6 799.0,327.6 798.0,326.6 797.0,325.5 796.0,321.0 795.0,322.0 794.0,317.2 793.0,318.1 792.0,316.3 791.0,324.2 790.0,332.1 789.0,330.3 788.0,330.0 787.0,332.3 786.0,332.1 785.0,330.9 784.0,331.2 783.0,331.3 782.0,332.9 781.0,332.1 780.0,335.4 779.0,326.9 778.0,330.0 777.0,331.1 776.0,330.9 775.0,331.1 774.0,332.3 773.0,328.6 772.0,326.7 771.0,325.9 770.0,320.9 769.0,321.6 768.0,322.3 767.0,322.6 766.0,328.5 765.0,328.9 764.0,331.7 763.0,333.4 762.0,333.3 761.0,334.9 760.0,335.2 759.0,335.7 758.0,334.6 757.0,337.4 756.0,335.5 755.0,332.4 754.0,334.7 753.0,335.8 752.0,336.2 751.0,333.5 750.0,333.7 749.0,334.1 748.0,340.3 747.0,341.0 746.0,341.7 745.0,345.6 744.0,347.3 743.0,349.6 742.0,345.5 741.0,346.2 740.0,350.0 739.0,352.2 738.0,353.0 737.0,350.4 736.0,351.1 735.0,355.5 734.0,356.4 733.0,357.2 732.0,357.4 731.0,358.1 730.0,356.1 729.0,353.1 728.0,356.4 727.0,355.2 726.0,350.4 725.0,355.2 724.0,360.3 723.0,355.5 722.0,352.7 721.0,360.3 720.0,360.6 719.0,365.5 718.0,374.9 717.0,380.0 716.0,378.8 715.0,374.1 714.0,368.5 713.0,376.4 712.0,382.0 711.0,389.9 710.0,386.8 709.0,376.4 708.0,380.3 707.0,384.5 706.0,380.6 705.0,383.9 704.0,386.3 703.0,391.4 702.0,398.2 701.0,414.2 700.0,413.4 699.0,409.3 698.0,407.1 697.0,411.2 696.0,409.0 695.0,410.2 694.0,398.6 693.0,404.2 692.0,407.8 691.0,424.4 690.0,414.6 689.0,410.5 688.0,410.8 687.0,409.7 686.0,409.1 685.0,413.8 684.0,414.5 683.0,415.4 682.0,416.9 681.0,416.1 680.0,414.5 679.0,399.0 678.0,395.6 677.0,397.7 676.0,393.9 675.0,392.4 674.0,394.4 673.0,393.0 672.0,389.3 671.0,386.7 670.0,388.3 669.0,379.4 668.0,375.4 667.0,377.1 666.0,376.2 665.0,379.0 664.0,375.9 663.0,390.0 662.0,399.4 661.0,401.2 660.0,391.1 659.0,389.9 658.0,384.3 657.0,386.3 656.0,387.1 655.0,383.7 654.0,388.9 653.0,393.9 652.0,384.5 651.0,403.3 650.0,397.4 649.0,401.2 648.0,403.5 647.0,397.9 646.0,391.1 645.0,396.0 644.0,391.6 643.0,393.8 642.0,389.6 641.0,384.4 640.0,382.7 639.0,381.8 638.0,379.8 637.0,380.8 636.0,377.9 635.0,380.1 634.0,385.8 633.0,386.8 632.0,380.3 631.0,380.1 630.0,381.0 629.0,382.4 628.0,383.1 627.0,385.3 626.0,379.3 625.0,380.6 624.0,379.4 623.0,373.5 622.0,374.2 621.0,371.3 620.0,372.5 619.0,376.4 618.0,378.4 617.0,375.9 616.0,376.7 615.0,375.0 614.0,376.6 613.0,379.9 612.0,378.3 611.0,378.8 610.0,383.5 609.0,383.3 608.0,384.4 607.0,384.7 606.0,388.1 605.0,390.1 604.0,390.7 603.0,389.4 602.0,383.0 601.0,382.8 600.0,393.8 599.0,410.8 598.0,402.1 597.0,396.6 596.0,392.4 595.0,380.7 594.0,378.8 593.0,387.9 592.0,387.4 591.0,393.9 590.0,414.2 589.0,413.6 588.0,392.9 587.0,387.1 586.0,387.2 585.0,394.7 584.0,397.7 583.0,398.0 582.0,398.3 581.0,398.6 580.0,403.9 579.0,418.8 578.0,365.2 577.0,360.2 576.0,361.8 575.0,351.4 574.0,349.5 573.0,350.3 572.0,353.1 571.0,367.0 570.0,369.1 569.0,368.8 568.0,368.5 567.0,365.6 566.0,366.7 565.0,369.4 564.0,384.2 563.0,393.1 562.0,399.4 561.0,394.8 560.0,377.6 559.0,365.7 558.0,359.3 557.0,332.5 556.0,338.1 555.0,335.0 554.0,331.3 553.0,332.0 552.0,330.4 551.0,330.2 550.0,333.6 549.0,335.0 548.0,330.8 547.0,329.5 546.0,334.3 545.0,333.7 544.0,336.6 543.0,338.5 542.0,341.8 541.0,338.6 540.0,337.5 539.0,340.3 538.0,339.5 537.0,344.5 536.0,336.6 535.0,339.1 534.0,337.5 533.0,345.5 532.0,330.5 531.0,332.9 530.0,314.1 529.0,306.0 528.0,307.4 527.0,306.9 526.0,308.6 525.0,309.5 524.0,302.6 523.0,298.3 522.0,299.8 521.0,298.0 520.0,298.2 519.0,293.2 518.0,289.4 517.0,287.3 516.0,294.4 515.0,303.8 514.0,304.4 513.0,304.6 512.0,304.4 511.0,306.4 510.0,306.2 509.0,307.8 508.0,307.4 507.0,308.2 506.0,317.3 505.0,319.5 504.0,313.6 503.0,314.9 502.0,304.2 501.0,305.5 500.0,306.6 499.0,304.6 498.0,305.2 497.0,305.4 496.0,306.6 495.0,305.4 494.0,301.5 493.0,306.9 492.0,307.4 491.0,302.1 490.0,301.8 489.0,300.9 488.0,300.9 487.0,301.3 486.0,301.4 485.0,301.0 484.0,304.0 483.0,306.9 482.0,308.2 481.0,309.5 480.0,310.7 479.0,308.0 478.0,307.3 477.0,321.0 476.0,319.3 475.0,314.4 474.0,313.2 473.0,314.2 472.0,317.0 471.0,315.4 470.0,313.3 469.0,314.3 468.0,316.9 467.0,318.5 466.0,317.2 465.0,316.0 464.0,319.4 463.0,323.7 462.0,324.0 461.0,325.8 460.0,324.8 459.0,327.2 458.0,326.3 457.0,324.3 456.0,329.5 455.0,337.0 454.0,335.1 453.0,336.7 452.0,337.8 451.0,334.3 450.0,330.9 449.0,333.3 448.0,335.9 447.0,336.5 446.0,327.1 445.0,327.6 444.0,328.5 443.0,329.6 442.0,327.2 441.0,325.9 440.0,332.1 439.0,333.9 438.0,338.7 437.0,338.2 436.0,313.7 435.0,309.5 434.0,307.5 433.0,307.0 432.0,307.0 431.0,299.5 430.0,305.0 429.0,308.2 428.0,311.2 427.0,309.0 426.0,298.4 425.0,296.2 424.0,296.8 423.0,300.5 422.0,307.0 421.0,302.0 420.0,304.6 419.0,290.2 418.0,279.3 417.0,278.0 416.0,290.7 415.0,289.2 414.0,294.2 413.0,294.5 412.0,290.7 411.0,289.3 410.0,287.2 409.0,276.9 408.0,272.0 407.0,271.0 406.0,272.5 405.0,273.6 404.0,277.2 403.0,274.3 402.0,273.2 401.0,273.7 400.0,275.4 399.0,275.5 398.0,272.4 397.0,272.5 396.0,272.9 395.0,279.2 394.0,268.2 393.0,260.0 392.0,259.5 391.0,258.0 390.0,260.3 389.0,261.1 388.0,266.0 387.0,270.6 386.0,272.0 385.0,273.7 384.0,264.3 383.0,262.5 382.0,264.7 381.0,265.2 380.0,260.7 379.0,260.5 378.0,253.4 377.0,254.2 376.0,252.0 375.0,259.2 374.0,261.5 373.0,263.7 372.0,270.2 371.0,276.2 370.0,276.5 369.0,274.3 368.0,273.0 367.0,274.3 366.0,274.5 365.0,278.3 364.0,277.7 363.0,279.5 362.0,276.7 361.0,287.5 360.0,305.3 359.0,310.1 358.0,310.5 357.0,311.4 356.0,306.9 355.0,305.4 354.0,307.9 353.0,300.6 352.0,299.2 351.0,296.5 350.0,299.2 349.0,297.9 348.0,301.0 347.0,300.8 346.0,299.8 345.0,296.6 344.0,296.5 343.0,295.8 342.0,298.3 341.0,297.3 340.0,300.7 339.0,301.2 338.0,302.7 337.0,306.2 336.0,307.1 335.0,306.1 334.0,303.0 333.0,304.3 332.0,307.0 331.0,309.4 330.0,310.8 329.0,309.5 328.0,310.7 327.0,313.9 326.0,314.9 325.0,315.2 324.0,316.5 323.0,312.0 322.0,314.7 321.0,316.3 320.0,316.0 319.0,316.9 318.0,316.5 317.0,312.4 316.0,311.5 315.0,311.1 314.0,314.7 313.0,322.6 312.0,323.7 311.0,316.0 310.0,313.5 309.0,315.3 308.0,322.7 307.0,325.8 306.0,327.6 305.0,316.9 304.0,317.8 303.0,315.5 302.0,318.8 301.0,314.6 300.0,317.8 299.0,316.2 298.0,319.5 297.0,317.2 296.0,318.4 295.0,337.2 294.0,333.2 293.0,333.5 292.0,330.9 291.0,334.3 290.0,325.2 289.0,328.6 288.0,328.7 287.0,332.3 286.0,332.2 285.0,333.4 284.0,336.0 283.0,343.8 282.0,344.9 281.0,348.0 280.0,359.8 279.0,361.1 278.0,359.0 277.0,349.7 276.0,351.4 275.0,350.4 274.0,345.2 273.0,347.4 272.0,347.3 271.0,354.5 270.0,365.2 269.0,365.7 268.0,368.3 267.0,359.7 266.0,355.6 265.0,360.2 264.0,361.5 263.0,356.5 262.0,358.5 261.0,351.8 260.0,354.7 259.0,352.4 258.0,350.3 257.0,344.5 256.0,349.2 255.0,351.6 254.0,367.1 253.0,365.6 252.0,360.1 251.0,347.8 250.0,335.4 249.0,334.2 248.0,332.4 247.0,331.9 246.0,329.0 245.0,320.3 244.0,322.3 243.0,329.4 242.0,333.4 241.0,332.8 240.0,336.1 239.0,325.0 238.0,320.5 237.0,317.5 236.0,321.6 235.0,318.1 234.0,319.6 233.0,318.5 232.0,311.6 231.0,316.6 230.0,321.4 229.0,330.3 228.0,323.7 227.0,322.2 226.0,324.9 225.0,328.2 224.0,336.1 223.0,334.2 222.0,328.5 221.0,326.3 220.0,330.1 219.0,322.5 218.0,328.7 217.0,350.5 216.0,354.1 215.0,359.5 214.0,342.6 213.0,344.1 212.0,347.1 211.0,349.9 210.0,350.3 209.0,352.1 208.0,338.3 207.0,337.9 206.0,336.4 205.0,342.7 204.0,351.3 203.0,350.7 202.0,353.8 201.0,359.2 200.0,359.5 199.0,368.0 198.0,371.4 197.0,373.9 196.0,370.1 195.0,372.2 194.0,373.8 193.0,374.4 192.0,373.3 191.0,374.7 190.0,367.6 189.0,370.0 188.0,369.9 187.0,378.3 186.0,368.3 185.0,365.4 184.0,369.1 183.0,370.5 182.0,392.1 181.0,380.6 180.0,369.3 179.0,364.0 178.0,372.1 177.0,372.4 176.0,359.0 175.0,383.4 174.0,399.1 173.0,396.3 172.0,369.6 171.0,386.5 170.0,375.8 169.0,373.6 168.0,351.2 167.0,344.1 166.0,336.6 165.0,338.5 164.0,355.8 163.0,360.6 162.0,336.4 161.0,334.4 160.0,337.3 159.0,329.3 158.0,323.7 157.0,317.4 156.0,320.9 155.0,323.3 154.0,321.1 153.0,321.3 152.0,325.7 151.0,316.1 150.0,311.4 149.0,312.1 148.0,323.7 147.0,340.1 146.0,339.6 145.0,330.2 144.0,320.0 143.0,315.8 142.0,312.3 141.0,311.6 140.0,317.1 139.0,356.0 138.0,335.9 137.0,323.5 136.0,298.6 135.0,284.2 134.0,291.1 133.0,281.6 132.0,271.7 131.0,274.7 130.0,275.5 129.0,258.9 128.0,254.7 127.0,251.9 126.0,245.7 125.0,254.5 124.0,251.3 123.0,248.2 122.0,250.3 121.0,261.8 120.0,278.4 119.0,267.1 118.0,258.1 117.0,254.7 116.0,263.3 115.0,260.4 114.0,244.5 113.0,259.1 112.0,245.2 111.0,240.2 110.0,245.7 109.0,246.4 108.0,236.1 107.0,211.6 106.0,204.6 105.0,202.4 104.0,202.9 103.0,193.9 102.0,195.1 101.0,185.7 100.0,178.8 99.0,175.3 98.0,188.0 97.0,174.6 96.0,167.8 95.0,170.6 94.0,174.1 93.0,165.0 92.0,163.4 91.0,163.5 90.0,171.9 89.0,176.6 88.0,162.3 87.0,163.4 86.0,153.7 85.0,140.4 84.0,138.8 83.0,139.8 82.0,138.3 81.0,133.2 80.0,126.3 79.0,124.9 78.0,123.5 77.0,128.5 76.0,121.7" fill="#199e70" fill-opacity="0.3"/>
<polyline points="76.0,120.8 77.0,122.3 78.0,114.0 79.0,123.1 80.0,124.1 81.0,130.9 82.0,135.3 83.0,132.1 84.0,138.8 85.0,137.4 86.0,147.5 87.0,154.7 88.0,160.4 89.0,171.8 90.0,160.4 91.0,162.5 92.0,160.3 93.0,164.6 94.0,170.6 95.0,164.9 96.0,165.6 97.0,173.3 98.0,175.3 99.0,172.5 100.0,175.3 101.0,182.6 102.0,186.4 103.0,193.9 104.0,201.0 105.0,197.5 106.0,204.3 107.0,208.8 108.0,228.5 109.0,244.0 110.0,237.5 111.0,236.0 112.0,243.2 113.0,242.4 114.0,234.1 115.0,255.8 116.0,253.4 117.0,253.3 118.0,253.9 119.0,266.2 120.0,258.6 121.0,241.7 122.0,247.4 123.0,246.0 124.0,250.5 125.0,243.8 126.0,245.6 127.0,246.0 128.0,252.4 129.0,258.8 130.0,272.2 131.0,264.5 132.0,265.2 133.0,277.2 134.0,276.0 135.0,280.8 136.0,293.6 137.0,320.3 138.0,335.6 139.0,316.5 140.0,294.5 141.0,311.5 142.0,303.4 143.0,305.5 144.0,312.7 145.0,321.6 146.0,338.8 147.0,320.1 148.0,310.4 149.0,305.3 150.0,309.6 151.0,315.1 152.0,321.3 153.0,305.4 154.0,316.0 155.0,316.7 156.0,311.4 157.0,309.5 158.0,316.6 159.0,328.2 160.0,331.1 161.0,327.1 162.0,336.0 163.0,352.4 164.0,331.5 165.0,322.4 166.0,336.3 167.0,339.6 168.0,343.0 169.0,364.5 170.0,367.3 171.0,363.4 172.0,364.2 173.0,395.4 174.0,378.3 175.0,347.6 176.0,353.3 177.0,372.1 178.0,358.8 179.0,359.6 180.0,366.1 181.0,379.6 182.0,365.4 183.0,362.0 184.0,361.8 185.0,355.0 186.0,366.2 187.0,369.2 188.0,367.2 189.0,366.6 190.0,363.5 191.0,366.3 192.0,369.2 193.0,373.4 194.0,370.3 195.0,369.2 196.0,365.6 197.0,371.4 198.0,366.8 199.0,355.9 200.0,358.6 201.0,351.8 202.0,347.4 203.0,350.1 204.0,341.0 205.0,335.7 206.0,333.0 207.0,337.4 208.0,332.1 209.0,348.0 210.0,347.6 211.0,346.6 212.0,339.5 213.0,339.3 214.0,341.9 215.0,351.9 216.0,345.7 217.0,323.4 218.0,321.3 219.0,313.3 220.0,321.0 221.0,321.8 222.0,324.0 223.0,330.2 224.0,325.3 225.0,317.9 226.0,322.0 227.0,317.1 228.0,315.1 229.0,319.8 230.0,314.9 231.0,307.0 232.0,310.5 233.0,315.8 234.0,313.4 235.0,314.8 236.0,317.5 237.0,310.2 238.0,316.5 239.0,324.3 240.0,328.5 241.0,329.4 242.0,328.2 243.0,318.2 244.0,316.8 245.0,318.3 246.0,325.5 247.0,329.6 248.0,330.3 249.0,331.2 250.0,331.2 251.0,347.7 252.0,355.5 253.0,364.6 254.0,350.8 255.0,347.8 256.0,342.5 257.0,344.3 258.0,347.8 259.0,351.3 260.0,351.0 261.0,348.1 262.0,354.4 263.0,353.8 264.0,357.4 265.0,355.4 266.0,348.1 267.0,358.7 268.0,357.8 269.0,359.8 270.0,350.0 271.0,336.4 272.0,345.3 273.0,335.0 274.0,341.5 275.0,346.0 276.0,345.1 277.0,348.1 278.0,357.0 279.0,356.1 280.0,344.2 281.0,340.6 282.0,343.1 283.0,335.8 284.0,330.4 285.0,331.2 286.0,330.6 287.0,325.5 288.0,326.1 289.0,325.2 290.0,323.8 291.0,327.2 292.0,326.7 293.0,330.7 294.0,330.7 295.0,315.0 296.0,313.8 297.0,314.7 298.0,314.0 299.0,313.7 300.0,312.4 301.0,310.9 302.0,315.5 303.0,314.7 304.0,310.6 305.0,315.9 306.0,324.6 307.0,321.2 308.0,315.3 309.0,310.0 310.0,308.8 311.0,314.7 312.0,321.4 313.0,305.8 314.0,310.1 315.0,308.2 316.0,309.6 317.0,310.9 318.0,315.8 319.0,314.1 320.0,315.4 321.0,313.1 322.0,312.0 323.0,311.4 324.0,314.5 325.0,314.2 326.0,313.2 327.0,310.5 328.0,309.1 329.0,309.2 330.0,308.4 331.0,306.3 332.0,302.2 333.0,303.0 334.0,300.1 335.0,303.5 336.0,306.0 337.0,302.1 338.0,299.9 339.0,300.7 340.0,295.8 341.0,297.1 342.0,294.8 343.0,293.6 344.0,295.2 345.0,296.4 346.0,298.3 347.0,300.2 348.0,297.1 349.0,296.7 350.0,294.9 351.0,294.1 352.0,298.7 353.0,299.3 354.0,302.6 355.0,303.1 356.0,306.1 357.0,310.4 358.0,309.8 359.0,303.9 360.0,277.0 361.0,275.4 362.0,272.8 363.0,277.1 364.0,275.4 365.0,268.5 366.0,274.0 367.0,269.2 368.0,267.7 369.0,272.3 370.0,276.0 371.0,270.1 372.0,263.1 373.0,252.3 374.0,256.8 375.0,250.9 376.0,245.9 377.0,250.7 378.0,250.4 379.0,256.4 380.0,259.8 381.0,259.8 382.0,260.8 383.0,261.3 384.0,263.8 385.0,271.8 386.0,269.3 387.0,265.3 388.0,257.5 389.0,260.0 390.0,252.6 391.0,253.4 392.0,259.4 393.0,257.5 394.0,264.5 395.0,270.7 396.0,271.0 397.0,271.5 398.0,269.8 399.0,273.2 400.0,269.9 401.0,271.3 402.0,271.7 403.0,272.2 404.0,273.6 405.0,269.5 406.0,269.8 407.0,270.8 408.0,269.1 409.0,275.9 410.0,286.1 411.0,287.3 412.0,290.2 413.0,289.2 414.0,285.6 415.0,282.6 416.0,276.9 417.0,269.7 418.0,278.9 419.0,278.4 420.0,298.2 421.0,298.6 422.0,300.2 423.0,295.5 424.0,293.2 425.0,295.1 426.0,298.0 427.0,306.5 428.0,306.7 429.0,303.2 430.0,295.6 431.0,296.5 432.0,305.6 433.0,306.3 434.0,299.1 435.0,307.2 436.0,311.5 437.0,332.5 438.0,332.6 439.0,329.9 440.0,325.7 441.0,323.0 442.0,325.6 443.0,328.1 444.0,324.1 445.0,326.7 446.0,324.9 447.0,330.9 448.0,331.2 449.0,327.9 450.0,330.7 451.0,330.9 452.0,336.3 453.0,333.3 454.0,331.8 455.0,329.3 456.0,318.4 457.0,319.3 458.0,324.7 459.0,321.9 460.0,323.4 461.0,323.1 462.0,322.2 463.0,318.2 464.0,313.6 465.0,316.0 466.0,317.1 467.0,316.0 468.0,313.9 469.0,312.7 470.0,310.5 471.0,314.3 472.0,314.2 473.0,311.6 474.0,310.7 475.0,313.8 476.0,317.6 477.0,307.2 478.0,304.1 479.0,305.1 480.0,308.5 481.0,306.7 482.0,306.4 483.0,302.6 484.0,300.0 485.0,300.2 486.0,300.5 487.0,300.5 488.0,297.9 489.0,300.9 490.0,300.4 491.0,300.7 492.0,306.3 493.0,301.0 494.0,297.6 495.0,305.0 496.0,302.6 497.0,304.6 498.0,300.5 499.0,302.6 500.0,305.1 501.0,301.3 502.0,302.9 503.0,306.3 504.0,310.1 505.0,316.9 506.0,307.7 507.0,295.3 508.0,298.1 509.0,305.3 510.0,301.6 511.0,304.4 512.0,299.2 513.0,302.7 514.0,302.0 515.0,294.3 516.0,283.7 517.0,278.3 518.0,285.9 519.0,292.4 520.0,297.0 521.0,296.3 522.0,295.7 523.0,297.2 524.0,300.0 525.0,304.5 526.0,305.0 527.0,306.6 528.0,301.4 529.0,304.0 530.0,313.8 531.0,330.5 532.0,325.0 533.0,337.2 534.0,335.1 535.0,336.5 536.0,336.3 537.0,335.3 538.0,332.5 539.0,337.5 540.0,334.7 541.0,336.5 542.0,337.1 543.0,334.6 544.0,331.8 545.0,333.0 546.0,329.5 547.0,325.8 548.0,329.9 549.0,328.3 550.0,329.7 551.0,327.1 552.0,330.2 553.0,330.4 554.0,330.3 555.0,332.6 556.0,325.9 557.0,331.7 558.0,356.0 559.0,363.0 560.0,371.3 561.0,392.2 562.0,393.1 563.0,384.2 564.0,369.4 565.0,364.0 566.0,362.9 567.0,364.9 568.0,363.7 569.0,366.8 570.0,365.8 571.0,348.9 572.0,349.1 573.0,345.5 574.0,348.2 575.0,348.9 576.0,355.3 577.0,358.3 578.0,361.9 579.0,394.2 580.0,389.1 581.0,398.3 582.0,392.1 583.0,395.2 584.0,390.2 585.0,383.9 586.0,384.5 587.0,385.8 588.0,389.8 589.0,403.4 590.0,392.4 591.0,384.4 592.0,384.7 593.0,373.8 594.0,376.3 595.0,379.8 596.0,390.6 597.0,394.7 598.0,397.9 599.0,381.0 600.0,380.4 601.0,379.2 602.0,380.3 603.0,389.0 604.0,385.7 605.0,386.6 606.0,383.2 607.0,382.2 608.0,382.8 609.0,382.9 610.0,377.2 611.0,374.1 612.0,377.1 613.0,376.5 614.0,372.9 615.0,373.2 616.0,373.8 617.0,375.8 618.0,375.8 619.0,370.1 620.0,369.5 621.0,365.8 622.0,371.2 623.0,372.3 624.0,378.8 625.0,376.8 626.0,379.2 627.0,377.7 628.0,379.9 629.0,378.9 630.0,379.2 631.0,378.5 632.0,378.7 633.0,382.4 634.0,379.3 635.0,377.9 636.0,374.9 637.0,379.3 638.0,375.1 639.0,381.4 640.0,379.0 641.0,381.0 642.0,388.5 643.0,390.6 644.0,389.1 645.0,390.6 646.0,388.1 647.0,394.1 648.0,385.4 649.0,395.0 650.0,392.8 651.0,380.5 652.0,384.0 653.0,388.8 654.0,380.8 655.0,379.7 656.0,384.8 657.0,377.7 658.0,383.5 659.0,375.2 660.0,389.8 661.0,391.4 662.0,386.0 663.0,373.4 664.0,373.8 665.0,375.9 666.0,374.1 667.0,371.9 668.0,375.4 669.0,377.8 670.0,381.2 671.0,382.4 672.0,389.0 673.0,391.8 674.0,390.6 675.0,390.9 676.0,393.3 677.0,395.1 678.0,394.1 679.0,397.5 680.0,408.4 681.0,401.9 682.0,412.7 683.0,412.1 684.0,413.8 685.0,407.2 686.0,404.3 687.0,409.3 688.0,409.9 689.0,409.0 690.0,408.7 691.0,404.7 692.0,401.4 693.0,396.7 694.0,397.5 695.0,407.0 696.0,406.4 697.0,401.3 698.0,406.1 699.0,406.4 700.0,412.3 701.0,397.1 702.0,389.5 703.0,378.0 704.0,383.9 705.0,379.4 706.0,377.7 707.0,380.3 708.0,366.2 709.0,375.5 710.0,386.6 711.0,381.6 712.0,375.0 713.0,365.1 714.0,368.4 715.0,373.7 716.0,378.8 717.0,374.8 718.0,362.2 719.0,357.7 720.0,356.8 721.0,349.4 722.0,349.0 723.0,349.1 724.0,355.0 725.0,349.1 726.0,349.6 727.0,354.5 728.0,352.6 729.0,352.5 730.0,352.8 731.0,356.1 732.0,352.3 733.0,354.9 734.0,354.8 735.0,348.1 736.0,350.1 737.0,348.1 738.0,350.4 739.0,350.0 740.0,343.9 741.0,345.5 742.0,342.3 743.0,340.1 744.0,344.1 745.0,339.4 746.0,340.3 747.0,338.6 748.0,328.5 749.0,329.9 750.0,333.0 751.0,328.5 752.0,334.2 753.0,334.2 754.0,331.2 755.0,331.9 756.0,335.4 757.0,332.0 758.0,331.9 759.0,334.7 760.0,333.6 761.0,332.9 762.0,331.5 763.0,330.9 764.0,326.9 765.0,327.2 766.0,318.2 767.0,320.3 768.0,320.0 769.0,316.3 770.0,320.8 771.0,320.4 772.0,324.7 773.0,328.3 774.0,329.9 775.0,326.9 776.0,330.3 777.0,329.1 778.0,323.3 779.0,326.4 780.0,329.7 781.0,330.5 782.0,330.1 783.0,328.6 784.0,325.9 785.0,330.1 786.0,328.4 787.0,329.7 788.0,328.5 789.0,329.3 790.0,322.7 791.0,306.8 792.0,315.5 793.0,307.8 794.0,316.8 795.0,319.7 796.0,320.5 797.0,322.9 798.0,324.7 799.0,327.2 800.0,331.2 801.0,327.8 802.0,343.5 803.0,352.0 804.0,341.6 805.0,336.5 806.0,311.1 807.0,313.3 808.0,311.1 809.0,311.8 810.0,299.5 811.0,301.4 812.0,303.1 813.0,304.6 814.0,308.4 815.0,318.5 816.0,319.3 817.0,321.2 818.0,317.1 819.0,323.3 820.0,319.6 821.0,317.2 822.0,320.4 823.0,313.7 824.0,323.6 825.0,315.4 826.0,307.8 827.0,303.1 828.0,304.3 829.0,308.2 830.0,311.7 831.0,316.9 832.0,310.8 833.0,312.8 834.0,323.7 835.0,324.7 836.0,329.3 837.0,327.8 838.0,333.4 839.0,327.5 840.0,344.6 841.0,341.4 842.0,340.7 843.0,337.1 844.0,346.5 845.0,345.0 846.0,350.7 847.0,342.8 848.0,339.4 849.0,342.0 850.0,339.3 851.0,342.4 852.0,338.1 853.0,337.5 854.0,339.8 855.0,343.5 856.0,345.4 857.0,339.0 858.0,335.2 859.0,326.8 860.0,325.3 861.0,327.7 862.0,326.8 863.0,330.6 864.0,332.3 865.0,324.0 866.0,322.0 867.0,327.9 868.0,328.2 869.0,318.8 870.0,319.2 871.0,317.6 872.0,319.2 873.0,320.3 874.0,325.2 875.0,317.4 876.0,305.9 877.0,305.2 878.0,305.8 879.0,307.5 880.0,306.6 881.0,302.1 882.0,298.2 883.0,297.0 884.0,297.6 885.0,301.7 886.0,304.5 887.0,305.8 888.0,301.6 889.0,306.5 890.0,307.7 891.0,310.3 892.0,303.9 893.0,302.9 894.0,302.1" fill="none" stroke="#199e70" stroke-width="0.9"/>
<text x="76.0" y="462" font-size="11" fill="#898781" text-anchor="middle">1er juin</text>
<text x="219.5" y="462" font-size="11" fill="#898781" text-anchor="middle">8 juin</text>
<text x="363.0" y="462" font-size="11" fill="#898781" text-anchor="middle">15 juin</text>
<text x="506.5" y="462" font-size="11" fill="#898781" text-anchor="middle">22 juin</text>
<text x="650.0" y="462" font-size="11" fill="#898781" text-anchor="middle">29 juin</text>
<text x="793.5" y="462" font-size="11" fill="#898781" text-anchor="middle">6 juil.</text>
<text x="875.5" y="462" font-size="11" fill="#898781" text-anchor="middle">10 juil.</text>
<text x="76.0" y="496" font-size="12" fill="#c3c2b7" text-anchor="start">Une seule courbe visible : à cette échelle, les deux voies sont indiscernables — l’aqua recouvre le bleu point pour point.</text>
</svg>
