<svg xmlns="http://www.w3.org/2000/svg" viewBox="0 0 920 470" font-family="system-ui,-apple-system,'Segoe UI',sans-serif" role="img" aria-label="L’écart de clôture entre les deux voies Bybit">
<rect width="920" height="470" fill="#0d1117"/>
<text x="76" y="34" font-size="19" fill="#ffffff" text-anchor="start" font-weight="600">L’écart sur la journée témoin, au fil des heures</text>
<text x="76" y="56" font-size="12.5" fill="#c3c2b7" text-anchor="start">Clôture voie B − clôture voie A ($), 5 juin 2026 — même résolution que la journée (1 seconde)</text>
<line x1="76.0" y1="144.5" x2="896.0" y2="144.5" stroke="#21262d"/>
<text x="68.0" y="148.5" font-size="11" fill="#898781" text-anchor="end">+20 $</text>
<line x1="76.0" y1="347.5" x2="896.0" y2="347.5" stroke="#21262d"/>
<text x="68.0" y="351.5" font-size="11" fill="#898781" text-anchor="end">−20 $</text>
<line x1="76.0" y1="246.0" x2="896.0" y2="246.0" stroke="#383835" stroke-width="1.2"/>
<text x="68.0" y="250.0" font-size="11" fill="#898781" text-anchor="end">0</text>
<polygon points="76.0,229.3 77.0,232.3 78.0,234.3 79.0,232.3 80.0,233.8 81.0,243.0 82.0,239.4 83.0,236.4 84.0,234.8 85.0,227.2 86.0,225.2 87.0,241.4 88.0,236.4 89.0,239.4 90.0,235.3 91.0,239.4 92.0,233.3 93.0,228.7 94.0,237.9 95.0,237.4 96.0,229.8 97.0,225.7 98.0,228.2 99.0,233.8 100.0,226.2 101.0,228.2 102.0,219.1 103.0,232.8 104.0,228.7 105.0,209.0 106.0,229.3 107.0,231.3 108.0,223.2 109.0,241.4 110.0,241.9 111.0,229.8 112.0,226.7 113.0,235.3 114.0,229.8 115.0,239.9 116.0,224.7 117.0,236.4 118.0,229.3 119.0,221.6 120.0,230.3 121.0,233.8 122.0,220.1 123.0,234.3 124.0,222.1 125.0,225.7 126.0,228.2 127.0,221.1 128.0,237.4 129.0,227.7 130.0,242.4 131.0,228.2 132.0,232.3 133.0,238.4 134.0,230.3 135.0,236.4 136.0,222.7 137.0,215.0 138.0,228.2 139.0,232.8 140.0,236.9 141.0,232.3 142.0,226.7 143.0,226.7 144.0,223.2 145.0,238.4 146.0,237.4 147.0,234.8 148.0,219.6 149.0,240.9 150.0,232.3 151.0,230.8 152.0,238.9 153.0,230.8 154.0,220.6 155.0,233.8 156.0,235.8 157.0,230.8 158.0,234.3 159.0,238.4 160.0,216.6 161.0,235.8 162.0,241.4 163.0,220.1 164.0,231.3 165.0,241.9 166.0,237.4 167.0,239.4 168.0,218.6 169.0,234.8 170.0,232.8 171.0,229.3 172.0,227.2 173.0,239.9 174.0,237.9 175.0,239.9 176.0,228.7 177.0,225.2 178.0,233.8 179.0,228.2 180.0,229.8 181.0,234.3 182.0,224.2 183.0,230.3 184.0,233.3 185.0,224.2 186.0,233.3 187.0,235.8 188.0,236.9 189.0,210.5 190.0,217.1 191.0,215.0 192.0,225.7 193.0,225.2 194.0,243.0 195.0,236.4 196.0,236.9 197.0,216.6 198.0,229.8 199.0,233.8 200.0,239.4 201.0,234.8 202.0,206.9 203.0,239.4 204.0,224.7 205.0,229.3 206.0,237.9 207.0,236.9 208.0,229.3 209.0,236.9 210.0,222.7 211.0,239.9 212.0,235.3 213.0,234.8 214.0,220.1 215.0,222.7 216.0,237.9 217.0,232.3 218.0,224.7 219.0,238.4 220.0,244.0 221.0,218.6 222.0,222.1 223.0,233.3 224.0,238.4 225.0,235.8 226.0,221.6 227.0,218.6 228.0,223.2 229.0,224.2 230.0,215.0 231.0,239.4 232.0,241.9 233.0,236.9 234.0,226.2 235.0,243.0 236.0,238.9 237.0,230.8 238.0,209.5 239.0,216.1 240.0,243.0 241.0,239.4 242.0,224.2 243.0,242.4 244.0,239.9 245.0,239.9 246.0,231.8 247.0,228.2 248.0,228.2 249.0,222.7 250.0,209.5 251.0,232.3 252.0,235.8 253.0,224.2 254.0,217.6 255.0,230.8 256.0,233.8 257.0,228.7 258.0,219.6 259.0,220.1 260.0,224.2 261.0,242.4 262.0,225.7 263.0,235.3 264.0,240.4 265.0,222.7 266.0,227.7 267.0,238.9 268.0,229.3 269.0,217.1 270.0,232.3 271.0,232.8 272.0,233.8 273.0,214.5 274.0,223.2 275.0,218.6 276.0,222.1 277.0,236.9 278.0,214.0 279.0,211.0 280.0,246.0 281.0,216.6 282.0,209.0 283.0,240.9 284.0,222.1 285.0,231.8 286.0,220.6 287.0,223.7 288.0,210.0 289.0,218.6 290.0,228.7 291.0,233.8 292.0,226.7 293.0,192.2 294.0,214.5 295.0,229.3 296.0,239.4 297.0,217.1 298.0,207.9 299.0,241.4 300.0,245.0 301.0,235.8 302.0,217.1 303.0,164.3 304.0,230.3 305.0,236.9 306.0,215.5 307.0,234.3 308.0,223.7 309.0,218.1 310.0,214.5 311.0,225.2 312.0,226.2 313.0,216.1 314.0,243.5 315.0,226.2 316.0,241.9 317.0,218.6 318.0,232.3 319.0,171.4 320.0,217.1 321.0,234.8 322.0,217.1 323.0,228.2 324.0,225.7 325.0,221.6 326.0,229.3 327.0,234.3 328.0,232.8 329.0,234.8 330.0,214.5 331.0,223.2 332.0,235.3 333.0,243.5 334.0,229.3 335.0,234.8 336.0,231.8 337.0,221.1 338.0,233.8 339.0,232.8 340.0,240.4 341.0,243.5 342.0,226.7 343.0,236.9 344.0,227.2 345.0,231.8 346.0,235.3 347.0,232.8 348.0,231.3 349.0,221.1 350.0,235.3 351.0,224.2 352.0,232.8 353.0,225.7 354.0,235.8 355.0,227.7 356.0,234.3 357.0,235.8 358.0,229.8 359.0,232.3 360.0,233.8 361.0,227.2 362.0,224.2 363.0,229.8 364.0,235.8 365.0,224.2 366.0,245.5 367.0,220.1 368.0,230.3 369.0,236.9 370.0,222.1 371.0,242.4 372.0,239.9 373.0,233.3 374.0,223.7 375.0,231.8 376.0,228.7 377.0,237.9 378.0,231.3 379.0,234.8 380.0,244.0 381.0,240.9 382.0,239.9 383.0,242.4 384.0,232.8 385.0,236.4 386.0,238.9 387.0,240.4 388.0,239.9 389.0,238.9 390.0,241.4 391.0,218.6 392.0,224.2 393.0,222.7 394.0,241.9 395.0,234.8 396.0,242.4 397.0,240.9 398.0,239.9 399.0,236.9 400.0,239.9 401.0,231.3 402.0,238.9 403.0,236.4 404.0,217.1 405.0,237.9 406.0,242.4 407.0,241.9 408.0,239.9 409.0,227.7 410.0,227.7 411.0,233.8 412.0,241.4 413.0,226.7 414.0,222.7 415.0,233.8 416.0,221.6 417.0,227.7 418.0,235.3 419.0,224.7 420.0,234.3 421.0,227.7 422.0,230.8 423.0,227.7 424.0,238.4 425.0,233.8 426.0,231.8 427.0,227.2 428.0,231.8 429.0,219.1 430.0,239.9 431.0,229.8 432.0,231.3 433.0,237.9 434.0,233.8 435.0,229.8 436.0,239.9 437.0,231.8 438.0,228.2 439.0,239.9 440.0,246.0 441.0,234.8 442.0,237.9 443.0,235.3 444.0,245.0 445.0,243.0 446.0,239.4 447.0,229.8 448.0,234.8 449.0,237.4 450.0,239.4 451.0,233.3 452.0,232.3 453.0,239.4 454.0,240.4 455.0,243.5 456.0,236.9 457.0,237.9 458.0,238.9 459.0,235.8 460.0,233.8 461.0,234.8 462.0,241.4 463.0,237.9 464.0,232.8 465.0,228.7 466.0,239.9 467.0,240.9 468.0,226.7 469.0,239.9 470.0,240.4 471.0,222.1 472.0,240.9 473.0,221.6 474.0,212.5 475.0,223.7 476.0,218.6 477.0,233.8 478.0,242.4 479.0,233.3 480.0,229.3 481.0,234.8 482.0,239.9 483.0,235.3 484.0,219.6 485.0,227.7 486.0,220.1 487.0,242.4 488.0,238.9 489.0,243.0 490.0,213.0 491.0,239.4 492.0,234.3 493.0,235.3 494.0,224.2 495.0,232.3 496.0,238.9 497.0,237.4 498.0,232.8 499.0,232.3 500.0,236.4 501.0,220.6 502.0,227.2 503.0,237.4 504.0,236.9 505.0,228.7 506.0,237.4 507.0,239.9 508.0,234.8 509.0,230.8 510.0,236.9 511.0,234.8 512.0,244.0 513.0,217.1 514.0,231.8 515.0,216.6 516.0,230.3 517.0,226.7 518.0,225.2 519.0,242.4 520.0,237.4 521.0,212.5 522.0,237.4 523.0,237.9 524.0,219.6 525.0,220.1 526.0,223.2 527.0,227.2 528.0,227.7 529.0,228.7 530.0,223.2 531.0,237.4 532.0,229.3 533.0,232.8 534.0,229.3 535.0,233.8 536.0,234.3 537.0,233.8 538.0,230.8 539.0,230.3 540.0,236.4 541.0,214.0 542.0,216.6 543.0,245.0 544.0,241.9 545.0,237.9 546.0,232.8 547.0,115.6 548.0,241.4 549.0,202.9 550.0,243.5 551.0,244.0 552.0,243.0 553.0,233.8 554.0,238.4 555.0,223.7 556.0,216.6 557.0,241.9 558.0,222.1 559.0,231.8 560.0,219.1 561.0,221.1 562.0,224.2 563.0,227.2 564.0,242.4 565.0,219.1 566.0,231.8 567.0,226.7 568.0,215.5 569.0,235.3 570.0,240.9 571.0,233.3 572.0,217.6 573.0,239.4 574.0,233.8 575.0,239.4 576.0,234.8 577.0,236.9 578.0,222.1 579.0,239.4 580.0,242.4 581.0,219.6 582.0,241.9 583.0,231.8 584.0,227.7 585.0,236.9 586.0,242.4 587.0,230.3 588.0,242.4 589.0,239.4 590.0,227.7 591.0,238.9 592.0,238.4 593.0,242.4 594.0,231.8 595.0,222.7 596.0,199.8 597.0,226.2 598.0,239.4 599.0,237.4 600.0,234.3 601.0,238.4 602.0,213.5 603.0,240.4 604.0,223.2 605.0,236.9 606.0,238.4 607.0,237.9 608.0,240.9 609.0,154.6 610.0,228.2 611.0,222.7 612.0,232.8 613.0,233.8 614.0,239.9 615.0,221.6 616.0,239.4 617.0,213.0 618.0,223.7 619.0,220.6 620.0,241.4 621.0,228.7 622.0,226.7 623.0,213.5 624.0,210.5 625.0,220.1 626.0,219.1 627.0,227.7 628.0,236.4 629.0,222.7 630.0,210.0 631.0,212.0 632.0,204.9 633.0,239.9 634.0,235.8 635.0,195.2 636.0,213.0 637.0,223.2 638.0,231.3 639.0,236.9 640.0,217.1 641.0,218.1 642.0,223.2 643.0,227.7 644.0,227.2 645.0,225.7 646.0,238.4 647.0,229.8 648.0,221.6 649.0,236.9 650.0,224.7 651.0,221.6 652.0,224.7 653.0,227.2 654.0,231.3 655.0,206.4 656.0,216.6 657.0,235.3 658.0,239.4 659.0,233.8 660.0,225.7 661.0,221.6 662.0,227.7 663.0,225.2 664.0,231.3 665.0,216.1 666.0,229.3 667.0,219.1 668.0,217.1 669.0,212.0 670.0,223.2 671.0,235.3 672.0,230.3 673.0,224.7 674.0,221.1 675.0,228.7 676.0,232.3 677.0,232.8 678.0,228.7 679.0,223.2 680.0,228.2 681.0,233.8 682.0,216.1 683.0,215.5 684.0,219.6 685.0,229.8 686.0,235.8 687.0,221.1 688.0,238.4 689.0,227.2 690.0,231.8 691.0,235.8 692.0,232.3 693.0,229.8 694.0,235.3 695.0,226.2 696.0,227.7 697.0,237.9 698.0,231.3 699.0,221.6 700.0,221.1 701.0,217.6 702.0,224.2 703.0,219.1 704.0,237.4 705.0,201.8 706.0,228.7 707.0,229.3 708.0,236.4 709.0,217.1 710.0,222.1 711.0,219.1 712.0,220.6 713.0,240.4 714.0,229.3 715.0,221.6 716.0,217.6 717.0,238.4 718.0,246.0 719.0,229.3 720.0,186.1 721.0,225.2 722.0,224.2 723.0,240.4 724.0,240.4 725.0,220.1 726.0,237.4 727.0,221.6 728.0,238.4 729.0,229.3 730.0,221.6 731.0,236.4 732.0,222.1 733.0,222.1 734.0,226.7 735.0,209.5 736.0,225.2 737.0,211.5 738.0,220.6 739.0,239.9 740.0,233.8 741.0,228.2 742.0,240.9 743.0,233.8 744.0,225.2 745.0,237.4 746.0,233.8 747.0,217.1 748.0,212.0 749.0,239.4 750.0,239.4 751.0,219.6 752.0,233.3 753.0,238.9 754.0,217.6 755.0,221.6 756.0,214.0 757.0,233.8 758.0,231.8 759.0,219.6 760.0,229.3 761.0,238.9 762.0,240.4 763.0,237.4 764.0,233.8 765.0,220.1 766.0,231.3 767.0,230.3 768.0,217.1 769.0,216.6 770.0,206.9 771.0,232.3 772.0,231.8 773.0,236.9 774.0,240.4 775.0,237.4 776.0,218.6 777.0,222.1 778.0,216.6 779.0,228.7 780.0,241.4 781.0,238.4 782.0,239.9 783.0,225.7 784.0,226.2 785.0,227.2 786.0,205.4 787.0,228.7 788.0,231.3 789.0,215.5 790.0,225.7 791.0,238.9 792.0,232.3 793.0,239.4 794.0,234.8 795.0,208.4 796.0,214.0 797.0,225.2 798.0,235.8 799.0,231.3 800.0,224.2 801.0,226.2 802.0,234.3 803.0,229.8 804.0,230.3 805.0,231.8 806.0,234.3 807.0,233.3 808.0,233.3 809.0,238.4 810.0,234.3 811.0,243.0 812.0,241.4 813.0,237.9 814.0,230.8 815.0,240.9 816.0,229.8 817.0,232.8 818.0,231.3 819.0,227.7 820.0,230.3 821.0,215.5 822.0,206.9 823.0,231.3 824.0,229.3 825.0,213.0 826.0,241.4 827.0,229.3 828.0,222.7 829.0,235.8 830.0,239.4 831.0,245.0 832.0,234.8 833.0,232.3 834.0,225.7 835.0,207.9 836.0,228.7 837.0,222.1 838.0,224.7 839.0,221.6 840.0,219.6 841.0,219.6 842.0,211.5 843.0,233.3 844.0,229.3 845.0,212.0 846.0,227.2 847.0,203.9 848.0,221.6 849.0,229.8 850.0,215.0 851.0,225.7 852.0,225.2 853.0,224.2 854.0,234.3 855.0,217.6 856.0,215.5 857.0,231.8 858.0,213.0 859.0,240.4 860.0,233.3 861.0,215.5 862.0,240.4 863.0,212.5 864.0,225.2 865.0,179.5 866.0,230.3 867.0,225.2 868.0,220.6 869.0,244.0 870.0,207.4 871.0,198.8 872.0,238.4 873.0,240.9 874.0,205.4 875.0,227.2 876.0,206.9 877.0,238.4 878.0,195.8 879.0,224.2 880.0,219.1 881.0,226.2 882.0,216.6 883.0,224.7 884.0,240.4 885.0,230.8 886.0,233.8 887.0,217.6 888.0,212.0 889.0,236.4 890.0,234.3 891.0,220.6 892.0,219.6 893.0,240.9 894.0,238.4 894.0,275.9 893.0,255.6 892.0,262.7 891.0,273.9 890.0,262.7 889.0,277.0 888.0,269.9 887.0,268.3 886.0,273.4 885.0,261.2 884.0,283.0 883.0,263.3 882.0,257.7 881.0,267.3 880.0,276.5 879.0,264.8 878.0,252.1 877.0,252.1 876.0,268.8 875.0,268.8 874.0,268.8 873.0,261.2 872.0,267.8 871.0,265.3 870.0,279.5 869.0,274.4 868.0,263.3 867.0,267.3 866.0,269.3 865.0,262.2 864.0,270.9 863.0,271.4 862.0,273.4 861.0,274.9 860.0,270.4 859.0,280.0 858.0,271.4 857.0,265.3 856.0,274.9 855.0,257.7 854.0,287.6 853.0,259.2 852.0,256.2 851.0,266.8 850.0,271.4 849.0,280.0 848.0,285.6 847.0,277.0 846.0,267.8 845.0,277.5 844.0,259.7 843.0,274.4 842.0,285.1 841.0,263.3 840.0,286.1 839.0,275.4 838.0,273.4 837.0,270.9 836.0,255.6 835.0,280.5 834.0,273.4 833.0,264.3 832.0,261.2 831.0,259.2 830.0,262.7 829.0,268.3 828.0,273.4 827.0,256.2 826.0,258.7 825.0,259.2 824.0,266.8 823.0,259.7 822.0,260.7 821.0,272.4 820.0,255.1 819.0,253.6 818.0,249.0 817.0,256.2 816.0,281.5 815.0,274.4 814.0,278.5 813.0,264.8 812.0,261.7 811.0,267.3 810.0,257.2 809.0,266.8 808.0,248.0 807.0,265.8 806.0,255.1 805.0,250.1 804.0,257.7 803.0,286.1 802.0,268.8 801.0,286.1 800.0,263.3 799.0,268.8 798.0,271.9 797.0,254.6 796.0,275.4 795.0,254.1 794.0,269.9 793.0,259.2 792.0,270.9 791.0,262.7 790.0,263.3 789.0,278.0 788.0,254.6 787.0,286.6 786.0,281.5 785.0,267.8 784.0,272.9 783.0,261.7 782.0,256.7 781.0,249.0 780.0,271.4 779.0,273.9 778.0,268.8 777.0,259.7 776.0,277.5 775.0,270.9 774.0,276.5 773.0,262.2 772.0,264.3 771.0,274.9 770.0,266.3 769.0,267.8 768.0,270.4 767.0,263.3 766.0,269.9 765.0,272.9 764.0,261.2 763.0,259.7 762.0,270.4 761.0,258.7 760.0,293.2 759.0,283.6 758.0,270.9 757.0,270.9 756.0,267.8 755.0,268.3 754.0,265.3 753.0,263.8 752.0,262.2 751.0,295.7 750.0,263.8 749.0,258.7 748.0,282.0 747.0,263.3 746.0,272.4 745.0,272.4 744.0,265.3 743.0,268.3 742.0,261.2 741.0,262.2 740.0,261.7 739.0,258.7 738.0,253.6 737.0,272.4 736.0,261.7 735.0,262.7 734.0,268.3 733.0,259.2 732.0,252.6 731.0,269.3 730.0,275.9 729.0,257.7 728.0,280.0 727.0,265.3 726.0,284.6 725.0,286.6 724.0,260.7 723.0,255.6 722.0,253.1 721.0,262.2 720.0,256.2 719.0,258.7 718.0,270.4 717.0,256.2 716.0,258.2 715.0,303.4 714.0,261.7 713.0,272.9 712.0,272.4 711.0,274.4 710.0,257.7 709.0,267.3 708.0,278.5 707.0,263.8 706.0,260.7 705.0,270.9 704.0,250.6 703.0,272.4 702.0,263.8 701.0,275.9 700.0,262.7 699.0,261.7 698.0,261.2 697.0,263.3 696.0,262.7 695.0,259.2 694.0,278.0 693.0,274.9 692.0,252.6 691.0,256.2 690.0,263.3 689.0,266.3 688.0,260.7 687.0,272.9 686.0,273.4 685.0,268.8 684.0,262.2 683.0,261.7 682.0,283.0 681.0,276.5 680.0,278.5 679.0,277.0 678.0,272.4 677.0,276.5 676.0,258.2 675.0,281.5 674.0,279.0 673.0,286.6 672.0,256.7 671.0,264.3 670.0,262.7 669.0,277.5 668.0,272.4 667.0,267.3 666.0,253.6 665.0,269.3 664.0,262.7 663.0,260.2 662.0,252.1 661.0,260.7 660.0,272.9 659.0,267.3 658.0,267.3 657.0,265.8 656.0,263.3 655.0,272.9 654.0,274.9 653.0,252.1 652.0,277.5 651.0,274.9 650.0,280.0 649.0,282.5 648.0,257.7 647.0,271.4 646.0,261.7 645.0,264.8 644.0,267.3 643.0,272.9 642.0,267.3 641.0,265.3 640.0,276.5 639.0,263.8 638.0,262.2 637.0,266.8 636.0,263.8 635.0,267.8 634.0,256.7 633.0,253.6 632.0,249.0 631.0,259.2 630.0,349.5 629.0,265.3 628.0,257.7 627.0,279.0 626.0,249.0 625.0,267.8 624.0,289.6 623.0,282.0 622.0,256.2 621.0,252.6 620.0,255.6 619.0,271.9 618.0,302.8 617.0,275.4 616.0,280.0 615.0,260.2 614.0,268.3 613.0,252.6 612.0,261.2 611.0,264.3 610.0,250.1 609.0,256.2 608.0,267.3 607.0,259.7 606.0,256.2 605.0,267.8 604.0,267.3 603.0,253.1 602.0,249.6 601.0,260.2 600.0,246.5 599.0,264.8 598.0,263.8 597.0,254.6 596.0,281.5 595.0,250.6 594.0,257.7 593.0,258.2 592.0,264.8 591.0,266.3 590.0,255.1 589.0,260.7 588.0,285.1 587.0,253.1 586.0,261.7 585.0,259.7 584.0,276.5 583.0,253.1 582.0,259.7 581.0,262.2 580.0,258.7 579.0,261.7 578.0,251.6 577.0,267.8 576.0,257.7 575.0,269.3 574.0,276.5 573.0,253.1 572.0,259.7 571.0,270.9 570.0,250.1 569.0,259.2 568.0,268.8 567.0,247.5 566.0,262.7 565.0,246.0 564.0,271.9 563.0,252.1 562.0,270.4 561.0,273.4 560.0,254.1 559.0,258.2 558.0,272.4 557.0,257.2 556.0,254.6 555.0,255.6 554.0,257.2 553.0,265.8 552.0,261.7 551.0,255.6 550.0,249.6 549.0,257.2 548.0,256.2 547.0,251.1 546.0,252.6 545.0,280.0 544.0,294.2 543.0,257.2 542.0,254.6 541.0,254.6 540.0,253.6 539.0,256.2 538.0,270.4 537.0,262.2 536.0,271.9 535.0,274.9 534.0,251.6 533.0,260.7 532.0,264.3 531.0,258.2 530.0,251.1 529.0,252.1 528.0,253.6 527.0,253.6 526.0,267.3 525.0,269.9 524.0,256.7 523.0,256.7 522.0,267.8 521.0,266.3 520.0,253.6 519.0,255.6 518.0,253.6 517.0,255.6 516.0,255.6 515.0,261.2 514.0,253.6 513.0,257.2 512.0,254.6 511.0,267.3 510.0,280.5 509.0,258.2 508.0,261.2 507.0,257.7 506.0,273.9 505.0,255.6 504.0,266.3 503.0,258.7 502.0,251.6 501.0,255.6 500.0,253.6 499.0,254.1 498.0,251.6 497.0,261.2 496.0,253.6 495.0,264.8 494.0,267.8 493.0,255.1 492.0,270.4 491.0,253.6 490.0,271.9 489.0,272.4 488.0,255.6 487.0,255.6 486.0,263.3 485.0,261.2 484.0,249.0 483.0,263.3 482.0,264.3 481.0,264.3 480.0,261.7 479.0,259.2 478.0,257.7 477.0,248.5 476.0,252.6 475.0,250.6 474.0,248.0 473.0,254.1 472.0,252.6 471.0,252.6 470.0,256.7 469.0,248.0 468.0,259.7 467.0,268.3 466.0,253.1 465.0,268.3 464.0,274.4 463.0,267.3 462.0,269.9 461.0,253.6 460.0,274.9 459.0,247.0 458.0,267.8 457.0,257.2 456.0,252.1 455.0,261.7 454.0,269.9 453.0,256.2 452.0,248.0 451.0,259.2 450.0,256.2 449.0,254.6 448.0,266.8 447.0,260.7 446.0,252.6 445.0,255.6 444.0,263.8 443.0,256.2 442.0,266.3 441.0,261.2 440.0,257.7 439.0,272.9 438.0,275.9 437.0,273.9 436.0,271.4 435.0,275.4 434.0,267.8 433.0,266.3 432.0,268.3 431.0,276.5 430.0,263.8 429.0,256.2 428.0,263.3 427.0,265.8 426.0,261.2 425.0,253.1 424.0,267.3 423.0,258.7 422.0,254.6 421.0,274.4 420.0,251.1 419.0,266.3 418.0,254.1 417.0,277.5 416.0,249.0 415.0,260.7 414.0,281.0 413.0,256.2 412.0,262.7 411.0,272.4 410.0,261.7 409.0,272.9 408.0,258.7 407.0,257.7 406.0,251.1 405.0,288.6 404.0,255.6 403.0,283.6 402.0,267.3 401.0,248.0 400.0,262.2 399.0,270.9 398.0,253.6 397.0,250.6 396.0,253.6 395.0,271.4 394.0,247.0 393.0,251.6 392.0,262.7 391.0,257.7 390.0,261.7 389.0,251.6 388.0,256.2 387.0,258.2 386.0,266.8 385.0,254.1 384.0,256.2 383.0,271.4 382.0,277.0 381.0,257.7 380.0,272.4 379.0,266.3 378.0,278.5 377.0,259.7 376.0,254.6 375.0,259.7 374.0,253.1 373.0,246.0 372.0,260.7 371.0,253.6 370.0,253.6 369.0,275.9 368.0,272.9 367.0,263.8 366.0,259.2 365.0,258.2 364.0,269.3 363.0,255.1 362.0,251.1 361.0,250.6 360.0,267.3 359.0,257.2 358.0,267.3 357.0,258.2 356.0,264.8 355.0,292.7 354.0,253.1 353.0,262.7 352.0,252.6 351.0,279.5 350.0,256.7 349.0,253.6 348.0,249.6 347.0,266.3 346.0,264.3 345.0,256.7 344.0,257.7 343.0,262.2 342.0,267.8 341.0,251.6 340.0,280.0 339.0,258.7 338.0,257.2 337.0,258.7 336.0,253.6 335.0,262.7 334.0,273.9 333.0,268.3 332.0,269.3 331.0,295.7 330.0,260.2 329.0,261.7 328.0,280.5 327.0,253.1 326.0,266.8 325.0,264.3 324.0,257.7 323.0,263.8 322.0,258.7 321.0,278.0 320.0,263.3 319.0,286.6 318.0,262.2 317.0,269.3 316.0,297.3 315.0,253.1 314.0,262.2 313.0,277.5 312.0,260.7 311.0,259.2 310.0,273.4 309.0,270.9 308.0,272.9 307.0,262.2 306.0,262.7 305.0,255.1 304.0,264.3 303.0,278.5 302.0,274.4 301.0,274.9 300.0,249.0 299.0,257.2 298.0,256.7 297.0,280.5 296.0,253.6 295.0,277.0 294.0,310.5 293.0,267.3 292.0,269.3 291.0,271.4 290.0,253.6 289.0,255.6 288.0,259.7 287.0,273.4 286.0,253.1 285.0,289.1 284.0,271.9 283.0,264.8 282.0,264.3 281.0,280.5 280.0,272.4 279.0,284.6 278.0,257.7 277.0,266.3 276.0,271.4 275.0,258.7 274.0,264.3 273.0,257.7 272.0,275.9 271.0,254.1 270.0,269.3 269.0,255.1 268.0,285.1 267.0,277.5 266.0,271.4 265.0,257.7 264.0,256.2 263.0,256.7 262.0,256.2 261.0,252.6 260.0,249.0 259.0,259.7 258.0,272.4 257.0,258.7 256.0,256.2 255.0,268.8 254.0,259.7 253.0,262.2 252.0,271.4 251.0,264.3 250.0,252.6 249.0,256.2 248.0,253.6 247.0,265.3 246.0,250.6 245.0,256.2 244.0,264.8 243.0,258.2 242.0,260.2 241.0,262.2 240.0,271.4 239.0,261.7 238.0,269.3 237.0,252.1 236.0,253.1 235.0,260.7 234.0,252.6 233.0,265.8 232.0,267.3 231.0,254.1 230.0,248.0 229.0,253.6 228.0,252.6 227.0,261.2 226.0,264.3 225.0,256.7 224.0,251.6 223.0,259.7 222.0,263.3 221.0,260.7 220.0,277.0 219.0,269.9 218.0,258.2 217.0,266.3 216.0,253.1 215.0,267.3 214.0,261.2 213.0,255.6 212.0,260.7 211.0,261.2 210.0,271.4 209.0,269.3 208.0,260.2 207.0,251.6 206.0,252.1 205.0,273.4 204.0,260.7 203.0,260.7 202.0,268.3 201.0,262.2 200.0,267.8 199.0,262.2 198.0,253.1 197.0,252.1 196.0,266.8 195.0,247.5 194.0,255.1 193.0,268.8 192.0,277.0 191.0,273.9 190.0,271.9 189.0,259.7 188.0,286.6 187.0,263.3 186.0,268.8 185.0,255.6 184.0,256.7 183.0,255.6 182.0,266.8 181.0,278.5 180.0,257.7 179.0,254.1 178.0,259.2 177.0,281.5 176.0,265.3 175.0,261.2 174.0,261.2 173.0,260.7 172.0,276.5 171.0,261.2 170.0,272.4 169.0,270.4 168.0,252.6 167.0,267.3 166.0,270.9 165.0,266.3 164.0,255.1 163.0,273.4 162.0,258.2 161.0,250.6 160.0,265.8 159.0,252.1 158.0,257.2 157.0,258.7 156.0,272.9 155.0,258.2 154.0,260.2 153.0,256.2 152.0,256.2 151.0,267.8 150.0,256.2 149.0,273.4 148.0,265.8 147.0,264.3 146.0,257.2 145.0,256.7 144.0,262.2 143.0,260.7 142.0,250.6 141.0,256.7 140.0,266.8 139.0,262.7 138.0,260.7 137.0,272.9 136.0,254.1 135.0,264.8 134.0,258.2 133.0,252.1 132.0,254.1 131.0,258.7 130.0,263.3 129.0,253.6 128.0,274.9 127.0,251.6 126.0,264.8 125.0,258.2 124.0,268.3 123.0,270.4 122.0,266.8 121.0,259.7 120.0,260.7 119.0,264.8 118.0,256.7 117.0,279.0 116.0,264.3 115.0,266.8 114.0,268.8 113.0,260.7 112.0,251.6 111.0,264.3 110.0,253.1 109.0,259.7 108.0,258.7 107.0,282.5 106.0,252.6 105.0,252.6 104.0,262.2 103.0,261.2 102.0,252.1 101.0,255.1 100.0,254.1 99.0,253.6 98.0,273.9 97.0,273.9 96.0,257.2 95.0,252.6 94.0,250.1 93.0,259.7 92.0,250.6 91.0,259.2 90.0,254.1 89.0,259.2 88.0,258.2 87.0,264.8 86.0,270.9 85.0,247.5 84.0,255.6 83.0,260.2 82.0,252.1 81.0,256.2 80.0,256.2 79.0,264.8 78.0,253.6 77.0,263.8 76.0,265.8" fill="#199e70" fill-opacity="0.35"/>
<polyline points="76.0,246.0 77.0,246.0 78.0,252.1 79.0,264.8 80.0,246.0 81.0,246.0 82.0,246.0 83.0,246.0 84.0,252.1 85.0,246.0 86.0,246.0 87.0,245.5 88.0,246.0 89.0,246.0 90.0,246.0 91.0,246.0 92.0,246.0 93.0,244.5 94.0,246.0 95.0,238.9 96.0,246.0 97.0,245.5 98.0,246.0 99.0,246.0 100.0,246.0 101.0,246.0 102.0,246.0 103.0,246.0 104.0,251.6 105.0,236.4 106.0,246.0 107.0,246.0 108.0,246.0 109.0,246.0 110.0,245.5 111.0,252.6 112.0,246.0 113.0,245.5 114.0,246.0 115.0,246.0 116.0,248.5 117.0,246.0 118.0,246.0 119.0,246.0 120.0,246.0 121.0,246.0 122.0,246.0 123.0,246.0 124.0,256.2 125.0,246.0 126.0,246.0 127.0,246.0 128.0,246.0 129.0,246.0 130.0,247.0 131.0,246.0 132.0,246.0 133.0,246.0 134.0,246.0 135.0,246.0 136.0,246.0 137.0,247.0 138.0,246.0 139.0,244.0 140.0,246.0 141.0,246.0 142.0,246.0 143.0,246.0 144.0,251.6 145.0,246.0 146.0,244.5 147.0,246.0 148.0,246.0 149.0,246.0 150.0,246.0 151.0,246.0 152.0,246.0 153.0,246.0 154.0,246.0 155.0,253.6 156.0,243.0 157.0,246.0 158.0,246.0 159.0,246.0 160.0,246.0 161.0,241.9 162.0,246.0 163.0,259.7 164.0,246.0 165.0,246.0 166.0,246.0 167.0,246.0 168.0,245.5 169.0,245.5 170.0,246.0 171.0,246.0 172.0,247.5 173.0,260.7 174.0,246.0 175.0,246.0 176.0,246.0 177.0,246.0 178.0,246.0 179.0,246.0 180.0,253.6 181.0,250.1 182.0,246.0 183.0,246.0 184.0,246.0 185.0,246.0 186.0,246.0 187.0,235.8 188.0,246.0 189.0,246.0 190.0,246.0 191.0,246.0 192.0,246.0 193.0,246.0 194.0,246.0 195.0,246.0 196.0,240.9 197.0,246.0 198.0,250.6 199.0,246.0 200.0,246.0 201.0,246.0 202.0,247.5 203.0,243.5 204.0,242.4 205.0,246.0 206.0,239.9 207.0,246.0 208.0,246.0 209.0,246.0 210.0,246.0 211.0,246.0 212.0,246.0 213.0,244.0 214.0,246.0 215.0,248.5 216.0,237.9 217.0,246.0 218.0,245.0 219.0,246.0 220.0,246.0 221.0,246.0 222.0,246.0 223.0,246.0 224.0,246.0 225.0,246.0 226.0,246.0 227.0,246.0 228.0,246.0 229.0,246.0 230.0,246.0 231.0,246.0 232.0,246.0 233.0,246.0 234.0,246.0 235.0,246.0 236.0,246.0 237.0,246.0 238.0,252.6 239.0,246.0 240.0,246.0 241.0,246.0 242.0,246.0 243.0,246.0 244.0,246.0 245.0,246.0 246.0,246.0 247.0,246.0 248.0,246.0 249.0,224.2 250.0,246.0 251.0,246.0 252.0,246.0 253.0,246.0 254.0,246.0 255.0,246.0 256.0,246.0 257.0,246.0 258.0,246.0 259.0,246.0 260.0,246.0 261.0,246.0 262.0,246.0 263.0,246.0 264.0,246.0 265.0,245.5 266.0,246.0 267.0,246.0 268.0,246.0 269.0,246.0 270.0,246.0 271.0,246.0 272.0,238.4 273.0,246.0 274.0,246.0 275.0,218.6 276.0,222.1 277.0,246.0 278.0,246.0 279.0,246.0 280.0,246.0 281.0,246.0 282.0,246.0 283.0,252.1 284.0,246.0 285.0,246.0 286.0,246.5 287.0,246.0 288.0,246.0 289.0,246.0 290.0,246.0 291.0,246.0 292.0,246.0 293.0,238.9 294.0,236.9 295.0,246.0 296.0,246.0 297.0,246.0 298.0,246.0 299.0,246.0 300.0,246.0 301.0,246.0 302.0,239.9 303.0,246.0 304.0,246.0 305.0,254.1 306.0,246.0 307.0,246.0 308.0,246.0 309.0,246.0 310.0,246.0 311.0,246.0 312.0,246.0 313.0,246.0 314.0,246.0 315.0,246.0 316.0,246.0 317.0,246.0 318.0,246.0 319.0,246.0 320.0,246.0 321.0,246.0 322.0,246.0 323.0,246.0 324.0,246.0 325.0,246.0 326.0,246.0 327.0,246.0 328.0,246.0 329.0,246.0 330.0,246.0 331.0,246.0 332.0,235.3 333.0,246.0 334.0,246.0 335.0,246.0 336.0,246.0 337.0,246.0 338.0,246.0 339.0,246.0 340.0,246.0 341.0,246.0 342.0,246.0 343.0,246.0 344.0,246.0 345.0,246.0 346.0,246.0 347.0,246.0 348.0,246.0 349.0,243.5 350.0,235.3 351.0,246.0 352.0,246.0 353.0,246.0 354.0,246.0 355.0,246.0 356.0,246.0 357.0,246.0 358.0,246.0 359.0,246.0 360.0,246.0 361.0,246.0 362.0,232.3 363.0,246.0 364.0,246.0 365.0,246.0 366.0,246.0 367.0,246.0 368.0,246.0 369.0,246.0 370.0,246.0 371.0,246.0 372.0,246.0 373.0,246.0 374.0,246.0 375.0,246.0 376.0,246.0 377.0,246.0 378.0,246.0 379.0,246.0 380.0,246.0 381.0,252.1 382.0,246.0 383.0,246.0 384.0,246.0 385.0,246.0 386.0,246.0 387.0,246.0 388.0,246.0 389.0,246.0 390.0,246.0 391.0,248.0 392.0,246.0 393.0,246.0 394.0,246.0 395.0,246.0 396.0,246.0 397.0,246.0 398.0,246.0 399.0,246.0 400.0,246.0 401.0,246.0 402.0,246.0 403.0,283.6 404.0,246.0 405.0,246.0 406.0,246.0 407.0,246.0 408.0,246.0 409.0,233.8 410.0,246.0 411.0,245.5 412.0,246.0 413.0,246.0 414.0,246.0 415.0,246.0 416.0,246.0 417.0,246.0 418.0,246.0 419.0,246.0 420.0,246.0 421.0,246.0 422.0,246.0 423.0,246.0 424.0,246.0 425.0,246.0 426.0,246.0 427.0,246.0 428.0,246.0 429.0,246.0 430.0,246.0 431.0,253.1 432.0,246.0 433.0,246.0 434.0,246.0 435.0,246.0 436.0,246.0 437.0,246.0 438.0,246.0 439.0,246.0 440.0,246.0 441.0,246.0 442.0,251.6 443.0,246.0 444.0,246.0 445.0,246.0 446.0,246.0 447.0,246.0 448.0,246.0 449.0,246.0 450.0,246.0 451.0,246.0 452.0,246.0 453.0,246.0 454.0,240.4 455.0,246.0 456.0,246.0 457.0,246.0 458.0,254.6 459.0,246.0 460.0,246.0 461.0,246.0 462.0,254.6 463.0,246.0 464.0,246.0 465.0,246.0 466.0,246.0 467.0,246.0 468.0,246.0 469.0,246.0 470.0,246.0 471.0,246.0 472.0,246.0 473.0,246.0 474.0,246.0 475.0,246.0 476.0,246.0 477.0,246.0 478.0,254.1 479.0,236.4 480.0,246.0 481.0,246.5 482.0,246.0 483.0,246.0 484.0,246.0 485.0,246.0 486.0,246.0 487.0,248.0 488.0,246.0 489.0,246.0 490.0,246.0 491.0,246.0 492.0,245.5 493.0,246.0 494.0,246.0 495.0,246.0 496.0,246.0 497.0,246.0 498.0,246.0 499.0,246.0 500.0,246.0 501.0,246.0 502.0,246.0 503.0,246.0 504.0,246.0 505.0,246.0 506.0,246.0 507.0,246.0 508.0,246.0 509.0,246.0 510.0,246.0 511.0,246.0 512.0,246.0 513.0,246.0 514.0,244.0 515.0,246.0 516.0,246.0 517.0,246.0 518.0,246.0 519.0,246.0 520.0,246.0 521.0,246.0 522.0,246.0 523.0,246.0 524.0,246.0 525.0,246.0 526.0,246.0 527.0,246.0 528.0,238.4 529.0,251.1 530.0,246.0 531.0,246.0 532.0,246.0 533.0,246.0 534.0,246.0 535.0,246.0 536.0,271.9 537.0,246.0 538.0,246.0 539.0,246.5 540.0,246.0 541.0,246.0 542.0,246.0 543.0,246.0 544.0,246.0 545.0,246.0 546.0,246.0 547.0,246.0 548.0,246.0 549.0,246.0 550.0,246.0 551.0,246.0 552.0,246.0 553.0,246.0 554.0,246.0 555.0,246.0 556.0,246.0 557.0,246.0 558.0,246.0 559.0,246.0 560.0,246.0 561.0,273.4 562.0,246.0 563.0,246.0 564.0,242.4 565.0,240.9 566.0,246.0 567.0,246.0 568.0,246.0 569.0,246.0 570.0,246.0 571.0,246.0 572.0,246.0 573.0,246.0 574.0,246.0 575.0,247.5 576.0,252.1 577.0,246.0 578.0,246.0 579.0,246.0 580.0,246.0 581.0,249.6 582.0,246.0 583.0,245.5 584.0,227.7 585.0,246.0 586.0,246.0 587.0,244.0 588.0,246.0 589.0,246.0 590.0,246.0 591.0,246.0 592.0,246.0 593.0,246.0 594.0,246.0 595.0,246.0 596.0,246.0 597.0,246.0 598.0,246.0 599.0,246.0 600.0,246.0 601.0,246.0 602.0,246.0 603.0,246.0 604.0,246.0 605.0,246.0 606.0,246.0 607.0,246.0 608.0,246.0 609.0,246.0 610.0,246.0 611.0,246.0 612.0,246.0 613.0,246.0 614.0,247.5 615.0,246.0 616.0,246.0 617.0,246.0 618.0,246.0 619.0,246.0 620.0,241.4 621.0,246.0 622.0,246.0 623.0,246.0 624.0,246.0 625.0,246.0 626.0,246.0 627.0,246.0 628.0,245.5 629.0,246.0 630.0,242.4 631.0,246.0 632.0,243.0 633.0,246.0 634.0,246.0 635.0,246.0 636.0,246.0 637.0,246.0 638.0,246.0 639.0,246.0 640.0,246.0 641.0,240.4 642.0,246.0 643.0,252.6 644.0,248.5 645.0,246.0 646.0,246.0 647.0,237.9 648.0,246.0 649.0,246.0 650.0,246.0 651.0,246.0 652.0,246.0 653.0,246.0 654.0,246.0 655.0,246.0 656.0,246.0 657.0,246.0 658.0,246.0 659.0,246.0 660.0,246.0 661.0,239.4 662.0,246.0 663.0,246.0 664.0,246.0 665.0,246.0 666.0,246.0 667.0,246.0 668.0,246.0 669.0,246.0 670.0,246.0 671.0,246.0 672.0,246.0 673.0,246.0 674.0,241.9 675.0,246.0 676.0,246.0 677.0,246.0 678.0,246.0 679.0,246.0 680.0,246.0 681.0,246.0 682.0,246.0 683.0,261.7 684.0,246.0 685.0,246.0 686.0,246.0 687.0,246.0 688.0,246.0 689.0,246.0 690.0,249.6 691.0,246.0 692.0,246.0 693.0,246.0 694.0,246.0 695.0,246.0 696.0,246.0 697.0,246.0 698.0,246.0 699.0,246.0 700.0,246.0 701.0,246.0 702.0,246.0 703.0,246.0 704.0,246.0 705.0,246.0 706.0,246.0 707.0,246.0 708.0,246.0 709.0,246.0 710.0,246.0 711.0,246.0 712.0,246.0 713.0,246.0 714.0,246.0 715.0,246.0 716.0,246.0 717.0,246.0 718.0,251.1 719.0,246.0 720.0,246.0 721.0,246.0 722.0,246.0 723.0,247.0 724.0,246.0 725.0,246.0 726.0,246.0 727.0,246.0 728.0,246.0 729.0,246.0 730.0,246.0 731.0,246.0 732.0,246.0 733.0,246.0 734.0,243.5 735.0,247.0 736.0,246.0 737.0,246.0 738.0,246.0 739.0,244.5 740.0,246.0 741.0,246.0 742.0,251.6 743.0,246.0 744.0,246.0 745.0,246.0 746.0,246.0 747.0,246.0 748.0,246.0 749.0,246.0 750.0,255.1 751.0,246.0 752.0,246.0 753.0,259.7 754.0,244.5 755.0,246.0 756.0,246.0 757.0,246.0 758.0,246.0 759.0,246.0 760.0,246.0 761.0,246.0 762.0,246.0 763.0,246.0 764.0,261.2 765.0,272.9 766.0,246.0 767.0,246.0 768.0,246.0 769.0,246.0 770.0,246.0 771.0,246.0 772.0,246.0 773.0,246.0 774.0,246.0 775.0,246.0 776.0,246.0 777.0,246.0 778.0,246.0 779.0,232.3 780.0,246.0 781.0,246.0 782.0,246.0 783.0,246.0 784.0,246.0 785.0,246.0 786.0,241.4 787.0,246.0 788.0,246.0 789.0,248.0 790.0,246.0 791.0,246.0 792.0,246.0 793.0,246.0 794.0,246.0 795.0,246.0 796.0,246.0 797.0,246.0 798.0,246.0 799.0,246.0 800.0,246.0 801.0,246.0 802.0,246.0 803.0,232.8 804.0,246.0 805.0,246.0 806.0,255.1 807.0,246.0 808.0,246.0 809.0,246.0 810.0,246.0 811.0,246.0 812.0,246.0 813.0,246.0 814.0,246.0 815.0,246.0 816.0,246.0 817.0,246.0 818.0,246.0 819.0,246.0 820.0,246.0 821.0,246.0 822.0,246.0 823.0,246.0 824.0,246.0 825.0,246.0 826.0,246.0 827.0,246.0 828.0,246.0 829.0,246.0 830.0,246.0 831.0,246.0 832.0,261.2 833.0,246.0 834.0,246.0 835.0,258.2 836.0,243.0 837.0,255.1 838.0,246.0 839.0,246.0 840.0,243.0 841.0,246.0 842.0,285.1 843.0,246.0 844.0,246.0 845.0,246.0 846.0,246.0 847.0,246.5 848.0,246.0 849.0,246.0 850.0,246.0 851.0,246.0 852.0,243.0 853.0,246.0 854.0,246.0 855.0,246.0 856.0,246.0 857.0,253.6 858.0,246.0 859.0,249.0 860.0,233.3 861.0,246.0 862.0,246.0 863.0,246.0 864.0,246.0 865.0,262.2 866.0,246.5 867.0,246.0 868.0,246.0 869.0,246.0 870.0,246.0 871.0,246.0 872.0,246.0 873.0,246.0 874.0,246.0 875.0,246.0 876.0,246.0 877.0,246.0 878.0,247.5 879.0,246.5 880.0,246.0 881.0,246.0 882.0,246.0 883.0,259.2 884.0,246.0 885.0,246.0 886.0,246.0 887.0,246.0 888.0,246.0 889.0,246.0 890.0,246.0 891.0,246.0 892.0,251.1 893.0,246.0 894.0,246.0" fill="none" stroke="#199e70" stroke-width="1.0"/>
<text x="76.0" y="452" font-size="12" fill="#c3c2b7" text-anchor="start">Écart maximal : 26 $ — moyenne des écarts absolus : 0,2 $.</text>
<text x="76.0" y="418" font-size="11" fill="#898781" text-anchor="middle">00:00</text>
<text x="212.7" y="418" font-size="11" fill="#898781" text-anchor="middle">04:00</text>
<text x="349.3" y="418" font-size="11" fill="#898781" text-anchor="middle">08:00</text>
<text x="486.0" y="418" font-size="11" fill="#898781" text-anchor="middle">12:00</text>
<text x="622.7" y="418" font-size="11" fill="#898781" text-anchor="middle">16:00</text>
<text x="759.3" y="418" font-size="11" fill="#898781" text-anchor="middle">20:00</text>
<text x="896.0" y="418" font-size="11" fill="#898781" text-anchor="middle">24:00</text>
</svg>
