<svg xmlns="http://www.w3.org/2000/svg" viewBox="0 0 920 520" font-family="system-ui,-apple-system,'Segoe UI',sans-serif" role="img" aria-label="L’historique complet Bybit par les deux voies, superposées">
<rect width="920" height="520" fill="#0d1117"/>
<text x="76" y="34" font-size="19" fill="#ffffff" text-anchor="start" font-weight="600">Quarante jours, deux historiques superposés</text>
<text x="76" y="56" font-size="12.5" fill="#c3c2b7" text-anchor="start">BTCUSDT perpétuel Bybit, 1er juin → 10 juil. 2026 (UTC) — bande high-low et clôture de chaque minute, voie B tracée par-dessus la voie A</text>
<rect x="76" y="70" width="10" height="10" rx="2" fill="#3987e5"/>
<text x="92" y="79" font-size="12" fill="#ffffff" text-anchor="start">voie A — archives officielles</text>
<rect x="360" y="70" width="10" height="10" rx="2" fill="#199e70"/>
<text x="376" y="79" font-size="12" fill="#ffffff" text-anchor="start">voie B — ticks Quantower</text>
<line x1="76.0" y1="381.3" x2="896.0" y2="381.3" stroke="#21262d"/>
<text x="68.0" y="385.3" font-size="11" fill="#898781" text-anchor="end">60 000</text>
<line x1="76.0" y1="285.4" x2="896.0" y2="285.4" stroke="#21262d"/>
<text x="68.0" y="289.4" font-size="11" fill="#898781" text-anchor="end">65 000</text>
<line x1="76.0" y1="189.5" x2="896.0" y2="189.5" stroke="#21262d"/>
<text x="68.0" y="193.5" font-size="11" fill="#898781" text-anchor="end">70 000</text>
<polygon points="76.0,111.6 77.0,119.9 78.0,113.0 79.0,113.7 80.0,121.2 81.0,124.3 82.0,128.6 83.0,131.9 84.0,130.7 85.0,136.6 86.0,137.1 87.0,147.3 88.0,153.9 89.0,160.7 90.0,154.9 91.0,155.3 92.0,157.8 93.0,157.2 94.0,163.9 95.0,161.1 96.0,159.3 97.0,163.4 98.0,171.8 99.0,170.0 100.0,169.5 101.0,175.1 102.0,181.8 103.0,185.4 104.0,192.7 105.0,194.4 106.0,197.3 107.0,200.6 108.0,207.1 109.0,223.0 110.0,225.7 111.0,231.2 112.0,235.0 113.0,237.9 114.0,229.9 115.0,233.6 116.0,249.9 117.0,243.7 118.0,246.6 119.0,250.4 120.0,254.9 121.0,240.0 122.0,237.5 123.0,240.8 124.0,242.9 125.0,238.4 126.0,239.2 127.0,244.4 128.0,242.8 129.0,247.5 130.0,253.5 131.0,263.3 132.0,263.2 133.0,264.4 134.0,274.2 135.0,269.5 136.0,280.5 137.0,293.1 138.0,311.8 139.0,312.1 140.0,293.2 141.0,290.5 142.0,295.8 143.0,296.7 144.0,304.2 145.0,309.7 146.0,321.3 147.0,319.5 148.0,305.6 149.0,295.5 150.0,297.3 151.0,304.9 152.0,310.3 153.0,303.0 154.0,302.2 155.0,307.5 156.0,311.0 157.0,306.6 158.0,305.5 159.0,313.4 160.0,325.0 161.0,319.2 162.0,310.6 163.0,331.3 164.0,322.0 165.0,318.6 166.0,321.8 167.0,329.7 168.0,334.7 169.0,336.9 170.0,359.0 171.0,352.0 172.0,352.7 173.0,362.4 174.0,373.0 175.0,343.1 176.0,343.3 177.0,344.1 178.0,352.6 179.0,355.2 180.0,359.1 181.0,363.8 182.0,362.1 183.0,357.0 184.0,357.8 185.0,353.1 186.0,354.5 187.0,365.8 188.0,360.6 189.0,358.9 190.0,361.6 191.0,362.5 192.0,363.1 193.0,366.3 194.0,366.9 195.0,368.3 196.0,362.7 197.0,365.2 198.0,363.7 199.0,350.4 200.0,350.0 201.0,347.8 202.0,346.2 203.0,339.7 204.0,338.0 205.0,334.7 206.0,324.7 207.0,331.2 208.0,328.9 209.0,330.7 210.0,345.3 211.0,337.1 212.0,336.9 213.0,337.1 214.0,337.9 215.0,340.7 216.0,343.1 217.0,299.8 218.0,316.6 219.0,307.6 220.0,309.1 221.0,319.3 222.0,315.5 223.0,323.9 224.0,321.5 225.0,317.4 226.0,317.5 227.0,312.8 228.0,313.2 229.0,306.7 230.0,305.8 231.0,305.5 232.0,300.3 233.0,304.1 234.0,311.8 235.0,311.0 236.0,313.5 237.0,307.6 238.0,308.9 239.0,312.9 240.0,320.8 241.0,326.7 242.0,324.9 243.0,315.9 244.0,314.1 245.0,314.5 246.0,317.3 247.0,324.0 248.0,328.1 249.0,327.6 250.0,326.1 251.0,330.4 252.0,345.3 253.0,354.5 254.0,345.3 255.0,343.8 256.0,341.0 257.0,338.1 258.0,344.1 259.0,343.8 260.0,345.5 261.0,343.9 262.0,346.5 263.0,351.3 264.0,352.6 265.0,353.4 266.0,347.4 267.0,347.9 268.0,354.6 269.0,353.9 270.0,344.4 271.0,336.2 272.0,334.5 273.0,326.7 274.0,331.2 275.0,339.7 276.0,343.0 277.0,342.3 278.0,346.8 279.0,351.6 280.0,344.0 281.0,338.9 282.0,335.6 283.0,332.0 284.0,323.3 285.0,329.1 286.0,323.0 287.0,325.0 288.0,323.2 289.0,324.2 290.0,319.2 291.0,320.4 292.0,319.6 293.0,322.8 294.0,326.5 295.0,312.0 296.0,308.9 297.0,306.5 298.0,312.6 299.0,311.3 300.0,310.3 301.0,308.8 302.0,310.3 303.0,309.2 304.0,309.4 305.0,307.5 306.0,315.5 307.0,320.0 308.0,312.3 309.0,305.8 310.0,307.2 311.0,307.5 312.0,313.8 313.0,305.0 314.0,297.4 315.0,303.0 316.0,306.4 317.0,306.8 318.0,310.3 319.0,312.1 320.0,311.6 321.0,312.6 322.0,310.5 323.0,308.1 324.0,310.4 325.0,311.9 326.0,312.4 327.0,309.9 328.0,307.1 329.0,306.7 330.0,306.5 331.0,305.6 332.0,301.0 333.0,300.1 334.0,298.9 335.0,298.5 336.0,301.5 337.0,299.7 338.0,298.6 339.0,299.1 340.0,290.2 341.0,293.7 342.0,294.0 343.0,291.4 344.0,292.9 345.0,294.4 346.0,296.2 347.0,296.0 348.0,296.5 349.0,295.2 350.0,293.1 351.0,292.3 352.0,292.9 353.0,297.5 354.0,298.6 355.0,302.3 356.0,300.5 357.0,305.4 358.0,307.8 359.0,303.3 360.0,272.4 361.0,273.9 362.0,268.1 363.0,271.0 364.0,270.8 365.0,266.5 366.0,267.4 367.0,268.4 368.0,266.3 369.0,267.0 370.0,270.5 371.0,265.8 372.0,259.1 373.0,251.4 374.0,248.6 375.0,250.4 376.0,241.7 377.0,243.5 378.0,248.6 379.0,249.7 380.0,253.6 381.0,257.6 382.0,259.5 383.0,257.9 384.0,258.7 385.0,263.4 386.0,261.5 387.0,264.5 388.0,255.3 389.0,256.7 390.0,247.6 391.0,251.6 392.0,253.1 393.0,251.0 394.0,257.0 395.0,261.5 396.0,266.8 397.0,269.2 398.0,261.2 399.0,268.1 400.0,269.3 401.0,267.8 402.0,269.1 403.0,270.4 404.0,269.5 405.0,264.1 406.0,268.5 407.0,265.8 408.0,267.9 409.0,269.0 410.0,274.2 411.0,284.2 412.0,285.8 413.0,288.3 414.0,283.4 415.0,277.0 416.0,276.0 417.0,257.7 418.0,262.8 419.0,265.6 420.0,278.1 421.0,295.9 422.0,296.8 423.0,294.9 424.0,291.6 425.0,289.6 426.0,290.2 427.0,297.3 428.0,304.7 429.0,302.7 430.0,295.4 431.0,292.7 432.0,295.9 433.0,300.7 434.0,298.7 435.0,296.7 436.0,301.2 437.0,310.6 438.0,328.0 439.0,325.3 440.0,324.5 441.0,319.2 442.0,322.0 443.0,325.3 444.0,324.0 445.0,322.5 446.0,322.3 447.0,323.8 448.0,325.9 449.0,327.0 450.0,325.9 451.0,328.5 452.0,330.7 453.0,332.1 454.0,330.5 455.0,324.8 456.0,316.1 457.0,316.5 458.0,316.8 459.0,320.0 460.0,320.8 461.0,321.6 462.0,318.9 463.0,317.6 464.0,311.5 465.0,309.0 466.0,312.4 467.0,314.6 468.0,313.4 469.0,305.6 470.0,309.7 471.0,309.1 472.0,313.2 473.0,309.2 474.0,310.0 475.0,308.6 476.0,311.8 477.0,301.8 478.0,297.7 479.0,303.1 480.0,304.8 481.0,305.8 482.0,305.4 483.0,302.0 484.0,298.1 485.0,298.5 486.0,298.9 487.0,299.0 488.0,296.0 489.0,293.3 490.0,298.1 491.0,298.8 492.0,300.2 493.0,300.4 494.0,295.9 495.0,296.1 496.0,301.1 497.0,302.0 498.0,298.3 499.0,299.9 500.0,300.9 501.0,299.4 502.0,300.0 503.0,302.8 504.0,306.3 505.0,307.8 506.0,303.0 507.0,288.7 508.0,293.6 509.0,297.9 510.0,298.6 511.0,298.7 512.0,297.1 513.0,298.3 514.0,299.7 515.0,290.4 516.0,281.6 517.0,274.0 518.0,277.8 519.0,283.6 520.0,289.6 521.0,291.0 522.0,295.8 523.0,292.4 524.0,297.2 525.0,299.8 526.0,304.2 527.0,299.7 528.0,299.9 529.0,301.2 530.0,303.9 531.0,312.6 532.0,322.5 533.0,324.5 534.0,333.9 535.0,332.3 536.0,330.9 537.0,334.4 538.0,327.2 539.0,331.6 540.0,327.5 541.0,330.2 542.0,335.3 543.0,333.1 544.0,331.3 545.0,328.6 546.0,327.9 547.0,323.7 548.0,321.6 549.0,327.8 550.0,327.5 551.0,322.6 552.0,326.0 553.0,327.2 554.0,327.9 555.0,329.7 556.0,324.7 557.0,319.3 558.0,331.3 559.0,354.3 560.0,359.9 561.0,371.1 562.0,383.4 563.0,381.9 564.0,358.7 565.0,357.5 566.0,362.0 567.0,359.3 568.0,363.3 569.0,362.9 570.0,364.4 571.0,347.9 572.0,346.9 573.0,344.1 574.0,344.6 575.0,347.5 576.0,348.3 577.0,354.8 578.0,347.4 579.0,360.8 580.0,385.9 581.0,380.6 582.0,385.8 583.0,386.7 584.0,386.6 585.0,381.6 586.0,376.8 587.0,378.1 588.0,383.6 589.0,389.0 590.0,390.7 591.0,376.8 592.0,380.8 593.0,373.0 594.0,367.3 595.0,374.7 596.0,379.3 597.0,389.6 598.0,381.6 599.0,376.1 600.0,377.0 601.0,370.1 602.0,374.3 603.0,378.8 604.0,379.6 605.0,385.2 606.0,380.7 607.0,379.6 608.0,378.0 609.0,380.4 610.0,373.8 611.0,372.9 612.0,372.7 613.0,374.7 614.0,372.2 615.0,370.6 616.0,372.1 617.0,372.4 618.0,373.6 619.0,369.0 620.0,367.9 621.0,363.7 622.0,365.5 623.0,369.1 624.0,370.3 625.0,376.0 626.0,372.7 627.0,376.9 628.0,375.6 629.0,378.2 630.0,375.4 631.0,376.3 632.0,377.4 633.0,378.6 634.0,378.2 635.0,376.8 636.0,371.3 637.0,373.9 638.0,374.6 639.0,372.8 640.0,378.2 641.0,377.0 642.0,380.0 643.0,384.7 644.0,387.5 645.0,387.6 646.0,386.2 647.0,383.6 648.0,384.7 649.0,385.1 650.0,387.5 651.0,378.2 652.0,377.0 653.0,381.9 654.0,375.1 655.0,378.1 656.0,379.3 657.0,375.5 658.0,375.4 659.0,366.4 660.0,374.2 661.0,387.6 662.0,382.7 663.0,372.3 664.0,368.5 665.0,372.4 666.0,371.0 667.0,370.2 668.0,371.4 669.0,374.7 670.0,377.3 671.0,380.9 672.0,381.1 673.0,387.7 674.0,388.1 675.0,387.3 676.0,390.1 677.0,392.5 678.0,392.9 679.0,393.1 680.0,397.4 681.0,395.8 682.0,398.0 683.0,404.6 684.0,408.2 685.0,406.6 686.0,403.2 687.0,403.4 688.0,404.8 689.0,407.5 690.0,405.8 691.0,400.7 692.0,397.5 693.0,394.2 694.0,392.0 695.0,397.0 696.0,404.2 697.0,400.9 698.0,399.0 699.0,404.8 700.0,405.8 701.0,396.0 702.0,379.9 703.0,371.3 704.0,376.6 705.0,377.0 706.0,374.9 707.0,377.4 708.0,365.3 709.0,355.9 710.0,374.6 711.0,381.3 712.0,373.7 713.0,363.3 714.0,360.1 715.0,364.8 716.0,369.2 717.0,374.0 718.0,361.3 719.0,354.5 720.0,355.0 721.0,349.0 722.0,339.3 723.0,346.2 724.0,346.5 725.0,344.4 726.0,346.0 727.0,349.0 728.0,349.9 729.0,350.9 730.0,350.9 731.0,351.0 732.0,348.6 733.0,349.8 734.0,351.3 735.0,347.2 736.0,346.4 737.0,345.8 738.0,345.3 739.0,347.5 740.0,341.7 741.0,340.1 742.0,339.8 743.0,337.9 744.0,335.8 745.0,337.8 746.0,338.3 747.0,337.4 748.0,326.1 749.0,324.8 750.0,329.6 751.0,324.9 752.0,327.7 753.0,332.6 754.0,328.9 755.0,329.0 756.0,331.5 757.0,331.3 758.0,331.8 759.0,330.5 760.0,333.3 761.0,332.4 762.0,330.0 763.0,328.0 764.0,322.5 765.0,324.1 766.0,315.1 767.0,317.6 768.0,315.3 769.0,315.6 770.0,315.5 771.0,319.8 772.0,320.2 773.0,323.3 774.0,328.0 775.0,326.6 776.0,324.9 777.0,327.6 778.0,322.1 779.0,322.9 780.0,326.1 781.0,327.8 782.0,328.6 783.0,327.6 784.0,325.2 785.0,325.2 786.0,327.8 787.0,328.2 788.0,326.5 789.0,327.1 790.0,319.3 791.0,304.8 792.0,305.9 793.0,306.6 794.0,307.3 795.0,314.8 796.0,316.7 797.0,319.5 798.0,322.6 799.0,319.6 800.0,325.3 801.0,323.2 802.0,324.2 803.0,339.3 804.0,335.4 805.0,332.3 806.0,307.5 807.0,305.2 808.0,307.0 809.0,306.8 810.0,291.1 811.0,294.7 812.0,298.3 813.0,298.8 814.0,303.0 815.0,307.4 816.0,317.1 817.0,319.4 818.0,316.5 819.0,315.6 820.0,319.2 821.0,314.7 822.0,316.7 823.0,307.3 824.0,313.4 825.0,311.9 826.0,302.2 827.0,300.1 828.0,300.4 829.0,302.2 830.0,306.8 831.0,307.6 832.0,310.7 833.0,310.7 834.0,309.5 835.0,320.1 836.0,322.2 837.0,326.1 838.0,327.1 839.0,327.1 840.0,325.3 841.0,337.1 842.0,339.5 843.0,335.3 844.0,336.2 845.0,339.9 846.0,342.6 847.0,341.8 848.0,335.7 849.0,336.6 850.0,337.4 851.0,338.3 852.0,336.6 853.0,336.7 854.0,337.3 855.0,330.9 856.0,341.2 857.0,337.7 858.0,331.0 859.0,325.9 860.0,318.7 861.0,322.4 862.0,323.1 863.0,325.2 864.0,324.9 865.0,319.3 866.0,320.2 867.0,319.0 868.0,326.8 869.0,314.6 870.0,316.9 871.0,316.5 872.0,316.7 873.0,316.2 874.0,317.9 875.0,315.3 876.0,304.0 877.0,304.1 878.0,301.2 879.0,301.1 880.0,304.6 881.0,297.3 882.0,295.4 883.0,295.0 884.0,293.0 885.0,294.9 886.0,291.4 887.0,300.9 888.0,300.6 889.0,301.4 890.0,305.0 891.0,304.1 892.0,303.1 893.0,301.9 894.0,300.9 894.0,304.7 893.0,305.4 892.0,310.5 891.0,311.6 890.0,310.1 889.0,308.6 888.0,308.4 887.0,307.1 886.0,309.4 885.0,301.6 884.0,298.7 883.0,299.7 882.0,302.9 881.0,306.8 880.0,308.8 879.0,307.2 878.0,307.8 877.0,308.5 876.0,317.2 875.0,325.9 874.0,325.1 873.0,323.2 872.0,320.3 871.0,321.0 870.0,321.5 869.0,329.0 868.0,332.9 867.0,329.0 866.0,330.9 865.0,333.7 864.0,334.7 863.0,331.8 862.0,328.4 861.0,327.9 860.0,328.1 859.0,334.9 858.0,339.0 857.0,346.2 856.0,349.3 855.0,347.3 854.0,342.5 853.0,340.3 852.0,342.1 851.0,344.5 850.0,342.0 849.0,342.8 848.0,342.9 847.0,351.2 846.0,352.5 845.0,350.5 844.0,346.5 843.0,342.5 842.0,345.5 841.0,349.1 840.0,346.4 839.0,334.4 838.0,334.2 837.0,330.5 836.0,330.2 835.0,333.4 834.0,325.9 833.0,318.5 832.0,317.1 831.0,320.4 830.0,312.6 829.0,317.0 828.0,305.9 827.0,308.7 826.0,315.7 825.0,330.8 824.0,324.7 823.0,321.3 822.0,322.2 821.0,321.6 820.0,324.7 819.0,323.1 818.0,324.7 817.0,328.3 816.0,321.6 815.0,319.4 814.0,309.4 813.0,304.9 812.0,304.2 811.0,301.8 810.0,311.6 809.0,312.7 808.0,312.9 807.0,313.4 806.0,336.2 805.0,345.8 804.0,356.9 803.0,352.4 802.0,346.3 801.0,331.2 800.0,331.4 799.0,327.8 798.0,326.6 797.0,325.7 796.0,320.8 795.0,321.8 794.0,317.0 793.0,317.7 792.0,316.0 791.0,324.0 790.0,331.8 789.0,330.1 788.0,329.8 787.0,332.0 786.0,332.0 785.0,330.6 784.0,331.0 783.0,331.2 782.0,332.8 781.0,331.8 780.0,335.5 779.0,326.7 778.0,329.8 777.0,331.0 776.0,330.7 775.0,331.0 774.0,332.2 773.0,328.5 772.0,326.5 771.0,325.7 770.0,320.5 769.0,321.4 768.0,322.1 767.0,322.5 766.0,328.2 765.0,328.5 764.0,331.5 763.0,333.0 762.0,333.1 761.0,334.5 760.0,334.9 759.0,335.5 758.0,334.4 757.0,337.0 756.0,335.1 755.0,332.1 754.0,334.4 753.0,335.5 752.0,335.7 751.0,332.9 750.0,333.3 749.0,333.7 748.0,340.1 747.0,340.8 746.0,341.5 745.0,345.2 744.0,347.0 743.0,349.3 742.0,345.4 741.0,346.0 740.0,349.9 739.0,352.1 738.0,353.2 737.0,350.2 736.0,351.1 735.0,355.6 734.0,356.2 733.0,357.0 732.0,357.3 731.0,358.1 730.0,356.0 729.0,352.9 728.0,356.3 727.0,355.2 726.0,350.2 725.0,355.0 724.0,360.1 723.0,355.1 722.0,352.6 721.0,359.9 720.0,360.4 719.0,365.3 718.0,374.7 717.0,379.9 716.0,378.7 715.0,373.7 714.0,368.3 713.0,376.2 712.0,381.5 711.0,389.8 710.0,386.6 709.0,376.2 708.0,380.1 707.0,384.3 706.0,380.3 705.0,383.6 704.0,385.9 703.0,391.0 702.0,397.9 701.0,414.0 700.0,412.7 699.0,409.0 698.0,407.0 697.0,410.8 696.0,408.7 695.0,410.1 694.0,398.1 693.0,404.0 692.0,407.4 691.0,424.4 690.0,414.3 689.0,410.4 688.0,410.6 687.0,409.7 686.0,409.0 685.0,413.7 684.0,414.4 683.0,415.2 682.0,416.7 681.0,416.0 680.0,414.4 679.0,398.8 678.0,395.6 677.0,397.5 676.0,394.0 675.0,392.6 674.0,394.3 673.0,393.2 672.0,389.4 671.0,386.7 670.0,388.0 669.0,379.0 668.0,375.1 667.0,376.8 666.0,375.9 665.0,378.8 664.0,375.6 663.0,389.8 662.0,399.3 661.0,401.0 660.0,391.3 659.0,389.6 658.0,384.2 657.0,386.1 656.0,387.0 655.0,383.3 654.0,388.8 653.0,394.0 652.0,384.2 651.0,403.4 650.0,397.3 649.0,401.2 648.0,403.2 647.0,398.2 646.0,391.0 645.0,396.2 644.0,391.5 643.0,393.8 642.0,389.5 641.0,384.3 640.0,382.6 639.0,381.7 638.0,379.7 637.0,380.7 636.0,377.8 635.0,379.9 634.0,385.8 633.0,386.8 632.0,380.2 631.0,380.0 630.0,381.0 629.0,382.4 628.0,383.1 627.0,385.0 626.0,379.3 625.0,380.8 624.0,379.2 623.0,373.4 622.0,374.0 621.0,371.1 620.0,372.2 619.0,376.0 618.0,378.1 617.0,375.7 616.0,376.4 615.0,374.7 614.0,376.5 613.0,379.7 612.0,378.2 611.0,378.8 610.0,383.4 609.0,383.2 608.0,384.4 607.0,384.5 606.0,387.9 605.0,390.1 604.0,390.8 603.0,389.0 602.0,382.9 601.0,382.5 600.0,393.6 599.0,411.0 598.0,401.7 597.0,396.4 596.0,392.3 595.0,380.6 594.0,378.4 593.0,387.6 592.0,387.0 591.0,394.0 590.0,414.1 589.0,413.7 588.0,392.6 587.0,386.9 586.0,387.0 585.0,394.5 584.0,397.6 583.0,397.8 582.0,398.3 581.0,398.5 580.0,404.3 579.0,418.9 578.0,364.9 577.0,359.9 576.0,361.5 575.0,351.0 574.0,349.2 573.0,350.1 572.0,352.9 571.0,366.8 570.0,368.8 569.0,368.6 568.0,368.2 567.0,365.3 566.0,366.6 565.0,369.2 564.0,384.2 563.0,393.1 562.0,399.2 561.0,394.6 560.0,378.0 559.0,365.8 558.0,359.0 557.0,332.6 556.0,337.6 555.0,334.5 554.0,331.2 553.0,331.9 552.0,330.3 551.0,330.0 550.0,333.3 549.0,334.8 548.0,330.6 547.0,329.4 546.0,334.1 545.0,333.7 544.0,336.5 543.0,338.3 542.0,341.6 541.0,338.5 540.0,337.4 539.0,339.8 538.0,339.5 537.0,344.4 536.0,336.6 535.0,339.0 534.0,337.4 533.0,345.3 532.0,330.4 531.0,332.8 530.0,313.8 529.0,305.8 528.0,307.3 527.0,306.9 526.0,308.5 525.0,309.0 524.0,302.6 523.0,298.6 522.0,300.7 521.0,298.1 520.0,297.9 519.0,293.0 518.0,289.4 517.0,287.0 516.0,294.1 515.0,303.7 514.0,304.3 513.0,304.4 512.0,304.3 511.0,306.2 510.0,306.2 509.0,307.7 508.0,307.3 507.0,308.0 506.0,317.3 505.0,319.7 504.0,313.4 503.0,314.8 502.0,304.0 501.0,305.5 500.0,306.3 499.0,304.5 498.0,305.1 497.0,305.3 496.0,306.2 495.0,305.3 494.0,301.4 493.0,306.6 492.0,307.1 491.0,301.9 490.0,301.6 489.0,300.7 488.0,300.7 487.0,301.1 486.0,301.3 485.0,300.8 484.0,303.8 483.0,306.7 482.0,308.0 481.0,309.4 480.0,310.3 479.0,307.7 478.0,307.1 477.0,320.8 476.0,319.2 475.0,313.9 474.0,313.0 473.0,314.1 472.0,316.9 471.0,315.2 470.0,313.0 469.0,314.1 468.0,316.8 467.0,318.3 466.0,316.9 465.0,315.7 464.0,319.2 463.0,323.4 462.0,323.8 461.0,325.5 460.0,324.7 459.0,327.1 458.0,325.8 457.0,324.1 456.0,329.3 455.0,337.0 454.0,335.1 453.0,336.6 452.0,337.7 451.0,334.1 450.0,330.7 449.0,333.0 448.0,335.9 447.0,336.3 446.0,327.0 445.0,327.5 444.0,328.3 443.0,329.4 442.0,327.0 441.0,325.7 440.0,332.0 439.0,334.0 438.0,338.8 437.0,338.8 436.0,314.2 435.0,309.3 434.0,307.4 433.0,307.0 432.0,306.8 431.0,299.2 430.0,305.0 429.0,308.2 428.0,311.2 427.0,309.3 426.0,298.0 425.0,295.9 424.0,296.7 423.0,300.4 422.0,307.1 421.0,301.8 420.0,304.5 419.0,290.5 418.0,279.0 417.0,277.6 416.0,290.6 415.0,289.1 414.0,294.0 413.0,294.4 412.0,290.6 411.0,289.1 410.0,287.0 409.0,277.0 408.0,271.8 407.0,270.7 406.0,272.3 405.0,273.4 404.0,277.3 403.0,274.1 402.0,272.9 401.0,273.4 400.0,275.1 399.0,275.3 398.0,272.4 397.0,272.5 396.0,272.6 395.0,279.1 394.0,268.2 393.0,259.7 392.0,259.3 391.0,257.9 390.0,260.3 389.0,261.0 388.0,265.9 387.0,270.6 386.0,271.8 385.0,273.8 384.0,263.9 383.0,262.3 382.0,264.4 381.0,265.1 380.0,260.4 379.0,260.9 378.0,253.0 377.0,253.8 376.0,251.7 375.0,258.8 374.0,261.1 373.0,263.4 372.0,269.9 371.0,276.1 370.0,276.4 369.0,274.1 368.0,272.9 367.0,273.9 366.0,274.6 365.0,278.0 364.0,277.5 363.0,279.3 362.0,276.2 361.0,286.9 360.0,305.3 359.0,310.0 358.0,310.3 357.0,311.4 356.0,306.9 355.0,305.4 354.0,307.8 353.0,300.6 352.0,299.0 351.0,296.5 350.0,299.0 349.0,297.7 348.0,301.2 347.0,300.7 346.0,299.6 345.0,296.5 344.0,296.2 343.0,295.6 342.0,298.1 341.0,297.2 340.0,300.4 339.0,301.0 338.0,302.5 337.0,306.0 336.0,307.0 335.0,305.8 334.0,302.8 333.0,304.5 332.0,306.8 331.0,309.0 330.0,310.4 329.0,309.2 328.0,310.4 327.0,313.7 326.0,315.0 325.0,315.2 324.0,316.6 323.0,311.9 322.0,314.6 321.0,316.3 320.0,316.0 319.0,316.9 318.0,316.4 317.0,312.2 316.0,311.5 315.0,311.0 314.0,314.6 313.0,322.4 312.0,323.6 311.0,315.8 310.0,313.1 309.0,315.1 308.0,322.6 307.0,325.7 306.0,327.4 305.0,316.3 304.0,317.9 303.0,315.3 302.0,318.8 301.0,314.3 300.0,317.4 299.0,315.7 298.0,319.2 297.0,316.7 296.0,318.0 295.0,336.9 294.0,333.0 293.0,333.2 292.0,330.5 291.0,334.0 290.0,324.8 289.0,328.0 288.0,328.3 287.0,331.8 286.0,331.7 285.0,333.0 284.0,335.4 283.0,343.6 282.0,344.6 281.0,347.9 280.0,359.7 279.0,360.8 278.0,358.9 277.0,349.6 276.0,351.6 275.0,350.3 274.0,345.0 273.0,347.1 272.0,347.2 271.0,354.3 270.0,365.0 269.0,365.5 268.0,369.5 267.0,359.8 266.0,355.4 265.0,360.1 264.0,361.4 263.0,356.3 262.0,358.2 261.0,351.5 260.0,354.0 259.0,352.2 258.0,350.0 257.0,344.2 256.0,348.9 255.0,351.3 254.0,367.8 253.0,365.6 252.0,360.0 251.0,347.6 250.0,335.6 249.0,334.1 248.0,332.5 247.0,331.6 246.0,328.9 245.0,320.0 244.0,322.1 243.0,329.2 242.0,333.2 241.0,332.5 240.0,335.5 239.0,324.9 238.0,320.4 237.0,317.4 236.0,322.5 235.0,317.9 234.0,319.4 233.0,318.6 232.0,311.7 231.0,316.5 230.0,321.0 229.0,330.0 228.0,323.6 227.0,322.0 226.0,324.7 225.0,328.0 224.0,335.8 223.0,334.1 222.0,328.1 221.0,326.1 220.0,329.9 219.0,322.2 218.0,328.5 217.0,350.3 216.0,354.1 215.0,359.5 214.0,342.5 213.0,343.9 212.0,347.0 211.0,349.9 210.0,350.2 209.0,352.1 208.0,337.8 207.0,337.6 206.0,335.9 205.0,342.4 204.0,351.0 203.0,350.4 202.0,353.6 201.0,359.1 200.0,359.2 199.0,367.7 198.0,371.2 197.0,373.8 196.0,369.8 195.0,372.0 194.0,373.6 193.0,374.3 192.0,373.1 191.0,374.6 190.0,367.1 189.0,369.8 188.0,369.8 187.0,379.9 186.0,368.0 185.0,365.0 184.0,368.7 183.0,370.2 182.0,392.3 181.0,380.4 180.0,369.0 179.0,363.7 178.0,371.9 177.0,372.1 176.0,359.9 175.0,383.2 174.0,398.9 173.0,395.9 172.0,369.6 171.0,386.7 170.0,375.8 169.0,373.1 168.0,351.0 167.0,343.6 166.0,336.2 165.0,338.2 164.0,355.6 163.0,360.7 162.0,336.4 161.0,334.4 160.0,337.2 159.0,329.0 158.0,323.6 157.0,317.3 156.0,320.9 155.0,322.4 154.0,320.9 153.0,321.2 152.0,325.6 151.0,315.9 150.0,311.0 149.0,311.9 148.0,323.4 147.0,340.4 146.0,339.4 145.0,330.2 144.0,319.8 143.0,316.5 142.0,311.9 141.0,311.3 140.0,316.7 139.0,355.7 138.0,335.7 137.0,323.1 136.0,298.4 135.0,284.5 134.0,291.4 133.0,281.5 132.0,271.9 131.0,274.8 130.0,275.8 129.0,258.9 128.0,254.6 127.0,251.7 126.0,245.5 125.0,254.2 124.0,251.0 123.0,247.9 122.0,250.4 121.0,261.8 120.0,277.7 119.0,267.1 118.0,258.1 117.0,254.5 116.0,263.1 115.0,260.2 114.0,244.4 113.0,259.4 112.0,245.4 111.0,240.4 110.0,245.7 109.0,246.4 108.0,236.2 107.0,211.7 106.0,204.6 105.0,202.7 104.0,203.1 103.0,194.3 102.0,195.1 101.0,185.6 100.0,178.9 99.0,175.4 98.0,188.2 97.0,175.7 96.0,167.9 95.0,170.6 94.0,174.0 93.0,164.8 92.0,163.4 91.0,163.5 90.0,172.1 89.0,177.0 88.0,162.9 87.0,163.6 86.0,153.8 85.0,140.7 84.0,139.6 83.0,140.0 82.0,138.5 81.0,133.4 80.0,126.4 79.0,124.9 78.0,123.7 77.0,128.5 76.0,121.7" fill="#3987e5" fill-opacity="0.3"/>
<polyline points="76.0,120.9 77.0,122.5 78.0,114.0 79.0,123.3 80.0,124.3 81.0,131.0 82.0,135.2 83.0,132.4 84.0,139.0 85.0,137.9 86.0,147.9 87.0,155.3 88.0,161.1 89.0,172.0 90.0,160.4 91.0,162.3 92.0,160.2 93.0,164.4 94.0,170.6 95.0,165.0 96.0,165.6 97.0,173.3 98.0,175.4 99.0,172.4 100.0,175.2 101.0,182.8 102.0,186.5 103.0,193.9 104.0,201.0 105.0,197.5 106.0,204.3 107.0,208.8 108.0,228.5 109.0,243.9 110.0,237.5 111.0,236.1 112.0,243.3 113.0,242.4 114.0,234.0 115.0,255.6 116.0,253.3 117.0,253.2 118.0,253.7 119.0,266.2 120.0,258.4 121.0,241.5 122.0,247.1 123.0,245.9 124.0,250.3 125.0,243.5 126.0,245.4 127.0,245.8 128.0,252.3 129.0,258.7 130.0,272.4 131.0,264.6 132.0,265.3 133.0,277.2 134.0,275.9 135.0,280.8 136.0,293.3 137.0,320.0 138.0,335.2 139.0,316.2 140.0,294.1 141.0,311.2 142.0,303.2 143.0,305.3 144.0,312.5 145.0,321.5 146.0,338.7 147.0,319.9 148.0,310.2 149.0,305.0 150.0,309.4 151.0,314.9 152.0,321.2 153.0,305.2 154.0,315.8 155.0,316.4 156.0,311.2 157.0,309.4 158.0,316.5 159.0,328.0 160.0,331.2 161.0,327.2 162.0,335.9 163.0,352.4 164.0,331.2 165.0,322.0 166.0,336.0 167.0,339.4 168.0,342.8 169.0,364.4 170.0,367.2 171.0,363.0 172.0,364.0 173.0,395.2 174.0,378.0 175.0,347.3 176.0,352.8 177.0,371.9 178.0,358.7 179.0,359.3 180.0,365.9 181.0,379.4 182.0,365.1 183.0,361.6 184.0,361.4 185.0,354.7 186.0,365.8 187.0,369.1 188.0,366.9 189.0,366.3 190.0,363.2 191.0,366.0 192.0,369.0 193.0,373.2 194.0,370.2 195.0,369.0 196.0,365.4 197.0,371.2 198.0,366.7 199.0,355.8 200.0,358.2 201.0,351.6 202.0,347.2 203.0,349.9 204.0,340.7 205.0,335.4 206.0,332.6 207.0,337.2 208.0,331.9 209.0,347.9 210.0,347.6 211.0,346.5 212.0,339.2 213.0,339.1 214.0,341.7 215.0,351.5 216.0,345.5 217.0,323.2 218.0,321.1 219.0,313.1 220.0,320.8 221.0,321.7 222.0,323.9 223.0,330.1 224.0,325.1 225.0,317.5 226.0,321.7 227.0,316.8 228.0,314.8 229.0,319.6 230.0,314.7 231.0,306.8 232.0,310.5 233.0,315.6 234.0,313.3 235.0,314.7 236.0,317.3 237.0,310.1 238.0,316.3 239.0,324.2 240.0,328.5 241.0,329.4 242.0,328.1 243.0,317.9 244.0,316.5 245.0,317.9 246.0,325.4 247.0,329.4 248.0,330.2 249.0,331.1 250.0,331.0 251.0,347.4 252.0,355.4 253.0,364.6 254.0,350.6 255.0,347.5 256.0,342.3 257.0,344.2 258.0,347.5 259.0,350.9 260.0,350.7 261.0,347.7 262.0,354.3 263.0,353.5 264.0,357.2 265.0,355.1 266.0,347.9 267.0,358.6 268.0,357.6 269.0,359.7 270.0,349.9 271.0,336.2 272.0,345.1 273.0,334.7 274.0,341.2 275.0,345.8 276.0,345.0 277.0,348.0 278.0,356.8 279.0,355.8 280.0,344.1 281.0,340.4 282.0,342.8 283.0,335.3 284.0,330.0 285.0,330.7 286.0,330.3 287.0,325.2 288.0,325.7 289.0,324.8 290.0,323.4 291.0,326.8 292.0,326.4 293.0,330.5 294.0,330.4 295.0,314.8 296.0,313.4 297.0,314.3 298.0,313.6 299.0,313.4 300.0,312.1 301.0,310.6 302.0,315.2 303.0,314.4 304.0,310.3 305.0,315.6 306.0,324.5 307.0,321.1 308.0,315.0 309.0,309.6 310.0,308.4 311.0,314.3 312.0,321.3 313.0,305.5 314.0,309.9 315.0,308.0 316.0,309.4 317.0,310.7 318.0,315.7 319.0,314.0 320.0,315.3 321.0,313.0 322.0,311.9 323.0,311.4 324.0,314.5 325.0,314.0 326.0,313.0 327.0,310.2 328.0,308.9 329.0,309.0 330.0,308.1 331.0,305.9 332.0,301.9 333.0,302.8 334.0,299.8 335.0,303.2 336.0,305.7 337.0,301.9 338.0,299.6 339.0,300.4 340.0,295.6 341.0,297.0 342.0,294.6 343.0,293.3 344.0,294.8 345.0,296.3 346.0,298.1 347.0,300.0 348.0,296.9 349.0,296.5 350.0,294.6 351.0,294.1 352.0,298.5 353.0,299.3 354.0,302.3 355.0,303.0 356.0,306.0 357.0,310.3 358.0,309.8 359.0,303.8 360.0,276.9 361.0,275.2 362.0,272.5 363.0,276.9 364.0,275.2 365.0,268.3 366.0,273.7 367.0,269.0 368.0,267.7 369.0,272.1 370.0,275.6 371.0,269.8 372.0,262.8 373.0,252.1 374.0,256.4 375.0,250.6 376.0,245.6 377.0,250.4 378.0,250.2 379.0,256.1 380.0,259.6 381.0,259.5 382.0,260.5 383.0,261.2 384.0,263.6 385.0,271.8 386.0,269.2 387.0,265.3 388.0,257.6 389.0,260.0 390.0,252.5 391.0,253.1 392.0,259.1 393.0,257.3 394.0,264.3 395.0,270.6 396.0,270.8 397.0,271.4 398.0,269.7 399.0,273.0 400.0,269.6 401.0,271.0 402.0,271.5 403.0,272.0 404.0,273.4 405.0,269.3 406.0,269.5 407.0,270.6 408.0,269.0 409.0,275.7 410.0,286.0 411.0,287.0 412.0,290.1 413.0,289.2 414.0,285.4 415.0,282.6 416.0,276.6 417.0,269.5 418.0,278.7 419.0,278.4 420.0,298.2 421.0,298.6 422.0,300.0 423.0,295.3 424.0,293.0 425.0,295.0 426.0,297.8 427.0,306.4 428.0,306.7 429.0,303.2 430.0,295.4 431.0,296.3 432.0,305.4 433.0,306.1 434.0,299.1 435.0,307.2 436.0,311.4 437.0,332.7 438.0,332.7 439.0,329.9 440.0,325.7 441.0,322.8 442.0,325.4 443.0,327.9 444.0,324.0 445.0,326.6 446.0,324.6 447.0,330.6 448.0,331.1 449.0,327.8 450.0,330.4 451.0,330.9 452.0,336.1 453.0,333.3 454.0,331.7 455.0,329.1 456.0,318.4 457.0,319.2 458.0,324.5 459.0,321.6 460.0,323.2 461.0,323.0 462.0,322.0 463.0,318.0 464.0,313.4 465.0,315.7 466.0,316.8 467.0,315.8 468.0,313.7 469.0,312.5 470.0,310.3 471.0,314.1 472.0,314.1 473.0,311.3 474.0,310.5 475.0,313.7 476.0,317.3 477.0,307.0 478.0,303.8 479.0,304.8 480.0,308.3 481.0,306.6 482.0,306.3 483.0,302.5 484.0,299.7 485.0,299.9 486.0,300.2 487.0,300.3 488.0,297.7 489.0,300.5 490.0,300.2 491.0,300.6 492.0,306.1 493.0,300.9 494.0,297.7 495.0,304.8 496.0,302.4 497.0,304.4 498.0,300.4 499.0,302.4 500.0,305.0 501.0,301.2 502.0,302.8 503.0,306.3 504.0,309.9 505.0,316.9 506.0,307.5 507.0,295.1 508.0,297.9 509.0,305.3 510.0,301.5 511.0,304.3 512.0,298.9 513.0,302.5 514.0,301.8 515.0,294.0 516.0,283.5 517.0,277.9 518.0,285.9 519.0,292.4 520.0,297.0 521.0,296.4 522.0,295.9 523.0,297.2 524.0,300.0 525.0,304.4 526.0,305.0 527.0,306.4 528.0,301.4 529.0,304.0 530.0,313.6 531.0,330.4 532.0,324.8 533.0,337.1 534.0,335.2 535.0,336.5 536.0,336.1 537.0,335.3 538.0,332.4 539.0,337.4 540.0,334.4 541.0,336.3 542.0,337.0 543.0,334.5 544.0,331.7 545.0,332.8 546.0,329.4 547.0,325.7 548.0,329.7 549.0,327.9 550.0,329.5 551.0,326.8 552.0,330.0 553.0,330.3 554.0,330.1 555.0,332.4 556.0,325.7 557.0,331.4 558.0,356.0 559.0,363.1 560.0,371.5 561.0,392.2 562.0,393.1 563.0,384.2 564.0,369.2 565.0,363.8 566.0,362.6 567.0,364.6 568.0,363.5 569.0,366.5 570.0,365.6 571.0,348.8 572.0,348.9 573.0,345.2 574.0,347.9 575.0,348.7 576.0,355.2 577.0,358.1 578.0,361.8 579.0,394.2 580.0,389.0 581.0,398.3 582.0,392.0 583.0,395.1 584.0,389.9 585.0,383.8 586.0,384.4 587.0,385.6 588.0,389.7 589.0,403.3 590.0,392.3 591.0,384.1 592.0,384.5 593.0,373.6 594.0,376.0 595.0,379.4 596.0,390.4 597.0,394.5 598.0,397.7 599.0,380.7 600.0,380.2 601.0,379.0 602.0,380.0 603.0,388.7 604.0,385.4 605.0,386.4 606.0,383.0 607.0,382.1 608.0,382.8 609.0,382.8 610.0,377.3 611.0,374.0 612.0,377.0 613.0,376.4 614.0,372.7 615.0,373.1 616.0,373.6 617.0,375.6 618.0,375.4 619.0,369.9 620.0,369.3 621.0,365.7 622.0,371.0 623.0,372.1 624.0,378.6 625.0,376.7 626.0,379.1 627.0,377.7 628.0,379.9 629.0,378.7 630.0,379.3 631.0,378.4 632.0,378.6 633.0,382.4 634.0,379.2 635.0,377.6 636.0,374.7 637.0,379.1 638.0,375.0 639.0,381.2 640.0,378.9 641.0,380.9 642.0,388.3 643.0,390.6 644.0,389.1 645.0,390.5 646.0,388.0 647.0,394.0 648.0,385.3 649.0,395.0 650.0,392.7 651.0,380.3 652.0,383.7 653.0,388.7 654.0,380.4 655.0,379.3 656.0,384.6 657.0,377.2 658.0,383.2 659.0,374.9 660.0,389.6 661.0,391.4 662.0,385.8 663.0,373.2 664.0,373.3 665.0,375.6 666.0,373.8 667.0,371.7 668.0,375.1 669.0,377.7 670.0,381.1 671.0,382.3 672.0,388.8 673.0,391.7 674.0,390.5 675.0,390.9 676.0,393.4 677.0,395.0 678.0,394.1 679.0,397.4 680.0,408.5 681.0,401.8 682.0,412.5 683.0,412.1 684.0,413.7 685.0,407.2 686.0,404.2 687.0,409.3 688.0,409.8 689.0,408.8 690.0,408.6 691.0,404.4 692.0,401.1 693.0,396.4 694.0,397.1 695.0,406.7 696.0,406.2 697.0,401.1 698.0,405.7 699.0,406.1 700.0,412.2 701.0,396.8 702.0,389.2 703.0,377.6 704.0,383.6 705.0,379.1 706.0,377.3 707.0,380.1 708.0,366.1 709.0,375.2 710.0,386.3 711.0,381.3 712.0,374.8 713.0,364.7 714.0,368.1 715.0,373.3 716.0,378.5 717.0,374.7 718.0,362.2 719.0,357.4 720.0,356.4 721.0,349.1 722.0,348.6 723.0,348.7 724.0,354.7 725.0,348.7 726.0,349.3 727.0,354.4 728.0,352.4 729.0,352.3 730.0,352.7 731.0,356.1 732.0,352.2 733.0,354.7 734.0,354.8 735.0,348.1 736.0,349.9 737.0,347.7 738.0,350.2 739.0,349.7 740.0,343.7 741.0,345.4 742.0,342.0 743.0,339.7 744.0,343.7 745.0,339.0 746.0,340.0 747.0,338.3 748.0,328.2 749.0,329.6 750.0,332.5 751.0,328.2 752.0,333.9 753.0,334.0 754.0,330.8 755.0,331.5 756.0,335.1 757.0,331.9 758.0,331.8 759.0,334.4 760.0,333.4 761.0,332.6 762.0,331.2 763.0,330.7 764.0,326.7 765.0,326.8 766.0,318.1 767.0,320.1 768.0,319.9 769.0,316.0 770.0,320.4 771.0,320.2 772.0,324.5 773.0,328.0 774.0,329.8 775.0,326.8 776.0,330.1 777.0,328.9 778.0,323.1 779.0,326.1 780.0,329.6 781.0,330.3 782.0,329.9 783.0,328.3 784.0,325.6 785.0,329.8 786.0,328.2 787.0,329.6 788.0,328.3 789.0,329.0 790.0,322.5 791.0,306.4 792.0,315.1 793.0,307.5 794.0,316.5 795.0,319.6 796.0,320.3 797.0,322.9 798.0,324.7 799.0,327.2 800.0,331.2 801.0,327.7 802.0,343.5 803.0,351.9 804.0,341.4 805.0,336.1 806.0,310.6 807.0,312.9 808.0,310.6 809.0,311.3 810.0,299.2 811.0,301.1 812.0,302.9 813.0,304.4 814.0,308.1 815.0,318.4 816.0,319.4 817.0,321.1 818.0,317.1 819.0,323.1 820.0,319.4 821.0,317.0 822.0,320.1 823.0,313.4 824.0,323.4 825.0,315.1 826.0,307.4 827.0,302.7 828.0,304.0 829.0,308.0 830.0,311.4 831.0,316.7 832.0,310.7 833.0,312.7 834.0,323.5 835.0,324.5 836.0,329.1 837.0,327.8 838.0,333.2 839.0,327.4 840.0,344.5 841.0,341.4 842.0,340.6 843.0,336.9 844.0,346.2 845.0,344.8 846.0,350.7 847.0,342.7 848.0,339.2 849.0,341.7 850.0,338.9 851.0,342.0 852.0,337.7 853.0,337.3 854.0,339.6 855.0,343.3 856.0,345.2 857.0,338.7 858.0,334.9 859.0,326.5 860.0,325.0 861.0,327.3 862.0,326.5 863.0,330.3 864.0,332.2 865.0,324.0 866.0,321.8 867.0,327.7 868.0,328.1 869.0,318.5 870.0,318.9 871.0,317.3 872.0,319.0 873.0,319.9 874.0,325.0 875.0,317.1 876.0,305.4 877.0,304.7 878.0,305.3 879.0,307.0 880.0,306.0 881.0,301.5 882.0,297.6 883.0,296.5 884.0,297.2 885.0,301.3 886.0,304.2 887.0,305.6 888.0,301.4 889.0,306.3 890.0,307.5 891.0,310.1 892.0,303.8 893.0,302.7 894.0,301.9" fill="none" stroke="#3987e5" stroke-width="1.6"/>
<polygon points="76.0,111.6 77.0,119.9 78.0,113.0 79.0,113.7 80.0,121.2 81.0,124.3 82.0,128.6 83.0,131.9 84.0,130.7 85.0,136.6 86.0,137.1 87.0,147.3 88.0,153.9 89.0,160.7 90.0,154.9 91.0,155.3 92.0,157.8 93.0,157.2 94.0,163.9 95.0,161.1 96.0,159.3 97.0,163.4 98.0,171.8 99.0,170.0 100.0,169.5 101.0,175.1 102.0,181.8 103.0,185.4 104.0,192.7 105.0,194.4 106.0,197.3 107.0,200.6 108.0,207.1 109.0,223.0 110.0,225.7 111.0,231.2 112.0,235.0 113.0,237.9 114.0,229.9 115.0,233.6 116.0,249.9 117.0,243.7 118.0,246.6 119.0,250.4 120.0,254.9 121.0,240.0 122.0,237.5 123.0,240.8 124.0,242.9 125.0,238.4 126.0,239.2 127.0,244.4 128.0,242.8 129.0,247.5 130.0,253.5 131.0,263.3 132.0,263.2 133.0,264.4 134.0,274.2 135.0,269.5 136.0,280.5 137.0,293.1 138.0,311.8 139.0,312.1 140.0,293.2 141.0,290.5 142.0,295.8 143.0,296.7 144.0,304.2 145.0,309.7 146.0,321.3 147.0,319.5 148.0,305.6 149.0,295.5 150.0,297.3 151.0,304.9 152.0,310.3 153.0,303.0 154.0,302.2 155.0,307.5 156.0,311.0 157.0,306.6 158.0,305.5 159.0,313.4 160.0,325.0 161.0,319.2 162.0,310.6 163.0,331.3 164.0,322.0 165.0,318.6 166.0,321.8 167.0,329.7 168.0,334.7 169.0,336.9 170.0,359.0 171.0,352.0 172.0,352.7 173.0,362.4 174.0,373.0 175.0,343.1 176.0,343.3 177.0,344.1 178.0,352.6 179.0,355.2 180.0,359.1 181.0,363.8 182.0,362.1 183.0,357.0 184.0,357.8 185.0,353.1 186.0,354.5 187.0,365.8 188.0,360.6 189.0,358.9 190.0,361.6 191.0,362.5 192.0,363.1 193.0,366.3 194.0,366.9 195.0,368.3 196.0,362.7 197.0,365.2 198.0,363.7 199.0,350.4 200.0,350.0 201.0,347.8 202.0,346.2 203.0,339.7 204.0,338.0 205.0,334.7 206.0,324.7 207.0,331.2 208.0,328.9 209.0,330.7 210.0,345.3 211.0,337.1 212.0,336.9 213.0,337.1 214.0,337.9 215.0,340.7 216.0,343.1 217.0,299.8 218.0,316.6 219.0,307.6 220.0,309.1 221.0,319.3 222.0,315.5 223.0,323.9 224.0,321.5 225.0,317.4 226.0,317.5 227.0,312.8 228.0,313.2 229.0,306.7 230.0,305.8 231.0,305.5 232.0,300.3 233.0,304.1 234.0,311.8 235.0,311.0 236.0,313.5 237.0,307.6 238.0,308.9 239.0,312.9 240.0,320.8 241.0,326.7 242.0,324.9 243.0,315.9 244.0,314.1 245.0,314.5 246.0,317.3 247.0,324.0 248.0,328.1 249.0,327.6 250.0,326.1 251.0,330.4 252.0,345.3 253.0,354.5 254.0,345.3 255.0,343.8 256.0,341.0 257.0,338.1 258.0,344.1 259.0,343.8 260.0,345.5 261.0,343.9 262.0,346.5 263.0,351.3 264.0,352.6 265.0,353.4 266.0,347.4 267.0,347.9 268.0,354.6 269.0,353.9 270.0,344.4 271.0,336.2 272.0,334.5 273.0,326.7 274.0,331.2 275.0,339.7 276.0,343.0 277.0,342.3 278.0,346.8 279.0,351.6 280.0,344.0 281.0,338.9 282.0,335.6 283.0,332.0 284.0,323.3 285.0,329.1 286.0,323.0 287.0,325.0 288.0,323.2 289.0,324.2 290.0,319.2 291.0,320.4 292.0,319.6 293.0,322.8 294.0,326.5 295.0,312.0 296.0,308.9 297.0,306.5 298.0,312.6 299.0,311.3 300.0,310.3 301.0,308.8 302.0,310.3 303.0,309.2 304.0,309.4 305.0,307.5 306.0,315.5 307.0,320.0 308.0,312.3 309.0,305.8 310.0,307.2 311.0,307.5 312.0,313.8 313.0,305.0 314.0,297.4 315.0,303.0 316.0,306.4 317.0,306.8 318.0,310.3 319.0,312.1 320.0,311.6 321.0,312.6 322.0,310.5 323.0,308.1 324.0,310.4 325.0,311.9 326.0,312.4 327.0,309.9 328.0,307.1 329.0,306.7 330.0,306.5 331.0,305.6 332.0,301.0 333.0,300.1 334.0,298.9 335.0,298.5 336.0,301.5 337.0,299.7 338.0,298.6 339.0,299.1 340.0,290.2 341.0,293.7 342.0,294.0 343.0,291.4 344.0,292.9 345.0,294.4 346.0,296.2 347.0,296.0 348.0,296.5 349.0,295.2 350.0,293.1 351.0,292.3 352.0,292.9 353.0,297.5 354.0,298.6 355.0,302.3 356.0,300.5 357.0,305.4 358.0,307.8 359.0,303.3 360.0,272.4 361.0,273.9 362.0,268.1 363.0,271.0 364.0,270.8 365.0,266.5 366.0,267.4 367.0,268.4 368.0,266.3 369.0,267.0 370.0,270.5 371.0,265.8 372.0,259.1 373.0,251.4 374.0,248.6 375.0,250.4 376.0,241.7 377.0,243.5 378.0,248.6 379.0,249.7 380.0,253.6 381.0,257.6 382.0,259.5 383.0,257.9 384.0,258.7 385.0,263.4 386.0,261.5 387.0,264.5 388.0,255.3 389.0,256.7 390.0,247.6 391.0,251.6 392.0,253.1 393.0,251.0 394.0,257.0 395.0,261.5 396.0,266.8 397.0,269.2 398.0,261.2 399.0,268.1 400.0,269.3 401.0,267.8 402.0,269.1 403.0,270.4 404.0,269.5 405.0,264.1 406.0,268.5 407.0,265.8 408.0,267.9 409.0,269.0 410.0,274.2 411.0,284.2 412.0,285.8 413.0,288.3 414.0,283.4 415.0,277.0 416.0,276.0 417.0,257.7 418.0,262.8 419.0,265.6 420.0,278.1 421.0,295.9 422.0,296.8 423.0,294.9 424.0,291.6 425.0,289.6 426.0,290.2 427.0,297.3 428.0,304.7 429.0,302.7 430.0,295.4 431.0,292.7 432.0,295.9 433.0,300.7 434.0,298.7 435.0,296.7 436.0,301.2 437.0,310.6 438.0,328.0 439.0,325.3 440.0,324.5 441.0,319.2 442.0,322.0 443.0,325.3 444.0,324.0 445.0,322.5 446.0,322.3 447.0,323.8 448.0,325.9 449.0,327.0 450.0,325.9 451.0,328.5 452.0,330.7 453.0,332.1 454.0,330.5 455.0,324.8 456.0,316.1 457.0,316.5 458.0,316.8 459.0,320.0 460.0,320.8 461.0,321.6 462.0,318.9 463.0,317.6 464.0,311.5 465.0,309.0 466.0,312.4 467.0,314.6 468.0,313.4 469.0,305.6 470.0,309.7 471.0,309.1 472.0,313.2 473.0,309.2 474.0,310.0 475.0,308.6 476.0,311.8 477.0,301.8 478.0,297.7 479.0,303.1 480.0,304.8 481.0,305.8 482.0,305.4 483.0,302.0 484.0,298.1 485.0,298.5 486.0,298.9 487.0,299.0 488.0,296.0 489.0,293.3 490.0,298.1 491.0,298.8 492.0,300.2 493.0,300.4 494.0,295.9 495.0,296.1 496.0,301.1 497.0,302.0 498.0,298.3 499.0,299.9 500.0,300.9 501.0,299.4 502.0,300.0 503.0,302.8 504.0,306.3 505.0,307.8 506.0,303.0 507.0,288.7 508.0,293.6 509.0,297.9 510.0,298.6 511.0,298.7 512.0,297.1 513.0,298.3 514.0,299.7 515.0,290.4 516.0,281.6 517.0,274.0 518.0,277.8 519.0,283.6 520.0,289.6 521.0,291.0 522.0,295.8 523.0,292.4 524.0,297.2 525.0,299.8 526.0,304.2 527.0,299.7 528.0,299.9 529.0,301.2 530.0,303.9 531.0,312.6 532.0,322.5 533.0,324.5 534.0,333.9 535.0,332.3 536.0,330.9 537.0,334.4 538.0,327.2 539.0,331.6 540.0,327.5 541.0,330.2 542.0,335.3 543.0,333.1 544.0,331.3 545.0,328.6 546.0,327.9 547.0,323.7 548.0,321.6 549.0,327.8 550.0,327.5 551.0,322.6 552.0,326.0 553.0,327.2 554.0,327.9 555.0,329.7 556.0,324.7 557.0,319.3 558.0,331.3 559.0,354.3 560.0,359.9 561.0,371.1 562.0,383.4 563.0,381.9 564.0,358.7 565.0,357.5 566.0,362.0 567.0,359.3 568.0,363.3 569.0,362.9 570.0,364.4 571.0,347.9 572.0,346.9 573.0,344.1 574.0,344.6 575.0,347.5 576.0,348.3 577.0,354.8 578.0,347.4 579.0,360.8 580.0,385.9 581.0,380.6 582.0,385.8 583.0,386.7 584.0,386.6 585.0,381.6 586.0,376.8 587.0,378.1 588.0,383.6 589.0,389.0 590.0,390.7 591.0,376.8 592.0,380.8 593.0,373.0 594.0,367.3 595.0,374.7 596.0,379.3 597.0,389.6 598.0,381.6 599.0,376.1 600.0,377.0 601.0,370.1 602.0,374.3 603.0,378.8 604.0,379.6 605.0,385.2 606.0,380.7 607.0,379.6 608.0,378.0 609.0,380.4 610.0,373.8 611.0,372.9 612.0,372.7 613.0,374.7 614.0,372.2 615.0,370.6 616.0,372.1 617.0,372.4 618.0,373.6 619.0,369.0 620.0,367.9 621.0,363.7 622.0,365.5 623.0,369.1 624.0,370.3 625.0,376.0 626.0,372.7 627.0,376.9 628.0,375.6 629.0,378.2 630.0,375.4 631.0,376.3 632.0,377.4 633.0,378.6 634.0,378.2 635.0,376.8 636.0,371.3 637.0,373.9 638.0,374.6 639.0,372.8 640.0,378.2 641.0,377.0 642.0,380.0 643.0,384.7 644.0,387.5 645.0,387.6 646.0,386.2 647.0,383.6 648.0,384.7 649.0,385.1 650.0,387.5 651.0,378.2 652.0,377.0 653.0,381.9 654.0,375.1 655.0,378.1 656.0,379.3 657.0,375.5 658.0,375.4 659.0,366.4 660.0,374.2 661.0,387.6 662.0,382.7 663.0,372.3 664.0,368.5 665.0,372.4 666.0,371.0 667.0,370.2 668.0,371.4 669.0,374.7 670.0,377.3 671.0,380.9 672.0,381.1 673.0,387.7 674.0,388.1 675.0,387.3 676.0,390.1 677.0,392.5 678.0,392.9 679.0,393.1 680.0,397.4 681.0,395.8 682.0,398.0 683.0,404.6 684.0,408.2 685.0,406.6 686.0,403.2 687.0,403.4 688.0,404.8 689.0,407.5 690.0,405.8 691.0,400.7 692.0,397.5 693.0,394.2 694.0,392.0 695.0,397.0 696.0,404.2 697.0,400.9 698.0,399.0 699.0,404.8 700.0,405.8 701.0,396.0 702.0,379.9 703.0,371.3 704.0,376.6 705.0,377.0 706.0,374.9 707.0,377.4 708.0,365.3 709.0,355.9 710.0,374.6 711.0,381.3 712.0,373.7 713.0,363.3 714.0,360.1 715.0,364.8 716.0,369.2 717.0,374.0 718.0,361.3 719.0,354.5 720.0,355.0 721.0,349.0 722.0,339.3 723.0,346.2 724.0,346.5 725.0,344.4 726.0,346.0 727.0,349.0 728.0,349.9 729.0,350.9 730.0,350.9 731.0,351.0 732.0,348.6 733.0,349.8 734.0,351.3 735.0,347.2 736.0,346.4 737.0,345.8 738.0,345.3 739.0,347.5 740.0,341.7 741.0,340.1 742.0,339.8 743.0,337.9 744.0,335.8 745.0,337.8 746.0,338.3 747.0,337.4 748.0,326.1 749.0,324.8 750.0,329.6 751.0,324.9 752.0,327.7 753.0,332.6 754.0,328.9 755.0,329.0 756.0,331.5 757.0,331.3 758.0,331.8 759.0,330.5 760.0,333.3 761.0,332.4 762.0,330.0 763.0,328.0 764.0,322.5 765.0,324.1 766.0,315.1 767.0,317.6 768.0,315.3 769.0,315.6 770.0,315.5 771.0,319.8 772.0,320.2 773.0,323.3 774.0,328.0 775.0,326.6 776.0,324.9 777.0,327.6 778.0,322.1 779.0,322.9 780.0,326.1 781.0,327.8 782.0,328.6 783.0,327.6 784.0,325.2 785.0,325.2 786.0,327.8 787.0,328.2 788.0,326.5 789.0,327.1 790.0,319.3 791.0,304.8 792.0,305.9 793.0,306.6 794.0,307.3 795.0,314.8 796.0,316.7 797.0,319.5 798.0,322.6 799.0,319.6 800.0,325.3 801.0,323.2 802.0,324.2 803.0,339.3 804.0,335.4 805.0,332.3 806.0,307.5 807.0,305.2 808.0,307.0 809.0,306.8 810.0,291.1 811.0,294.7 812.0,298.3 813.0,298.8 814.0,303.0 815.0,307.4 816.0,317.1 817.0,319.4 818.0,316.5 819.0,315.6 820.0,319.2 821.0,314.7 822.0,316.7 823.0,307.3 824.0,313.4 825.0,311.9 826.0,302.2 827.0,300.1 828.0,300.4 829.0,302.2 830.0,306.8 831.0,307.6 832.0,310.7 833.0,310.7 834.0,309.5 835.0,320.1 836.0,322.2 837.0,326.1 838.0,327.1 839.0,327.1 840.0,325.3 841.0,337.1 842.0,339.5 843.0,335.3 844.0,336.2 845.0,339.9 846.0,342.6 847.0,341.8 848.0,335.7 849.0,336.6 850.0,337.4 851.0,338.3 852.0,336.6 853.0,336.7 854.0,337.3 855.0,330.9 856.0,341.2 857.0,337.7 858.0,331.0 859.0,325.9 860.0,318.7 861.0,322.4 862.0,323.1 863.0,325.2 864.0,324.9 865.0,319.3 866.0,320.2 867.0,319.0 868.0,326.8 869.0,314.6 870.0,316.9 871.0,316.5 872.0,316.7 873.0,316.2 874.0,317.9 875.0,315.3 876.0,304.0 877.0,304.1 878.0,301.2 879.0,301.1 880.0,304.6 881.0,297.3 882.0,295.4 883.0,295.0 884.0,293.0 885.0,294.9 886.0,291.4 887.0,300.9 888.0,300.6 889.0,301.4 890.0,305.0 891.0,304.1 892.0,303.1 893.0,301.9 894.0,300.9 894.0,304.7 893.0,305.4 892.0,310.5 891.0,311.6 890.0,310.1 889.0,308.6 888.0,308.4 887.0,307.1 886.0,309.4 885.0,301.6 884.0,298.7 883.0,299.7 882.0,302.9 881.0,306.8 880.0,308.8 879.0,307.2 878.0,307.8 877.0,308.5 876.0,317.2 875.0,325.9 874.0,325.1 873.0,323.2 872.0,320.3 871.0,321.0 870.0,321.5 869.0,329.0 868.0,332.9 867.0,329.0 866.0,330.9 865.0,333.7 864.0,334.7 863.0,331.8 862.0,328.4 861.0,327.9 860.0,328.1 859.0,334.9 858.0,339.0 857.0,346.2 856.0,349.3 855.0,347.3 854.0,342.5 853.0,340.3 852.0,342.1 851.0,344.5 850.0,342.0 849.0,342.8 848.0,342.9 847.0,351.2 846.0,352.5 845.0,350.5 844.0,346.5 843.0,342.5 842.0,345.5 841.0,349.1 840.0,346.4 839.0,334.4 838.0,334.2 837.0,330.5 836.0,330.2 835.0,333.4 834.0,325.9 833.0,318.5 832.0,317.1 831.0,320.4 830.0,312.6 829.0,317.0 828.0,305.9 827.0,308.7 826.0,315.7 825.0,330.8 824.0,324.7 823.0,321.3 822.0,322.2 821.0,321.6 820.0,324.7 819.0,323.1 818.0,324.7 817.0,328.3 816.0,321.6 815.0,319.4 814.0,309.4 813.0,304.9 812.0,304.2 811.0,301.8 810.0,311.6 809.0,312.7 808.0,312.9 807.0,313.4 806.0,336.2 805.0,345.8 804.0,356.9 803.0,352.4 802.0,346.3 801.0,331.2 800.0,331.4 799.0,327.8 798.0,326.6 797.0,325.7 796.0,320.8 795.0,321.8 794.0,317.0 793.0,317.7 792.0,316.0 791.0,324.0 790.0,331.8 789.0,330.1 788.0,329.8 787.0,332.0 786.0,332.0 785.0,330.6 784.0,331.0 783.0,331.2 782.0,332.8 781.0,331.8 780.0,335.5 779.0,326.7 778.0,329.8 777.0,331.0 776.0,330.7 775.0,331.0 774.0,332.2 773.0,328.5 772.0,326.5 771.0,325.7 770.0,320.5 769.0,321.4 768.0,322.1 767.0,322.5 766.0,328.2 765.0,328.5 764.0,331.5 763.0,333.0 762.0,333.1 761.0,334.5 760.0,334.9 759.0,335.5 758.0,334.4 757.0,337.0 756.0,335.1 755.0,332.1 754.0,334.4 753.0,335.5 752.0,335.7 751.0,332.9 750.0,333.3 749.0,333.7 748.0,340.1 747.0,340.8 746.0,341.5 745.0,345.2 744.0,347.0 743.0,349.3 742.0,345.4 741.0,346.0 740.0,349.9 739.0,352.1 738.0,353.2 737.0,350.2 736.0,351.1 735.0,355.6 734.0,356.2 733.0,357.0 732.0,357.3 731.0,358.1 730.0,356.0 729.0,352.9 728.0,356.3 727.0,355.2 726.0,350.2 725.0,355.0 724.0,360.1 723.0,355.1 722.0,352.6 721.0,359.9 720.0,360.4 719.0,365.3 718.0,374.7 717.0,379.9 716.0,378.7 715.0,373.7 714.0,368.3 713.0,376.2 712.0,381.5 711.0,389.8 710.0,386.6 709.0,376.2 708.0,380.1 707.0,384.3 706.0,380.3 705.0,383.6 704.0,385.9 703.0,391.0 702.0,397.9 701.0,414.0 700.0,412.7 699.0,409.0 698.0,407.0 697.0,410.8 696.0,408.7 695.0,410.1 694.0,398.1 693.0,404.0 692.0,407.4 691.0,424.4 690.0,414.3 689.0,410.4 688.0,410.6 687.0,409.7 686.0,409.0 685.0,413.7 684.0,414.4 683.0,415.2 682.0,416.7 681.0,416.0 680.0,414.4 679.0,398.8 678.0,395.6 677.0,397.5 676.0,394.0 675.0,392.6 674.0,394.3 673.0,393.2 672.0,389.4 671.0,386.7 670.0,388.0 669.0,379.0 668.0,375.1 667.0,376.8 666.0,375.9 665.0,378.8 664.0,375.6 663.0,389.8 662.0,399.3 661.0,401.0 660.0,391.3 659.0,389.6 658.0,384.2 657.0,386.1 656.0,387.0 655.0,383.3 654.0,388.8 653.0,394.0 652.0,384.2 651.0,403.4 650.0,397.3 649.0,401.2 648.0,403.2 647.0,398.2 646.0,391.0 645.0,396.2 644.0,391.5 643.0,393.8 642.0,389.5 641.0,384.3 640.0,382.6 639.0,381.7 638.0,379.7 637.0,380.7 636.0,377.8 635.0,379.9 634.0,385.8 633.0,386.8 632.0,380.2 631.0,380.0 630.0,381.0 629.0,382.4 628.0,383.1 627.0,385.0 626.0,379.3 625.0,380.8 624.0,379.2 623.0,373.4 622.0,374.0 621.0,371.1 620.0,372.2 619.0,376.0 618.0,378.1 617.0,375.7 616.0,376.4 615.0,374.7 614.0,376.5 613.0,379.7 612.0,378.2 611.0,378.8 610.0,383.4 609.0,383.2 608.0,384.4 607.0,384.5 606.0,387.9 605.0,390.1 604.0,390.8 603.0,389.0 602.0,382.9 601.0,382.5 600.0,393.6 599.0,411.0 598.0,401.7 597.0,396.4 596.0,392.3 595.0,380.6 594.0,378.4 593.0,387.6 592.0,387.0 591.0,394.0 590.0,414.1 589.0,413.7 588.0,392.6 587.0,386.9 586.0,387.0 585.0,394.5 584.0,397.6 583.0,397.8 582.0,398.3 581.0,398.5 580.0,404.3 579.0,418.9 578.0,364.9 577.0,359.9 576.0,361.5 575.0,351.0 574.0,349.2 573.0,350.1 572.0,352.9 571.0,366.8 570.0,368.8 569.0,368.6 568.0,368.2 567.0,365.3 566.0,366.6 565.0,369.2 564.0,384.2 563.0,393.1 562.0,399.2 561.0,394.6 560.0,378.0 559.0,365.8 558.0,359.0 557.0,332.6 556.0,337.6 555.0,334.5 554.0,331.2 553.0,331.9 552.0,330.3 551.0,330.0 550.0,333.3 549.0,334.8 548.0,330.6 547.0,329.4 546.0,334.1 545.0,333.7 544.0,336.5 543.0,338.3 542.0,341.6 541.0,338.5 540.0,337.4 539.0,339.8 538.0,339.5 537.0,344.4 536.0,336.6 535.0,339.0 534.0,337.4 533.0,345.3 532.0,330.4 531.0,332.8 530.0,313.8 529.0,305.8 528.0,307.3 527.0,306.9 526.0,308.5 525.0,309.0 524.0,302.6 523.0,298.6 522.0,300.7 521.0,298.1 520.0,297.9 519.0,293.0 518.0,289.4 517.0,287.0 516.0,294.1 515.0,303.7 514.0,304.3 513.0,304.4 512.0,304.3 511.0,306.2 510.0,306.2 509.0,307.7 508.0,307.3 507.0,308.0 506.0,317.3 505.0,319.7 504.0,313.4 503.0,314.8 502.0,304.0 501.0,305.5 500.0,306.3 499.0,304.5 498.0,305.1 497.0,305.3 496.0,306.2 495.0,305.3 494.0,301.4 493.0,306.6 492.0,307.1 491.0,301.9 490.0,301.6 489.0,300.7 488.0,300.7 487.0,301.1 486.0,301.3 485.0,300.8 484.0,303.8 483.0,306.7 482.0,308.0 481.0,309.4 480.0,310.3 479.0,307.7 478.0,307.1 477.0,320.8 476.0,319.2 475.0,313.9 474.0,313.0 473.0,314.1 472.0,316.9 471.0,315.2 470.0,313.0 469.0,314.1 468.0,316.8 467.0,318.3 466.0,316.9 465.0,315.7 464.0,319.2 463.0,323.4 462.0,323.8 461.0,325.5 460.0,324.7 459.0,327.1 458.0,325.8 457.0,324.1 456.0,329.3 455.0,337.0 454.0,335.1 453.0,336.6 452.0,337.7 451.0,334.1 450.0,330.7 449.0,333.0 448.0,335.9 447.0,336.3 446.0,327.0 445.0,327.5 444.0,328.3 443.0,329.4 442.0,327.0 441.0,325.7 440.0,332.0 439.0,334.0 438.0,338.8 437.0,338.8 436.0,314.2 435.0,309.3 434.0,307.4 433.0,307.0 432.0,306.8 431.0,299.2 430.0,305.0 429.0,308.2 428.0,311.2 427.0,309.3 426.0,298.0 425.0,295.9 424.0,296.7 423.0,300.4 422.0,307.1 421.0,301.8 420.0,304.5 419.0,290.5 418.0,279.0 417.0,277.6 416.0,290.6 415.0,289.1 414.0,294.0 413.0,294.4 412.0,290.6 411.0,289.1 410.0,287.0 409.0,277.0 408.0,271.8 407.0,270.7 406.0,272.3 405.0,273.4 404.0,277.3 403.0,274.1 402.0,272.9 401.0,273.4 400.0,275.1 399.0,275.3 398.0,272.4 397.0,272.5 396.0,272.6 395.0,279.1 394.0,268.2 393.0,259.7 392.0,259.3 391.0,257.9 390.0,260.3 389.0,261.0 388.0,265.9 387.0,270.6 386.0,271.8 385.0,273.8 384.0,263.9 383.0,262.3 382.0,264.4 381.0,265.1 380.0,260.4 379.0,260.9 378.0,253.0 377.0,253.8 376.0,251.7 375.0,258.8 374.0,261.1 373.0,263.4 372.0,269.9 371.0,276.1 370.0,276.4 369.0,274.1 368.0,272.9 367.0,273.9 366.0,274.6 365.0,278.0 364.0,277.5 363.0,279.3 362.0,276.2 361.0,286.9 360.0,305.3 359.0,310.0 358.0,310.3 357.0,311.4 356.0,306.9 355.0,305.4 354.0,307.8 353.0,300.6 352.0,299.0 351.0,296.5 350.0,299.0 349.0,297.7 348.0,301.2 347.0,300.7 346.0,299.6 345.0,296.5 344.0,296.2 343.0,295.6 342.0,298.1 341.0,297.2 340.0,300.4 339.0,301.0 338.0,302.5 337.0,306.0 336.0,307.0 335.0,305.8 334.0,302.8 333.0,304.5 332.0,306.8 331.0,309.0 330.0,310.4 329.0,309.2 328.0,310.4 327.0,313.7 326.0,315.0 325.0,315.2 324.0,316.6 323.0,311.9 322.0,314.6 321.0,316.3 320.0,316.0 319.0,316.9 318.0,316.4 317.0,312.2 316.0,311.5 315.0,311.0 314.0,314.6 313.0,322.4 312.0,323.6 311.0,315.8 310.0,313.1 309.0,315.1 308.0,322.6 307.0,325.7 306.0,327.4 305.0,316.3 304.0,317.9 303.0,315.3 302.0,318.8 301.0,314.3 300.0,317.4 299.0,315.7 298.0,319.2 297.0,316.7 296.0,318.0 295.0,336.9 294.0,333.0 293.0,333.2 292.0,330.5 291.0,334.0 290.0,324.8 289.0,328.0 288.0,328.3 287.0,331.8 286.0,331.7 285.0,333.0 284.0,335.4 283.0,343.6 282.0,344.6 281.0,347.9 280.0,359.7 279.0,360.8 278.0,358.9 277.0,349.6 276.0,351.6 275.0,350.3 274.0,345.0 273.0,347.1 272.0,347.2 271.0,354.3 270.0,365.0 269.0,365.5 268.0,369.5 267.0,359.8 266.0,355.4 265.0,360.1 264.0,361.4 263.0,356.3 262.0,358.2 261.0,351.5 260.0,354.0 259.0,352.2 258.0,350.0 257.0,344.2 256.0,348.9 255.0,351.3 254.0,367.8 253.0,365.6 252.0,360.0 251.0,347.6 250.0,335.6 249.0,334.1 248.0,332.5 247.0,331.6 246.0,328.9 245.0,320.0 244.0,322.1 243.0,329.2 242.0,333.2 241.0,332.5 240.0,335.5 239.0,324.9 238.0,320.4 237.0,317.4 236.0,322.5 235.0,317.9 234.0,319.4 233.0,318.6 232.0,311.7 231.0,316.5 230.0,321.0 229.0,330.0 228.0,323.6 227.0,322.0 226.0,324.7 225.0,328.0 224.0,335.8 223.0,334.1 222.0,328.1 221.0,326.1 220.0,329.9 219.0,322.2 218.0,328.5 217.0,350.3 216.0,354.1 215.0,359.5 214.0,342.5 213.0,343.9 212.0,347.0 211.0,349.9 210.0,350.2 209.0,352.1 208.0,337.8 207.0,337.6 206.0,335.9 205.0,342.4 204.0,351.0 203.0,350.4 202.0,353.6 201.0,359.1 200.0,359.2 199.0,367.7 198.0,371.2 197.0,373.8 196.0,369.8 195.0,372.0 194.0,373.6 193.0,374.3 192.0,373.1 191.0,374.6 190.0,367.1 189.0,369.8 188.0,369.8 187.0,379.9 186.0,368.0 185.0,365.0 184.0,368.7 183.0,370.2 182.0,392.3 181.0,380.4 180.0,369.0 179.0,363.7 178.0,371.9 177.0,372.1 176.0,359.9 175.0,383.2 174.0,398.9 173.0,395.9 172.0,369.6 171.0,386.7 170.0,375.8 169.0,373.1 168.0,351.0 167.0,343.6 166.0,336.2 165.0,338.2 164.0,355.6 163.0,360.7 162.0,336.4 161.0,334.4 160.0,337.2 159.0,329.0 158.0,323.6 157.0,317.3 156.0,320.9 155.0,322.4 154.0,320.9 153.0,321.2 152.0,325.6 151.0,315.9 150.0,311.0 149.0,311.9 148.0,323.4 147.0,340.4 146.0,339.4 145.0,330.2 144.0,319.8 143.0,316.5 142.0,311.9 141.0,311.3 140.0,316.7 139.0,355.7 138.0,335.7 137.0,323.1 136.0,298.4 135.0,284.5 134.0,291.4 133.0,281.5 132.0,271.9 131.0,274.8 130.0,275.8 129.0,258.9 128.0,254.6 127.0,251.7 126.0,245.5 125.0,254.2 124.0,251.0 123.0,247.9 122.0,250.4 121.0,261.8 120.0,277.7 119.0,267.1 118.0,258.1 117.0,254.5 116.0,263.1 115.0,260.2 114.0,244.4 113.0,259.4 112.0,245.4 111.0,240.4 110.0,245.7 109.0,246.4 108.0,236.2 107.0,211.7 106.0,204.6 105.0,202.7 104.0,203.1 103.0,194.3 102.0,195.1 101.0,185.6 100.0,178.9 99.0,175.4 98.0,188.2 97.0,175.7 96.0,167.9 95.0,170.6 94.0,174.0 93.0,164.8 92.0,163.4 91.0,163.5 90.0,172.1 89.0,177.0 88.0,162.9 87.0,163.6 86.0,153.8 85.0,140.7 84.0,139.6 83.0,140.0 82.0,138.5 81.0,133.4 80.0,126.4 79.0,124.9 78.0,123.7 77.0,128.5 76.0,121.7" fill="#199e70" fill-opacity="0.3"/>
<polyline points="76.0,120.9 77.0,122.5 78.0,114.0 79.0,123.3 80.0,124.3 81.0,131.0 82.0,135.2 83.0,132.4 84.0,139.0 85.0,137.9 86.0,147.9 87.0,155.3 88.0,161.1 89.0,172.0 90.0,160.4 91.0,162.3 92.0,160.2 93.0,164.4 94.0,170.6 95.0,165.0 96.0,165.6 97.0,173.3 98.0,175.4 99.0,172.4 100.0,175.2 101.0,182.8 102.0,186.5 103.0,193.9 104.0,201.0 105.0,197.5 106.0,204.3 107.0,208.8 108.0,228.5 109.0,243.9 110.0,237.5 111.0,236.1 112.0,243.3 113.0,242.4 114.0,234.0 115.0,255.6 116.0,253.3 117.0,253.2 118.0,253.7 119.0,266.2 120.0,258.4 121.0,241.5 122.0,247.1 123.0,245.9 124.0,250.3 125.0,243.5 126.0,245.4 127.0,245.8 128.0,252.3 129.0,258.7 130.0,272.4 131.0,264.6 132.0,265.3 133.0,277.2 134.0,275.9 135.0,280.8 136.0,293.3 137.0,320.0 138.0,335.2 139.0,316.2 140.0,294.1 141.0,311.2 142.0,303.2 143.0,305.3 144.0,312.5 145.0,321.5 146.0,338.7 147.0,320.1 148.0,310.2 149.0,305.0 150.0,309.4 151.0,314.9 152.0,321.2 153.0,305.2 154.0,315.8 155.0,316.4 156.0,311.2 157.0,309.4 158.0,316.6 159.0,328.0 160.0,331.2 161.0,327.2 162.0,335.9 163.0,352.4 164.0,331.2 165.0,322.0 166.0,336.0 167.0,339.4 168.0,342.8 169.0,364.4 170.0,367.2 171.0,363.0 172.0,364.1 173.0,395.2 174.0,378.1 175.0,347.3 176.0,352.8 177.0,371.9 178.0,358.7 179.0,359.3 180.0,365.9 181.0,379.4 182.0,365.1 183.0,361.6 184.0,361.4 185.0,354.7 186.0,365.8 187.0,369.1 188.0,366.9 189.0,366.3 190.0,363.2 191.0,366.0 192.0,369.0 193.0,373.2 194.0,370.2 195.0,369.0 196.0,365.4 197.0,371.2 198.0,366.7 199.0,355.8 200.0,358.2 201.0,351.6 202.0,347.2 203.0,349.9 204.0,340.7 205.0,335.4 206.0,332.6 207.0,337.2 208.0,331.9 209.0,347.9 210.0,347.6 211.0,346.5 212.0,339.2 213.0,339.1 214.0,341.7 215.0,351.5 216.0,345.5 217.0,323.2 218.0,321.1 219.0,313.0 220.0,320.8 221.0,321.7 222.0,323.9 223.0,330.1 224.0,325.1 225.0,317.5 226.0,321.7 227.0,316.8 228.0,314.8 229.0,319.6 230.0,314.7 231.0,306.8 232.0,310.5 233.0,315.7 234.0,313.2 235.0,314.7 236.0,317.3 237.0,310.1 238.0,316.3 239.0,324.2 240.0,328.5 241.0,329.4 242.0,328.1 243.0,317.9 244.0,316.5 245.0,317.9 246.0,325.4 247.0,329.5 248.0,330.2 249.0,331.1 250.0,331.0 251.0,347.4 252.0,355.4 253.0,364.6 254.0,350.6 255.0,347.5 256.0,342.3 257.0,344.2 258.0,347.5 259.0,350.9 260.0,350.7 261.0,347.7 262.0,354.3 263.0,353.5 264.0,357.2 265.0,355.1 266.0,347.9 267.0,358.6 268.0,357.6 269.0,359.7 270.0,349.9 271.0,336.2 272.0,345.1 273.0,334.7 274.0,341.2 275.0,345.8 276.0,345.0 277.0,348.0 278.0,356.8 279.0,355.8 280.0,344.1 281.0,340.4 282.0,342.8 283.0,335.3 284.0,330.0 285.0,330.7 286.0,330.3 287.0,325.2 288.0,325.7 289.0,324.8 290.0,323.4 291.0,326.8 292.0,326.4 293.0,330.5 294.0,330.4 295.0,314.8 296.0,313.4 297.0,314.3 298.0,313.6 299.0,313.4 300.0,312.1 301.0,310.6 302.0,315.2 303.0,314.4 304.0,310.3 305.0,315.6 306.0,324.5 307.0,321.1 308.0,315.0 309.0,309.6 310.0,308.4 311.0,314.3 312.0,321.3 313.0,305.5 314.0,309.9 315.0,308.0 316.0,309.4 317.0,310.7 318.0,315.7 319.0,314.0 320.0,315.3 321.0,313.0 322.0,311.9 323.0,311.4 324.0,314.5 325.0,314.0 326.0,313.0 327.0,310.2 328.0,308.9 329.0,309.0 330.0,308.1 331.0,305.9 332.0,301.9 333.0,302.8 334.0,299.8 335.0,303.2 336.0,305.7 337.0,301.9 338.0,299.6 339.0,300.4 340.0,295.6 341.0,297.0 342.0,294.6 343.0,293.3 344.0,294.8 345.0,296.3 346.0,298.1 347.0,300.0 348.0,296.9 349.0,296.5 350.0,294.6 351.0,294.1 352.0,298.5 353.0,299.3 354.0,302.3 355.0,303.0 356.0,306.0 357.0,310.3 358.0,309.8 359.0,303.8 360.0,276.9 361.0,275.2 362.0,272.5 363.0,276.9 364.0,275.2 365.0,268.3 366.0,273.7 367.0,269.0 368.0,267.7 369.0,272.1 370.0,275.7 371.0,269.8 372.0,262.8 373.0,252.1 374.0,256.4 375.0,250.6 376.0,245.6 377.0,250.4 378.0,250.2 379.0,256.1 380.0,259.6 381.0,259.5 382.0,260.5 383.0,261.2 384.0,263.6 385.0,271.8 386.0,269.2 387.0,265.3 388.0,257.6 389.0,260.0 390.0,252.5 391.0,253.2 392.0,259.1 393.0,257.3 394.0,264.3 395.0,270.6 396.0,270.8 397.0,271.4 398.0,269.7 399.0,273.0 400.0,269.6 401.0,271.0 402.0,271.5 403.0,272.0 404.0,273.4 405.0,269.3 406.0,269.5 407.0,270.5 408.0,269.0 409.0,275.7 410.0,286.0 411.0,287.0 412.0,290.1 413.0,289.2 414.0,285.4 415.0,282.6 416.0,276.6 417.0,269.5 418.0,278.7 419.0,278.4 420.0,298.2 421.0,298.6 422.0,300.0 423.0,295.3 424.0,293.0 425.0,294.9 426.0,297.8 427.0,306.4 428.0,306.7 429.0,303.2 430.0,295.4 431.0,296.3 432.0,305.4 433.0,306.1 434.0,299.1 435.0,307.2 436.0,311.4 437.0,332.7 438.0,332.7 439.0,329.9 440.0,325.7 441.0,322.8 442.0,325.4 443.0,327.9 444.0,324.0 445.0,326.6 446.0,324.6 447.0,330.6 448.0,331.1 449.0,327.8 450.0,330.4 451.0,330.9 452.0,336.1 453.0,333.3 454.0,331.7 455.0,329.1 456.0,318.4 457.0,319.2 458.0,324.5 459.0,321.6 460.0,323.2 461.0,323.0 462.0,322.0 463.0,318.0 464.0,313.3 465.0,315.7 466.0,316.8 467.0,315.8 468.0,313.7 469.0,312.5 470.0,310.3 471.0,314.1 472.0,314.1 473.0,311.3 474.0,310.5 475.0,313.7 476.0,317.3 477.0,307.0 478.0,303.8 479.0,304.8 480.0,308.3 481.0,306.6 482.0,306.3 483.0,302.5 484.0,299.7 485.0,299.9 486.0,300.2 487.0,300.3 488.0,297.7 489.0,300.5 490.0,300.2 491.0,300.6 492.0,306.1 493.0,300.9 494.0,297.7 495.0,304.8 496.0,302.4 497.0,304.4 498.0,300.4 499.0,302.4 500.0,305.0 501.0,301.2 502.0,302.8 503.0,306.3 504.0,309.9 505.0,316.9 506.0,307.5 507.0,295.1 508.0,297.9 509.0,305.3 510.0,301.5 511.0,304.3 512.0,298.9 513.0,302.5 514.0,301.8 515.0,294.0 516.0,283.5 517.0,277.9 518.0,285.9 519.0,292.4 520.0,297.0 521.0,296.4 522.0,295.9 523.0,297.2 524.0,300.0 525.0,304.4 526.0,305.0 527.0,306.4 528.0,301.4 529.0,304.0 530.0,313.6 531.0,330.4 532.0,324.8 533.0,337.1 534.0,335.2 535.0,336.5 536.0,336.1 537.0,335.3 538.0,332.4 539.0,337.4 540.0,334.4 541.0,336.4 542.0,337.0 543.0,334.5 544.0,331.7 545.0,332.8 546.0,329.4 547.0,325.7 548.0,329.7 549.0,328.0 550.0,329.5 551.0,326.8 552.0,330.0 553.0,330.3 554.0,330.1 555.0,332.4 556.0,325.7 557.0,331.4 558.0,356.0 559.0,363.1 560.0,371.5 561.0,392.2 562.0,393.1 563.0,384.2 564.0,369.2 565.0,363.8 566.0,362.6 567.0,364.6 568.0,363.5 569.0,366.5 570.0,365.6 571.0,348.8 572.0,348.9 573.0,345.2 574.0,347.9 575.0,348.7 576.0,355.2 577.0,358.1 578.0,361.8 579.0,394.2 580.0,389.0 581.0,398.3 582.0,392.0 583.0,395.1 584.0,389.9 585.0,383.8 586.0,384.4 587.0,385.6 588.0,389.7 589.0,403.3 590.0,392.3 591.0,384.1 592.0,384.5 593.0,373.6 594.0,376.0 595.0,379.4 596.0,390.4 597.0,394.5 598.0,397.7 599.0,380.8 600.0,380.2 601.0,379.0 602.0,380.0 603.0,388.7 604.0,385.4 605.0,386.4 606.0,383.0 607.0,382.1 608.0,382.8 609.0,382.8 610.0,377.3 611.0,374.0 612.0,377.0 613.0,376.4 614.0,372.7 615.0,373.1 616.0,373.6 617.0,375.6 618.0,375.4 619.0,369.9 620.0,369.3 621.0,365.7 622.0,371.0 623.0,372.1 624.0,378.6 625.0,376.7 626.0,379.1 627.0,377.7 628.0,379.9 629.0,378.7 630.0,379.3 631.0,378.4 632.0,378.6 633.0,382.4 634.0,379.2 635.0,377.6 636.0,374.7 637.0,379.1 638.0,375.0 639.0,381.2 640.0,378.9 641.0,380.9 642.0,388.3 643.0,390.6 644.0,389.1 645.0,390.5 646.0,388.0 647.0,394.0 648.0,385.3 649.0,395.0 650.0,392.7 651.0,380.3 652.0,383.7 653.0,388.7 654.0,380.4 655.0,379.3 656.0,384.6 657.0,377.2 658.0,383.2 659.0,374.9 660.0,389.6 661.0,391.4 662.0,385.8 663.0,373.1 664.0,373.3 665.0,375.6 666.0,373.8 667.0,371.7 668.0,375.1 669.0,377.7 670.0,381.1 671.0,382.3 672.0,388.8 673.0,391.7 674.0,390.5 675.0,390.9 676.0,393.4 677.0,395.0 678.0,394.1 679.0,397.4 680.0,408.5 681.0,401.8 682.0,412.5 683.0,412.1 684.0,413.7 685.0,407.2 686.0,404.2 687.0,409.3 688.0,409.8 689.0,408.8 690.0,408.6 691.0,404.4 692.0,401.1 693.0,396.4 694.0,397.1 695.0,406.7 696.0,406.2 697.0,401.1 698.0,405.7 699.0,406.1 700.0,412.2 701.0,396.8 702.0,389.2 703.0,377.6 704.0,383.6 705.0,379.1 706.0,377.3 707.0,380.1 708.0,366.1 709.0,375.2 710.0,386.3 711.0,381.3 712.0,374.8 713.0,364.7 714.0,368.1 715.0,373.3 716.0,378.5 717.0,374.7 718.0,362.2 719.0,357.4 720.0,356.4 721.0,349.1 722.0,348.6 723.0,348.7 724.0,354.7 725.0,348.7 726.0,349.3 727.0,354.4 728.0,352.4 729.0,352.3 730.0,352.7 731.0,356.1 732.0,352.2 733.0,354.7 734.0,354.8 735.0,348.1 736.0,349.9 737.0,347.7 738.0,350.2 739.0,349.7 740.0,343.7 741.0,345.4 742.0,342.0 743.0,339.7 744.0,343.7 745.0,339.0 746.0,340.0 747.0,338.3 748.0,328.2 749.0,329.6 750.0,332.5 751.0,328.2 752.0,333.9 753.0,334.0 754.0,330.8 755.0,331.5 756.0,335.1 757.0,331.9 758.0,331.8 759.0,334.4 760.0,333.4 761.0,332.6 762.0,331.2 763.0,330.7 764.0,326.7 765.0,326.8 766.0,318.1 767.0,320.1 768.0,319.9 769.0,316.0 770.0,320.4 771.0,320.2 772.0,324.5 773.0,328.0 774.0,329.8 775.0,326.8 776.0,330.1 777.0,328.9 778.0,323.1 779.0,326.1 780.0,329.6 781.0,330.3 782.0,329.9 783.0,328.3 784.0,325.6 785.0,329.8 786.0,328.2 787.0,329.6 788.0,328.3 789.0,329.0 790.0,322.5 791.0,306.4 792.0,315.1 793.0,307.5 794.0,316.5 795.0,319.6 796.0,320.3 797.0,322.9 798.0,324.7 799.0,327.2 800.0,331.2 801.0,327.7 802.0,343.5 803.0,351.9 804.0,341.4 805.0,336.1 806.0,310.6 807.0,312.9 808.0,310.6 809.0,311.3 810.0,299.2 811.0,301.1 812.0,302.9 813.0,304.4 814.0,308.1 815.0,318.4 816.0,319.4 817.0,321.1 818.0,317.1 819.0,323.1 820.0,319.4 821.0,317.0 822.0,320.1 823.0,313.4 824.0,323.4 825.0,315.1 826.0,307.4 827.0,302.7 828.0,304.0 829.0,308.0 830.0,311.4 831.0,316.7 832.0,310.7 833.0,312.7 834.0,323.5 835.0,324.5 836.0,329.1 837.0,327.8 838.0,333.2 839.0,327.4 840.0,344.5 841.0,341.4 842.0,340.6 843.0,336.9 844.0,346.2 845.0,344.8 846.0,350.7 847.0,342.7 848.0,339.2 849.0,341.7 850.0,338.9 851.0,342.0 852.0,337.7 853.0,337.3 854.0,339.6 855.0,343.3 856.0,345.2 857.0,338.7 858.0,334.9 859.0,326.5 860.0,325.0 861.0,327.3 862.0,326.5 863.0,330.3 864.0,332.1 865.0,323.9 866.0,321.8 867.0,327.7 868.0,328.1 869.0,318.5 870.0,318.9 871.0,317.3 872.0,319.0 873.0,319.9 874.0,325.0 875.0,317.1 876.0,305.4 877.0,304.7 878.0,305.3 879.0,307.0 880.0,306.0 881.0,301.5 882.0,297.6 883.0,296.5 884.0,297.2 885.0,301.3 886.0,304.2 887.0,305.6 888.0,301.4 889.0,306.3 890.0,307.5 891.0,310.1 892.0,303.8 893.0,302.7 894.0,301.9" fill="none" stroke="#199e70" stroke-width="0.9"/>
<text x="76.0" y="462" font-size="11" fill="#898781" text-anchor="middle">1er juin</text>
<text x="219.5" y="462" font-size="11" fill="#898781" text-anchor="middle">8 juin</text>
<text x="363.0" y="462" font-size="11" fill="#898781" text-anchor="middle">15 juin</text>
<text x="506.5" y="462" font-size="11" fill="#898781" text-anchor="middle">22 juin</text>
<text x="650.0" y="462" font-size="11" fill="#898781" text-anchor="middle">29 juin</text>
<text x="793.5" y="462" font-size="11" fill="#898781" text-anchor="middle">6 juil.</text>
<text x="875.5" y="462" font-size="11" fill="#898781" text-anchor="middle">10 juil.</text>
<text x="76.0" y="496" font-size="12" fill="#c3c2b7" text-anchor="start">Une seule courbe visible : à cette échelle, les deux voies sont indiscernables — l’aqua recouvre le bleu point pour point.</text>
</svg>
