<svg xmlns="http://www.w3.org/2000/svg" viewBox="0 0 920 470" font-family="system-ui,-apple-system,'Segoe UI',sans-serif" role="img" aria-label="L’écart de clôture entre les deux voies Bybit">
<rect width="920" height="470" fill="#0d1117"/>
<text x="76" y="34" font-size="19" fill="#ffffff" text-anchor="start" font-weight="600">L’écart entre les deux historiques, minute par minute</text>
<text x="76" y="56" font-size="12.5" fill="#c3c2b7" text-anchor="start">Clôture voie B − clôture voie A ($), chaque minute des quarante jours — même résolution que la vue d’ensemble</text>
<line x1="76.0" y1="157.3" x2="896.0" y2="157.3" stroke="#21262d"/>
<text x="68.0" y="161.3" font-size="11" fill="#898781" text-anchor="end">+10 $</text>
<line x1="76.0" y1="334.7" x2="896.0" y2="334.7" stroke="#21262d"/>
<text x="68.0" y="338.7" font-size="11" fill="#898781" text-anchor="end">−10 $</text>
<line x1="76.0" y1="246.0" x2="896.0" y2="246.0" stroke="#383835" stroke-width="1.2"/>
<text x="68.0" y="250.0" font-size="11" fill="#898781" text-anchor="end">0</text>
<polygon points="76.0,232.7 77.0,219.4 78.0,233.6 79.0,235.4 80.0,219.4 81.0,220.3 82.0,227.4 83.0,238.9 84.0,246.0 85.0,246.0 86.0,207.0 87.0,242.5 88.0,246.0 89.0,239.8 90.0,224.7 91.0,199.0 92.0,226.5 93.0,238.0 94.0,238.0 95.0,236.2 96.0,234.5 97.0,211.4 98.0,225.6 99.0,243.3 100.0,234.5 101.0,235.4 102.0,225.6 103.0,246.0 104.0,229.1 105.0,238.0 106.0,243.3 107.0,246.0 108.0,230.0 109.0,246.0 110.0,235.4 111.0,227.4 112.0,229.1 113.0,239.8 114.0,213.2 115.0,222.0 116.0,228.3 117.0,209.6 118.0,197.2 119.0,199.0 120.0,226.5 121.0,230.0 122.0,200.7 123.0,246.0 124.0,236.2 125.0,169.7 126.0,234.5 127.0,232.7 128.0,233.6 129.0,232.7 130.0,243.3 131.0,245.1 132.0,221.2 133.0,234.5 134.0,240.7 135.0,238.0 136.0,201.6 137.0,201.6 138.0,214.9 139.0,235.4 140.0,240.7 141.0,206.1 142.0,237.1 143.0,216.7 144.0,239.8 145.0,246.0 146.0,230.0 147.0,234.5 148.0,222.0 149.0,212.3 150.0,219.4 151.0,231.8 152.0,227.4 153.0,238.0 154.0,234.5 155.0,239.8 156.0,209.6 157.0,199.0 158.0,220.3 159.0,230.9 160.0,208.7 161.0,232.7 162.0,222.9 163.0,224.7 164.0,222.9 165.0,207.0 166.0,235.4 167.0,223.8 168.0,235.4 169.0,223.8 170.0,230.9 171.0,205.2 172.0,219.4 173.0,246.0 174.0,204.3 175.0,194.5 176.0,222.9 177.0,192.8 178.0,236.2 179.0,210.5 180.0,212.3 181.0,221.2 182.0,215.8 183.0,202.5 184.0,237.1 185.0,231.8 186.0,206.1 187.0,222.9 188.0,236.2 189.0,238.0 190.0,216.7 191.0,216.7 192.0,197.2 193.0,234.5 194.0,203.4 195.0,212.3 196.0,233.6 197.0,219.4 198.0,210.5 199.0,222.9 200.0,208.7 201.0,238.0 202.0,239.8 203.0,240.7 204.0,230.0 205.0,227.4 206.0,216.7 207.0,241.6 208.0,238.0 209.0,241.6 210.0,236.2 211.0,232.7 212.0,233.6 213.0,240.7 214.0,223.8 215.0,220.3 216.0,237.1 217.0,215.8 218.0,229.1 219.0,221.2 220.0,217.6 221.0,212.3 222.0,208.7 223.0,182.1 224.0,216.7 225.0,228.3 226.0,202.5 227.0,245.1 228.0,139.5 229.0,221.2 230.0,235.4 231.0,227.4 232.0,226.5 233.0,199.9 234.0,234.5 235.0,240.7 236.0,238.0 237.0,235.4 238.0,224.7 239.0,226.5 240.0,232.7 241.0,229.1 242.0,221.2 243.0,230.0 244.0,240.7 245.0,214.9 246.0,238.0 247.0,238.9 248.0,205.2 249.0,217.6 250.0,238.0 251.0,236.2 252.0,213.2 253.0,220.3 254.0,221.2 255.0,239.8 256.0,212.3 257.0,246.0 258.0,240.7 259.0,232.7 260.0,219.4 261.0,208.7 262.0,230.0 263.0,238.9 264.0,233.6 265.0,224.7 266.0,201.6 267.0,214.9 268.0,224.7 269.0,241.6 270.0,202.5 271.0,214.9 272.0,189.2 273.0,199.0 274.0,237.1 275.0,233.6 276.0,227.4 277.0,214.9 278.0,240.7 279.0,236.2 280.0,191.9 281.0,214.1 282.0,213.2 283.0,238.9 284.0,233.6 285.0,222.9 286.0,209.6 287.0,237.1 288.0,212.3 289.0,246.0 290.0,227.4 291.0,219.4 292.0,234.5 293.0,223.8 294.0,214.1 295.0,238.9 296.0,203.4 297.0,230.9 298.0,237.1 299.0,229.1 300.0,215.8 301.0,232.7 302.0,230.0 303.0,214.9 304.0,223.8 305.0,246.0 306.0,229.1 307.0,207.0 308.0,191.0 309.0,229.1 310.0,221.2 311.0,229.1 312.0,238.0 313.0,220.3 314.0,231.8 315.0,207.8 316.0,236.2 317.0,230.9 318.0,199.9 319.0,246.0 320.0,237.1 321.0,203.4 322.0,225.6 323.0,228.3 324.0,222.0 325.0,242.5 326.0,246.0 327.0,238.9 328.0,231.8 329.0,246.0 330.0,246.0 331.0,240.7 332.0,246.0 333.0,207.8 334.0,222.0 335.0,235.4 336.0,236.2 337.0,228.3 338.0,244.2 339.0,246.0 340.0,231.8 341.0,233.6 342.0,238.0 343.0,245.1 344.0,246.0 345.0,242.5 346.0,238.9 347.0,246.0 348.0,246.0 349.0,220.3 350.0,222.9 351.0,245.1 352.0,242.5 353.0,221.2 354.0,228.3 355.0,236.2 356.0,238.9 357.0,192.8 358.0,244.2 359.0,246.0 360.0,190.1 361.0,230.0 362.0,234.5 363.0,215.8 364.0,240.7 365.0,245.1 366.0,234.5 367.0,232.7 368.0,240.7 369.0,238.0 370.0,246.0 371.0,203.4 372.0,243.3 373.0,211.4 374.0,239.8 375.0,243.3 376.0,237.1 377.0,232.7 378.0,231.8 379.0,245.1 380.0,237.1 381.0,229.1 382.0,212.3 383.0,230.0 384.0,245.1 385.0,223.8 386.0,223.8 387.0,216.7 388.0,226.5 389.0,226.5 390.0,245.1 391.0,214.9 392.0,245.1 393.0,234.5 394.0,244.2 395.0,242.5 396.0,227.4 397.0,244.2 398.0,245.1 399.0,215.8 400.0,245.1 401.0,235.4 402.0,210.5 403.0,226.5 404.0,246.0 405.0,237.1 406.0,226.5 407.0,236.2 408.0,238.0 409.0,226.5 410.0,243.3 411.0,228.3 412.0,246.0 413.0,239.8 414.0,233.6 415.0,224.7 416.0,226.5 417.0,228.3 418.0,210.5 419.0,241.6 420.0,235.4 421.0,228.3 422.0,207.0 423.0,234.5 424.0,221.2 425.0,213.2 426.0,207.0 427.0,211.4 428.0,209.6 429.0,226.5 430.0,216.7 431.0,207.0 432.0,239.8 433.0,245.1 434.0,242.5 435.0,196.3 436.0,236.2 437.0,230.9 438.0,195.4 439.0,221.2 440.0,234.5 441.0,205.2 442.0,244.2 443.0,223.8 444.0,224.7 445.0,231.8 446.0,222.0 447.0,207.0 448.0,220.3 449.0,229.1 450.0,240.7 451.0,233.6 452.0,240.7 453.0,217.6 454.0,233.6 455.0,189.2 456.0,240.7 457.0,230.9 458.0,225.6 459.0,199.9 460.0,246.0 461.0,240.7 462.0,214.9 463.0,234.5 464.0,203.4 465.0,230.9 466.0,207.8 467.0,246.0 468.0,234.5 469.0,236.2 470.0,228.3 471.0,234.5 472.0,221.2 473.0,246.0 474.0,246.0 475.0,239.8 476.0,202.5 477.0,246.0 478.0,245.1 479.0,193.6 480.0,245.1 481.0,222.0 482.0,214.1 483.0,222.0 484.0,242.5 485.0,224.7 486.0,234.5 487.0,242.5 488.0,237.1 489.0,215.8 490.0,236.2 491.0,221.2 492.0,246.0 493.0,240.7 494.0,246.0 495.0,235.4 496.0,207.8 497.0,234.5 498.0,240.7 499.0,236.2 500.0,233.6 501.0,245.1 502.0,240.7 503.0,230.9 504.0,213.2 505.0,229.1 506.0,215.8 507.0,241.6 508.0,215.8 509.0,213.2 510.0,225.6 511.0,235.4 512.0,215.8 513.0,233.6 514.0,244.2 515.0,246.0 516.0,238.9 517.0,240.7 518.0,230.9 519.0,202.5 520.0,238.0 521.0,206.1 522.0,233.6 523.0,234.5 524.0,239.8 525.0,242.5 526.0,206.1 527.0,178.6 528.0,230.9 529.0,240.7 530.0,243.3 531.0,234.5 532.0,215.8 533.0,227.4 534.0,156.4 535.0,217.6 536.0,209.6 537.0,204.3 538.0,231.8 539.0,236.2 540.0,217.6 541.0,214.9 542.0,232.7 543.0,238.9 544.0,243.3 545.0,238.0 546.0,208.7 547.0,234.5 548.0,233.6 549.0,236.2 550.0,205.2 551.0,234.5 552.0,227.4 553.0,226.5 554.0,240.7 555.0,246.0 556.0,224.7 557.0,238.9 558.0,216.7 559.0,245.1 560.0,223.8 561.0,207.8 562.0,218.5 563.0,232.7 564.0,216.7 565.0,240.7 566.0,212.3 567.0,203.4 568.0,212.3 569.0,191.9 570.0,183.0 571.0,238.0 572.0,234.5 573.0,228.3 574.0,240.7 575.0,230.9 576.0,224.7 577.0,238.0 578.0,240.7 579.0,235.4 580.0,224.7 581.0,243.3 582.0,230.0 583.0,234.5 584.0,235.4 585.0,222.9 586.0,246.0 587.0,205.2 588.0,230.9 589.0,233.6 590.0,238.0 591.0,212.3 592.0,213.2 593.0,236.2 594.0,231.8 595.0,245.1 596.0,237.1 597.0,230.9 598.0,235.4 599.0,229.1 600.0,205.2 601.0,214.9 602.0,217.6 603.0,228.3 604.0,237.1 605.0,214.1 606.0,230.0 607.0,225.6 608.0,238.9 609.0,238.0 610.0,237.1 611.0,207.0 612.0,238.9 613.0,246.0 614.0,243.3 615.0,225.6 616.0,246.0 617.0,237.1 618.0,232.7 619.0,232.7 620.0,231.8 621.0,230.9 622.0,237.1 623.0,246.0 624.0,241.6 625.0,245.1 626.0,224.7 627.0,233.6 628.0,246.0 629.0,224.7 630.0,238.0 631.0,219.4 632.0,237.1 633.0,234.5 634.0,246.0 635.0,216.7 636.0,233.6 637.0,237.1 638.0,210.5 639.0,241.6 640.0,212.3 641.0,235.4 642.0,238.9 643.0,231.8 644.0,220.3 645.0,207.0 646.0,241.6 647.0,235.4 648.0,229.1 649.0,214.9 650.0,229.1 651.0,238.0 652.0,210.5 653.0,200.7 654.0,235.4 655.0,215.8 656.0,240.7 657.0,246.0 658.0,227.4 659.0,246.0 660.0,219.4 661.0,246.0 662.0,239.8 663.0,204.3 664.0,231.8 665.0,208.7 666.0,206.1 667.0,228.3 668.0,246.0 669.0,226.5 670.0,238.0 671.0,224.7 672.0,236.2 673.0,232.7 674.0,246.0 675.0,233.6 676.0,246.0 677.0,246.0 678.0,236.2 679.0,217.6 680.0,209.6 681.0,240.7 682.0,238.0 683.0,222.0 684.0,240.7 685.0,231.8 686.0,229.1 687.0,236.2 688.0,242.5 689.0,224.7 690.0,246.0 691.0,201.6 692.0,206.1 693.0,223.8 694.0,246.0 695.0,246.0 696.0,245.1 697.0,245.1 698.0,245.1 699.0,215.8 700.0,223.8 701.0,246.0 702.0,230.9 703.0,230.0 704.0,240.7 705.0,238.0 706.0,244.2 707.0,238.0 708.0,215.8 709.0,242.5 710.0,240.7 711.0,219.4 712.0,222.9 713.0,235.4 714.0,235.4 715.0,225.6 716.0,207.0 717.0,240.7 718.0,246.0 719.0,242.5 720.0,245.1 721.0,217.6 722.0,218.5 723.0,219.4 724.0,235.4 725.0,244.2 726.0,245.1 727.0,230.0 728.0,243.3 729.0,246.0 730.0,246.0 731.0,214.9 732.0,230.0 733.0,229.1 734.0,246.0 735.0,227.4 736.0,242.5 737.0,246.0 738.0,238.9 739.0,221.2 740.0,232.7 741.0,235.4 742.0,236.2 743.0,238.0 744.0,201.6 745.0,238.0 746.0,238.9 747.0,239.8 748.0,230.0 749.0,221.2 750.0,244.2 751.0,246.0 752.0,220.3 753.0,238.9 754.0,245.1 755.0,243.3 756.0,225.6 757.0,246.0 758.0,246.0 759.0,242.5 760.0,228.3 761.0,246.0 762.0,239.8 763.0,239.8 764.0,242.5 765.0,232.7 766.0,222.0 767.0,238.0 768.0,241.6 769.0,228.3 770.0,244.2 771.0,244.2 772.0,200.7 773.0,210.5 774.0,232.7 775.0,246.0 776.0,246.0 777.0,246.0 778.0,223.8 779.0,230.9 780.0,243.3 781.0,217.6 782.0,245.1 783.0,237.1 784.0,242.5 785.0,230.9 786.0,240.7 787.0,237.1 788.0,223.8 789.0,236.2 790.0,224.7 791.0,219.4 792.0,191.9 793.0,222.9 794.0,217.6 795.0,214.1 796.0,236.2 797.0,246.0 798.0,243.3 799.0,230.0 800.0,241.6 801.0,235.4 802.0,246.0 803.0,217.6 804.0,229.1 805.0,230.9 806.0,219.4 807.0,230.9 808.0,230.0 809.0,232.7 810.0,234.5 811.0,223.8 812.0,228.3 813.0,242.5 814.0,246.0 815.0,246.0 816.0,224.7 817.0,246.0 818.0,214.9 819.0,234.5 820.0,241.6 821.0,229.1 822.0,239.8 823.0,243.3 824.0,213.2 825.0,224.7 826.0,227.4 827.0,234.5 828.0,226.5 829.0,233.6 830.0,246.0 831.0,245.1 832.0,236.2 833.0,240.7 834.0,230.9 835.0,195.4 836.0,200.7 837.0,213.2 838.0,231.8 839.0,242.5 840.0,239.8 841.0,213.2 842.0,237.1 843.0,246.0 844.0,188.3 845.0,215.8 846.0,230.0 847.0,225.6 848.0,234.5 849.0,230.0 850.0,238.9 851.0,245.1 852.0,246.0 853.0,228.3 854.0,232.7 855.0,224.7 856.0,229.1 857.0,223.8 858.0,227.4 859.0,222.0 860.0,207.8 861.0,232.7 862.0,240.7 863.0,222.0 864.0,240.7 865.0,223.8 866.0,241.6 867.0,238.0 868.0,246.0 869.0,229.1 870.0,218.5 871.0,244.2 872.0,243.3 873.0,238.0 874.0,228.3 875.0,238.9 876.0,228.3 877.0,225.6 878.0,217.6 879.0,245.1 880.0,245.1 881.0,243.3 882.0,235.4 883.0,233.6 884.0,229.1 885.0,239.8 886.0,233.6 887.0,238.0 888.0,242.5 889.0,220.3 890.0,240.7 891.0,193.6 892.0,246.0 893.0,229.1 894.0,221.2 894.0,246.9 893.0,257.5 892.0,246.0 891.0,259.3 890.0,249.5 889.0,258.4 888.0,273.5 887.0,258.4 886.0,258.4 885.0,277.9 884.0,246.0 883.0,246.0 882.0,291.3 881.0,246.9 880.0,246.9 879.0,255.8 878.0,264.6 877.0,249.5 876.0,255.8 875.0,254.0 874.0,250.4 873.0,246.0 872.0,260.2 871.0,264.6 870.0,246.0 869.0,247.8 868.0,261.1 867.0,270.0 866.0,280.6 865.0,262.0 864.0,274.4 863.0,290.4 862.0,251.3 861.0,301.0 860.0,273.5 859.0,250.4 858.0,248.7 857.0,280.6 856.0,249.5 855.0,289.5 854.0,275.3 853.0,270.8 852.0,275.3 851.0,258.4 850.0,266.4 849.0,268.2 848.0,246.0 847.0,277.9 846.0,272.6 845.0,248.7 844.0,251.3 843.0,270.0 842.0,246.0 841.0,256.6 840.0,246.9 839.0,255.8 838.0,259.3 837.0,264.6 836.0,246.9 835.0,253.1 834.0,263.7 833.0,275.3 832.0,257.5 831.0,252.2 830.0,267.3 829.0,270.0 828.0,256.6 827.0,252.2 826.0,258.4 825.0,288.6 824.0,246.0 823.0,255.8 822.0,282.4 821.0,248.7 820.0,256.6 819.0,262.9 818.0,252.2 817.0,246.0 816.0,248.7 815.0,270.0 814.0,246.0 813.0,254.0 812.0,253.1 811.0,252.2 810.0,285.0 809.0,246.0 808.0,253.1 807.0,246.0 806.0,252.2 805.0,252.2 804.0,295.7 803.0,303.7 802.0,246.0 801.0,246.9 800.0,266.4 799.0,246.0 798.0,258.4 797.0,253.1 796.0,250.4 795.0,252.2 794.0,276.2 793.0,264.6 792.0,251.3 791.0,263.7 790.0,262.9 789.0,246.9 788.0,268.2 787.0,246.0 786.0,246.0 785.0,252.2 784.0,269.1 783.0,258.4 782.0,269.1 781.0,246.0 780.0,273.5 779.0,252.2 778.0,272.6 777.0,260.2 776.0,264.6 775.0,262.9 774.0,272.6 773.0,262.9 772.0,248.7 771.0,246.0 770.0,246.9 769.0,260.2 768.0,262.0 767.0,253.1 766.0,252.2 765.0,246.0 764.0,268.2 763.0,256.6 762.0,253.1 761.0,274.4 760.0,251.3 759.0,252.2 758.0,246.0 757.0,246.0 756.0,253.1 755.0,246.0 754.0,272.6 753.0,254.0 752.0,259.3 751.0,275.3 750.0,264.6 749.0,246.0 748.0,255.8 747.0,265.5 746.0,249.5 745.0,281.5 744.0,271.7 743.0,246.9 742.0,259.3 741.0,247.8 740.0,247.8 739.0,267.3 738.0,250.4 737.0,247.8 736.0,254.0 735.0,263.7 734.0,247.8 733.0,263.7 732.0,283.3 731.0,276.2 730.0,249.5 729.0,291.3 728.0,260.2 727.0,264.6 726.0,261.1 725.0,258.4 724.0,256.6 723.0,250.4 722.0,255.8 721.0,250.4 720.0,254.9 719.0,252.2 718.0,246.0 717.0,252.2 716.0,260.2 715.0,257.5 714.0,265.5 713.0,265.5 712.0,254.9 711.0,295.7 710.0,297.5 709.0,260.2 708.0,251.3 707.0,261.1 706.0,269.1 705.0,257.5 704.0,255.8 703.0,248.7 702.0,246.9 701.0,268.2 700.0,263.7 699.0,254.0 698.0,269.1 697.0,279.7 696.0,253.1 695.0,246.9 694.0,267.3 693.0,273.5 692.0,262.9 691.0,294.8 690.0,270.0 689.0,253.1 688.0,272.6 687.0,246.0 686.0,257.5 685.0,259.3 684.0,259.3 683.0,261.1 682.0,253.1 681.0,262.0 680.0,249.5 679.0,249.5 678.0,256.6 677.0,279.7 676.0,246.9 675.0,267.3 674.0,246.0 673.0,281.5 672.0,281.5 671.0,257.5 670.0,246.9 669.0,259.3 668.0,272.6 667.0,262.9 666.0,277.1 665.0,271.7 664.0,254.0 663.0,246.0 662.0,254.9 661.0,287.7 660.0,262.0 659.0,250.4 658.0,262.0 657.0,281.5 656.0,253.1 655.0,255.8 654.0,279.7 653.0,283.3 652.0,270.8 651.0,254.0 650.0,275.3 649.0,252.2 648.0,260.2 647.0,282.4 646.0,256.6 645.0,249.5 644.0,262.0 643.0,285.0 642.0,254.9 641.0,272.6 640.0,251.3 639.0,246.0 638.0,257.5 637.0,278.8 636.0,286.8 635.0,257.5 634.0,289.5 633.0,246.0 632.0,246.0 631.0,257.5 630.0,286.8 629.0,249.5 628.0,256.6 627.0,266.4 626.0,264.6 625.0,260.2 624.0,246.0 623.0,258.4 622.0,246.0 621.0,263.7 620.0,254.9 619.0,266.4 618.0,247.8 617.0,250.4 616.0,253.1 615.0,246.0 614.0,265.5 613.0,272.6 612.0,254.9 611.0,252.2 610.0,280.6 609.0,258.4 608.0,262.9 607.0,250.4 606.0,294.8 605.0,259.3 604.0,273.5 603.0,272.6 602.0,260.2 601.0,253.1 600.0,274.4 599.0,301.0 598.0,270.8 597.0,254.0 596.0,279.7 595.0,262.0 594.0,262.9 593.0,252.2 592.0,285.0 591.0,272.6 590.0,252.2 589.0,281.5 588.0,251.3 587.0,277.9 586.0,259.3 585.0,276.2 584.0,256.6 583.0,274.4 582.0,276.2 581.0,268.2 580.0,261.1 579.0,255.8 578.0,253.1 577.0,263.7 576.0,250.4 575.0,257.5 574.0,290.4 573.0,253.1 572.0,251.3 571.0,269.1 570.0,254.9 569.0,248.7 568.0,246.0 567.0,286.8 566.0,280.6 565.0,248.7 564.0,246.0 563.0,257.5 562.0,285.0 561.0,246.0 560.0,264.6 559.0,264.6 558.0,277.9 557.0,262.9 556.0,256.6 555.0,269.1 554.0,256.6 553.0,288.6 552.0,252.2 551.0,264.6 550.0,262.9 549.0,263.7 548.0,304.6 547.0,272.6 546.0,271.7 545.0,246.9 544.0,253.1 543.0,252.2 542.0,246.0 541.0,265.5 540.0,267.3 539.0,257.5 538.0,270.8 537.0,270.8 536.0,246.9 535.0,246.0 534.0,257.5 533.0,289.5 532.0,265.5 531.0,262.0 530.0,247.8 529.0,254.9 528.0,246.0 527.0,265.5 526.0,281.5 525.0,248.7 524.0,262.9 523.0,257.5 522.0,251.3 521.0,270.8 520.0,277.9 519.0,286.8 518.0,246.0 517.0,247.8 516.0,246.0 515.0,246.0 514.0,252.2 513.0,264.6 512.0,257.5 511.0,259.3 510.0,277.1 509.0,283.3 508.0,318.8 507.0,246.0 506.0,270.8 505.0,275.3 504.0,259.3 503.0,264.6 502.0,260.2 501.0,287.7 500.0,287.7 499.0,252.2 498.0,258.4 497.0,270.0 496.0,252.2 495.0,265.5 494.0,262.0 493.0,269.1 492.0,246.0 491.0,262.0 490.0,267.3 489.0,254.0 488.0,246.0 487.0,251.3 486.0,246.9 485.0,246.0 484.0,251.3 483.0,276.2 482.0,265.5 481.0,281.5 480.0,286.8 479.0,258.4 478.0,280.6 477.0,314.3 476.0,251.3 475.0,248.7 474.0,250.4 473.0,246.9 472.0,246.9 471.0,247.8 470.0,252.2 469.0,260.2 468.0,249.5 467.0,278.8 466.0,256.6 465.0,301.0 464.0,250.4 463.0,275.3 462.0,246.0 461.0,275.3 460.0,286.8 459.0,252.2 458.0,261.1 457.0,249.5 456.0,247.8 455.0,262.9 454.0,278.8 453.0,303.7 452.0,253.1 451.0,264.6 450.0,252.2 449.0,260.2 448.0,250.4 447.0,257.5 446.0,249.5 445.0,277.9 444.0,257.5 443.0,293.9 442.0,257.5 441.0,246.9 440.0,287.7 439.0,246.0 438.0,253.1 437.0,251.3 436.0,278.8 435.0,271.7 434.0,251.3 433.0,263.7 432.0,246.0 431.0,252.2 430.0,258.4 429.0,254.9 428.0,250.4 427.0,285.9 426.0,307.2 425.0,305.4 424.0,278.8 423.0,246.0 422.0,249.5 421.0,285.9 420.0,284.2 419.0,254.9 418.0,256.6 417.0,260.2 416.0,267.3 415.0,261.1 414.0,257.5 413.0,258.4 412.0,262.0 411.0,262.0 410.0,247.8 409.0,253.1 408.0,254.0 407.0,262.9 406.0,263.7 405.0,265.5 404.0,325.9 403.0,259.3 402.0,260.2 401.0,262.0 400.0,270.8 399.0,256.6 398.0,252.2 397.0,249.5 396.0,265.5 395.0,247.8 394.0,268.2 393.0,258.4 392.0,258.4 391.0,291.3 390.0,246.0 389.0,257.5 388.0,249.5 387.0,260.2 386.0,259.3 385.0,246.9 384.0,267.3 383.0,254.9 382.0,252.2 381.0,247.8 380.0,253.1 379.0,262.0 378.0,249.5 377.0,255.8 376.0,264.6 375.0,246.9 374.0,277.9 373.0,250.4 372.0,270.0 371.0,246.0 370.0,289.5 369.0,261.1 368.0,247.8 367.0,246.9 366.0,246.0 365.0,257.5 364.0,247.8 363.0,258.4 362.0,284.2 361.0,246.0 360.0,270.8 359.0,246.9 358.0,257.5 357.0,251.3 356.0,293.0 355.0,262.0 354.0,246.0 353.0,251.3 352.0,249.5 351.0,246.9 350.0,277.9 349.0,253.1 348.0,246.0 347.0,246.0 346.0,246.9 345.0,249.5 344.0,262.0 343.0,275.3 342.0,253.1 341.0,255.8 340.0,256.6 339.0,252.2 338.0,246.0 337.0,261.1 336.0,256.6 335.0,252.2 334.0,291.3 333.0,246.0 332.0,289.5 331.0,249.5 330.0,254.0 329.0,256.6 328.0,246.9 327.0,261.1 326.0,246.9 325.0,267.3 324.0,246.0 323.0,255.8 322.0,263.7 321.0,259.3 320.0,260.2 319.0,246.0 318.0,291.3 317.0,263.7 316.0,246.0 315.0,257.5 314.0,276.2 313.0,254.9 312.0,296.6 311.0,246.0 310.0,250.4 309.0,268.2 308.0,277.9 307.0,255.8 306.0,297.5 305.0,253.1 304.0,257.5 303.0,246.9 302.0,262.9 301.0,281.5 300.0,246.0 299.0,295.7 298.0,247.8 297.0,285.9 296.0,262.9 295.0,254.0 294.0,257.5 293.0,287.7 292.0,285.9 291.0,262.9 290.0,246.0 289.0,254.0 288.0,254.0 287.0,246.0 286.0,251.3 285.0,248.7 284.0,267.3 283.0,269.1 282.0,259.3 281.0,258.4 280.0,250.4 279.0,259.3 278.0,249.5 277.0,290.4 276.0,272.6 275.0,249.5 274.0,254.0 273.0,270.0 272.0,294.8 271.0,252.2 270.0,262.0 269.0,252.2 268.0,287.7 267.0,282.4 266.0,249.5 265.0,277.9 264.0,250.4 263.0,293.9 262.0,264.6 261.0,259.3 260.0,263.7 259.0,257.5 258.0,275.3 257.0,292.1 256.0,261.1 255.0,252.2 254.0,246.9 253.0,257.5 252.0,265.5 251.0,285.0 250.0,268.2 249.0,249.5 248.0,251.3 247.0,261.1 246.0,285.0 245.0,255.8 244.0,271.7 243.0,291.3 242.0,254.0 241.0,262.9 240.0,269.1 239.0,276.2 238.0,260.2 237.0,261.1 236.0,248.7 235.0,281.5 234.0,280.6 233.0,291.3 232.0,273.5 231.0,272.6 230.0,271.7 229.0,288.6 228.0,246.0 227.0,252.2 226.0,260.2 225.0,277.9 224.0,268.2 223.0,275.3 222.0,264.6 221.0,260.2 220.0,282.4 219.0,252.2 218.0,276.2 217.0,263.7 216.0,277.1 215.0,262.0 214.0,246.9 213.0,283.3 212.0,276.2 211.0,246.0 210.0,276.2 209.0,259.3 208.0,262.0 207.0,253.1 206.0,253.1 205.0,254.9 204.0,247.8 203.0,303.7 202.0,276.2 201.0,282.4 200.0,246.0 199.0,265.5 198.0,301.9 197.0,270.0 196.0,262.0 195.0,274.4 194.0,258.4 193.0,277.9 192.0,271.7 191.0,272.6 190.0,277.9 189.0,280.6 188.0,258.4 187.0,270.8 186.0,267.3 185.0,309.0 184.0,286.8 183.0,376.4 182.0,287.7 181.0,282.4 180.0,271.7 179.0,261.1 178.0,283.3 177.0,315.2 176.0,272.6 175.0,317.0 174.0,275.3 173.0,282.4 172.0,283.3 171.0,284.2 170.0,267.3 169.0,267.3 168.0,262.9 167.0,246.9 166.0,268.2 165.0,259.3 164.0,284.2 163.0,321.4 162.0,296.6 161.0,293.9 160.0,285.9 159.0,278.8 158.0,255.8 157.0,277.1 156.0,262.9 155.0,251.3 154.0,254.9 153.0,269.1 152.0,253.1 151.0,269.1 150.0,257.5 149.0,269.1 148.0,328.5 147.0,325.0 146.0,257.5 145.0,317.0 144.0,273.5 143.0,251.3 142.0,257.5 141.0,262.9 140.0,255.8 139.0,259.3 138.0,250.4 137.0,258.4 136.0,275.3 135.0,271.7 134.0,259.3 133.0,251.3 132.0,283.3 131.0,264.6 130.0,274.4 129.0,312.5 128.0,251.3 127.0,257.5 126.0,289.5 125.0,246.9 124.0,299.2 123.0,263.7 122.0,270.0 121.0,310.8 120.0,277.9 119.0,255.8 118.0,252.2 117.0,268.2 116.0,270.0 115.0,270.0 114.0,286.8 113.0,253.1 112.0,259.3 111.0,282.4 110.0,270.8 109.0,286.8 108.0,253.1 107.0,251.3 106.0,265.5 105.0,254.0 104.0,261.1 103.0,282.4 102.0,271.7 101.0,268.2 100.0,277.9 99.0,252.2 98.0,260.2 97.0,246.9 96.0,270.8 95.0,246.9 94.0,248.7 93.0,256.6 92.0,257.5 91.0,268.2 90.0,248.7 89.0,262.9 88.0,259.3 87.0,257.5 86.0,258.4 85.0,282.4 84.0,254.9 83.0,246.0 82.0,246.0 81.0,279.7 80.0,246.0 79.0,267.3 78.0,265.5 77.0,253.1 76.0,255.8" fill="#199e70" fill-opacity="0.35"/>
<polyline points="76.0,246.0 77.0,219.4 78.0,246.0 79.0,246.0 80.0,246.0 81.0,246.0 82.0,246.0 83.0,246.0 84.0,246.0 85.0,246.0 86.0,246.0 87.0,246.0 88.0,246.0 89.0,246.0 90.0,244.2 91.0,246.0 92.0,246.0 93.0,246.0 94.0,246.0 95.0,246.0 96.0,246.0 97.0,246.0 98.0,246.0 99.0,246.0 100.0,246.0 101.0,246.0 102.0,246.0 103.0,246.0 104.0,246.0 105.0,246.0 106.0,246.0 107.0,247.8 108.0,246.0 109.0,246.0 110.0,246.0 111.0,246.0 112.0,246.0 113.0,246.0 114.0,246.0 115.0,246.0 116.0,246.0 117.0,246.0 118.0,246.0 119.0,246.0 120.0,246.0 121.0,246.0 122.0,246.0 123.0,246.0 124.0,246.0 125.0,246.0 126.0,246.0 127.0,246.0 128.0,246.0 129.0,246.0 130.0,246.0 131.0,246.0 132.0,246.0 133.0,246.0 134.0,246.0 135.0,246.0 136.0,246.0 137.0,246.0 138.0,246.0 139.0,246.0 140.0,246.0 141.0,246.0 142.0,246.0 143.0,246.0 144.0,246.0 145.0,246.0 146.0,250.4 147.0,325.0 148.0,246.0 149.0,246.0 150.0,246.0 151.0,246.0 152.0,246.0 153.0,246.0 154.0,246.0 155.0,246.0 156.0,246.0 157.0,246.0 158.0,254.0 159.0,246.9 160.0,246.0 161.0,242.5 162.0,246.0 163.0,247.8 164.0,246.0 165.0,246.0 166.0,246.0 167.0,246.0 168.0,246.0 169.0,246.0 170.0,246.0 171.0,246.0 172.0,283.3 173.0,246.0 174.0,271.7 175.0,246.0 176.0,246.0 177.0,246.0 178.0,246.0 179.0,245.1 180.0,246.0 181.0,246.0 182.0,246.0 183.0,246.0 184.0,246.0 185.0,246.0 186.0,246.0 187.0,246.0 188.0,246.0 189.0,246.0 190.0,247.8 191.0,246.0 192.0,246.0 193.0,246.0 194.0,246.0 195.0,246.0 196.0,246.0 197.0,246.0 198.0,246.0 199.0,246.0 200.0,246.0 201.0,246.0 202.0,246.0 203.0,246.0 204.0,246.0 205.0,246.0 206.0,246.0 207.0,246.0 208.0,246.0 209.0,246.0 210.0,246.0 211.0,246.0 212.0,246.0 213.0,246.0 214.0,245.1 215.0,246.0 216.0,246.0 217.0,246.0 218.0,246.0 219.0,221.2 220.0,246.0 221.0,246.0 222.0,246.0 223.0,246.0 224.0,246.0 225.0,246.0 226.0,246.0 227.0,246.0 228.0,240.7 229.0,246.0 230.0,246.0 231.0,246.0 232.0,246.0 233.0,291.3 234.0,234.5 235.0,246.0 236.0,246.0 237.0,246.0 238.0,246.0 239.0,246.0 240.0,246.0 241.0,246.0 242.0,246.9 243.0,246.0 244.0,246.0 245.0,246.0 246.0,246.0 247.0,261.1 248.0,246.0 249.0,245.1 250.0,246.0 251.0,246.0 252.0,246.0 253.0,246.0 254.0,229.1 255.0,246.0 256.0,234.5 257.0,246.0 258.0,246.0 259.0,246.0 260.0,246.0 261.0,246.0 262.0,246.0 263.0,246.0 264.0,246.0 265.0,246.0 266.0,246.0 267.0,246.0 268.0,246.0 269.0,246.0 270.0,246.0 271.0,246.0 272.0,246.0 273.0,246.0 274.0,246.0 275.0,246.0 276.0,246.0 277.0,246.0 278.0,246.0 279.0,246.0 280.0,246.0 281.0,246.0 282.0,246.0 283.0,246.0 284.0,246.0 285.0,246.0 286.0,246.0 287.0,246.0 288.0,246.0 289.0,246.0 290.0,246.0 291.0,246.0 292.0,246.0 293.0,261.1 294.0,246.0 295.0,246.0 296.0,246.0 297.0,246.0 298.0,246.0 299.0,246.0 300.0,246.0 301.0,246.0 302.0,246.0 303.0,246.0 304.0,223.8 305.0,246.0 306.0,246.0 307.0,246.0 308.0,246.0 309.0,246.0 310.0,246.0 311.0,246.0 312.0,246.0 313.0,246.0 314.0,246.0 315.0,246.0 316.0,246.0 317.0,246.0 318.0,246.0 319.0,246.0 320.0,246.0 321.0,246.0 322.0,246.0 323.0,246.0 324.0,244.2 325.0,246.0 326.0,246.0 327.0,246.0 328.0,246.0 329.0,246.0 330.0,246.0 331.0,246.0 332.0,246.0 333.0,246.0 334.0,246.0 335.0,246.0 336.0,246.0 337.0,246.0 338.0,246.0 339.0,246.0 340.0,246.0 341.0,246.0 342.0,253.1 343.0,246.0 344.0,246.0 345.0,249.5 346.0,246.0 347.0,246.0 348.0,246.0 349.0,246.0 350.0,246.0 351.0,246.0 352.0,246.0 353.0,246.0 354.0,246.0 355.0,246.0 356.0,246.0 357.0,246.0 358.0,246.0 359.0,246.0 360.0,246.0 361.0,246.0 362.0,246.0 363.0,258.4 364.0,246.0 365.0,246.0 366.0,246.0 367.0,246.0 368.0,246.0 369.0,246.0 370.0,289.5 371.0,246.0 372.0,246.0 373.0,246.0 374.0,277.9 375.0,246.0 376.0,246.0 377.0,246.0 378.0,246.0 379.0,246.0 380.0,246.0 381.0,246.0 382.0,246.0 383.0,246.0 384.0,246.0 385.0,246.0 386.0,246.0 387.0,246.0 388.0,246.0 389.0,246.0 390.0,245.1 391.0,281.5 392.0,246.0 393.0,246.0 394.0,246.0 395.0,246.0 396.0,246.0 397.0,246.0 398.0,246.0 399.0,252.2 400.0,246.0 401.0,246.0 402.0,246.0 403.0,246.0 404.0,246.0 405.0,246.0 406.0,246.0 407.0,236.2 408.0,246.0 409.0,246.0 410.0,246.0 411.0,246.0 412.0,246.0 413.0,246.0 414.0,246.0 415.0,246.0 416.0,246.0 417.0,246.0 418.0,246.0 419.0,246.0 420.0,246.0 421.0,246.0 422.0,246.0 423.0,246.0 424.0,246.0 425.0,213.2 426.0,246.0 427.0,237.1 428.0,246.0 429.0,246.0 430.0,246.0 431.0,246.0 432.0,246.0 433.0,246.0 434.0,246.0 435.0,246.0 436.0,246.0 437.0,246.0 438.0,246.0 439.0,246.0 440.0,246.0 441.0,246.0 442.0,246.0 443.0,246.0 444.0,257.5 445.0,246.9 446.0,246.0 447.0,246.0 448.0,246.0 449.0,246.0 450.0,246.0 451.0,246.0 452.0,246.0 453.0,246.0 454.0,243.3 455.0,246.0 456.0,246.0 457.0,246.0 458.0,246.0 459.0,246.0 460.0,246.0 461.0,246.0 462.0,246.0 463.0,246.0 464.0,203.4 465.0,246.0 466.0,246.0 467.0,246.0 468.0,246.0 469.0,246.0 470.0,246.0 471.0,246.0 472.0,246.0 473.0,246.0 474.0,246.0 475.0,246.0 476.0,246.0 477.0,246.0 478.0,246.0 479.0,246.0 480.0,246.0 481.0,246.0 482.0,246.0 483.0,246.0 484.0,246.9 485.0,246.0 486.0,246.0 487.0,246.0 488.0,246.0 489.0,246.0 490.0,246.0 491.0,246.0 492.0,246.0 493.0,246.0 494.0,246.0 495.0,246.0 496.0,246.0 497.0,246.0 498.0,246.0 499.0,246.0 500.0,246.0 501.0,246.0 502.0,246.0 503.0,246.0 504.0,246.0 505.0,246.0 506.0,243.3 507.0,246.0 508.0,246.0 509.0,238.0 510.0,246.0 511.0,246.0 512.0,246.0 513.0,246.0 514.0,246.0 515.0,246.0 516.0,246.0 517.0,246.0 518.0,246.0 519.0,246.0 520.0,252.2 521.0,270.8 522.0,247.8 523.0,246.0 524.0,246.0 525.0,246.0 526.0,246.0 527.0,246.0 528.0,246.0 529.0,246.0 530.0,246.0 531.0,246.0 532.0,246.0 533.0,246.0 534.0,246.0 535.0,246.0 536.0,246.0 537.0,246.0 538.0,258.4 539.0,246.0 540.0,246.0 541.0,265.5 542.0,243.3 543.0,246.0 544.0,246.0 545.0,246.0 546.0,246.9 547.0,246.0 548.0,246.0 549.0,263.7 550.0,246.0 551.0,248.7 552.0,246.0 553.0,246.0 554.0,246.0 555.0,246.0 556.0,246.0 557.0,246.0 558.0,246.0 559.0,246.0 560.0,246.0 561.0,246.0 562.0,246.0 563.0,246.0 564.0,246.0 565.0,246.0 566.0,246.0 567.0,242.5 568.0,246.0 569.0,246.0 570.0,246.0 571.0,246.0 572.0,246.0 573.0,246.0 574.0,246.0 575.0,246.0 576.0,246.0 577.0,246.0 578.0,251.3 579.0,246.0 580.0,246.0 581.0,246.0 582.0,246.0 583.0,246.0 584.0,246.0 585.0,246.0 586.0,246.0 587.0,246.0 588.0,246.0 589.0,246.0 590.0,244.2 591.0,246.0 592.0,246.0 593.0,246.0 594.0,246.0 595.0,246.0 596.0,246.0 597.0,246.0 598.0,246.0 599.0,277.9 600.0,257.5 601.0,246.0 602.0,246.0 603.0,246.0 604.0,246.0 605.0,246.0 606.0,246.0 607.0,246.0 608.0,246.0 609.0,246.0 610.0,246.0 611.0,246.0 612.0,246.0 613.0,246.0 614.0,246.0 615.0,246.0 616.0,246.0 617.0,246.0 618.0,246.0 619.0,246.0 620.0,246.0 621.0,246.0 622.0,246.0 623.0,246.0 624.0,246.0 625.0,246.0 626.0,246.0 627.0,246.0 628.0,246.0 629.0,246.0 630.0,246.0 631.0,246.0 632.0,246.0 633.0,246.0 634.0,246.0 635.0,246.0 636.0,246.0 637.0,246.0 638.0,246.0 639.0,246.0 640.0,246.0 641.0,246.0 642.0,246.0 643.0,246.0 644.0,246.0 645.0,246.0 646.0,246.0 647.0,246.0 648.0,246.0 649.0,246.0 650.0,246.0 651.0,246.0 652.0,246.0 653.0,246.0 654.0,246.0 655.0,246.0 656.0,246.0 657.0,246.0 658.0,246.0 659.0,246.0 660.0,246.0 661.0,246.0 662.0,246.0 663.0,230.9 664.0,246.0 665.0,246.0 666.0,246.0 667.0,246.0 668.0,246.0 669.0,246.0 670.0,246.0 671.0,246.0 672.0,246.0 673.0,246.0 674.0,246.0 675.0,246.0 676.0,246.0 677.0,246.0 678.0,246.0 679.0,246.0 680.0,246.0 681.0,246.0 682.0,246.0 683.0,246.0 684.0,246.0 685.0,246.0 686.0,246.0 687.0,246.0 688.0,246.0 689.0,246.0 690.0,246.0 691.0,246.0 692.0,246.0 693.0,246.0 694.0,246.0 695.0,246.0 696.0,246.0 697.0,246.0 698.0,246.0 699.0,246.0 700.0,246.0 701.0,246.0 702.0,246.0 703.0,246.0 704.0,246.0 705.0,246.0 706.0,246.0 707.0,246.0 708.0,246.0 709.0,246.0 710.0,246.0 711.0,246.0 712.0,246.0 713.0,246.0 714.0,255.8 715.0,246.0 716.0,246.0 717.0,246.0 718.0,246.0 719.0,250.4 720.0,247.8 721.0,250.4 722.0,246.0 723.0,246.0 724.0,246.0 725.0,246.0 726.0,246.0 727.0,246.0 728.0,246.0 729.0,246.0 730.0,246.0 731.0,246.0 732.0,246.0 733.0,246.0 734.0,246.0 735.0,255.8 736.0,246.0 737.0,246.0 738.0,246.0 739.0,246.0 740.0,246.0 741.0,246.0 742.0,246.0 743.0,246.0 744.0,246.0 745.0,246.0 746.0,246.0 747.0,246.0 748.0,246.0 749.0,246.0 750.0,246.0 751.0,246.0 752.0,246.0 753.0,246.0 754.0,246.0 755.0,246.0 756.0,246.0 757.0,246.0 758.0,246.0 759.0,246.0 760.0,246.0 761.0,246.0 762.0,246.0 763.0,246.0 764.0,246.0 765.0,246.0 766.0,246.0 767.0,246.0 768.0,246.0 769.0,246.0 770.0,246.0 771.0,246.0 772.0,246.0 773.0,246.0 774.0,246.0 775.0,246.0 776.0,246.0 777.0,247.8 778.0,246.0 779.0,246.9 780.0,246.0 781.0,246.0 782.0,246.0 783.0,246.0 784.0,246.0 785.0,246.0 786.0,246.0 787.0,246.0 788.0,246.0 789.0,246.0 790.0,246.0 791.0,246.0 792.0,246.0 793.0,246.0 794.0,246.0 795.0,246.0 796.0,246.0 797.0,246.0 798.0,246.0 799.0,246.0 800.0,246.0 801.0,246.0 802.0,246.0 803.0,246.0 804.0,229.1 805.0,246.0 806.0,246.0 807.0,246.0 808.0,246.0 809.0,246.0 810.0,246.0 811.0,246.0 812.0,246.0 813.0,246.0 814.0,246.0 815.0,246.0 816.0,246.0 817.0,246.0 818.0,246.0 819.0,246.0 820.0,246.0 821.0,246.0 822.0,246.0 823.0,246.0 824.0,246.0 825.0,246.0 826.0,246.0 827.0,246.0 828.0,246.0 829.0,246.0 830.0,246.0 831.0,246.0 832.0,246.0 833.0,246.0 834.0,246.0 835.0,246.0 836.0,246.0 837.0,246.0 838.0,246.0 839.0,246.0 840.0,246.0 841.0,246.0 842.0,246.0 843.0,246.0 844.0,246.0 845.0,238.9 846.0,246.0 847.0,225.6 848.0,234.5 849.0,246.0 850.0,246.0 851.0,246.0 852.0,246.0 853.0,246.0 854.0,246.0 855.0,239.8 856.0,246.0 857.0,246.0 858.0,246.0 859.0,246.0 860.0,246.0 861.0,239.8 862.0,246.0 863.0,246.0 864.0,240.7 865.0,227.4 866.0,245.1 867.0,246.0 868.0,246.0 869.0,246.0 870.0,246.0 871.0,246.0 872.0,246.0 873.0,238.0 874.0,246.0 875.0,246.0 876.0,246.0 877.0,246.0 878.0,246.0 879.0,246.0 880.0,246.0 881.0,246.0 882.0,246.0 883.0,246.0 884.0,246.0 885.0,246.0 886.0,246.0 887.0,246.0 888.0,246.0 889.0,246.0 890.0,246.0 891.0,246.0 892.0,246.0 893.0,246.0 894.0,246.0" fill="none" stroke="#199e70" stroke-width="1.0"/>
<text x="76.0" y="452" font-size="12" fill="#c3c2b7" text-anchor="start">Écart maximal : 15 $ — moyenne des écarts absolus : 0,1 $.</text>
<text x="76.0" y="418" font-size="11" fill="#898781" text-anchor="middle">1er juin</text>
<text x="219.5" y="418" font-size="11" fill="#898781" text-anchor="middle">8 juin</text>
<text x="363.0" y="418" font-size="11" fill="#898781" text-anchor="middle">15 juin</text>
<text x="506.5" y="418" font-size="11" fill="#898781" text-anchor="middle">22 juin</text>
<text x="650.0" y="418" font-size="11" fill="#898781" text-anchor="middle">29 juin</text>
<text x="793.5" y="418" font-size="11" fill="#898781" text-anchor="middle">6 juil.</text>
<text x="875.5" y="418" font-size="11" fill="#898781" text-anchor="middle">10 juil.</text>
</svg>
