<svg xmlns="http://www.w3.org/2000/svg" viewBox="0 0 920 470" font-family="system-ui,-apple-system,'Segoe UI',sans-serif" role="img" aria-label="Ce qui sépare encore les deux bases Bybit, minute par minute">
<rect width="920" height="470" fill="#0d1117"/>
<text x="76" y="34" font-size="19" fill="#ffffff" text-anchor="start" font-weight="600">L’écart résiduel, minute par minute</text>
<text x="76" y="56" font-size="12.5" fill="#c3c2b7" text-anchor="start">Minutes (sur 1 440 par jour) dont la chandelle 1 m diffère entre les deux voies — clôtures corrélées à r = 0,999 999 98</text>
<text x="68" y="370.0" font-size="11" fill="#898781" text-anchor="end">0</text>
<line x1="76" y1="298.5" x2="896" y2="298.5" stroke="#21262d"/>
<text x="68" y="302.5" font-size="11" fill="#898781" text-anchor="end">90</text>
<line x1="76" y1="231.0" x2="896" y2="231.0" stroke="#21262d"/>
<text x="68" y="235.0" font-size="11" fill="#898781" text-anchor="end">180</text>
<line x1="76" y1="163.5" x2="896" y2="163.5" stroke="#21262d"/>
<text x="68" y="167.5" font-size="11" fill="#898781" text-anchor="end">270</text>
<line x1="76" y1="96.0" x2="896" y2="96.0" stroke="#21262d"/>
<text x="68" y="100.0" font-size="11" fill="#898781" text-anchor="end">360</text>
<path d="M78.8 366.0 v-135.8 q0 -3 3 -3 h8.4 q3 0 3 3 v135.8 z" fill="#898781"/>
<text x="86.00" y="388" font-size="11" fill="#898781" text-anchor="middle">1er juin</text>
<path d="M98.8 366.0 v-184.5 q0 -3 3 -3 h8.4 q3 0 3 3 v184.5 z" fill="#898781"/>
<path d="M118.8 366.0 v-157.5 q0 -3 3 -3 h8.4 q3 0 3 3 v157.5 z" fill="#898781"/>
<path d="M138.8 366.0 v-233.2 q0 -3 3 -3 h8.4 q3 0 3 3 v233.2 z" fill="#898781"/>
<path d="M158.8 366.0 v-261.0 q0 -3 3 -3 h8.4 q3 0 3 3 v261.0 z" fill="#898781"/>
<path d="M178.8 366.0 v-262.5 q0 -3 3 -3 h8.4 q3 0 3 3 v262.5 z" fill="#898781"/>
<path d="M198.8 366.0 v-218.2 q0 -3 3 -3 h8.4 q3 0 3 3 v218.2 z" fill="#898781"/>
<path d="M218.8 366.0 v-213.8 q0 -3 3 -3 h8.4 q3 0 3 3 v213.8 z" fill="#898781"/>
<text x="226.00" y="388" font-size="11" fill="#898781" text-anchor="middle">8 juin</text>
<path d="M238.8 366.0 v-189.8 q0 -3 3 -3 h8.4 q3 0 3 3 v189.8 z" fill="#898781"/>
<path d="M258.8 366.0 v-208.5 q0 -3 3 -3 h8.4 q3 0 3 3 v208.5 z" fill="#898781"/>
<path d="M278.8 366.0 v-148.5 q0 -3 3 -3 h8.4 q3 0 3 3 v148.5 z" fill="#898781"/>
<path d="M298.8 366.0 v-139.5 q0 -3 3 -3 h8.4 q3 0 3 3 v139.5 z" fill="#898781"/>
<path d="M318.8 366.0 v-85.5 q0 -3 3 -3 h8.4 q3 0 3 3 v85.5 z" fill="#898781"/>
<path d="M338.8 366.0 v-93.8 q0 -3 3 -3 h8.4 q3 0 3 3 v93.8 z" fill="#898781"/>
<path d="M358.8 366.0 v-100.5 q0 -3 3 -3 h8.4 q3 0 3 3 v100.5 z" fill="#898781"/>
<text x="366.00" y="388" font-size="11" fill="#898781" text-anchor="middle">15 juin</text>
<path d="M378.8 366.0 v-144.8 q0 -3 3 -3 h8.4 q3 0 3 3 v144.8 z" fill="#898781"/>
<path d="M398.8 366.0 v-130.5 q0 -3 3 -3 h8.4 q3 0 3 3 v130.5 z" fill="#898781"/>
<path d="M418.8 366.0 v-150.0 q0 -3 3 -3 h8.4 q3 0 3 3 v150.0 z" fill="#898781"/>
<path d="M438.8 366.0 v-127.5 q0 -3 3 -3 h8.4 q3 0 3 3 v127.5 z" fill="#898781"/>
<path d="M458.8 366.0 v-114.0 q0 -3 3 -3 h8.4 q3 0 3 3 v114.0 z" fill="#898781"/>
<path d="M478.8 366.0 v-106.5 q0 -3 3 -3 h8.4 q3 0 3 3 v106.5 z" fill="#898781"/>
<path d="M498.8 366.0 v-138.0 q0 -3 3 -3 h8.4 q3 0 3 3 v138.0 z" fill="#898781"/>
<text x="506.00" y="388" font-size="11" fill="#898781" text-anchor="middle">22 juin</text>
<path d="M518.8 366.0 v-150.0 q0 -3 3 -3 h8.4 q3 0 3 3 v150.0 z" fill="#898781"/>
<path d="M538.8 366.0 v-186.8 q0 -3 3 -3 h8.4 q3 0 3 3 v186.8 z" fill="#898781"/>
<path d="M558.8 366.0 v-187.5 q0 -3 3 -3 h8.4 q3 0 3 3 v187.5 z" fill="#898781"/>
<path d="M578.8 366.0 v-243.0 q0 -3 3 -3 h8.4 q3 0 3 3 v243.0 z" fill="#898781"/>
<path d="M598.8 366.0 v-110.2 q0 -3 3 -3 h8.4 q3 0 3 3 v110.2 z" fill="#898781"/>
<path d="M618.8 366.0 v-153.0 q0 -3 3 -3 h8.4 q3 0 3 3 v153.0 z" fill="#898781"/>
<path d="M638.8 366.0 v-186.0 q0 -3 3 -3 h8.4 q3 0 3 3 v186.0 z" fill="#898781"/>
<text x="646.00" y="388" font-size="11" fill="#898781" text-anchor="middle">29 juin</text>
<path d="M658.8 366.0 v-158.2 q0 -3 3 -3 h8.4 q3 0 3 3 v158.2 z" fill="#898781"/>
<path d="M678.8 366.0 v-150.0 q0 -3 3 -3 h8.4 q3 0 3 3 v150.0 z" fill="#898781"/>
<path d="M698.8 366.0 v-148.5 q0 -3 3 -3 h8.4 q3 0 3 3 v148.5 z" fill="#898781"/>
<path d="M718.8 366.0 v-131.2 q0 -3 3 -3 h8.4 q3 0 3 3 v131.2 z" fill="#898781"/>
<path d="M738.8 366.0 v-108.8 q0 -3 3 -3 h8.4 q3 0 3 3 v108.8 z" fill="#898781"/>
<path d="M758.8 366.0 v-103.5 q0 -3 3 -3 h8.4 q3 0 3 3 v103.5 z" fill="#898781"/>
<path d="M778.8 366.0 v-117.0 q0 -3 3 -3 h8.4 q3 0 3 3 v117.0 z" fill="#898781"/>
<text x="786.00" y="388" font-size="11" fill="#898781" text-anchor="middle">6 juil.</text>
<path d="M798.8 366.0 v-132.8 q0 -3 3 -3 h8.4 q3 0 3 3 v132.8 z" fill="#898781"/>
<path d="M818.8 366.0 v-147.0 q0 -3 3 -3 h8.4 q3 0 3 3 v147.0 z" fill="#898781"/>
<path d="M838.8 366.0 v-149.2 q0 -3 3 -3 h8.4 q3 0 3 3 v149.2 z" fill="#898781"/>
<path d="M858.8 366.0 v-108.0 q0 -3 3 -3 h8.4 q3 0 3 3 v108.0 z" fill="#898781"/>
<text x="866.00" y="388" font-size="11" fill="#898781" text-anchor="middle">10 juil.</text>
<rect x="76" y="70" width="10" height="10" rx="2" fill="#898781"/>
<text x="92" y="79" font-size="12" fill="#ffffff" text-anchor="start">chandelle 1 m différente entre trades agrégés (A) et chandelle reconstruite des ticks (B)</text>
</svg>
