<svg xmlns="http://www.w3.org/2000/svg" viewBox="0 0 920 470" font-family="system-ui,-apple-system,'Segoe UI',sans-serif" role="img" aria-label="Ce qui sépare encore les deux bases Binance, minute par minute">
<rect width="920" height="470" fill="#0d1117"/>
<text x="76" y="34" font-size="19" fill="#ffffff" text-anchor="start" font-weight="600">L’écart résiduel, minute par minute</text>
<text x="76" y="56" font-size="12.5" fill="#c3c2b7" text-anchor="start">Minutes (sur 1 440 par jour) dont la chandelle 1 m diffère entre les deux voies — clôtures corrélées à r = 0,999 999 99</text>
<text x="68" y="370.0" font-size="11" fill="#898781" text-anchor="end">0</text>
<line x1="76" y1="298.5" x2="896" y2="298.5" stroke="#21262d"/>
<text x="68" y="302.5" font-size="11" fill="#898781" text-anchor="end">50</text>
<line x1="76" y1="231.0" x2="896" y2="231.0" stroke="#21262d"/>
<text x="68" y="235.0" font-size="11" fill="#898781" text-anchor="end">100</text>
<line x1="76" y1="163.5" x2="896" y2="163.5" stroke="#21262d"/>
<text x="68" y="167.5" font-size="11" fill="#898781" text-anchor="end">150</text>
<line x1="76" y1="96.0" x2="896" y2="96.0" stroke="#21262d"/>
<text x="68" y="100.0" font-size="11" fill="#898781" text-anchor="end">200</text>
<path d="M78.8 366.0 v-79.4 q0 -3 3 -3 h8.4 q3 0 3 3 v79.4 z" fill="#898781"/>
<text x="86.00" y="388" font-size="11" fill="#898781" text-anchor="middle">1er juin</text>
<path d="M98.8 366.0 v-125.2 q0 -3 3 -3 h8.4 q3 0 3 3 v125.2 z" fill="#898781"/>
<path d="M118.8 366.0 v-173.9 q0 -3 3 -3 h8.4 q3 0 3 3 v173.9 z" fill="#898781"/>
<path d="M138.8 366.0 v-215.7 q0 -3 3 -3 h8.4 q3 0 3 3 v215.7 z" fill="#898781"/>
<path d="M158.8 366.0 v-265.7 q0 -3 3 -3 h8.4 q3 0 3 3 v265.7 z" fill="#898781"/>
<path d="M178.8 366.0 v-199.5 q0 -3 3 -3 h8.4 q3 0 3 3 v199.5 z" fill="#898781"/>
<path d="M198.8 366.0 v-159.0 q0 -3 3 -3 h8.4 q3 0 3 3 v159.0 z" fill="#898781"/>
<path d="M218.8 366.0 v-236.0 q0 -3 3 -3 h8.4 q3 0 3 3 v236.0 z" fill="#898781"/>
<text x="226.00" y="388" font-size="11" fill="#898781" text-anchor="middle">8 juin</text>
<path d="M238.8 366.0 v-163.1 q0 -3 3 -3 h8.4 q3 0 3 3 v163.1 z" fill="#898781"/>
<path d="M258.8 366.0 v-177.9 q0 -3 3 -3 h8.4 q3 0 3 3 v177.9 z" fill="#898781"/>
<path d="M278.8 366.0 v-142.8 q0 -3 3 -3 h8.4 q3 0 3 3 v142.8 z" fill="#898781"/>
<path d="M298.8 366.0 v-137.4 q0 -3 3 -3 h8.4 q3 0 3 3 v137.4 z" fill="#898781"/>
<path d="M318.8 366.0 v-67.2 q0 -3 3 -3 h8.4 q3 0 3 3 v67.2 z" fill="#898781"/>
<path d="M338.8 366.0 v-60.5 q0 -3 3 -3 h8.4 q3 0 3 3 v60.5 z" fill="#898781"/>
<path d="M358.8 366.0 v-107.7 q0 -3 3 -3 h8.4 q3 0 3 3 v107.7 z" fill="#898781"/>
<text x="366.00" y="388" font-size="11" fill="#898781" text-anchor="middle">15 juin</text>
<path d="M378.8 366.0 v-114.5 q0 -3 3 -3 h8.4 q3 0 3 3 v114.5 z" fill="#898781"/>
<path d="M398.8 366.0 v-144.2 q0 -3 3 -3 h8.4 q3 0 3 3 v144.2 z" fill="#898781"/>
<path d="M418.8 366.0 v-105.0 q0 -3 3 -3 h8.4 q3 0 3 3 v105.0 z" fill="#898781"/>
<path d="M438.8 366.0 v-113.1 q0 -3 3 -3 h8.4 q3 0 3 3 v113.1 z" fill="#898781"/>
<path d="M458.8 366.0 v-69.9 q0 -3 3 -3 h8.4 q3 0 3 3 v69.9 z" fill="#898781"/>
<path d="M478.8 366.0 v-74.0 q0 -3 3 -3 h8.4 q3 0 3 3 v74.0 z" fill="#898781"/>
<path d="M498.8 366.0 v-126.6 q0 -3 3 -3 h8.4 q3 0 3 3 v126.6 z" fill="#898781"/>
<text x="506.00" y="388" font-size="11" fill="#898781" text-anchor="middle">22 juin</text>
<path d="M518.8 366.0 v-128.0 q0 -3 3 -3 h8.4 q3 0 3 3 v128.0 z" fill="#898781"/>
<path d="M538.8 366.0 v-149.6 q0 -3 3 -3 h8.4 q3 0 3 3 v149.6 z" fill="#898781"/>
<path d="M558.8 366.0 v-138.8 q0 -3 3 -3 h8.4 q3 0 3 3 v138.8 z" fill="#898781"/>
<path d="M578.8 366.0 v-173.9 q0 -3 3 -3 h8.4 q3 0 3 3 v173.9 z" fill="#898781"/>
<path d="M598.8 366.0 v-72.6 q0 -3 3 -3 h8.4 q3 0 3 3 v72.6 z" fill="#898781"/>
<path d="M618.8 366.0 v-110.4 q0 -3 3 -3 h8.4 q3 0 3 3 v110.4 z" fill="#898781"/>
<path d="M638.8 366.0 v-171.2 q0 -3 3 -3 h8.4 q3 0 3 3 v171.2 z" fill="#898781"/>
<text x="646.00" y="388" font-size="11" fill="#898781" text-anchor="middle">29 juin</text>
<path d="M658.8 366.0 v-99.6 q0 -3 3 -3 h8.4 q3 0 3 3 v99.6 z" fill="#898781"/>
<path d="M678.8 366.0 v-94.2 q0 -3 3 -3 h8.4 q3 0 3 3 v94.2 z" fill="#898781"/>
<path d="M698.8 366.0 v-121.2 q0 -3 3 -3 h8.4 q3 0 3 3 v121.2 z" fill="#898781"/>
<path d="M718.8 366.0 v-87.5 q0 -3 3 -3 h8.4 q3 0 3 3 v87.5 z" fill="#898781"/>
<path d="M738.8 366.0 v-99.6 q0 -3 3 -3 h8.4 q3 0 3 3 v99.6 z" fill="#898781"/>
<path d="M758.8 366.0 v-91.5 q0 -3 3 -3 h8.4 q3 0 3 3 v91.5 z" fill="#898781"/>
<path d="M778.8 366.0 v-115.8 q0 -3 3 -3 h8.4 q3 0 3 3 v115.8 z" fill="#898781"/>
<text x="786.00" y="388" font-size="11" fill="#898781" text-anchor="middle">6 juil.</text>
<path d="M798.8 366.0 v-103.7 q0 -3 3 -3 h8.4 q3 0 3 3 v103.7 z" fill="#898781"/>
<path d="M818.8 366.0 v-110.4 q0 -3 3 -3 h8.4 q3 0 3 3 v110.4 z" fill="#898781"/>
<path d="M838.8 366.0 v-91.5 q0 -3 3 -3 h8.4 q3 0 3 3 v91.5 z" fill="#898781"/>
<path d="M858.8 366.0 v-65.9 q0 -3 3 -3 h8.4 q3 0 3 3 v65.9 z" fill="#898781"/>
<text x="866.00" y="388" font-size="11" fill="#898781" text-anchor="middle">10 juil.</text>
<rect x="76" y="70" width="10" height="10" rx="2" fill="#898781"/>
<text x="92" y="79" font-size="12" fill="#ffffff" text-anchor="start">chandelle 1 m différente entre trades agrégés (A) et chandelle reconstruite des ticks (B)</text>
</svg>
