<svg xmlns="http://www.w3.org/2000/svg" viewBox="0 0 920 470" font-family="system-ui,-apple-system,'Segoe UI',sans-serif" role="img" aria-label="L’écart de clôture entre les deux voies KuCoin">
<rect width="920" height="470" fill="#0d1117"/>
<text x="76" y="34" font-size="19" fill="#ffffff" text-anchor="start" font-weight="600">L’écart entre les deux historiques, minute par minute</text>
<text x="76" y="56" font-size="12.5" fill="#c3c2b7" text-anchor="start">Clôture voie B − clôture voie A ($), chaque minute des quarante jours — même résolution que la vue d’ensemble</text>
<line x1="76.0" y1="166.9" x2="896.0" y2="166.9" stroke="#21262d"/>
<text x="68.0" y="170.9" font-size="11" fill="#898781" text-anchor="end">+20 $</text>
<line x1="76.0" y1="325.1" x2="896.0" y2="325.1" stroke="#21262d"/>
<text x="68.0" y="329.1" font-size="11" fill="#898781" text-anchor="end">−20 $</text>
<line x1="76.0" y1="246.0" x2="896.0" y2="246.0" stroke="#383835" stroke-width="1.2"/>
<text x="68.0" y="250.0" font-size="11" fill="#898781" text-anchor="end">0</text>
<polygon points="76.0,239.7 77.0,246.0 78.0,234.5 79.0,245.6 80.0,246.0 81.0,246.0 82.0,242.8 83.0,211.6 84.0,240.1 85.0,246.0 86.0,231.4 87.0,246.0 88.0,237.3 89.0,240.9 90.0,215.6 91.0,246.0 92.0,246.0 93.0,246.0 94.0,239.3 95.0,246.0 96.0,246.0 97.0,246.0 98.0,246.0 99.0,244.0 100.0,246.0 101.0,221.5 102.0,231.0 103.0,246.0 104.0,246.0 105.0,238.1 106.0,246.0 107.0,228.6 108.0,219.1 109.0,246.0 110.0,246.0 111.0,236.5 112.0,246.0 113.0,246.0 114.0,240.1 115.0,246.0 116.0,235.3 117.0,246.0 118.0,218.7 119.0,239.7 120.0,246.0 121.0,230.2 122.0,238.1 123.0,229.4 124.0,238.1 125.0,237.3 126.0,231.0 127.0,237.3 128.0,245.2 129.0,229.0 130.0,246.0 131.0,246.0 132.0,228.6 133.0,241.7 134.0,246.0 135.0,245.6 136.0,228.6 137.0,233.4 138.0,235.3 139.0,246.0 140.0,219.9 141.0,246.0 142.0,211.6 143.0,246.0 144.0,230.2 145.0,246.0 146.0,233.7 147.0,226.6 148.0,246.0 149.0,221.9 150.0,216.0 151.0,216.8 152.0,246.0 153.0,246.0 154.0,221.1 155.0,228.2 156.0,240.5 157.0,208.1 158.0,232.2 159.0,246.0 160.0,245.2 161.0,246.0 162.0,242.0 163.0,244.8 164.0,246.0 165.0,246.0 166.0,246.0 167.0,246.0 168.0,245.6 169.0,245.6 170.0,246.0 171.0,238.1 172.0,223.9 173.0,224.3 174.0,246.0 175.0,222.3 176.0,234.5 177.0,241.3 178.0,240.9 179.0,229.0 180.0,232.2 181.0,221.1 182.0,221.9 183.0,240.9 184.0,246.0 185.0,238.5 186.0,229.0 187.0,227.0 188.0,245.6 189.0,230.6 190.0,220.7 191.0,244.8 192.0,246.0 193.0,242.0 194.0,246.0 195.0,237.3 196.0,226.6 197.0,231.4 198.0,234.9 199.0,210.8 200.0,245.6 201.0,228.6 202.0,240.9 203.0,236.9 204.0,238.1 205.0,222.3 206.0,239.3 207.0,244.0 208.0,246.0 209.0,212.0 210.0,245.6 211.0,238.1 212.0,234.1 213.0,234.1 214.0,246.0 215.0,233.0 216.0,238.9 217.0,243.6 218.0,224.7 219.0,212.4 220.0,225.1 221.0,242.8 222.0,234.9 223.0,227.8 224.0,234.1 225.0,214.8 226.0,237.3 227.0,233.0 228.0,228.6 229.0,209.2 230.0,210.0 231.0,234.5 232.0,207.7 233.0,240.5 234.0,246.0 235.0,218.3 236.0,231.8 237.0,246.0 238.0,204.1 239.0,210.4 240.0,237.7 241.0,245.6 242.0,222.7 243.0,234.5 244.0,246.0 245.0,234.9 246.0,239.3 247.0,221.5 248.0,222.7 249.0,234.5 250.0,219.5 251.0,242.0 252.0,227.4 253.0,246.0 254.0,225.8 255.0,244.0 256.0,246.0 257.0,206.9 258.0,219.1 259.0,244.0 260.0,246.0 261.0,244.4 262.0,209.2 263.0,244.4 264.0,242.8 265.0,214.8 266.0,234.5 267.0,246.0 268.0,243.6 269.0,209.2 270.0,246.0 271.0,246.0 272.0,224.3 273.0,237.3 274.0,246.0 275.0,225.1 276.0,246.0 277.0,242.8 278.0,242.8 279.0,238.5 280.0,244.8 281.0,244.4 282.0,233.0 283.0,217.1 284.0,231.4 285.0,224.7 286.0,233.4 287.0,246.0 288.0,242.8 289.0,228.2 290.0,232.6 291.0,200.9 292.0,246.0 293.0,242.4 294.0,236.1 295.0,245.2 296.0,221.5 297.0,237.7 298.0,235.3 299.0,230.2 300.0,221.1 301.0,210.4 302.0,233.4 303.0,240.9 304.0,210.8 305.0,195.0 306.0,224.3 307.0,228.6 308.0,236.1 309.0,204.9 310.0,245.2 311.0,245.2 312.0,245.6 313.0,246.0 314.0,229.4 315.0,227.8 316.0,240.5 317.0,229.0 318.0,214.4 319.0,219.5 320.0,216.0 321.0,221.9 322.0,241.7 323.0,223.1 324.0,244.4 325.0,224.3 326.0,238.5 327.0,239.7 328.0,236.9 329.0,227.0 330.0,228.6 331.0,235.3 332.0,233.0 333.0,224.7 334.0,233.4 335.0,233.0 336.0,240.1 337.0,242.4 338.0,245.2 339.0,239.3 340.0,239.7 341.0,238.9 342.0,236.5 343.0,234.1 344.0,236.9 345.0,245.6 346.0,244.0 347.0,230.6 348.0,237.7 349.0,214.4 350.0,246.0 351.0,236.1 352.0,238.1 353.0,244.8 354.0,212.8 355.0,243.2 356.0,246.0 357.0,240.5 358.0,233.0 359.0,229.4 360.0,237.3 361.0,237.3 362.0,229.4 363.0,246.0 364.0,236.9 365.0,236.9 366.0,246.0 367.0,234.1 368.0,191.5 369.0,235.3 370.0,246.0 371.0,246.0 372.0,219.9 373.0,226.6 374.0,224.3 375.0,241.7 376.0,246.0 377.0,246.0 378.0,244.0 379.0,238.5 380.0,231.0 381.0,246.0 382.0,240.5 383.0,238.5 384.0,225.4 385.0,228.2 386.0,240.1 387.0,232.6 388.0,246.0 389.0,237.7 390.0,215.2 391.0,246.0 392.0,192.6 393.0,244.0 394.0,232.2 395.0,229.4 396.0,239.7 397.0,229.4 398.0,244.0 399.0,246.0 400.0,226.2 401.0,213.2 402.0,246.0 403.0,229.8 404.0,227.8 405.0,246.0 406.0,241.3 407.0,210.4 408.0,242.0 409.0,246.0 410.0,235.7 411.0,242.0 412.0,243.2 413.0,236.9 414.0,236.9 415.0,226.2 416.0,241.7 417.0,217.9 418.0,233.0 419.0,212.0 420.0,238.5 421.0,242.8 422.0,231.8 423.0,234.5 424.0,246.0 425.0,227.8 426.0,217.1 427.0,201.7 428.0,227.4 429.0,199.0 430.0,242.8 431.0,246.0 432.0,244.8 433.0,222.3 434.0,224.7 435.0,245.2 436.0,245.6 437.0,233.7 438.0,231.8 439.0,246.0 440.0,214.8 441.0,234.9 442.0,246.0 443.0,240.9 444.0,246.0 445.0,222.7 446.0,241.3 447.0,230.6 448.0,246.0 449.0,224.7 450.0,236.1 451.0,228.6 452.0,246.0 453.0,237.7 454.0,245.2 455.0,234.5 456.0,240.5 457.0,242.4 458.0,242.4 459.0,246.0 460.0,228.6 461.0,246.0 462.0,246.0 463.0,221.1 464.0,238.9 465.0,240.1 466.0,240.5 467.0,242.0 468.0,238.1 469.0,239.3 470.0,233.7 471.0,234.1 472.0,229.4 473.0,234.5 474.0,236.9 475.0,244.4 476.0,225.8 477.0,234.5 478.0,244.0 479.0,246.0 480.0,235.3 481.0,241.3 482.0,232.2 483.0,221.1 484.0,242.0 485.0,238.9 486.0,246.0 487.0,242.4 488.0,246.0 489.0,238.1 490.0,229.0 491.0,244.0 492.0,231.0 493.0,223.9 494.0,229.8 495.0,245.6 496.0,242.0 497.0,242.4 498.0,230.2 499.0,246.0 500.0,241.7 501.0,191.5 502.0,234.1 503.0,226.2 504.0,244.4 505.0,221.5 506.0,234.5 507.0,242.0 508.0,246.0 509.0,227.4 510.0,246.0 511.0,227.4 512.0,234.5 513.0,245.6 514.0,245.2 515.0,211.2 516.0,233.7 517.0,246.0 518.0,240.1 519.0,242.8 520.0,241.3 521.0,234.9 522.0,242.8 523.0,246.0 524.0,236.9 525.0,231.4 526.0,231.4 527.0,218.3 528.0,219.9 529.0,221.5 530.0,242.8 531.0,243.6 532.0,239.7 533.0,193.8 534.0,215.6 535.0,240.9 536.0,231.0 537.0,244.0 538.0,246.0 539.0,228.6 540.0,245.6 541.0,228.6 542.0,223.5 543.0,240.5 544.0,246.0 545.0,246.0 546.0,237.7 547.0,229.8 548.0,229.0 549.0,210.4 550.0,241.7 551.0,217.1 552.0,244.4 553.0,240.5 554.0,246.0 555.0,246.0 556.0,229.0 557.0,244.4 558.0,229.4 559.0,219.9 560.0,246.0 561.0,204.1 562.0,238.5 563.0,241.7 564.0,242.0 565.0,227.4 566.0,235.3 567.0,242.0 568.0,244.0 569.0,241.3 570.0,242.0 571.0,229.4 572.0,241.7 573.0,228.2 574.0,245.6 575.0,246.0 576.0,240.5 577.0,234.5 578.0,242.0 579.0,245.6 580.0,228.6 581.0,241.3 582.0,227.4 583.0,242.0 584.0,236.1 585.0,244.4 586.0,237.7 587.0,242.0 588.0,233.4 589.0,231.8 590.0,246.0 591.0,234.5 592.0,240.5 593.0,238.5 594.0,246.0 595.0,234.9 596.0,242.0 597.0,242.8 598.0,242.8 599.0,245.6 600.0,242.8 601.0,246.0 602.0,242.0 603.0,220.3 604.0,242.8 605.0,237.3 606.0,245.6 607.0,219.1 608.0,236.5 609.0,233.4 610.0,240.1 611.0,234.1 612.0,233.7 613.0,238.5 614.0,215.6 615.0,244.8 616.0,243.6 617.0,244.0 618.0,233.0 619.0,217.9 620.0,246.0 621.0,216.0 622.0,232.2 623.0,214.0 624.0,234.1 625.0,234.1 626.0,225.1 627.0,238.9 628.0,228.6 629.0,229.8 630.0,242.0 631.0,242.8 632.0,231.0 633.0,230.6 634.0,244.8 635.0,223.9 636.0,227.8 637.0,240.1 638.0,213.6 639.0,241.3 640.0,226.6 641.0,234.1 642.0,229.4 643.0,234.9 644.0,227.4 645.0,234.5 646.0,222.7 647.0,238.5 648.0,221.5 649.0,217.9 650.0,231.8 651.0,232.2 652.0,240.9 653.0,241.3 654.0,239.7 655.0,246.0 656.0,245.6 657.0,241.7 658.0,244.4 659.0,213.2 660.0,243.6 661.0,244.8 662.0,242.0 663.0,242.8 664.0,242.8 665.0,233.0 666.0,246.0 667.0,244.4 668.0,242.8 669.0,242.8 670.0,225.4 671.0,233.7 672.0,241.7 673.0,231.4 674.0,227.8 675.0,212.8 676.0,216.4 677.0,219.5 678.0,229.8 679.0,244.8 680.0,225.4 681.0,213.2 682.0,234.1 683.0,225.1 684.0,245.6 685.0,246.0 686.0,246.0 687.0,246.0 688.0,212.8 689.0,245.6 690.0,210.4 691.0,245.2 692.0,241.3 693.0,233.7 694.0,246.0 695.0,242.4 696.0,245.6 697.0,245.6 698.0,236.5 699.0,234.5 700.0,243.2 701.0,222.7 702.0,222.7 703.0,219.5 704.0,245.6 705.0,234.1 706.0,241.3 707.0,230.6 708.0,237.3 709.0,236.5 710.0,242.0 711.0,219.5 712.0,234.1 713.0,232.2 714.0,246.0 715.0,238.1 716.0,242.8 717.0,237.7 718.0,231.4 719.0,234.5 720.0,234.9 721.0,165.8 722.0,222.7 723.0,246.0 724.0,233.0 725.0,225.4 726.0,229.8 727.0,238.5 728.0,239.7 729.0,227.8 730.0,234.5 731.0,231.0 732.0,244.0 733.0,231.4 734.0,221.1 735.0,234.5 736.0,233.4 737.0,245.6 738.0,234.5 739.0,238.1 740.0,243.2 741.0,234.5 742.0,233.4 743.0,197.0 744.0,229.8 745.0,240.5 746.0,242.8 747.0,233.7 748.0,246.0 749.0,234.5 750.0,238.1 751.0,238.1 752.0,222.7 753.0,239.7 754.0,234.9 755.0,244.0 756.0,235.3 757.0,240.5 758.0,225.8 759.0,240.9 760.0,241.7 761.0,229.8 762.0,219.5 763.0,246.0 764.0,246.0 765.0,243.6 766.0,239.3 767.0,227.0 768.0,232.2 769.0,235.3 770.0,240.5 771.0,227.0 772.0,246.0 773.0,239.7 774.0,239.7 775.0,240.9 776.0,237.3 777.0,236.1 778.0,244.0 779.0,246.0 780.0,235.7 781.0,242.4 782.0,228.2 783.0,246.0 784.0,232.2 785.0,238.9 786.0,232.6 787.0,242.4 788.0,223.9 789.0,246.0 790.0,237.3 791.0,242.0 792.0,238.9 793.0,237.7 794.0,245.6 795.0,242.0 796.0,224.7 797.0,238.9 798.0,244.0 799.0,210.0 800.0,229.8 801.0,216.8 802.0,236.9 803.0,218.3 804.0,234.9 805.0,225.4 806.0,214.0 807.0,242.4 808.0,234.9 809.0,244.4 810.0,236.9 811.0,223.1 812.0,246.0 813.0,245.6 814.0,246.0 815.0,216.8 816.0,242.8 817.0,245.6 818.0,244.4 819.0,235.7 820.0,244.0 821.0,243.6 822.0,244.0 823.0,243.2 824.0,233.0 825.0,236.5 826.0,244.0 827.0,219.1 828.0,234.5 829.0,240.5 830.0,246.0 831.0,246.0 832.0,244.0 833.0,217.9 834.0,224.7 835.0,244.0 836.0,235.7 837.0,207.7 838.0,246.0 839.0,244.8 840.0,239.7 841.0,219.1 842.0,238.9 843.0,242.0 844.0,245.6 845.0,245.6 846.0,232.6 847.0,233.0 848.0,246.0 849.0,240.9 850.0,219.9 851.0,243.6 852.0,245.6 853.0,245.6 854.0,243.2 855.0,231.4 856.0,246.0 857.0,234.9 858.0,236.9 859.0,246.0 860.0,218.3 861.0,245.6 862.0,235.7 863.0,242.8 864.0,239.7 865.0,226.2 866.0,236.5 867.0,246.0 868.0,223.5 869.0,221.9 870.0,246.0 871.0,217.9 872.0,230.2 873.0,242.0 874.0,230.6 875.0,242.0 876.0,225.4 877.0,237.7 878.0,232.2 879.0,235.7 880.0,240.1 881.0,239.3 882.0,229.8 883.0,239.7 884.0,241.7 885.0,208.5 886.0,236.9 887.0,246.0 888.0,237.7 889.0,238.5 890.0,241.7 891.0,234.9 892.0,236.9 893.0,239.7 894.0,237.7 894.0,248.4 893.0,251.9 892.0,261.0 891.0,260.6 890.0,262.6 889.0,247.2 888.0,262.2 887.0,246.0 886.0,336.9 885.0,259.0 884.0,250.3 883.0,254.7 882.0,266.9 881.0,260.6 880.0,249.2 879.0,256.3 878.0,252.7 877.0,250.0 876.0,265.8 875.0,257.1 874.0,254.3 873.0,249.2 872.0,246.0 871.0,246.8 870.0,273.7 869.0,267.7 868.0,252.3 867.0,257.1 866.0,277.2 865.0,271.7 864.0,260.2 863.0,257.5 862.0,252.7 861.0,254.3 860.0,246.0 859.0,258.6 858.0,261.8 857.0,246.0 856.0,250.3 855.0,252.7 854.0,253.5 853.0,249.2 852.0,262.6 851.0,251.5 850.0,257.5 849.0,246.0 848.0,253.5 847.0,246.0 846.0,261.4 845.0,246.0 844.0,254.3 843.0,260.6 842.0,275.2 841.0,246.0 840.0,246.0 839.0,246.0 838.0,248.8 837.0,247.6 836.0,250.0 835.0,258.3 834.0,263.4 833.0,248.0 832.0,250.0 831.0,251.1 830.0,260.6 829.0,248.4 828.0,251.1 827.0,266.9 826.0,259.4 825.0,255.5 824.0,248.0 823.0,258.6 822.0,251.9 821.0,246.4 820.0,248.4 819.0,251.9 818.0,246.0 817.0,252.3 816.0,255.9 815.0,249.2 814.0,249.6 813.0,258.6 812.0,250.0 811.0,252.3 810.0,261.8 809.0,246.8 808.0,246.0 807.0,257.5 806.0,246.4 805.0,250.7 804.0,246.8 803.0,266.6 802.0,255.9 801.0,246.0 800.0,255.1 799.0,253.9 798.0,256.3 797.0,267.7 796.0,258.6 795.0,251.9 794.0,251.9 793.0,261.0 792.0,246.4 791.0,254.7 790.0,248.0 789.0,258.6 788.0,246.8 787.0,261.4 786.0,257.1 785.0,247.2 784.0,247.2 783.0,253.1 782.0,251.5 781.0,257.9 780.0,259.4 779.0,254.7 778.0,252.3 777.0,247.6 776.0,255.1 775.0,248.8 774.0,248.4 773.0,276.4 772.0,248.4 771.0,272.5 770.0,270.9 769.0,261.4 768.0,276.4 767.0,250.7 766.0,255.5 765.0,262.6 764.0,246.0 763.0,248.0 762.0,253.9 761.0,255.5 760.0,251.1 759.0,248.4 758.0,266.2 757.0,246.0 756.0,294.2 755.0,246.0 754.0,246.4 753.0,247.6 752.0,256.7 751.0,260.2 750.0,268.5 749.0,274.9 748.0,259.4 747.0,259.8 746.0,255.1 745.0,258.3 744.0,266.9 743.0,262.2 742.0,265.8 741.0,254.7 740.0,246.0 739.0,253.5 738.0,251.5 737.0,246.0 736.0,264.6 735.0,248.4 734.0,248.4 733.0,265.0 732.0,257.9 731.0,251.5 730.0,265.8 729.0,248.0 728.0,266.6 727.0,255.1 726.0,250.7 725.0,271.3 724.0,248.0 723.0,249.2 722.0,246.4 721.0,246.0 720.0,253.5 719.0,261.4 718.0,254.3 717.0,248.4 716.0,264.6 715.0,290.7 714.0,257.5 713.0,252.7 712.0,246.0 711.0,248.0 710.0,251.5 709.0,246.0 708.0,261.0 707.0,264.2 706.0,257.9 705.0,251.5 704.0,254.7 703.0,265.0 702.0,265.8 701.0,247.2 700.0,248.0 699.0,249.6 698.0,248.8 697.0,249.6 696.0,250.7 695.0,265.4 694.0,247.2 693.0,258.6 692.0,258.6 691.0,264.2 690.0,265.0 689.0,251.1 688.0,258.6 687.0,247.2 686.0,256.3 685.0,254.7 684.0,250.7 683.0,250.0 682.0,269.7 681.0,252.3 680.0,253.9 679.0,268.9 678.0,261.0 677.0,246.4 676.0,255.1 675.0,250.7 674.0,270.1 673.0,269.7 672.0,272.1 671.0,253.1 670.0,257.1 669.0,246.0 668.0,254.3 667.0,269.7 666.0,246.4 665.0,283.2 664.0,270.1 663.0,260.6 662.0,262.6 661.0,250.0 660.0,258.3 659.0,265.0 658.0,254.3 657.0,282.4 656.0,255.5 655.0,247.6 654.0,248.4 653.0,250.3 652.0,249.2 651.0,259.0 650.0,289.5 649.0,257.9 648.0,257.9 647.0,255.1 646.0,259.4 645.0,256.3 644.0,271.7 643.0,257.9 642.0,259.0 641.0,248.0 640.0,253.5 639.0,266.6 638.0,260.2 637.0,246.0 636.0,276.0 635.0,266.9 634.0,246.8 633.0,256.3 632.0,246.0 631.0,248.0 630.0,261.4 629.0,246.0 628.0,246.8 627.0,246.0 626.0,254.7 625.0,251.1 624.0,262.2 623.0,249.2 622.0,249.2 621.0,246.0 620.0,249.6 619.0,261.8 618.0,273.3 617.0,250.0 616.0,273.3 615.0,265.0 614.0,258.3 613.0,261.8 612.0,264.2 611.0,250.0 610.0,253.1 609.0,246.0 608.0,256.7 607.0,278.8 606.0,249.6 605.0,256.7 604.0,246.0 603.0,246.0 602.0,259.8 601.0,271.7 600.0,257.1 599.0,264.6 598.0,246.8 597.0,248.4 596.0,266.2 595.0,246.0 594.0,250.0 593.0,261.0 592.0,250.7 591.0,249.2 590.0,246.0 589.0,246.4 588.0,254.7 587.0,246.0 586.0,276.0 585.0,258.3 584.0,267.3 583.0,254.3 582.0,246.0 581.0,259.0 580.0,266.6 579.0,249.2 578.0,289.1 577.0,259.8 576.0,246.0 575.0,248.4 574.0,263.8 573.0,250.0 572.0,248.8 571.0,274.1 570.0,247.6 569.0,250.0 568.0,262.6 567.0,270.1 566.0,261.4 565.0,246.0 564.0,256.3 563.0,259.8 562.0,248.0 561.0,257.5 560.0,248.0 559.0,255.1 558.0,248.4 557.0,250.0 556.0,246.4 555.0,270.1 554.0,255.5 553.0,253.5 552.0,273.3 551.0,256.3 550.0,253.5 549.0,246.0 548.0,269.7 547.0,248.8 546.0,257.1 545.0,253.9 544.0,248.4 543.0,273.3 542.0,246.0 541.0,246.0 540.0,262.6 539.0,246.0 538.0,259.4 537.0,246.0 536.0,270.5 535.0,264.6 534.0,252.3 533.0,263.4 532.0,257.5 531.0,246.4 530.0,269.3 529.0,259.4 528.0,256.7 527.0,249.6 526.0,255.1 525.0,278.4 524.0,255.9 523.0,256.7 522.0,247.6 521.0,250.3 520.0,257.1 519.0,262.6 518.0,249.6 517.0,251.1 516.0,280.8 515.0,255.5 514.0,246.8 513.0,255.9 512.0,268.5 511.0,247.6 510.0,246.0 509.0,246.4 508.0,246.4 507.0,270.5 506.0,246.4 505.0,257.5 504.0,256.7 503.0,265.4 502.0,256.3 501.0,246.0 500.0,261.8 499.0,246.0 498.0,250.3 497.0,246.0 496.0,246.0 495.0,271.3 494.0,255.5 493.0,252.3 492.0,257.5 491.0,266.6 490.0,246.0 489.0,250.3 488.0,259.0 487.0,247.2 486.0,248.4 485.0,250.7 484.0,263.0 483.0,258.3 482.0,246.0 481.0,246.0 480.0,248.4 479.0,246.0 478.0,257.5 477.0,258.6 476.0,255.9 475.0,254.3 474.0,265.8 473.0,248.8 472.0,246.0 471.0,246.4 470.0,251.9 469.0,248.8 468.0,246.4 467.0,283.2 466.0,246.0 465.0,246.4 464.0,246.0 463.0,248.4 462.0,265.4 461.0,247.2 460.0,248.0 459.0,246.0 458.0,246.0 457.0,246.0 456.0,246.0 455.0,261.8 454.0,260.2 453.0,246.0 452.0,270.9 451.0,253.5 450.0,253.1 449.0,263.0 448.0,265.4 447.0,248.4 446.0,251.5 445.0,263.4 444.0,265.4 443.0,248.0 442.0,248.8 441.0,255.5 440.0,263.0 439.0,246.0 438.0,252.3 437.0,261.4 436.0,246.0 435.0,248.0 434.0,267.7 433.0,257.9 432.0,248.8 431.0,279.6 430.0,269.7 429.0,246.0 428.0,263.8 427.0,246.0 426.0,253.1 425.0,258.6 424.0,249.2 423.0,255.5 422.0,259.0 421.0,258.3 420.0,251.1 419.0,260.2 418.0,269.3 417.0,255.5 416.0,256.3 415.0,269.3 414.0,246.4 413.0,246.0 412.0,272.5 411.0,250.7 410.0,246.4 409.0,249.2 408.0,256.7 407.0,247.6 406.0,246.0 405.0,246.8 404.0,246.0 403.0,253.1 402.0,249.6 401.0,246.4 400.0,246.0 399.0,255.9 398.0,253.9 397.0,268.9 396.0,250.0 395.0,274.5 394.0,251.9 393.0,267.3 392.0,248.8 391.0,250.7 390.0,246.0 389.0,261.0 388.0,248.4 387.0,246.4 386.0,249.6 385.0,253.9 384.0,281.2 383.0,271.3 382.0,246.0 381.0,249.6 380.0,246.0 379.0,268.5 378.0,251.5 377.0,261.4 376.0,257.5 375.0,263.0 374.0,246.0 373.0,268.1 372.0,270.1 371.0,256.7 370.0,256.3 369.0,248.8 368.0,253.9 367.0,248.4 366.0,257.9 365.0,256.3 364.0,249.2 363.0,263.8 362.0,246.4 361.0,250.7 360.0,258.3 359.0,266.6 358.0,246.4 357.0,254.3 356.0,257.1 355.0,259.0 354.0,246.0 353.0,267.3 352.0,258.6 351.0,263.8 350.0,259.0 349.0,246.0 348.0,265.8 347.0,266.6 346.0,248.8 345.0,252.3 344.0,253.1 343.0,293.8 342.0,258.3 341.0,255.9 340.0,268.5 339.0,251.9 338.0,246.0 337.0,246.4 336.0,260.6 335.0,268.9 334.0,246.0 333.0,280.4 332.0,248.0 331.0,270.5 330.0,259.4 329.0,270.5 328.0,250.7 327.0,246.0 326.0,266.6 325.0,248.8 324.0,246.4 323.0,260.2 322.0,288.7 321.0,248.0 320.0,246.0 319.0,252.3 318.0,250.0 317.0,248.4 316.0,255.9 315.0,249.2 314.0,270.1 313.0,254.3 312.0,283.2 311.0,291.8 310.0,251.1 309.0,270.1 308.0,270.5 307.0,261.8 306.0,257.1 305.0,263.4 304.0,248.4 303.0,264.2 302.0,255.9 301.0,246.4 300.0,250.0 299.0,253.1 298.0,252.3 297.0,265.0 296.0,253.1 295.0,266.6 294.0,252.3 293.0,246.0 292.0,258.6 291.0,312.4 290.0,254.7 289.0,249.6 288.0,246.0 287.0,247.2 286.0,259.8 285.0,276.4 284.0,260.6 283.0,262.6 282.0,256.3 281.0,258.6 280.0,246.0 279.0,257.1 278.0,251.1 277.0,255.5 276.0,246.0 275.0,246.8 274.0,266.9 273.0,268.9 272.0,246.0 271.0,256.3 270.0,260.6 269.0,247.6 268.0,246.0 267.0,246.0 266.0,246.0 265.0,264.2 264.0,257.9 263.0,264.6 262.0,246.4 261.0,246.8 260.0,273.7 259.0,255.5 258.0,257.9 257.0,262.2 256.0,246.0 255.0,257.1 254.0,265.4 253.0,246.0 252.0,246.0 251.0,268.5 250.0,257.1 249.0,248.0 248.0,251.9 247.0,246.0 246.0,248.8 245.0,258.3 244.0,260.2 243.0,253.9 242.0,266.2 241.0,265.4 240.0,255.1 239.0,266.2 238.0,250.7 237.0,273.7 236.0,254.7 235.0,263.4 234.0,254.3 233.0,266.6 232.0,246.8 231.0,265.4 230.0,264.2 229.0,266.2 228.0,259.0 227.0,276.8 226.0,258.3 225.0,259.8 224.0,264.6 223.0,272.1 222.0,268.9 221.0,265.0 220.0,263.4 219.0,268.5 218.0,280.0 217.0,255.1 216.0,266.9 215.0,280.0 214.0,271.7 213.0,273.3 212.0,277.6 211.0,250.0 210.0,246.0 209.0,291.8 208.0,248.0 207.0,263.8 206.0,257.5 205.0,254.7 204.0,259.8 203.0,250.3 202.0,268.1 201.0,264.2 200.0,259.0 199.0,271.7 198.0,257.9 197.0,252.3 196.0,252.7 195.0,256.7 194.0,264.2 193.0,268.1 192.0,264.6 191.0,264.2 190.0,263.0 189.0,254.7 188.0,270.5 187.0,289.1 186.0,265.8 185.0,282.4 184.0,283.5 183.0,282.4 182.0,270.9 181.0,257.9 180.0,259.8 179.0,258.6 178.0,250.7 177.0,261.8 176.0,261.0 175.0,263.4 174.0,278.4 173.0,250.0 172.0,270.5 171.0,270.5 170.0,260.6 169.0,287.9 168.0,246.0 167.0,246.4 166.0,250.3 165.0,260.6 164.0,250.0 163.0,246.0 162.0,258.6 161.0,246.0 160.0,268.9 159.0,246.0 158.0,247.6 157.0,246.0 156.0,246.0 155.0,250.0 154.0,264.6 153.0,254.3 152.0,246.0 151.0,267.3 150.0,270.9 149.0,246.0 148.0,246.0 147.0,376.4 146.0,287.1 145.0,246.0 144.0,265.8 143.0,275.6 142.0,269.7 141.0,274.5 140.0,278.8 139.0,248.8 138.0,246.0 137.0,257.9 136.0,257.5 135.0,270.5 134.0,246.0 133.0,253.5 132.0,261.0 131.0,246.0 130.0,274.1 129.0,266.2 128.0,252.7 127.0,246.0 126.0,252.7 125.0,254.7 124.0,261.4 123.0,246.0 122.0,264.6 121.0,249.2 120.0,253.9 119.0,246.0 118.0,263.0 117.0,246.0 116.0,249.2 115.0,246.8 114.0,251.5 113.0,262.2 112.0,279.2 111.0,246.0 110.0,251.1 109.0,254.7 108.0,246.0 107.0,246.4 106.0,267.7 105.0,246.0 104.0,257.1 103.0,263.8 102.0,246.0 101.0,257.9 100.0,248.0 99.0,257.1 98.0,246.0 97.0,246.0 96.0,259.4 95.0,246.0 94.0,246.0 93.0,259.0 92.0,246.0 91.0,246.0 90.0,246.0 89.0,246.0 88.0,267.7 87.0,261.0 86.0,247.6 85.0,268.1 84.0,246.0 83.0,246.0 82.0,254.7 81.0,264.2 80.0,246.4 79.0,246.0 78.0,246.0 77.0,257.5 76.0,246.0" fill="#199e70" fill-opacity="0.35"/>
<polyline points="76.0,246.0 77.0,246.0 78.0,246.0 79.0,246.0 80.0,246.0 81.0,246.0 82.0,246.0 83.0,246.0 84.0,246.0 85.0,246.0 86.0,246.0 87.0,246.0 88.0,248.0 89.0,246.0 90.0,246.0 91.0,246.0 92.0,246.0 93.0,246.0 94.0,246.0 95.0,246.0 96.0,246.0 97.0,246.0 98.0,246.0 99.0,246.0 100.0,246.0 101.0,246.0 102.0,246.0 103.0,246.0 104.0,246.0 105.0,246.0 106.0,246.0 107.0,246.0 108.0,246.0 109.0,246.0 110.0,246.0 111.0,246.0 112.0,246.0 113.0,246.0 114.0,246.0 115.0,246.0 116.0,246.0 117.0,246.0 118.0,246.0 119.0,246.0 120.0,246.0 121.0,246.0 122.0,246.0 123.0,246.0 124.0,246.0 125.0,246.0 126.0,246.0 127.0,246.0 128.0,246.0 129.0,246.0 130.0,246.0 131.0,246.0 132.0,246.0 133.0,246.0 134.0,246.0 135.0,246.0 136.0,246.0 137.0,246.0 138.0,246.0 139.0,246.0 140.0,246.0 141.0,246.0 142.0,246.0 143.0,246.0 144.0,246.0 145.0,246.0 146.0,246.0 147.0,245.6 148.0,246.0 149.0,246.0 150.0,246.0 151.0,246.0 152.0,246.0 153.0,246.0 154.0,246.0 155.0,246.0 156.0,246.0 157.0,246.0 158.0,246.0 159.0,246.0 160.0,246.0 161.0,246.0 162.0,246.0 163.0,246.0 164.0,246.0 165.0,246.0 166.0,246.0 167.0,246.0 168.0,246.0 169.0,246.0 170.0,246.0 171.0,246.0 172.0,246.4 173.0,246.0 174.0,246.0 175.0,246.0 176.0,246.0 177.0,246.0 178.0,246.0 179.0,246.0 180.0,246.0 181.0,246.0 182.0,242.0 183.0,246.0 184.0,246.0 185.0,250.7 186.0,246.0 187.0,246.0 188.0,246.0 189.0,246.0 190.0,246.0 191.0,246.0 192.0,246.0 193.0,246.0 194.0,246.0 195.0,246.0 196.0,246.0 197.0,246.0 198.0,246.0 199.0,246.0 200.0,246.0 201.0,246.0 202.0,246.0 203.0,236.9 204.0,246.0 205.0,246.0 206.0,246.0 207.0,246.0 208.0,246.0 209.0,246.0 210.0,246.0 211.0,250.0 212.0,246.0 213.0,246.0 214.0,246.0 215.0,240.1 216.0,246.0 217.0,246.0 218.0,246.0 219.0,246.0 220.0,246.0 221.0,246.0 222.0,246.0 223.0,246.0 224.0,246.0 225.0,246.0 226.0,246.0 227.0,246.0 228.0,246.0 229.0,246.0 230.0,246.0 231.0,246.0 232.0,246.0 233.0,246.0 234.0,246.0 235.0,246.0 236.0,254.7 237.0,246.0 238.0,246.0 239.0,246.0 240.0,246.0 241.0,246.0 242.0,246.0 243.0,246.0 244.0,260.2 245.0,246.0 246.0,246.0 247.0,221.5 248.0,246.0 249.0,246.0 250.0,246.0 251.0,246.0 252.0,246.0 253.0,246.0 254.0,246.0 255.0,246.0 256.0,246.0 257.0,246.0 258.0,246.0 259.0,246.0 260.0,246.0 261.0,246.0 262.0,246.0 263.0,246.0 264.0,246.0 265.0,246.0 266.0,246.0 267.0,246.0 268.0,246.0 269.0,246.0 270.0,246.0 271.0,246.0 272.0,246.0 273.0,246.0 274.0,246.0 275.0,246.0 276.0,246.0 277.0,246.0 278.0,246.0 279.0,246.0 280.0,246.0 281.0,246.0 282.0,246.0 283.0,246.0 284.0,246.0 285.0,246.0 286.0,246.0 287.0,246.0 288.0,246.0 289.0,246.0 290.0,232.6 291.0,246.0 292.0,246.0 293.0,246.0 294.0,246.0 295.0,246.0 296.0,246.0 297.0,244.0 298.0,246.0 299.0,246.0 300.0,246.0 301.0,246.0 302.0,246.0 303.0,246.0 304.0,246.0 305.0,246.0 306.0,251.1 307.0,228.6 308.0,246.0 309.0,246.0 310.0,246.0 311.0,291.8 312.0,246.0 313.0,246.0 314.0,246.0 315.0,246.0 316.0,246.0 317.0,246.0 318.0,246.0 319.0,246.0 320.0,246.0 321.0,225.8 322.0,246.0 323.0,246.0 324.0,246.0 325.0,246.0 326.0,246.0 327.0,246.0 328.0,246.0 329.0,246.0 330.0,246.0 331.0,246.0 332.0,246.0 333.0,246.0 334.0,246.0 335.0,246.0 336.0,241.7 337.0,246.0 338.0,246.0 339.0,246.0 340.0,246.0 341.0,246.0 342.0,246.0 343.0,246.0 344.0,243.6 345.0,246.0 346.0,246.0 347.0,246.0 348.0,246.0 349.0,246.0 350.0,246.0 351.0,246.0 352.0,246.0 353.0,246.0 354.0,212.8 355.0,246.0 356.0,246.0 357.0,246.0 358.0,246.0 359.0,246.0 360.0,246.0 361.0,246.0 362.0,246.0 363.0,246.0 364.0,246.0 365.0,246.0 366.0,246.0 367.0,246.0 368.0,246.0 369.0,246.0 370.0,246.0 371.0,246.0 372.0,246.0 373.0,246.0 374.0,245.2 375.0,246.0 376.0,246.0 377.0,246.0 378.0,246.0 379.0,246.0 380.0,246.0 381.0,246.0 382.0,246.0 383.0,246.0 384.0,246.0 385.0,246.0 386.0,246.0 387.0,246.0 388.0,246.0 389.0,246.0 390.0,246.0 391.0,246.0 392.0,246.0 393.0,246.0 394.0,246.0 395.0,246.0 396.0,247.2 397.0,246.0 398.0,246.0 399.0,246.0 400.0,246.0 401.0,246.0 402.0,246.0 403.0,246.0 404.0,246.0 405.0,246.0 406.0,246.0 407.0,246.0 408.0,246.0 409.0,246.0 410.0,246.0 411.0,246.0 412.0,246.0 413.0,246.0 414.0,246.0 415.0,246.0 416.0,246.0 417.0,246.0 418.0,246.0 419.0,246.0 420.0,246.0 421.0,246.0 422.0,246.0 423.0,246.0 424.0,246.0 425.0,246.0 426.0,246.0 427.0,246.0 428.0,246.0 429.0,246.0 430.0,246.0 431.0,246.0 432.0,246.0 433.0,246.0 434.0,246.0 435.0,246.0 436.0,246.0 437.0,246.0 438.0,246.0 439.0,246.0 440.0,246.0 441.0,246.0 442.0,246.0 443.0,246.0 444.0,246.0 445.0,246.0 446.0,246.0 447.0,246.0 448.0,246.0 449.0,246.0 450.0,246.0 451.0,246.0 452.0,246.0 453.0,246.0 454.0,246.0 455.0,246.0 456.0,246.0 457.0,246.0 458.0,246.0 459.0,246.0 460.0,246.0 461.0,246.0 462.0,246.0 463.0,246.0 464.0,246.0 465.0,246.0 466.0,246.0 467.0,246.0 468.0,246.0 469.0,246.0 470.0,246.0 471.0,246.0 472.0,246.0 473.0,246.0 474.0,246.0 475.0,246.0 476.0,246.0 477.0,246.0 478.0,246.0 479.0,246.0 480.0,246.0 481.0,246.0 482.0,246.0 483.0,246.0 484.0,246.0 485.0,246.0 486.0,246.0 487.0,246.0 488.0,246.0 489.0,246.0 490.0,246.0 491.0,245.6 492.0,246.0 493.0,246.0 494.0,246.0 495.0,246.0 496.0,246.0 497.0,246.0 498.0,246.0 499.0,246.0 500.0,246.0 501.0,246.0 502.0,246.0 503.0,246.0 504.0,246.0 505.0,246.0 506.0,246.0 507.0,246.0 508.0,246.0 509.0,246.0 510.0,246.0 511.0,246.0 512.0,246.0 513.0,246.0 514.0,246.0 515.0,246.0 516.0,246.0 517.0,246.0 518.0,246.0 519.0,246.0 520.0,246.0 521.0,246.0 522.0,242.8 523.0,246.0 524.0,246.0 525.0,246.0 526.0,246.0 527.0,246.0 528.0,253.1 529.0,246.0 530.0,246.0 531.0,246.0 532.0,246.0 533.0,246.0 534.0,246.0 535.0,246.0 536.0,246.0 537.0,246.0 538.0,246.0 539.0,246.0 540.0,246.0 541.0,246.0 542.0,246.0 543.0,246.0 544.0,246.0 545.0,246.0 546.0,246.0 547.0,246.0 548.0,246.0 549.0,210.4 550.0,246.0 551.0,246.0 552.0,246.0 553.0,246.0 554.0,246.0 555.0,246.0 556.0,246.0 557.0,246.0 558.0,246.0 559.0,246.0 560.0,246.0 561.0,246.0 562.0,246.0 563.0,246.0 564.0,246.0 565.0,246.0 566.0,246.0 567.0,246.0 568.0,246.0 569.0,246.0 570.0,246.0 571.0,246.0 572.0,246.0 573.0,246.0 574.0,246.0 575.0,246.0 576.0,246.0 577.0,246.0 578.0,246.0 579.0,249.2 580.0,242.0 581.0,246.0 582.0,246.0 583.0,246.0 584.0,246.0 585.0,246.0 586.0,246.0 587.0,246.0 588.0,246.0 589.0,246.0 590.0,246.0 591.0,246.0 592.0,246.0 593.0,246.0 594.0,246.0 595.0,246.0 596.0,246.0 597.0,246.0 598.0,246.0 599.0,246.0 600.0,246.0 601.0,246.0 602.0,246.0 603.0,246.0 604.0,246.0 605.0,246.0 606.0,247.2 607.0,246.0 608.0,246.0 609.0,246.0 610.0,246.0 611.0,234.1 612.0,246.0 613.0,246.0 614.0,250.0 615.0,246.0 616.0,246.0 617.0,246.0 618.0,273.3 619.0,246.0 620.0,246.0 621.0,246.0 622.0,246.0 623.0,246.0 624.0,246.0 625.0,251.1 626.0,246.0 627.0,242.0 628.0,246.8 629.0,246.0 630.0,245.6 631.0,246.0 632.0,246.0 633.0,246.0 634.0,246.0 635.0,246.0 636.0,233.7 637.0,246.0 638.0,246.0 639.0,246.0 640.0,246.0 641.0,246.0 642.0,246.0 643.0,246.0 644.0,246.0 645.0,246.0 646.0,246.0 647.0,246.0 648.0,246.0 649.0,246.0 650.0,246.0 651.0,246.0 652.0,249.2 653.0,246.0 654.0,246.0 655.0,246.0 656.0,246.0 657.0,246.0 658.0,246.0 659.0,246.0 660.0,246.0 661.0,246.0 662.0,246.0 663.0,246.0 664.0,246.0 665.0,246.0 666.0,246.0 667.0,246.0 668.0,251.5 669.0,246.0 670.0,246.0 671.0,246.0 672.0,246.0 673.0,246.0 674.0,246.0 675.0,246.0 676.0,246.0 677.0,246.0 678.0,246.0 679.0,246.0 680.0,246.0 681.0,246.0 682.0,246.0 683.0,246.0 684.0,246.0 685.0,251.9 686.0,246.0 687.0,246.0 688.0,246.0 689.0,246.0 690.0,246.0 691.0,246.0 692.0,246.0 693.0,246.0 694.0,246.0 695.0,246.0 696.0,246.0 697.0,246.0 698.0,246.0 699.0,246.0 700.0,246.0 701.0,246.0 702.0,246.0 703.0,246.0 704.0,246.0 705.0,246.0 706.0,246.0 707.0,246.0 708.0,246.0 709.0,246.0 710.0,246.0 711.0,246.0 712.0,246.0 713.0,246.0 714.0,246.0 715.0,246.0 716.0,246.0 717.0,246.0 718.0,246.0 719.0,246.0 720.0,246.0 721.0,246.0 722.0,246.0 723.0,246.0 724.0,246.0 725.0,246.0 726.0,246.0 727.0,246.0 728.0,244.8 729.0,246.0 730.0,246.0 731.0,246.0 732.0,246.0 733.0,246.0 734.0,246.0 735.0,246.0 736.0,246.0 737.0,246.0 738.0,246.0 739.0,246.0 740.0,246.0 741.0,246.0 742.0,246.0 743.0,246.0 744.0,246.0 745.0,246.0 746.0,246.0 747.0,241.3 748.0,246.0 749.0,246.0 750.0,246.0 751.0,246.0 752.0,246.0 753.0,246.0 754.0,246.4 755.0,246.0 756.0,246.0 757.0,246.0 758.0,246.0 759.0,240.9 760.0,246.0 761.0,246.0 762.0,246.0 763.0,246.0 764.0,246.0 765.0,262.6 766.0,246.0 767.0,246.0 768.0,246.0 769.0,246.0 770.0,246.0 771.0,246.0 772.0,246.0 773.0,246.0 774.0,246.0 775.0,246.0 776.0,246.0 777.0,246.0 778.0,246.0 779.0,246.0 780.0,246.0 781.0,246.0 782.0,246.0 783.0,246.0 784.0,242.4 785.0,246.0 786.0,246.0 787.0,246.0 788.0,246.0 789.0,246.0 790.0,237.3 791.0,246.0 792.0,246.0 793.0,246.0 794.0,246.0 795.0,246.0 796.0,258.6 797.0,245.2 798.0,246.0 799.0,246.0 800.0,246.0 801.0,246.0 802.0,242.4 803.0,244.4 804.0,246.0 805.0,246.0 806.0,246.0 807.0,246.0 808.0,246.0 809.0,246.0 810.0,246.0 811.0,246.0 812.0,246.0 813.0,246.0 814.0,246.0 815.0,246.0 816.0,246.0 817.0,246.0 818.0,246.0 819.0,251.9 820.0,246.0 821.0,246.0 822.0,246.0 823.0,246.0 824.0,246.0 825.0,246.0 826.0,246.0 827.0,246.0 828.0,246.0 829.0,246.0 830.0,246.8 831.0,246.0 832.0,246.0 833.0,246.0 834.0,246.0 835.0,246.0 836.0,246.0 837.0,246.0 838.0,246.0 839.0,246.0 840.0,246.0 841.0,246.0 842.0,246.0 843.0,246.0 844.0,246.0 845.0,246.0 846.0,246.0 847.0,246.0 848.0,246.0 849.0,246.0 850.0,246.0 851.0,246.0 852.0,246.0 853.0,246.0 854.0,246.0 855.0,246.0 856.0,246.0 857.0,246.0 858.0,246.0 859.0,246.0 860.0,246.0 861.0,246.0 862.0,246.0 863.0,246.0 864.0,246.0 865.0,246.0 866.0,246.0 867.0,246.0 868.0,246.0 869.0,246.0 870.0,246.0 871.0,246.8 872.0,246.0 873.0,246.0 874.0,246.0 875.0,246.0 876.0,246.0 877.0,246.0 878.0,232.2 879.0,246.0 880.0,246.0 881.0,246.0 882.0,266.9 883.0,246.0 884.0,246.0 885.0,246.0 886.0,246.0 887.0,246.0 888.0,246.0 889.0,246.0 890.0,246.0 891.0,246.0 892.0,246.0 893.0,246.0 894.0,246.0" fill="none" stroke="#199e70" stroke-width="1.0"/>
<text x="76.0" y="452" font-size="12" fill="#c3c2b7" text-anchor="start">Écart maximal : 33 $ — moyenne des écarts absolus : 0,1 $.</text>
<text x="76.0" y="418" font-size="11" fill="#898781" text-anchor="middle">1er juin</text>
<text x="219.5" y="418" font-size="11" fill="#898781" text-anchor="middle">8 juin</text>
<text x="363.0" y="418" font-size="11" fill="#898781" text-anchor="middle">15 juin</text>
<text x="506.5" y="418" font-size="11" fill="#898781" text-anchor="middle">22 juin</text>
<text x="650.0" y="418" font-size="11" fill="#898781" text-anchor="middle">29 juin</text>
<text x="793.5" y="418" font-size="11" fill="#898781" text-anchor="middle">6 juil.</text>
<text x="875.5" y="418" font-size="11" fill="#898781" text-anchor="middle">10 juil.</text>
</svg>
