<svg xmlns="http://www.w3.org/2000/svg" viewBox="0 0 920 470" font-family="system-ui,-apple-system,'Segoe UI',sans-serif" role="img" aria-label="L’écart de clôture entre les deux voies KuCoin">
<rect width="920" height="470" fill="#0d1117"/>
<text x="76" y="34" font-size="19" fill="#ffffff" text-anchor="start" font-weight="600">L’écart sur la journée témoin, au fil des heures</text>
<text x="76" y="56" font-size="12.5" fill="#c3c2b7" text-anchor="start">Clôture voie B − clôture voie A ($), 5 juin 2026 — même résolution que la journée (1 minute)</text>
<line x1="76.0" y1="184.5" x2="896.0" y2="184.5" stroke="#21262d"/>
<text x="68.0" y="188.5" font-size="11" fill="#898781" text-anchor="end">+5,0 $</text>
<line x1="76.0" y1="307.5" x2="896.0" y2="307.5" stroke="#21262d"/>
<text x="68.0" y="311.5" font-size="11" fill="#898781" text-anchor="end">−5,0 $</text>
<line x1="76.0" y1="122.9" x2="896.0" y2="122.9" stroke="#21262d"/>
<text x="68.0" y="126.9" font-size="11" fill="#898781" text-anchor="end">+10 $</text>
<line x1="76.0" y1="369.1" x2="896.0" y2="369.1" stroke="#21262d"/>
<text x="68.0" y="373.1" font-size="11" fill="#898781" text-anchor="end">−10 $</text>
<line x1="76.0" y1="246.0" x2="896.0" y2="246.0" stroke="#383835" stroke-width="1.2"/>
<text x="68.0" y="250.0" font-size="11" fill="#898781" text-anchor="end">0</text>
<polygon points="76.0,246.0 77.0,246.0 78.0,246.0 79.0,246.0 80.0,246.0 81.0,246.0 82.0,246.0 83.0,246.0 84.0,246.0 85.0,246.0 86.0,246.0 87.0,246.0 88.0,246.0 89.0,246.0 90.0,246.0 91.0,246.0 92.0,246.0 93.0,246.0 94.0,202.9 95.0,246.0 96.0,246.0 97.0,246.0 98.0,246.0 99.0,246.0 100.0,246.0 101.0,246.0 102.0,246.0 103.0,246.0 104.0,246.0 105.0,246.0 106.0,246.0 107.0,246.0 108.0,246.0 109.0,246.0 110.0,246.0 111.0,246.0 112.0,246.0 113.0,246.0 114.0,246.0 115.0,246.0 116.0,246.0 117.0,246.0 118.0,246.0 119.0,246.0 120.0,246.0 121.0,246.0 122.0,246.0 123.0,246.0 124.0,246.0 125.0,246.0 126.0,246.0 127.0,246.0 128.0,246.0 129.0,246.0 130.0,246.0 131.0,246.0 132.0,246.0 133.0,246.0 134.0,246.0 135.0,246.0 136.0,246.0 137.0,246.0 138.0,246.0 139.0,246.0 140.0,246.0 141.0,246.0 142.0,246.0 143.0,246.0 144.0,246.0 145.0,246.0 146.0,246.0 147.0,246.0 148.0,246.0 149.0,246.0 150.0,246.0 151.0,246.0 152.0,246.0 153.0,246.0 154.0,246.0 155.0,246.0 156.0,246.0 157.0,246.0 158.0,246.0 159.0,246.0 160.0,246.0 161.0,246.0 162.0,243.5 163.0,246.0 164.0,246.0 165.0,246.0 166.0,246.0 167.0,246.0 168.0,246.0 169.0,246.0 170.0,246.0 171.0,246.0 172.0,246.0 173.0,246.0 174.0,246.0 175.0,246.0 176.0,246.0 177.0,246.0 178.0,246.0 179.0,246.0 180.0,246.0 181.0,246.0 182.0,246.0 183.0,246.0 184.0,246.0 185.0,246.0 186.0,246.0 187.0,246.0 188.0,246.0 189.0,246.0 190.0,246.0 191.0,246.0 192.0,246.0 193.0,246.0 194.0,246.0 195.0,246.0 196.0,246.0 197.0,246.0 198.0,246.0 199.0,246.0 200.0,246.0 201.0,246.0 202.0,246.0 203.0,246.0 204.0,246.0 205.0,246.0 206.0,246.0 207.0,246.0 208.0,246.0 209.0,246.0 210.0,246.0 211.0,246.0 212.0,246.0 213.0,246.0 214.0,246.0 215.0,246.0 216.0,246.0 217.0,246.0 218.0,246.0 219.0,246.0 220.0,246.0 221.0,246.0 222.0,246.0 223.0,246.0 224.0,246.0 225.0,246.0 226.0,246.0 227.0,246.0 228.0,246.0 229.0,246.0 230.0,246.0 231.0,246.0 232.0,246.0 233.0,246.0 234.0,246.0 235.0,246.0 236.0,246.0 237.0,246.0 238.0,246.0 239.0,246.0 240.0,246.0 241.0,246.0 242.0,233.7 243.0,246.0 244.0,246.0 245.0,246.0 246.0,246.0 247.0,246.0 248.0,246.0 249.0,246.0 250.0,246.0 251.0,246.0 252.0,246.0 253.0,246.0 254.0,246.0 255.0,246.0 256.0,246.0 257.0,246.0 258.0,246.0 259.0,246.0 260.0,246.0 261.0,246.0 262.0,246.0 263.0,246.0 264.0,246.0 265.0,246.0 266.0,246.0 267.0,246.0 268.0,246.0 269.0,246.0 270.0,246.0 271.0,246.0 272.0,246.0 273.0,246.0 274.0,246.0 275.0,246.0 276.0,246.0 277.0,246.0 278.0,246.0 279.0,246.0 280.0,246.0 281.0,246.0 282.0,246.0 283.0,242.3 284.0,246.0 285.0,246.0 286.0,246.0 287.0,246.0 288.0,246.0 289.0,246.0 290.0,246.0 291.0,246.0 292.0,246.0 293.0,246.0 294.0,246.0 295.0,246.0 296.0,246.0 297.0,246.0 298.0,246.0 299.0,246.0 300.0,246.0 301.0,246.0 302.0,246.0 303.0,246.0 304.0,246.0 305.0,246.0 306.0,246.0 307.0,246.0 308.0,246.0 309.0,246.0 310.0,246.0 311.0,246.0 312.0,246.0 313.0,246.0 314.0,246.0 315.0,246.0 316.0,246.0 317.0,246.0 318.0,246.0 319.0,246.0 320.0,246.0 321.0,246.0 322.0,246.0 323.0,246.0 324.0,246.0 325.0,246.0 326.0,246.0 327.0,246.0 328.0,246.0 329.0,246.0 330.0,246.0 331.0,246.0 332.0,246.0 333.0,246.0 334.0,246.0 335.0,246.0 336.0,246.0 337.0,246.0 338.0,246.0 339.0,246.0 340.0,246.0 341.0,246.0 342.0,246.0 343.0,246.0 344.0,246.0 345.0,246.0 346.0,246.0 347.0,246.0 348.0,246.0 349.0,246.0 350.0,246.0 351.0,246.0 352.0,246.0 353.0,246.0 354.0,246.0 355.0,246.0 356.0,246.0 357.0,246.0 358.0,246.0 359.0,246.0 360.0,246.0 361.0,246.0 362.0,246.0 363.0,246.0 364.0,246.0 365.0,246.0 366.0,246.0 367.0,246.0 368.0,246.0 369.0,246.0 370.0,246.0 371.0,246.0 372.0,246.0 373.0,246.0 374.0,246.0 375.0,246.0 376.0,246.0 377.0,270.6 378.0,246.0 379.0,246.0 380.0,246.0 381.0,246.0 382.0,246.0 383.0,246.0 384.0,246.0 385.0,246.0 386.0,246.0 387.0,246.0 388.0,246.0 389.0,246.0 390.0,246.0 391.0,246.0 392.0,246.0 393.0,246.0 394.0,246.0 395.0,246.0 396.0,246.0 397.0,246.0 398.0,246.0 399.0,246.0 400.0,246.0 401.0,246.0 402.0,246.0 403.0,246.0 404.0,246.0 405.0,246.0 406.0,246.0 407.0,246.0 408.0,246.0 409.0,246.0 410.0,246.0 411.0,246.0 412.0,246.0 413.0,246.0 414.0,246.0 415.0,246.0 416.0,246.0 417.0,246.0 418.0,246.0 419.0,246.0 420.0,246.0 421.0,246.0 422.0,246.0 423.0,246.0 424.0,246.0 425.0,246.0 426.0,246.0 427.0,246.0 428.0,246.0 429.0,246.0 430.0,246.0 431.0,246.0 432.0,246.0 433.0,246.0 434.0,246.0 435.0,246.0 436.0,246.0 437.0,246.0 438.0,246.0 439.0,246.0 440.0,246.0 441.0,246.0 442.0,246.0 443.0,246.0 444.0,246.0 445.0,246.0 446.0,246.0 447.0,246.0 448.0,246.0 449.0,246.0 450.0,246.0 451.0,246.0 452.0,246.0 453.0,246.0 454.0,246.0 455.0,246.0 456.0,246.0 457.0,246.0 458.0,246.0 459.0,246.0 460.0,246.0 461.0,246.0 462.0,246.0 463.0,246.0 464.0,246.0 465.0,246.0 466.0,246.0 467.0,246.0 468.0,246.0 469.0,246.0 470.0,246.0 471.0,246.0 472.0,246.0 473.0,246.0 474.0,246.0 475.0,246.0 476.0,246.0 477.0,246.0 478.0,246.0 479.0,246.0 480.0,246.0 481.0,246.0 482.0,246.0 483.0,246.0 484.0,246.0 485.0,246.0 486.0,244.8 487.0,246.0 488.0,246.0 489.0,246.0 490.0,246.0 491.0,246.0 492.0,246.0 493.0,246.0 494.0,246.0 495.0,246.0 496.0,246.0 497.0,246.0 498.0,246.0 499.0,246.0 500.0,246.0 501.0,246.0 502.0,246.0 503.0,246.0 504.0,246.0 505.0,246.0 506.0,246.0 507.0,246.0 508.0,246.0 509.0,246.0 510.0,246.0 511.0,246.0 512.0,246.0 513.0,246.0 514.0,246.0 515.0,246.0 516.0,246.0 517.0,246.0 518.0,246.0 519.0,246.0 520.0,246.0 521.0,246.0 522.0,246.0 523.0,246.0 524.0,246.0 525.0,246.0 526.0,246.0 527.0,246.0 528.0,246.0 529.0,246.0 530.0,246.0 531.0,246.0 532.0,246.0 533.0,246.0 534.0,246.0 535.0,246.0 536.0,246.0 537.0,246.0 538.0,246.0 539.0,246.0 540.0,246.0 541.0,246.0 542.0,246.0 543.0,246.0 544.0,246.0 545.0,246.0 546.0,246.0 547.0,246.0 548.0,246.0 549.0,246.0 550.0,246.0 551.0,246.0 552.0,246.0 553.0,246.0 554.0,246.0 555.0,246.0 556.0,246.0 557.0,246.0 558.0,244.8 559.0,246.0 560.0,246.0 561.0,246.0 562.0,246.0 563.0,246.0 564.0,246.0 565.0,246.0 566.0,246.0 567.0,246.0 568.0,246.0 569.0,246.0 570.0,246.0 571.0,246.0 572.0,246.0 573.0,246.0 574.0,246.0 575.0,246.0 576.0,246.0 577.0,246.0 578.0,246.0 579.0,246.0 580.0,246.0 581.0,246.0 582.0,246.0 583.0,246.0 584.0,246.0 585.0,246.0 586.0,246.0 587.0,246.0 588.0,246.0 589.0,246.0 590.0,246.0 591.0,246.0 592.0,246.0 593.0,246.0 594.0,246.0 595.0,246.0 596.0,246.0 597.0,246.0 598.0,246.0 599.0,246.0 600.0,244.8 601.0,246.0 602.0,246.0 603.0,246.0 604.0,246.0 605.0,246.0 606.0,246.0 607.0,246.0 608.0,246.0 609.0,246.0 610.0,246.0 611.0,246.0 612.0,246.0 613.0,246.0 614.0,221.4 615.0,246.0 616.0,246.0 617.0,246.0 618.0,246.0 619.0,246.0 620.0,246.0 621.0,246.0 622.0,246.0 623.0,246.0 624.0,246.0 625.0,246.0 626.0,246.0 627.0,246.0 628.0,243.5 629.0,246.0 630.0,246.0 631.0,246.0 632.0,246.0 633.0,246.0 634.0,246.0 635.0,246.0 636.0,246.0 637.0,246.0 638.0,246.0 639.0,246.0 640.0,246.0 641.0,246.0 642.0,246.0 643.0,246.0 644.0,246.0 645.0,246.0 646.0,246.0 647.0,246.0 648.0,246.0 649.0,188.2 650.0,246.0 651.0,246.0 652.0,246.0 653.0,246.0 654.0,246.0 655.0,246.0 656.0,246.0 657.0,246.0 658.0,246.0 659.0,246.0 660.0,246.0 661.0,246.0 662.0,246.0 663.0,246.0 664.0,246.0 665.0,177.1 666.0,246.0 667.0,246.0 668.0,246.0 669.0,246.0 670.0,246.0 671.0,246.0 672.0,246.0 673.0,246.0 674.0,246.0 675.0,246.0 676.0,246.0 677.0,246.0 678.0,246.0 679.0,247.2 680.0,246.0 681.0,246.0 682.0,246.0 683.0,246.0 684.0,246.0 685.0,246.0 686.0,246.0 687.0,246.0 688.0,246.0 689.0,246.0 690.0,246.0 691.0,246.0 692.0,246.0 693.0,246.0 694.0,246.0 695.0,178.3 696.0,186.9 697.0,246.0 698.0,246.0 699.0,246.0 700.0,258.3 701.0,246.0 702.0,246.0 703.0,246.0 704.0,246.0 705.0,246.0 706.0,246.0 707.0,246.0 708.0,246.0 709.0,246.0 710.0,246.0 711.0,246.0 712.0,246.0 713.0,246.0 714.0,246.0 715.0,246.0 716.0,246.0 717.0,246.0 718.0,246.0 719.0,246.0 720.0,246.0 721.0,246.0 722.0,246.0 723.0,246.0 724.0,246.0 725.0,246.0 726.0,246.0 727.0,246.0 728.0,246.0 729.0,246.0 730.0,246.0 731.0,246.0 732.0,246.0 733.0,246.0 734.0,246.0 735.0,246.0 736.0,246.0 737.0,246.0 738.0,246.0 739.0,246.0 740.0,246.0 741.0,246.0 742.0,246.0 743.0,246.0 744.0,246.0 745.0,246.0 746.0,246.0 747.0,246.0 748.0,246.0 749.0,246.0 750.0,246.0 751.0,246.0 752.0,246.0 753.0,246.0 754.0,246.0 755.0,246.0 756.0,246.0 757.0,246.0 758.0,246.0 759.0,246.0 760.0,246.0 761.0,246.0 762.0,246.0 763.0,246.0 764.0,246.0 765.0,246.0 766.0,246.0 767.0,246.0 768.0,246.0 769.0,246.0 770.0,246.0 771.0,246.0 772.0,246.0 773.0,246.0 774.0,246.0 775.0,246.0 776.0,180.8 777.0,246.0 778.0,246.0 779.0,246.0 780.0,246.0 781.0,246.0 782.0,246.0 783.0,246.0 784.0,246.0 785.0,246.0 786.0,246.0 787.0,246.0 788.0,246.0 789.0,172.2 790.0,246.0 791.0,246.0 792.0,246.0 793.0,246.0 794.0,246.0 795.0,246.0 796.0,246.0 797.0,246.0 798.0,246.0 799.0,246.0 800.0,246.0 801.0,246.0 802.0,246.0 803.0,246.0 804.0,246.0 805.0,246.0 806.0,246.0 807.0,246.0 808.0,270.6 809.0,246.0 810.0,246.0 811.0,246.0 812.0,246.0 813.0,246.0 814.0,246.0 815.0,246.0 816.0,246.0 817.0,246.0 818.0,246.0 819.0,246.0 820.0,246.0 821.0,246.0 822.0,246.0 823.0,246.0 824.0,292.8 825.0,246.0 826.0,246.0 827.0,246.0 828.0,246.0 829.0,246.0 830.0,210.3 831.0,246.0 832.0,246.0 833.0,246.0 834.0,246.0 835.0,246.0 836.0,246.0 837.0,246.0 838.0,246.0 839.0,246.0 840.0,246.0 841.0,246.0 842.0,246.0 843.0,246.0 844.0,246.0 845.0,249.7 846.0,246.0 847.0,246.0 848.0,246.0 849.0,246.0 850.0,246.0 851.0,246.0 852.0,246.0 853.0,246.0 854.0,246.0 855.0,246.0 856.0,246.0 857.0,246.0 858.0,246.0 859.0,246.0 860.0,246.0 861.0,246.0 862.0,246.0 863.0,246.0 864.0,246.0 865.0,246.0 866.0,246.0 867.0,246.0 868.0,246.0 869.0,246.0 870.0,274.3 871.0,246.0 872.0,246.0 873.0,246.0 874.0,246.0 875.0,246.0 876.0,246.0 877.0,246.0 878.0,231.2 879.0,246.0 880.0,246.0 881.0,246.0 882.0,246.0 883.0,246.0 884.0,246.0 885.0,246.0 886.0,234.9 887.0,246.0 888.0,246.0 889.0,246.0 890.0,246.0 891.0,246.0 892.0,246.0 893.0,246.0 894.0,260.8 894.0,260.8 893.0,246.0 892.0,246.0 891.0,246.0 890.0,246.0 889.0,246.0 888.0,246.0 887.0,246.0 886.0,234.9 885.0,246.0 884.0,246.0 883.0,246.0 882.0,246.0 881.0,246.0 880.0,246.0 879.0,246.0 878.0,231.2 877.0,246.0 876.0,246.0 875.0,286.6 874.0,246.0 873.0,246.0 872.0,246.0 871.0,246.0 870.0,274.3 869.0,246.0 868.0,246.0 867.0,246.0 866.0,246.0 865.0,246.0 864.0,246.0 863.0,246.0 862.0,246.0 861.0,246.0 860.0,295.2 859.0,246.0 858.0,246.0 857.0,246.0 856.0,246.0 855.0,276.8 854.0,246.0 853.0,246.0 852.0,246.0 851.0,246.0 850.0,246.0 849.0,246.0 848.0,246.0 847.0,246.0 846.0,246.0 845.0,249.7 844.0,246.0 843.0,246.0 842.0,246.0 841.0,246.0 840.0,246.0 839.0,246.0 838.0,246.0 837.0,246.0 836.0,246.0 835.0,246.0 834.0,246.0 833.0,246.0 832.0,246.0 831.0,246.0 830.0,246.0 829.0,246.0 828.0,246.0 827.0,246.0 826.0,246.0 825.0,246.0 824.0,292.8 823.0,246.0 822.0,246.0 821.0,246.0 820.0,246.0 819.0,246.0 818.0,246.0 817.0,270.6 816.0,246.0 815.0,246.0 814.0,246.0 813.0,247.2 812.0,246.0 811.0,246.0 810.0,246.0 809.0,246.0 808.0,270.6 807.0,246.0 806.0,246.0 805.0,246.0 804.0,246.0 803.0,246.0 802.0,262.0 801.0,246.0 800.0,287.8 799.0,246.0 798.0,246.0 797.0,246.0 796.0,246.0 795.0,246.0 794.0,281.7 793.0,246.0 792.0,246.0 791.0,246.0 790.0,246.0 789.0,246.0 788.0,246.0 787.0,246.0 786.0,246.0 785.0,246.0 784.0,300.1 783.0,246.0 782.0,250.9 781.0,246.0 780.0,246.0 779.0,246.0 778.0,246.0 777.0,246.0 776.0,246.0 775.0,246.0 774.0,246.0 773.0,246.0 772.0,246.0 771.0,246.0 770.0,246.0 769.0,246.0 768.0,247.2 767.0,246.0 766.0,246.0 765.0,246.0 764.0,246.0 763.0,246.0 762.0,246.0 761.0,246.0 760.0,246.0 759.0,246.0 758.0,246.0 757.0,246.0 756.0,246.0 755.0,246.0 754.0,246.0 753.0,246.0 752.0,246.0 751.0,246.0 750.0,246.0 749.0,246.0 748.0,246.0 747.0,246.0 746.0,246.0 745.0,246.0 744.0,246.0 743.0,327.2 742.0,246.0 741.0,246.0 740.0,246.0 739.0,246.0 738.0,246.0 737.0,246.0 736.0,246.0 735.0,281.7 734.0,246.0 733.0,246.0 732.0,346.9 731.0,246.0 730.0,246.0 729.0,246.0 728.0,246.0 727.0,246.0 726.0,246.0 725.0,246.0 724.0,246.0 723.0,246.0 722.0,246.0 721.0,246.0 720.0,264.5 719.0,246.0 718.0,246.0 717.0,246.0 716.0,246.0 715.0,246.0 714.0,246.0 713.0,246.0 712.0,246.0 711.0,246.0 710.0,246.0 709.0,246.0 708.0,246.0 707.0,246.0 706.0,246.0 705.0,246.0 704.0,246.0 703.0,246.0 702.0,252.2 701.0,246.0 700.0,258.3 699.0,246.0 698.0,246.0 697.0,246.0 696.0,186.9 695.0,246.0 694.0,246.0 693.0,247.2 692.0,246.0 691.0,246.0 690.0,246.0 689.0,246.0 688.0,246.0 687.0,246.0 686.0,246.0 685.0,246.0 684.0,246.0 683.0,246.0 682.0,246.0 681.0,246.0 680.0,246.0 679.0,247.2 678.0,246.0 677.0,246.0 676.0,246.0 675.0,246.0 674.0,246.0 673.0,246.0 672.0,246.0 671.0,246.0 670.0,246.0 669.0,246.0 668.0,246.0 667.0,246.0 666.0,246.0 665.0,246.0 664.0,246.0 663.0,246.0 662.0,246.0 661.0,246.0 660.0,246.0 659.0,246.0 658.0,246.0 657.0,246.0 656.0,246.0 655.0,246.0 654.0,246.0 653.0,322.3 652.0,246.0 651.0,246.0 650.0,246.0 649.0,246.0 648.0,246.0 647.0,246.0 646.0,246.0 645.0,246.0 644.0,246.0 643.0,246.0 642.0,246.0 641.0,246.0 640.0,246.0 639.0,246.0 638.0,246.0 637.0,246.0 636.0,275.5 635.0,246.0 634.0,246.0 633.0,246.0 632.0,246.0 631.0,246.0 630.0,246.0 629.0,246.0 628.0,246.0 627.0,246.0 626.0,246.0 625.0,246.0 624.0,246.0 623.0,246.0 622.0,246.0 621.0,246.0 620.0,246.0 619.0,322.3 618.0,246.0 617.0,246.0 616.0,246.0 615.0,246.0 614.0,268.1 613.0,246.0 612.0,246.0 611.0,246.0 610.0,247.2 609.0,246.0 608.0,246.0 607.0,246.0 606.0,246.0 605.0,246.0 604.0,246.0 603.0,246.0 602.0,246.0 601.0,246.0 600.0,246.0 599.0,246.0 598.0,246.0 597.0,246.0 596.0,246.0 595.0,246.0 594.0,246.0 593.0,246.0 592.0,246.0 591.0,246.0 590.0,291.5 589.0,246.0 588.0,246.0 587.0,246.0 586.0,246.0 585.0,246.0 584.0,246.0 583.0,246.0 582.0,246.0 581.0,246.0 580.0,246.0 579.0,246.0 578.0,246.0 577.0,246.0 576.0,246.0 575.0,246.0 574.0,246.0 573.0,246.0 572.0,246.0 571.0,246.0 570.0,246.0 569.0,246.0 568.0,246.0 567.0,246.0 566.0,246.0 565.0,246.0 564.0,246.0 563.0,246.0 562.0,246.0 561.0,246.0 560.0,246.0 559.0,246.0 558.0,246.0 557.0,246.0 556.0,376.4 555.0,246.0 554.0,246.0 553.0,246.0 552.0,246.0 551.0,246.0 550.0,246.0 549.0,246.0 548.0,246.0 547.0,246.0 546.0,275.5 545.0,246.0 544.0,246.0 543.0,246.0 542.0,246.0 541.0,246.0 540.0,246.0 539.0,246.0 538.0,246.0 537.0,246.0 536.0,246.0 535.0,246.0 534.0,246.0 533.0,246.0 532.0,246.0 531.0,246.0 530.0,246.0 529.0,246.0 528.0,265.7 527.0,246.0 526.0,246.0 525.0,246.0 524.0,246.0 523.0,246.0 522.0,246.0 521.0,246.0 520.0,246.0 519.0,246.0 518.0,246.0 517.0,246.0 516.0,246.0 515.0,246.0 514.0,246.0 513.0,246.0 512.0,246.0 511.0,246.0 510.0,246.0 509.0,246.0 508.0,246.0 507.0,246.0 506.0,246.0 505.0,246.0 504.0,246.0 503.0,246.0 502.0,246.0 501.0,246.0 500.0,246.0 499.0,246.0 498.0,246.0 497.0,246.0 496.0,246.0 495.0,246.0 494.0,246.0 493.0,246.0 492.0,246.0 491.0,246.0 490.0,246.0 489.0,246.0 488.0,246.0 487.0,246.0 486.0,246.0 485.0,246.0 484.0,246.0 483.0,246.0 482.0,246.0 481.0,246.0 480.0,246.0 479.0,246.0 478.0,246.0 477.0,246.0 476.0,246.0 475.0,246.0 474.0,246.0 473.0,246.0 472.0,246.0 471.0,246.0 470.0,246.0 469.0,246.0 468.0,246.0 467.0,246.0 466.0,246.0 465.0,246.0 464.0,246.0 463.0,246.0 462.0,246.0 461.0,246.0 460.0,246.0 459.0,246.0 458.0,246.0 457.0,246.0 456.0,246.0 455.0,246.0 454.0,246.0 453.0,246.0 452.0,246.0 451.0,246.0 450.0,246.0 449.0,246.0 448.0,246.0 447.0,246.0 446.0,246.0 445.0,246.0 444.0,246.0 443.0,246.0 442.0,247.2 441.0,246.0 440.0,246.0 439.0,246.0 438.0,246.0 437.0,246.0 436.0,246.0 435.0,246.0 434.0,246.0 433.0,246.0 432.0,246.0 431.0,246.0 430.0,246.0 429.0,246.0 428.0,246.0 427.0,246.0 426.0,246.0 425.0,246.0 424.0,246.0 423.0,246.0 422.0,246.0 421.0,246.0 420.0,246.0 419.0,246.0 418.0,246.0 417.0,246.0 416.0,246.0 415.0,246.0 414.0,246.0 413.0,246.0 412.0,246.0 411.0,246.0 410.0,246.0 409.0,246.0 408.0,246.0 407.0,246.0 406.0,246.0 405.0,246.0 404.0,246.0 403.0,259.5 402.0,246.0 401.0,246.0 400.0,246.0 399.0,246.0 398.0,246.0 397.0,246.0 396.0,246.0 395.0,246.0 394.0,246.0 393.0,291.5 392.0,246.0 391.0,246.0 390.0,246.0 389.0,246.0 388.0,246.0 387.0,262.0 386.0,246.0 385.0,246.0 384.0,246.0 383.0,246.0 382.0,246.0 381.0,246.0 380.0,246.0 379.0,246.0 378.0,287.8 377.0,270.6 376.0,246.0 375.0,246.0 374.0,246.0 373.0,246.0 372.0,246.0 371.0,246.0 370.0,250.9 369.0,246.0 368.0,246.0 367.0,246.0 366.0,246.0 365.0,246.0 364.0,246.0 363.0,246.0 362.0,246.0 361.0,246.0 360.0,246.0 359.0,246.0 358.0,246.0 357.0,246.0 356.0,246.0 355.0,246.0 354.0,246.0 353.0,246.0 352.0,246.0 351.0,246.0 350.0,246.0 349.0,246.0 348.0,246.0 347.0,246.0 346.0,246.0 345.0,246.0 344.0,246.0 343.0,246.0 342.0,246.0 341.0,246.0 340.0,246.0 339.0,246.0 338.0,246.0 337.0,246.0 336.0,246.0 335.0,246.0 334.0,246.0 333.0,246.0 332.0,246.0 331.0,258.3 330.0,254.6 329.0,246.0 328.0,246.0 327.0,246.0 326.0,246.0 325.0,246.0 324.0,246.0 323.0,246.0 322.0,246.0 321.0,246.0 320.0,246.0 319.0,246.0 318.0,246.0 317.0,246.0 316.0,246.0 315.0,246.0 314.0,246.0 313.0,246.0 312.0,246.0 311.0,246.0 310.0,246.0 309.0,246.0 308.0,246.0 307.0,246.0 306.0,246.0 305.0,246.0 304.0,246.0 303.0,246.0 302.0,246.0 301.0,246.0 300.0,246.0 299.0,246.0 298.0,246.0 297.0,246.0 296.0,246.0 295.0,246.0 294.0,246.0 293.0,246.0 292.0,246.0 291.0,246.0 290.0,246.0 289.0,246.0 288.0,246.0 287.0,246.0 286.0,246.0 285.0,246.0 284.0,246.0 283.0,246.0 282.0,246.0 281.0,246.0 280.0,246.0 279.0,246.0 278.0,246.0 277.0,246.0 276.0,246.0 275.0,246.0 274.0,246.0 273.0,246.0 272.0,246.0 271.0,246.0 270.0,246.0 269.0,246.0 268.0,246.0 267.0,246.0 266.0,246.0 265.0,246.0 264.0,246.0 263.0,246.0 262.0,246.0 261.0,246.0 260.0,246.0 259.0,246.0 258.0,246.0 257.0,246.0 256.0,285.4 255.0,246.0 254.0,246.0 253.0,246.0 252.0,246.0 251.0,246.0 250.0,246.0 249.0,246.0 248.0,246.0 247.0,246.0 246.0,246.0 245.0,246.0 244.0,252.2 243.0,246.0 242.0,246.0 241.0,246.0 240.0,246.0 239.0,246.0 238.0,246.0 237.0,246.0 236.0,246.0 235.0,246.0 234.0,246.0 233.0,246.0 232.0,246.0 231.0,246.0 230.0,246.0 229.0,246.0 228.0,246.0 227.0,246.0 226.0,246.0 225.0,246.0 224.0,246.0 223.0,246.0 222.0,246.0 221.0,246.0 220.0,246.0 219.0,246.0 218.0,246.0 217.0,246.0 216.0,246.0 215.0,246.0 214.0,246.0 213.0,246.0 212.0,246.0 211.0,246.0 210.0,246.0 209.0,246.0 208.0,246.0 207.0,246.0 206.0,246.0 205.0,246.0 204.0,246.0 203.0,246.0 202.0,246.0 201.0,246.0 200.0,246.0 199.0,246.0 198.0,246.0 197.0,246.0 196.0,246.0 195.0,246.0 194.0,246.0 193.0,246.0 192.0,246.0 191.0,246.0 190.0,246.0 189.0,246.0 188.0,246.0 187.0,246.0 186.0,246.0 185.0,246.0 184.0,246.0 183.0,246.0 182.0,246.0 181.0,246.0 180.0,246.0 179.0,246.0 178.0,246.0 177.0,246.0 176.0,317.4 175.0,246.0 174.0,246.0 173.0,246.0 172.0,246.0 171.0,246.0 170.0,246.0 169.0,246.0 168.0,246.0 167.0,246.0 166.0,246.0 165.0,246.0 164.0,246.0 163.0,246.0 162.0,243.5 161.0,246.0 160.0,246.0 159.0,246.0 158.0,246.0 157.0,246.0 156.0,246.0 155.0,246.0 154.0,246.0 153.0,246.0 152.0,246.0 151.0,246.0 150.0,246.0 149.0,246.0 148.0,246.0 147.0,246.0 146.0,246.0 145.0,246.0 144.0,246.0 143.0,246.0 142.0,246.0 141.0,246.0 140.0,246.0 139.0,246.0 138.0,246.0 137.0,246.0 136.0,246.0 135.0,246.0 134.0,246.0 133.0,246.0 132.0,246.0 131.0,246.0 130.0,246.0 129.0,246.0 128.0,246.0 127.0,246.0 126.0,246.0 125.0,246.0 124.0,246.0 123.0,246.0 122.0,246.0 121.0,246.0 120.0,246.0 119.0,246.0 118.0,246.0 117.0,246.0 116.0,246.0 115.0,246.0 114.0,246.0 113.0,246.0 112.0,246.0 111.0,246.0 110.0,246.0 109.0,246.0 108.0,246.0 107.0,246.0 106.0,246.0 105.0,246.0 104.0,246.0 103.0,246.0 102.0,246.0 101.0,246.0 100.0,246.0 99.0,246.0 98.0,246.0 97.0,246.0 96.0,246.0 95.0,246.0 94.0,246.0 93.0,246.0 92.0,246.0 91.0,246.0 90.0,246.0 89.0,246.0 88.0,246.0 87.0,250.9 86.0,246.0 85.0,246.0 84.0,246.0 83.0,246.0 82.0,246.0 81.0,246.0 80.0,246.0 79.0,246.0 78.0,246.0 77.0,246.0 76.0,246.0" fill="#199e70" fill-opacity="0.35"/>
<polyline points="76.0,246.0 77.0,246.0 78.0,246.0 79.0,246.0 80.0,246.0 81.0,246.0 82.0,246.0 83.0,246.0 84.0,246.0 85.0,246.0 86.0,246.0 87.0,246.0 88.0,246.0 89.0,246.0 90.0,246.0 91.0,246.0 92.0,246.0 93.0,246.0 94.0,202.9 95.0,246.0 96.0,246.0 97.0,246.0 98.0,246.0 99.0,246.0 100.0,246.0 101.0,246.0 102.0,246.0 103.0,246.0 104.0,246.0 105.0,246.0 106.0,246.0 107.0,246.0 108.0,246.0 109.0,246.0 110.0,246.0 111.0,246.0 112.0,246.0 113.0,246.0 114.0,246.0 115.0,246.0 116.0,246.0 117.0,246.0 118.0,246.0 119.0,246.0 120.0,246.0 121.0,246.0 122.0,246.0 123.0,246.0 124.0,246.0 125.0,246.0 126.0,246.0 127.0,246.0 128.0,246.0 129.0,246.0 130.0,246.0 131.0,246.0 132.0,246.0 133.0,246.0 134.0,246.0 135.0,246.0 136.0,246.0 137.0,246.0 138.0,246.0 139.0,246.0 140.0,246.0 141.0,246.0 142.0,246.0 143.0,246.0 144.0,246.0 145.0,246.0 146.0,246.0 147.0,246.0 148.0,246.0 149.0,246.0 150.0,246.0 151.0,246.0 152.0,246.0 153.0,246.0 154.0,246.0 155.0,246.0 156.0,246.0 157.0,246.0 158.0,246.0 159.0,246.0 160.0,246.0 161.0,246.0 162.0,243.5 163.0,246.0 164.0,246.0 165.0,246.0 166.0,246.0 167.0,246.0 168.0,246.0 169.0,246.0 170.0,246.0 171.0,246.0 172.0,246.0 173.0,246.0 174.0,246.0 175.0,246.0 176.0,246.0 177.0,246.0 178.0,246.0 179.0,246.0 180.0,246.0 181.0,246.0 182.0,246.0 183.0,246.0 184.0,246.0 185.0,246.0 186.0,246.0 187.0,246.0 188.0,246.0 189.0,246.0 190.0,246.0 191.0,246.0 192.0,246.0 193.0,246.0 194.0,246.0 195.0,246.0 196.0,246.0 197.0,246.0 198.0,246.0 199.0,246.0 200.0,246.0 201.0,246.0 202.0,246.0 203.0,246.0 204.0,246.0 205.0,246.0 206.0,246.0 207.0,246.0 208.0,246.0 209.0,246.0 210.0,246.0 211.0,246.0 212.0,246.0 213.0,246.0 214.0,246.0 215.0,246.0 216.0,246.0 217.0,246.0 218.0,246.0 219.0,246.0 220.0,246.0 221.0,246.0 222.0,246.0 223.0,246.0 224.0,246.0 225.0,246.0 226.0,246.0 227.0,246.0 228.0,246.0 229.0,246.0 230.0,246.0 231.0,246.0 232.0,246.0 233.0,246.0 234.0,246.0 235.0,246.0 236.0,246.0 237.0,246.0 238.0,246.0 239.0,246.0 240.0,246.0 241.0,246.0 242.0,233.7 243.0,246.0 244.0,246.0 245.0,246.0 246.0,246.0 247.0,246.0 248.0,246.0 249.0,246.0 250.0,246.0 251.0,246.0 252.0,246.0 253.0,246.0 254.0,246.0 255.0,246.0 256.0,285.4 257.0,246.0 258.0,246.0 259.0,246.0 260.0,246.0 261.0,246.0 262.0,246.0 263.0,246.0 264.0,246.0 265.0,246.0 266.0,246.0 267.0,246.0 268.0,246.0 269.0,246.0 270.0,246.0 271.0,246.0 272.0,246.0 273.0,246.0 274.0,246.0 275.0,246.0 276.0,246.0 277.0,246.0 278.0,246.0 279.0,246.0 280.0,246.0 281.0,246.0 282.0,246.0 283.0,242.3 284.0,246.0 285.0,246.0 286.0,246.0 287.0,246.0 288.0,246.0 289.0,246.0 290.0,246.0 291.0,246.0 292.0,246.0 293.0,246.0 294.0,246.0 295.0,246.0 296.0,246.0 297.0,246.0 298.0,246.0 299.0,246.0 300.0,246.0 301.0,246.0 302.0,246.0 303.0,246.0 304.0,246.0 305.0,246.0 306.0,246.0 307.0,246.0 308.0,246.0 309.0,246.0 310.0,246.0 311.0,246.0 312.0,246.0 313.0,246.0 314.0,246.0 315.0,246.0 316.0,246.0 317.0,246.0 318.0,246.0 319.0,246.0 320.0,246.0 321.0,246.0 322.0,246.0 323.0,246.0 324.0,246.0 325.0,246.0 326.0,246.0 327.0,246.0 328.0,246.0 329.0,246.0 330.0,246.0 331.0,246.0 332.0,246.0 333.0,246.0 334.0,246.0 335.0,246.0 336.0,246.0 337.0,246.0 338.0,246.0 339.0,246.0 340.0,246.0 341.0,246.0 342.0,246.0 343.0,246.0 344.0,246.0 345.0,246.0 346.0,246.0 347.0,246.0 348.0,246.0 349.0,246.0 350.0,246.0 351.0,246.0 352.0,246.0 353.0,246.0 354.0,246.0 355.0,246.0 356.0,246.0 357.0,246.0 358.0,246.0 359.0,246.0 360.0,246.0 361.0,246.0 362.0,246.0 363.0,246.0 364.0,246.0 365.0,246.0 366.0,246.0 367.0,246.0 368.0,246.0 369.0,246.0 370.0,250.9 371.0,246.0 372.0,246.0 373.0,246.0 374.0,246.0 375.0,246.0 376.0,246.0 377.0,270.6 378.0,246.0 379.0,246.0 380.0,246.0 381.0,246.0 382.0,246.0 383.0,246.0 384.0,246.0 385.0,246.0 386.0,246.0 387.0,246.0 388.0,246.0 389.0,246.0 390.0,246.0 391.0,246.0 392.0,246.0 393.0,291.5 394.0,246.0 395.0,246.0 396.0,246.0 397.0,246.0 398.0,246.0 399.0,246.0 400.0,246.0 401.0,246.0 402.0,246.0 403.0,259.5 404.0,246.0 405.0,246.0 406.0,246.0 407.0,246.0 408.0,246.0 409.0,246.0 410.0,246.0 411.0,246.0 412.0,246.0 413.0,246.0 414.0,246.0 415.0,246.0 416.0,246.0 417.0,246.0 418.0,246.0 419.0,246.0 420.0,246.0 421.0,246.0 422.0,246.0 423.0,246.0 424.0,246.0 425.0,246.0 426.0,246.0 427.0,246.0 428.0,246.0 429.0,246.0 430.0,246.0 431.0,246.0 432.0,246.0 433.0,246.0 434.0,246.0 435.0,246.0 436.0,246.0 437.0,246.0 438.0,246.0 439.0,246.0 440.0,246.0 441.0,246.0 442.0,246.0 443.0,246.0 444.0,246.0 445.0,246.0 446.0,246.0 447.0,246.0 448.0,246.0 449.0,246.0 450.0,246.0 451.0,246.0 452.0,246.0 453.0,246.0 454.0,246.0 455.0,246.0 456.0,246.0 457.0,246.0 458.0,246.0 459.0,246.0 460.0,246.0 461.0,246.0 462.0,246.0 463.0,246.0 464.0,246.0 465.0,246.0 466.0,246.0 467.0,246.0 468.0,246.0 469.0,246.0 470.0,246.0 471.0,246.0 472.0,246.0 473.0,246.0 474.0,246.0 475.0,246.0 476.0,246.0 477.0,246.0 478.0,246.0 479.0,246.0 480.0,246.0 481.0,246.0 482.0,246.0 483.0,246.0 484.0,246.0 485.0,246.0 486.0,246.0 487.0,246.0 488.0,246.0 489.0,246.0 490.0,246.0 491.0,246.0 492.0,246.0 493.0,246.0 494.0,246.0 495.0,246.0 496.0,246.0 497.0,246.0 498.0,246.0 499.0,246.0 500.0,246.0 501.0,246.0 502.0,246.0 503.0,246.0 504.0,246.0 505.0,246.0 506.0,246.0 507.0,246.0 508.0,246.0 509.0,246.0 510.0,246.0 511.0,246.0 512.0,246.0 513.0,246.0 514.0,246.0 515.0,246.0 516.0,246.0 517.0,246.0 518.0,246.0 519.0,246.0 520.0,246.0 521.0,246.0 522.0,246.0 523.0,246.0 524.0,246.0 525.0,246.0 526.0,246.0 527.0,246.0 528.0,265.7 529.0,246.0 530.0,246.0 531.0,246.0 532.0,246.0 533.0,246.0 534.0,246.0 535.0,246.0 536.0,246.0 537.0,246.0 538.0,246.0 539.0,246.0 540.0,246.0 541.0,246.0 542.0,246.0 543.0,246.0 544.0,246.0 545.0,246.0 546.0,275.5 547.0,246.0 548.0,246.0 549.0,246.0 550.0,246.0 551.0,246.0 552.0,246.0 553.0,246.0 554.0,246.0 555.0,246.0 556.0,376.4 557.0,246.0 558.0,246.0 559.0,246.0 560.0,246.0 561.0,246.0 562.0,246.0 563.0,246.0 564.0,246.0 565.0,246.0 566.0,246.0 567.0,246.0 568.0,246.0 569.0,246.0 570.0,246.0 571.0,246.0 572.0,246.0 573.0,246.0 574.0,246.0 575.0,246.0 576.0,246.0 577.0,246.0 578.0,246.0 579.0,246.0 580.0,246.0 581.0,246.0 582.0,246.0 583.0,246.0 584.0,246.0 585.0,246.0 586.0,246.0 587.0,246.0 588.0,246.0 589.0,246.0 590.0,246.0 591.0,246.0 592.0,246.0 593.0,246.0 594.0,246.0 595.0,246.0 596.0,246.0 597.0,246.0 598.0,246.0 599.0,246.0 600.0,246.0 601.0,246.0 602.0,246.0 603.0,246.0 604.0,246.0 605.0,246.0 606.0,246.0 607.0,246.0 608.0,246.0 609.0,246.0 610.0,246.0 611.0,246.0 612.0,246.0 613.0,246.0 614.0,221.4 615.0,246.0 616.0,246.0 617.0,246.0 618.0,246.0 619.0,322.3 620.0,246.0 621.0,246.0 622.0,246.0 623.0,246.0 624.0,246.0 625.0,246.0 626.0,246.0 627.0,246.0 628.0,243.5 629.0,246.0 630.0,246.0 631.0,246.0 632.0,246.0 633.0,246.0 634.0,246.0 635.0,246.0 636.0,246.0 637.0,246.0 638.0,246.0 639.0,246.0 640.0,246.0 641.0,246.0 642.0,246.0 643.0,246.0 644.0,246.0 645.0,246.0 646.0,246.0 647.0,246.0 648.0,246.0 649.0,188.2 650.0,246.0 651.0,246.0 652.0,246.0 653.0,322.3 654.0,246.0 655.0,246.0 656.0,246.0 657.0,246.0 658.0,246.0 659.0,246.0 660.0,246.0 661.0,246.0 662.0,246.0 663.0,246.0 664.0,246.0 665.0,246.0 666.0,246.0 667.0,246.0 668.0,246.0 669.0,246.0 670.0,246.0 671.0,246.0 672.0,246.0 673.0,246.0 674.0,246.0 675.0,246.0 676.0,246.0 677.0,246.0 678.0,246.0 679.0,247.2 680.0,246.0 681.0,246.0 682.0,246.0 683.0,246.0 684.0,246.0 685.0,246.0 686.0,246.0 687.0,246.0 688.0,246.0 689.0,246.0 690.0,246.0 691.0,246.0 692.0,246.0 693.0,246.0 694.0,246.0 695.0,178.3 696.0,186.9 697.0,246.0 698.0,246.0 699.0,246.0 700.0,258.3 701.0,246.0 702.0,252.2 703.0,246.0 704.0,246.0 705.0,246.0 706.0,246.0 707.0,246.0 708.0,246.0 709.0,246.0 710.0,246.0 711.0,246.0 712.0,246.0 713.0,246.0 714.0,246.0 715.0,246.0 716.0,246.0 717.0,246.0 718.0,246.0 719.0,246.0 720.0,246.0 721.0,246.0 722.0,246.0 723.0,246.0 724.0,246.0 725.0,246.0 726.0,246.0 727.0,246.0 728.0,246.0 729.0,246.0 730.0,246.0 731.0,246.0 732.0,346.9 733.0,246.0 734.0,246.0 735.0,246.0 736.0,246.0 737.0,246.0 738.0,246.0 739.0,246.0 740.0,246.0 741.0,246.0 742.0,246.0 743.0,246.0 744.0,246.0 745.0,246.0 746.0,246.0 747.0,246.0 748.0,246.0 749.0,246.0 750.0,246.0 751.0,246.0 752.0,246.0 753.0,246.0 754.0,246.0 755.0,246.0 756.0,246.0 757.0,246.0 758.0,246.0 759.0,246.0 760.0,246.0 761.0,246.0 762.0,246.0 763.0,246.0 764.0,246.0 765.0,246.0 766.0,246.0 767.0,246.0 768.0,246.0 769.0,246.0 770.0,246.0 771.0,246.0 772.0,246.0 773.0,246.0 774.0,246.0 775.0,246.0 776.0,246.0 777.0,246.0 778.0,246.0 779.0,246.0 780.0,246.0 781.0,246.0 782.0,250.9 783.0,246.0 784.0,246.0 785.0,246.0 786.0,246.0 787.0,246.0 788.0,246.0 789.0,172.2 790.0,246.0 791.0,246.0 792.0,246.0 793.0,246.0 794.0,246.0 795.0,246.0 796.0,246.0 797.0,246.0 798.0,246.0 799.0,246.0 800.0,246.0 801.0,246.0 802.0,262.0 803.0,246.0 804.0,246.0 805.0,246.0 806.0,246.0 807.0,246.0 808.0,270.6 809.0,246.0 810.0,246.0 811.0,246.0 812.0,246.0 813.0,247.2 814.0,246.0 815.0,246.0 816.0,246.0 817.0,270.6 818.0,246.0 819.0,246.0 820.0,246.0 821.0,246.0 822.0,246.0 823.0,246.0 824.0,292.8 825.0,246.0 826.0,246.0 827.0,246.0 828.0,246.0 829.0,246.0 830.0,210.3 831.0,246.0 832.0,246.0 833.0,246.0 834.0,246.0 835.0,246.0 836.0,246.0 837.0,246.0 838.0,246.0 839.0,246.0 840.0,246.0 841.0,246.0 842.0,246.0 843.0,246.0 844.0,246.0 845.0,249.7 846.0,246.0 847.0,246.0 848.0,246.0 849.0,246.0 850.0,246.0 851.0,246.0 852.0,246.0 853.0,246.0 854.0,246.0 855.0,276.8 856.0,246.0 857.0,246.0 858.0,246.0 859.0,246.0 860.0,246.0 861.0,246.0 862.0,246.0 863.0,246.0 864.0,246.0 865.0,246.0 866.0,246.0 867.0,246.0 868.0,246.0 869.0,246.0 870.0,274.3 871.0,246.0 872.0,246.0 873.0,246.0 874.0,246.0 875.0,246.0 876.0,246.0 877.0,246.0 878.0,231.2 879.0,246.0 880.0,246.0 881.0,246.0 882.0,246.0 883.0,246.0 884.0,246.0 885.0,246.0 886.0,234.9 887.0,246.0 888.0,246.0 889.0,246.0 890.0,246.0 891.0,246.0 892.0,246.0 893.0,246.0 894.0,260.8" fill="none" stroke="#199e70" stroke-width="1.0"/>
<text x="76.0" y="452" font-size="12" fill="#c3c2b7" text-anchor="start">Écart maximal : 11 $ — moyenne des écarts absolus : 0,1 $.</text>
<text x="76.0" y="418" font-size="11" fill="#898781" text-anchor="middle">00:00</text>
<text x="212.7" y="418" font-size="11" fill="#898781" text-anchor="middle">04:00</text>
<text x="349.3" y="418" font-size="11" fill="#898781" text-anchor="middle">08:00</text>
<text x="486.0" y="418" font-size="11" fill="#898781" text-anchor="middle">12:00</text>
<text x="622.7" y="418" font-size="11" fill="#898781" text-anchor="middle">16:00</text>
<text x="759.3" y="418" font-size="11" fill="#898781" text-anchor="middle">20:00</text>
<text x="896.0" y="418" font-size="11" fill="#898781" text-anchor="middle">24:00</text>
</svg>
