<svg xmlns="http://www.w3.org/2000/svg" viewBox="0 0 920 520" font-family="system-ui,-apple-system,'Segoe UI',sans-serif" role="img" aria-label="L’historique complet KuCoin par les deux voies, superposées">
<rect width="920" height="520" fill="#0d1117"/>
<text x="76" y="34" font-size="19" fill="#ffffff" text-anchor="start" font-weight="600">Quarante jours, deux historiques superposés</text>
<text x="76" y="56" font-size="12.5" fill="#c3c2b7" text-anchor="start">BTCUSDT perpétuel KuCoin, 1er juin → 10 juil. 2026 (UTC) — bande high-low et clôture de chaque minute, voie B tracée par-dessus la voie A</text>
<rect x="76" y="70" width="10" height="10" rx="2" fill="#3987e5"/>
<text x="92" y="79" font-size="12" fill="#ffffff" text-anchor="start">voie A — archives officielles</text>
<rect x="360" y="70" width="10" height="10" rx="2" fill="#199e70"/>
<text x="376" y="79" font-size="12" fill="#ffffff" text-anchor="start">voie B — chandelles 1 m Quantower</text>
<line x1="76.0" y1="382.2" x2="896.0" y2="382.2" stroke="#21262d"/>
<text x="68.0" y="386.2" font-size="11" fill="#898781" text-anchor="end">60 000</text>
<line x1="76.0" y1="286.2" x2="896.0" y2="286.2" stroke="#21262d"/>
<text x="68.0" y="290.2" font-size="11" fill="#898781" text-anchor="end">65 000</text>
<line x1="76.0" y1="190.3" x2="896.0" y2="190.3" stroke="#21262d"/>
<text x="68.0" y="194.3" font-size="11" fill="#898781" text-anchor="end">70 000</text>
<polygon points="76.0,111.6 77.0,120.1 78.0,113.1 79.0,113.8 80.0,121.4 81.0,124.4 82.0,128.9 83.0,132.1 84.0,130.8 85.0,136.5 86.0,137.2 87.0,147.3 88.0,154.0 89.0,160.8 90.0,156.1 91.0,155.6 92.0,158.3 93.0,157.7 94.0,164.2 95.0,161.9 96.0,159.9 97.0,163.8 98.0,172.3 99.0,170.3 100.0,170.1 101.0,175.5 102.0,182.0 103.0,185.7 104.0,193.2 105.0,194.9 106.0,197.7 107.0,201.1 108.0,207.4 109.0,223.3 110.0,225.6 111.0,231.6 112.0,235.2 113.0,238.3 114.0,230.2 115.0,233.6 116.0,250.1 117.0,244.0 118.0,246.9 119.0,250.7 120.0,255.4 121.0,240.3 122.0,238.1 123.0,241.6 124.0,243.4 125.0,238.7 126.0,239.9 127.0,244.4 128.0,243.1 129.0,247.9 130.0,253.8 131.0,263.4 132.0,263.3 133.0,264.4 134.0,274.5 135.0,269.8 136.0,280.8 137.0,293.4 138.0,312.1 139.0,312.6 140.0,293.5 141.0,290.8 142.0,296.1 143.0,296.9 144.0,304.6 145.0,310.2 146.0,321.8 147.0,319.9 148.0,306.1 149.0,295.9 150.0,297.6 151.0,305.4 152.0,310.8 153.0,303.3 154.0,302.3 155.0,307.8 156.0,311.4 157.0,307.0 158.0,305.8 159.0,313.7 160.0,325.4 161.0,319.9 162.0,311.3 163.0,331.5 164.0,322.3 165.0,319.1 166.0,322.2 167.0,330.1 168.0,335.0 169.0,337.5 170.0,359.3 171.0,352.4 172.0,353.3 173.0,362.9 174.0,373.3 175.0,344.0 176.0,343.8 177.0,344.3 178.0,353.0 179.0,355.7 180.0,359.5 181.0,364.1 182.0,362.4 183.0,357.8 184.0,358.7 185.0,353.5 186.0,354.9 187.0,366.8 188.0,361.2 189.0,359.5 190.0,362.1 191.0,363.0 192.0,363.7 193.0,366.9 194.0,367.2 195.0,368.9 196.0,363.0 197.0,365.6 198.0,364.2 199.0,350.9 200.0,350.1 201.0,348.1 202.0,346.2 203.0,340.4 204.0,338.6 205.0,335.3 206.0,324.9 207.0,331.5 208.0,329.2 209.0,330.9 210.0,345.6 211.0,337.6 212.0,337.5 213.0,337.6 214.0,338.2 215.0,341.0 216.0,343.8 217.0,299.9 218.0,317.0 219.0,307.9 220.0,309.5 221.0,319.7 222.0,315.8 223.0,324.3 224.0,321.9 225.0,318.0 226.0,318.0 227.0,313.5 228.0,313.7 229.0,307.8 230.0,306.2 231.0,306.5 232.0,301.5 233.0,304.6 234.0,312.2 235.0,311.4 236.0,313.9 237.0,308.1 238.0,309.4 239.0,313.2 240.0,321.1 241.0,327.0 242.0,325.2 243.0,316.5 244.0,314.7 245.0,314.9 246.0,317.5 247.0,324.3 248.0,328.6 249.0,327.7 250.0,326.7 251.0,330.7 252.0,345.9 253.0,354.8 254.0,345.9 255.0,344.3 256.0,341.4 257.0,338.5 258.0,344.5 259.0,344.4 260.0,345.9 261.0,344.4 262.0,347.1 263.0,351.7 264.0,353.1 265.0,353.8 266.0,347.8 267.0,348.4 268.0,354.7 269.0,354.3 270.0,344.5 271.0,336.6 272.0,335.2 273.0,327.3 274.0,332.1 275.0,340.2 276.0,343.4 277.0,342.6 278.0,347.0 279.0,352.0 280.0,344.2 281.0,339.4 282.0,336.8 283.0,333.1 284.0,327.4 285.0,329.9 286.0,321.7 287.0,325.7 288.0,323.5 289.0,325.0 290.0,319.8 291.0,320.9 292.0,320.1 293.0,323.4 294.0,326.9 295.0,312.7 296.0,309.6 297.0,306.8 298.0,313.1 299.0,311.7 300.0,310.8 301.0,309.3 302.0,310.8 303.0,309.5 304.0,309.9 305.0,308.1 306.0,315.9 307.0,320.8 308.0,312.8 309.0,306.3 310.0,307.8 311.0,307.9 312.0,314.3 313.0,305.4 314.0,298.0 315.0,303.2 316.0,306.8 317.0,307.1 318.0,310.5 319.0,312.5 320.0,311.9 321.0,313.0 322.0,311.1 323.0,308.4 324.0,310.8 325.0,312.2 326.0,312.8 327.0,310.3 328.0,307.5 329.0,307.1 330.0,307.3 331.0,306.1 332.0,301.3 333.0,300.7 334.0,299.3 335.0,299.0 336.0,302.3 337.0,300.0 338.0,299.1 339.0,299.4 340.0,290.8 341.0,294.0 342.0,294.4 343.0,291.7 344.0,293.3 345.0,294.7 346.0,296.5 347.0,296.1 348.0,296.9 349.0,295.5 350.0,293.5 351.0,292.6 352.0,293.2 353.0,297.8 354.0,299.0 355.0,302.7 356.0,301.4 357.0,306.0 358.0,308.1 359.0,303.5 360.0,273.2 361.0,274.4 362.0,268.6 363.0,271.4 364.0,271.4 365.0,267.2 366.0,267.8 367.0,268.5 368.0,267.0 369.0,267.4 370.0,271.1 371.0,267.8 372.0,259.6 373.0,251.7 374.0,249.0 375.0,250.9 376.0,242.5 377.0,244.2 378.0,249.4 379.0,250.3 380.0,254.3 381.0,258.2 382.0,260.1 383.0,258.6 384.0,259.4 385.0,264.1 386.0,261.9 387.0,265.0 388.0,256.2 389.0,257.1 390.0,248.1 391.0,252.2 392.0,253.6 393.0,251.4 394.0,257.4 395.0,262.0 396.0,266.9 397.0,269.5 398.0,262.2 399.0,268.4 400.0,269.4 401.0,268.2 402.0,269.2 403.0,270.7 404.0,270.0 405.0,264.5 406.0,268.8 407.0,266.2 408.0,268.4 409.0,269.3 410.0,274.9 411.0,284.7 412.0,286.4 413.0,288.7 414.0,284.0 415.0,277.5 416.0,276.4 417.0,258.6 418.0,263.5 419.0,265.7 420.0,278.4 421.0,296.1 422.0,297.0 423.0,295.4 424.0,291.9 425.0,289.7 426.0,290.6 427.0,297.9 428.0,304.9 429.0,302.9 430.0,295.5 431.0,292.8 432.0,296.6 433.0,301.0 434.0,299.1 435.0,296.8 436.0,301.7 437.0,311.1 438.0,328.2 439.0,325.4 440.0,324.8 441.0,319.4 442.0,322.2 443.0,325.6 444.0,324.3 445.0,322.7 446.0,322.5 447.0,324.1 448.0,326.2 449.0,327.4 450.0,326.2 451.0,328.9 452.0,331.1 453.0,332.5 454.0,330.7 455.0,325.0 456.0,316.8 457.0,316.8 458.0,317.1 459.0,320.3 460.0,321.1 461.0,322.1 462.0,319.4 463.0,317.9 464.0,311.9 465.0,309.6 466.0,312.8 467.0,315.2 468.0,313.7 469.0,307.2 470.0,310.2 471.0,309.4 472.0,313.6 473.0,309.5 474.0,310.4 475.0,309.4 476.0,312.1 477.0,302.5 478.0,298.1 479.0,303.7 480.0,305.5 481.0,306.2 482.0,305.9 483.0,302.4 484.0,298.8 485.0,299.0 486.0,299.3 487.0,299.5 488.0,296.2 489.0,294.3 490.0,298.6 491.0,299.1 492.0,300.6 493.0,300.7 494.0,296.2 495.0,296.3 496.0,301.3 497.0,302.3 498.0,298.6 499.0,300.4 500.0,301.3 501.0,299.9 502.0,300.4 503.0,303.2 504.0,306.5 505.0,308.2 506.0,303.6 507.0,289.6 508.0,294.1 509.0,298.3 510.0,299.1 511.0,299.3 512.0,297.9 513.0,298.8 514.0,300.2 515.0,291.0 516.0,282.2 517.0,274.5 518.0,278.4 519.0,284.2 520.0,290.2 521.0,291.4 522.0,296.0 523.0,292.6 524.0,297.4 525.0,300.1 526.0,304.5 527.0,300.2 528.0,300.3 529.0,301.7 530.0,304.2 531.0,313.1 532.0,322.8 533.0,324.9 534.0,334.0 535.0,332.8 536.0,331.5 537.0,334.8 538.0,327.4 539.0,332.0 540.0,327.9 541.0,330.6 542.0,335.6 543.0,333.5 544.0,331.7 545.0,328.9 546.0,328.3 547.0,324.2 548.0,322.4 549.0,328.2 550.0,327.9 551.0,323.2 552.0,326.3 553.0,327.6 554.0,328.3 555.0,330.1 556.0,325.1 557.0,320.4 558.0,331.8 559.0,354.6 560.0,360.2 561.0,371.1 562.0,383.5 563.0,382.5 564.0,359.0 565.0,357.9 566.0,362.5 567.0,359.9 568.0,363.8 569.0,363.4 570.0,365.0 571.0,348.6 572.0,347.5 573.0,344.6 574.0,345.0 575.0,347.9 576.0,348.7 577.0,355.2 578.0,348.3 579.0,361.0 580.0,386.2 581.0,380.9 582.0,386.3 583.0,387.1 584.0,387.1 585.0,381.9 586.0,377.3 587.0,378.5 588.0,384.1 589.0,389.6 590.0,391.0 591.0,377.7 592.0,381.3 593.0,373.5 594.0,367.8 595.0,375.2 596.0,379.8 597.0,390.2 598.0,382.0 599.0,376.4 600.0,377.4 601.0,370.8 602.0,374.7 603.0,379.1 604.0,380.4 605.0,385.5 606.0,381.3 607.0,379.8 608.0,378.4 609.0,380.8 610.0,374.3 611.0,373.4 612.0,373.0 613.0,375.2 614.0,372.6 615.0,371.2 616.0,372.7 617.0,373.0 618.0,374.3 619.0,369.5 620.0,368.2 621.0,364.1 622.0,365.9 623.0,369.6 624.0,370.6 625.0,376.4 626.0,372.9 627.0,377.4 628.0,376.1 629.0,378.5 630.0,375.6 631.0,376.8 632.0,377.6 633.0,378.9 634.0,378.6 635.0,377.1 636.0,371.6 637.0,374.3 638.0,375.1 639.0,373.4 640.0,378.7 641.0,377.4 642.0,380.4 643.0,385.1 644.0,387.9 645.0,388.2 646.0,386.6 647.0,384.0 648.0,385.3 649.0,385.5 650.0,387.9 651.0,378.7 652.0,377.7 653.0,382.3 654.0,375.6 655.0,378.6 656.0,379.8 657.0,376.2 658.0,376.2 659.0,367.1 660.0,374.6 661.0,387.8 662.0,383.0 663.0,372.9 664.0,369.2 665.0,373.0 666.0,371.5 667.0,370.9 668.0,372.0 669.0,375.3 670.0,377.9 671.0,381.2 672.0,381.3 673.0,388.1 674.0,388.4 675.0,387.5 676.0,390.4 677.0,392.9 678.0,393.2 679.0,393.4 680.0,397.7 681.0,396.0 682.0,398.5 683.0,405.2 684.0,408.6 685.0,406.9 686.0,403.6 687.0,403.7 688.0,405.2 689.0,408.1 690.0,406.3 691.0,401.0 692.0,398.1 693.0,395.1 694.0,392.4 695.0,397.4 696.0,404.7 697.0,401.3 698.0,399.4 699.0,405.3 700.0,406.3 701.0,396.9 702.0,380.4 703.0,371.9 704.0,376.9 705.0,377.4 706.0,375.2 707.0,377.8 708.0,365.9 709.0,356.5 710.0,375.0 711.0,381.7 712.0,374.2 713.0,363.7 714.0,360.4 715.0,365.0 716.0,369.7 717.0,374.3 718.0,361.6 719.0,354.6 720.0,355.7 721.0,349.5 722.0,339.9 723.0,346.7 724.0,347.2 725.0,344.7 726.0,346.2 727.0,349.5 728.0,350.2 729.0,351.1 730.0,351.3 731.0,351.4 732.0,348.4 733.0,350.1 734.0,351.8 735.0,347.1 736.0,346.6 737.0,346.3 738.0,345.6 739.0,348.0 740.0,342.3 741.0,340.6 742.0,340.2 743.0,338.4 744.0,335.9 745.0,338.3 746.0,338.6 747.0,337.8 748.0,326.5 749.0,325.4 750.0,330.0 751.0,325.6 752.0,328.2 753.0,333.0 754.0,329.5 755.0,329.4 756.0,331.9 757.0,331.6 758.0,332.1 759.0,330.9 760.0,333.8 761.0,332.7 762.0,330.5 763.0,328.9 764.0,323.0 765.0,324.6 766.0,316.2 767.0,318.0 768.0,315.9 769.0,316.1 770.0,316.0 771.0,320.1 772.0,320.5 773.0,323.8 774.0,328.5 775.0,326.9 776.0,325.5 777.0,328.1 778.0,322.7 779.0,323.5 780.0,326.5 781.0,328.2 782.0,329.0 783.0,328.0 784.0,325.8 785.0,325.7 786.0,328.1 787.0,328.6 788.0,326.9 789.0,327.7 790.0,320.3 791.0,305.4 792.0,306.4 793.0,306.9 794.0,307.8 795.0,315.2 796.0,317.1 797.0,319.9 798.0,320.4 799.0,319.9 800.0,325.7 801.0,323.9 802.0,324.5 803.0,340.1 804.0,335.8 805.0,332.7 806.0,308.0 807.0,305.8 808.0,307.5 809.0,307.6 810.0,292.0 811.0,295.0 812.0,298.9 813.0,299.2 814.0,303.5 815.0,307.8 816.0,317.4 817.0,319.5 818.0,316.8 819.0,315.9 820.0,319.9 821.0,315.7 822.0,317.1 823.0,307.9 824.0,313.9 825.0,312.3 826.0,303.2 827.0,300.7 828.0,301.0 829.0,302.7 830.0,307.0 831.0,308.1 832.0,310.9 833.0,311.0 834.0,310.1 835.0,320.5 836.0,322.7 837.0,326.5 838.0,327.6 839.0,327.5 840.0,325.7 841.0,337.3 842.0,340.1 843.0,335.6 844.0,336.7 845.0,340.4 846.0,342.9 847.0,342.1 848.0,336.2 849.0,337.0 850.0,337.9 851.0,338.6 852.0,337.1 853.0,337.1 854.0,337.7 855.0,331.5 856.0,341.7 857.0,338.0 858.0,331.8 859.0,326.5 860.0,319.3 861.0,323.0 862.0,323.6 863.0,325.7 864.0,325.5 865.0,320.0 866.0,320.8 867.0,319.7 868.0,327.3 869.0,315.0 870.0,317.4 871.0,317.1 872.0,317.1 873.0,316.8 874.0,318.3 875.0,315.9 876.0,304.5 877.0,304.4 878.0,302.0 879.0,301.5 880.0,305.2 881.0,297.6 882.0,296.1 883.0,295.8 884.0,293.6 885.0,295.6 886.0,292.0 887.0,301.3 888.0,301.1 889.0,301.9 890.0,305.4 891.0,304.4 892.0,303.7 893.0,302.4 894.0,301.6 894.0,305.2 893.0,305.9 892.0,311.0 891.0,312.4 890.0,310.4 889.0,308.8 888.0,308.9 887.0,307.5 886.0,309.4 885.0,302.3 884.0,299.2 883.0,300.2 882.0,303.5 881.0,307.2 880.0,309.2 879.0,307.8 878.0,308.3 877.0,308.9 876.0,317.6 875.0,326.2 874.0,325.3 873.0,323.5 872.0,320.8 871.0,321.3 870.0,321.7 869.0,329.3 868.0,333.1 867.0,329.3 866.0,331.2 865.0,333.9 864.0,335.0 863.0,332.1 862.0,328.8 861.0,328.2 860.0,328.6 859.0,335.3 858.0,339.3 857.0,346.6 856.0,349.7 855.0,347.6 854.0,342.8 853.0,340.5 852.0,342.5 851.0,344.6 850.0,342.3 849.0,343.0 848.0,343.2 847.0,351.5 846.0,352.6 845.0,350.8 844.0,346.8 843.0,342.7 842.0,345.7 841.0,348.9 840.0,346.6 839.0,334.8 838.0,334.6 837.0,330.9 836.0,330.4 835.0,333.6 834.0,326.2 833.0,318.8 832.0,317.4 831.0,320.5 830.0,312.9 829.0,317.2 828.0,306.3 827.0,309.1 826.0,316.3 825.0,331.0 824.0,324.9 823.0,321.7 822.0,322.4 821.0,321.7 820.0,325.1 819.0,323.4 818.0,324.8 817.0,328.6 816.0,321.7 815.0,319.5 814.0,309.7 813.0,305.3 812.0,304.7 811.0,302.1 810.0,312.1 809.0,313.4 808.0,313.4 807.0,313.9 806.0,336.8 805.0,346.1 804.0,357.0 803.0,352.6 802.0,346.4 801.0,331.4 800.0,331.6 799.0,327.9 798.0,327.0 797.0,325.9 796.0,321.2 795.0,322.2 794.0,317.4 793.0,318.1 792.0,316.3 791.0,324.2 790.0,332.2 789.0,330.4 788.0,330.1 787.0,332.3 786.0,332.3 785.0,331.0 784.0,331.3 783.0,331.5 782.0,333.1 781.0,332.2 780.0,335.4 779.0,327.1 778.0,330.1 777.0,331.5 776.0,331.0 775.0,331.3 774.0,332.6 773.0,328.9 772.0,326.8 771.0,326.1 770.0,321.0 769.0,321.8 768.0,322.5 767.0,323.4 766.0,328.6 765.0,328.9 764.0,331.9 763.0,333.4 762.0,333.5 761.0,334.9 760.0,335.3 759.0,335.8 758.0,334.8 757.0,337.5 756.0,335.4 755.0,332.4 754.0,334.7 753.0,335.8 752.0,336.1 751.0,333.4 750.0,333.7 749.0,334.1 748.0,340.4 747.0,341.1 746.0,341.7 745.0,345.7 744.0,347.3 743.0,349.8 742.0,345.7 741.0,346.3 740.0,350.1 739.0,352.4 738.0,353.1 737.0,350.5 736.0,351.2 735.0,355.8 734.0,356.4 733.0,357.2 732.0,357.4 731.0,358.3 730.0,356.1 729.0,353.2 728.0,356.6 727.0,355.3 726.0,350.4 725.0,355.3 724.0,360.6 723.0,355.5 722.0,352.7 721.0,360.2 720.0,360.7 719.0,365.7 718.0,375.2 717.0,380.2 716.0,379.0 715.0,374.2 714.0,368.2 713.0,376.5 712.0,381.8 711.0,390.3 710.0,387.0 709.0,376.4 708.0,380.4 707.0,384.7 706.0,380.7 705.0,384.0 704.0,386.3 703.0,391.7 702.0,398.3 701.0,414.3 700.0,412.9 699.0,409.2 698.0,406.9 697.0,410.9 696.0,409.0 695.0,410.4 694.0,398.5 693.0,404.1 692.0,407.8 691.0,424.4 690.0,414.7 689.0,410.8 688.0,410.9 687.0,410.0 686.0,409.4 685.0,414.0 684.0,414.7 683.0,415.7 682.0,416.8 681.0,416.2 680.0,414.4 679.0,399.0 678.0,395.8 677.0,397.9 676.0,394.3 675.0,392.7 674.0,394.6 673.0,393.4 672.0,389.5 671.0,387.1 670.0,388.2 669.0,379.5 668.0,375.7 667.0,377.2 666.0,376.4 665.0,379.3 664.0,376.0 663.0,390.2 662.0,399.5 661.0,401.3 660.0,391.3 659.0,390.2 658.0,384.5 657.0,386.5 656.0,387.2 655.0,383.6 654.0,389.2 653.0,394.0 652.0,384.7 651.0,403.4 650.0,397.6 649.0,401.4 648.0,403.4 647.0,398.1 646.0,391.4 645.0,396.3 644.0,391.7 643.0,393.8 642.0,389.7 641.0,384.4 640.0,382.9 639.0,382.0 638.0,380.0 637.0,380.9 636.0,378.0 635.0,380.2 634.0,386.0 633.0,387.0 632.0,380.5 631.0,380.3 630.0,381.3 629.0,382.6 628.0,383.1 627.0,385.1 626.0,379.5 625.0,380.6 624.0,379.4 623.0,373.7 622.0,374.4 621.0,371.3 620.0,372.5 619.0,376.4 618.0,378.6 617.0,376.2 616.0,376.8 615.0,375.2 614.0,376.8 613.0,380.1 612.0,378.5 611.0,379.2 610.0,383.7 609.0,383.5 608.0,384.7 607.0,384.9 606.0,388.2 605.0,390.1 604.0,390.8 603.0,389.5 602.0,383.1 601.0,382.8 600.0,393.9 599.0,410.9 598.0,402.0 597.0,396.9 596.0,392.7 595.0,380.9 594.0,378.8 593.0,388.0 592.0,387.4 591.0,394.0 590.0,414.4 589.0,413.8 588.0,393.0 587.0,387.3 586.0,387.3 585.0,394.9 584.0,397.9 583.0,398.2 582.0,398.6 581.0,398.8 580.0,404.0 579.0,418.8 578.0,365.2 577.0,360.3 576.0,362.0 575.0,351.4 574.0,349.5 573.0,350.5 572.0,353.3 571.0,367.2 570.0,369.2 569.0,369.0 568.0,368.6 567.0,365.7 566.0,366.9 565.0,369.6 564.0,384.4 563.0,393.2 562.0,399.6 561.0,394.9 560.0,378.9 559.0,365.8 558.0,359.3 557.0,332.8 556.0,337.9 555.0,334.7 554.0,331.5 553.0,332.4 552.0,330.6 551.0,330.3 550.0,333.8 549.0,335.1 548.0,330.9 547.0,329.7 546.0,334.4 545.0,333.9 544.0,336.7 543.0,338.5 542.0,342.0 541.0,338.7 540.0,337.7 539.0,340.0 538.0,339.8 537.0,344.7 536.0,336.8 535.0,339.4 534.0,337.6 533.0,345.4 532.0,330.5 531.0,333.0 530.0,314.2 529.0,306.2 528.0,307.5 527.0,307.1 526.0,308.7 525.0,309.2 524.0,302.7 523.0,298.7 522.0,300.2 521.0,298.3 520.0,298.1 519.0,293.4 518.0,289.7 517.0,287.6 516.0,294.5 515.0,304.1 514.0,304.6 513.0,304.8 512.0,304.7 511.0,306.6 510.0,306.4 509.0,308.2 508.0,307.7 507.0,308.3 506.0,317.5 505.0,319.6 504.0,313.8 503.0,315.5 502.0,304.5 501.0,305.8 500.0,306.8 499.0,304.9 498.0,305.4 497.0,305.6 496.0,306.5 495.0,305.4 494.0,301.6 493.0,307.2 492.0,307.6 491.0,302.4 490.0,302.2 489.0,301.1 488.0,301.1 487.0,301.3 486.0,301.4 485.0,301.1 484.0,304.1 483.0,307.1 482.0,308.4 481.0,309.8 480.0,310.9 479.0,308.2 478.0,307.3 477.0,321.3 476.0,319.5 475.0,314.4 474.0,313.4 473.0,314.5 472.0,317.3 471.0,315.4 470.0,313.4 469.0,314.4 468.0,317.1 467.0,318.6 466.0,317.3 465.0,316.2 464.0,319.5 463.0,323.7 462.0,324.2 461.0,326.0 460.0,324.9 459.0,327.3 458.0,326.2 457.0,324.4 456.0,329.6 455.0,337.2 454.0,335.3 453.0,336.9 452.0,338.0 451.0,334.5 450.0,330.9 449.0,333.2 448.0,336.1 447.0,336.6 446.0,327.2 445.0,327.6 444.0,328.4 443.0,329.7 442.0,327.3 441.0,325.9 440.0,332.1 439.0,334.1 438.0,338.9 437.0,338.5 436.0,313.9 435.0,309.7 434.0,307.8 433.0,307.2 432.0,307.3 431.0,299.8 430.0,305.1 429.0,308.3 428.0,311.5 427.0,309.0 426.0,298.5 425.0,296.3 424.0,296.9 423.0,300.7 422.0,307.3 421.0,302.0 420.0,304.9 419.0,290.4 418.0,279.6 417.0,278.0 416.0,290.7 415.0,289.3 414.0,294.2 413.0,294.8 412.0,290.9 411.0,289.6 410.0,288.2 409.0,277.2 408.0,272.1 407.0,271.2 406.0,272.8 405.0,273.9 404.0,277.7 403.0,274.4 402.0,273.3 401.0,274.0 400.0,275.4 399.0,275.6 398.0,272.6 397.0,272.9 396.0,272.9 395.0,279.7 394.0,268.5 393.0,260.3 392.0,259.7 391.0,258.3 390.0,260.6 389.0,261.4 388.0,266.4 387.0,271.0 386.0,272.3 385.0,274.1 384.0,264.6 383.0,262.9 382.0,265.1 381.0,265.6 380.0,261.0 379.0,261.0 378.0,253.6 377.0,254.4 376.0,252.2 375.0,259.2 374.0,261.6 373.0,263.7 372.0,270.3 371.0,276.5 370.0,276.6 369.0,274.6 368.0,273.2 367.0,274.3 366.0,274.7 365.0,278.5 364.0,278.0 363.0,279.8 362.0,276.8 361.0,287.3 360.0,305.4 359.0,310.3 358.0,310.6 357.0,311.6 356.0,307.2 355.0,305.6 354.0,308.2 353.0,300.8 352.0,299.3 351.0,296.8 350.0,299.3 349.0,298.1 348.0,301.1 347.0,300.8 346.0,299.9 345.0,296.7 344.0,296.6 343.0,295.8 342.0,298.4 341.0,297.3 340.0,300.8 339.0,301.2 338.0,302.7 337.0,306.3 336.0,307.2 335.0,306.2 334.0,303.1 333.0,304.5 332.0,307.2 331.0,309.4 330.0,310.8 329.0,309.6 328.0,310.8 327.0,314.0 326.0,315.1 325.0,315.4 324.0,316.8 323.0,312.2 322.0,315.1 321.0,316.5 320.0,316.1 319.0,317.1 318.0,316.6 317.0,312.4 316.0,311.6 315.0,311.1 314.0,314.9 313.0,322.6 312.0,324.0 311.0,316.2 310.0,313.6 309.0,315.4 308.0,323.0 307.0,325.9 306.0,327.7 305.0,316.7 304.0,317.9 303.0,315.6 302.0,319.0 301.0,314.7 300.0,317.8 299.0,316.2 298.0,319.6 297.0,317.2 296.0,318.5 295.0,337.4 294.0,333.3 293.0,333.5 292.0,331.0 291.0,334.4 290.0,325.4 289.0,328.6 288.0,328.9 287.0,332.2 286.0,332.2 285.0,333.5 284.0,335.8 283.0,343.8 282.0,345.0 281.0,348.2 280.0,360.0 279.0,361.1 278.0,359.3 277.0,349.9 276.0,351.5 275.0,350.6 274.0,345.3 273.0,347.4 272.0,347.4 271.0,354.5 270.0,365.3 269.0,365.8 268.0,368.3 267.0,359.9 266.0,355.6 265.0,360.4 264.0,361.7 263.0,356.6 262.0,358.5 261.0,351.8 260.0,354.6 259.0,352.6 258.0,350.4 257.0,344.6 256.0,349.1 255.0,351.5 254.0,367.3 253.0,365.9 252.0,360.2 251.0,348.0 250.0,335.6 249.0,334.4 248.0,332.6 247.0,331.9 246.0,329.1 245.0,320.2 244.0,322.5 243.0,329.5 242.0,333.4 241.0,332.8 240.0,335.9 239.0,325.1 238.0,320.6 237.0,317.8 236.0,321.6 235.0,318.2 234.0,319.7 233.0,318.8 232.0,311.6 231.0,316.6 230.0,321.3 229.0,331.0 228.0,323.7 227.0,322.3 226.0,324.9 225.0,328.4 224.0,336.1 223.0,334.3 222.0,328.4 221.0,326.2 220.0,330.0 219.0,322.7 218.0,328.8 217.0,350.6 216.0,354.1 215.0,359.6 214.0,342.8 213.0,344.2 212.0,347.1 211.0,350.2 210.0,350.4 209.0,352.3 208.0,338.1 207.0,337.9 206.0,336.3 205.0,342.6 204.0,351.4 203.0,350.8 202.0,353.8 201.0,359.1 200.0,359.5 199.0,368.0 198.0,371.5 197.0,374.0 196.0,370.2 195.0,372.3 194.0,373.9 193.0,374.6 192.0,373.3 191.0,375.3 190.0,367.5 189.0,370.0 188.0,370.0 187.0,378.3 186.0,368.3 185.0,365.5 184.0,369.1 183.0,370.6 182.0,392.3 181.0,380.6 180.0,369.4 179.0,364.1 178.0,372.3 177.0,372.6 176.0,358.9 175.0,383.5 174.0,399.1 173.0,396.3 172.0,369.7 171.0,386.6 170.0,375.9 169.0,373.8 168.0,351.2 167.0,344.3 166.0,336.6 165.0,338.6 164.0,355.9 163.0,360.7 162.0,336.5 161.0,334.5 160.0,337.4 159.0,329.4 158.0,323.8 157.0,317.7 156.0,321.2 155.0,322.7 154.0,321.2 153.0,321.5 152.0,325.7 151.0,316.3 150.0,311.3 149.0,312.4 148.0,323.5 147.0,340.3 146.0,339.7 145.0,330.3 144.0,320.1 143.0,315.2 142.0,312.4 141.0,311.6 140.0,317.2 139.0,356.0 138.0,336.1 137.0,323.5 136.0,298.8 135.0,284.4 134.0,291.0 133.0,282.0 132.0,271.8 131.0,274.8 130.0,275.6 129.0,259.1 128.0,255.1 127.0,252.0 126.0,245.8 125.0,254.6 124.0,251.4 123.0,248.3 122.0,250.7 121.0,262.0 120.0,278.0 119.0,267.0 118.0,258.2 117.0,254.7 116.0,263.3 115.0,260.3 114.0,244.7 113.0,259.2 112.0,245.6 111.0,240.4 110.0,245.9 109.0,246.6 108.0,236.3 107.0,212.1 106.0,205.2 105.0,202.8 104.0,203.3 103.0,194.4 102.0,195.5 101.0,186.0 100.0,179.2 99.0,175.7 98.0,189.1 97.0,175.5 96.0,168.1 95.0,171.1 94.0,174.3 93.0,165.2 92.0,163.8 91.0,163.8 90.0,172.4 89.0,177.1 88.0,163.0 87.0,164.0 86.0,153.8 85.0,140.6 84.0,139.2 83.0,140.2 82.0,138.5 81.0,133.6 80.0,126.6 79.0,125.1 78.0,123.7 77.0,128.6 76.0,121.9" fill="#3987e5" fill-opacity="0.3"/>
<polyline points="76.0,121.2 77.0,122.6 78.0,114.1 79.0,123.4 80.0,124.3 81.0,131.2 82.0,135.4 83.0,132.4 84.0,139.2 85.0,137.8 86.0,148.0 87.0,155.4 88.0,161.0 89.0,172.4 90.0,160.7 91.0,162.9 92.0,160.7 93.0,164.7 94.0,171.1 95.0,165.1 96.0,166.0 97.0,173.8 98.0,175.8 99.0,173.0 100.0,175.6 101.0,183.1 102.0,186.8 103.0,194.3 104.0,201.4 105.0,197.9 106.0,204.6 107.0,209.1 108.0,228.6 109.0,244.0 110.0,237.8 111.0,236.2 112.0,243.5 113.0,242.7 114.0,234.3 115.0,255.8 116.0,253.5 117.0,253.4 118.0,254.0 119.0,266.4 120.0,258.7 121.0,241.9 122.0,247.6 123.0,246.2 124.0,250.7 125.0,243.9 126.0,245.5 127.0,245.9 128.0,252.4 129.0,259.0 130.0,272.4 131.0,264.7 132.0,265.6 133.0,277.4 134.0,276.1 135.0,281.0 136.0,293.6 137.0,320.1 138.0,335.6 139.0,316.6 140.0,294.7 141.0,311.6 142.0,303.4 143.0,305.7 144.0,312.8 145.0,321.8 146.0,339.0 147.0,320.4 148.0,310.6 149.0,305.5 150.0,309.7 151.0,315.4 152.0,321.6 153.0,305.4 154.0,316.1 155.0,317.0 156.0,311.6 157.0,309.7 158.0,316.9 159.0,328.4 160.0,331.4 161.0,327.3 162.0,336.1 163.0,352.7 164.0,331.5 165.0,322.5 166.0,336.3 167.0,339.6 168.0,343.3 169.0,364.6 170.0,367.3 171.0,363.5 172.0,364.4 173.0,395.5 174.0,378.2 175.0,347.6 176.0,353.4 177.0,372.3 178.0,359.2 179.0,359.8 180.0,366.2 181.0,379.8 182.0,365.7 183.0,362.0 184.0,361.9 185.0,355.2 186.0,366.5 187.0,369.2 188.0,367.2 189.0,366.9 190.0,363.7 191.0,366.7 192.0,369.4 193.0,373.5 194.0,370.5 195.0,369.4 196.0,366.0 197.0,371.6 198.0,367.0 199.0,356.0 200.0,358.8 201.0,352.0 202.0,347.2 203.0,350.3 204.0,340.9 205.0,335.8 206.0,332.9 207.0,337.4 208.0,331.9 209.0,348.4 210.0,347.7 211.0,346.9 212.0,339.6 213.0,339.4 214.0,341.9 215.0,351.9 216.0,345.5 217.0,323.7 218.0,321.2 219.0,313.2 220.0,321.1 221.0,321.9 222.0,324.3 223.0,330.5 224.0,325.8 225.0,318.2 226.0,322.2 227.0,317.4 228.0,315.4 229.0,319.9 230.0,315.1 231.0,307.1 232.0,310.7 233.0,316.0 234.0,313.3 235.0,314.9 236.0,317.8 237.0,310.3 238.0,316.5 239.0,324.6 240.0,328.6 241.0,329.4 242.0,328.9 243.0,318.4 244.0,316.9 245.0,318.4 246.0,325.9 247.0,329.8 248.0,330.5 249.0,331.4 250.0,331.2 251.0,347.7 252.0,355.7 253.0,364.8 254.0,350.9 255.0,347.8 256.0,342.6 257.0,344.4 258.0,347.6 259.0,351.5 260.0,351.3 261.0,348.3 262.0,354.5 263.0,353.8 264.0,357.5 265.0,355.3 266.0,348.5 267.0,358.8 268.0,357.9 269.0,359.9 270.0,350.4 271.0,336.6 272.0,345.5 273.0,335.1 274.0,341.5 275.0,346.2 276.0,345.5 277.0,348.3 278.0,357.4 279.0,356.2 280.0,344.4 281.0,340.7 282.0,343.2 283.0,335.7 284.0,330.5 285.0,331.3 286.0,330.8 287.0,325.7 288.0,326.3 289.0,325.4 290.0,323.8 291.0,327.3 292.0,327.0 293.0,331.0 294.0,330.9 295.0,315.1 296.0,313.9 297.0,314.9 298.0,314.1 299.0,313.5 300.0,312.5 301.0,311.0 302.0,315.6 303.0,314.5 304.0,310.8 305.0,315.8 306.0,324.9 307.0,321.6 308.0,315.4 309.0,310.1 310.0,308.8 311.0,314.8 312.0,321.5 313.0,306.1 314.0,310.2 315.0,308.1 316.0,309.6 317.0,311.1 318.0,315.9 319.0,314.5 320.0,315.7 321.0,313.3 322.0,312.0 323.0,311.6 324.0,314.6 325.0,314.4 326.0,313.3 327.0,310.6 328.0,309.2 329.0,309.3 330.0,308.5 331.0,306.4 332.0,302.3 333.0,303.1 334.0,300.2 335.0,303.6 336.0,306.2 337.0,302.3 338.0,300.0 339.0,300.8 340.0,295.9 341.0,297.3 342.0,294.7 343.0,293.8 344.0,295.2 345.0,296.6 346.0,298.6 347.0,300.3 348.0,297.3 349.0,296.7 350.0,295.0 351.0,294.5 352.0,298.9 353.0,299.7 354.0,303.1 355.0,303.4 356.0,306.4 357.0,310.6 358.0,310.1 359.0,304.1 360.0,277.3 361.0,275.6 362.0,273.0 363.0,277.5 364.0,275.6 365.0,268.6 366.0,274.3 367.0,269.4 368.0,267.8 369.0,272.5 370.0,276.1 371.0,270.2 372.0,263.2 373.0,252.4 374.0,257.0 375.0,251.0 376.0,246.3 377.0,251.0 378.0,250.9 379.0,256.7 380.0,260.2 381.0,260.1 382.0,260.9 383.0,261.8 384.0,264.2 385.0,272.1 386.0,269.7 387.0,265.6 388.0,257.8 389.0,260.4 390.0,252.9 391.0,253.8 392.0,259.6 393.0,257.7 394.0,264.7 395.0,271.0 396.0,271.1 397.0,271.8 398.0,269.9 399.0,272.8 400.0,270.0 401.0,271.5 402.0,271.9 403.0,272.4 404.0,273.9 405.0,269.8 406.0,270.2 407.0,271.0 408.0,269.3 409.0,276.0 410.0,286.3 411.0,287.5 412.0,290.5 413.0,289.4 414.0,285.7 415.0,282.7 416.0,276.8 417.0,270.1 418.0,279.2 419.0,278.9 420.0,298.7 421.0,299.0 422.0,300.4 423.0,295.6 424.0,293.2 425.0,295.2 426.0,298.1 427.0,306.6 428.0,306.9 429.0,303.3 430.0,295.6 431.0,296.7 432.0,305.9 433.0,306.3 434.0,299.4 435.0,307.5 436.0,311.9 437.0,332.8 438.0,332.8 439.0,330.0 440.0,325.9 441.0,323.0 442.0,325.7 443.0,328.2 444.0,324.4 445.0,326.5 446.0,324.9 447.0,331.1 448.0,331.6 449.0,328.2 450.0,330.8 451.0,331.2 452.0,336.6 453.0,333.5 454.0,331.9 455.0,329.4 456.0,318.6 457.0,319.5 458.0,324.8 459.0,321.9 460.0,323.5 461.0,323.3 462.0,322.3 463.0,318.4 464.0,313.7 465.0,316.2 466.0,317.2 467.0,316.2 468.0,314.1 469.0,312.9 470.0,310.6 471.0,314.5 472.0,314.5 473.0,311.7 474.0,311.0 475.0,314.1 476.0,317.9 477.0,307.3 478.0,304.4 479.0,305.3 480.0,308.7 481.0,306.9 482.0,306.6 483.0,303.0 484.0,300.2 485.0,300.3 486.0,300.7 487.0,300.7 488.0,298.1 489.0,301.1 490.0,300.6 491.0,301.0 492.0,306.4 493.0,301.2 494.0,297.7 495.0,305.2 496.0,302.6 497.0,304.7 498.0,300.7 499.0,302.9 500.0,305.5 501.0,301.7 502.0,303.2 503.0,306.5 504.0,310.3 505.0,317.0 506.0,307.8 507.0,295.6 508.0,298.0 509.0,305.7 510.0,302.0 511.0,304.8 512.0,299.3 513.0,302.9 514.0,302.2 515.0,294.5 516.0,283.9 517.0,278.6 518.0,286.3 519.0,292.9 520.0,297.3 521.0,296.7 522.0,296.2 523.0,297.4 524.0,300.2 525.0,304.7 526.0,305.4 527.0,306.8 528.0,301.7 529.0,304.3 530.0,313.9 531.0,330.7 532.0,325.1 533.0,337.4 534.0,335.6 535.0,336.9 536.0,336.5 537.0,335.6 538.0,332.7 539.0,337.7 540.0,334.8 541.0,336.7 542.0,337.1 543.0,334.8 544.0,332.0 545.0,333.1 546.0,329.7 547.0,326.0 548.0,330.1 549.0,328.5 550.0,329.9 551.0,327.1 552.0,330.4 553.0,330.8 554.0,330.5 555.0,332.5 556.0,326.0 557.0,332.0 558.0,356.2 559.0,363.3 560.0,371.5 561.0,392.3 562.0,393.2 563.0,384.6 564.0,369.5 565.0,364.2 566.0,363.3 567.0,365.1 568.0,363.8 569.0,366.9 570.0,366.1 571.0,349.3 572.0,349.2 573.0,345.5 574.0,348.3 575.0,349.1 576.0,355.5 577.0,358.4 578.0,362.1 579.0,394.5 580.0,389.3 581.0,398.6 582.0,392.3 583.0,395.5 584.0,390.4 585.0,384.1 586.0,384.8 587.0,386.1 588.0,390.3 589.0,403.7 590.0,392.3 591.0,384.4 592.0,384.8 593.0,373.9 594.0,376.6 595.0,380.0 596.0,390.9 597.0,395.0 598.0,398.1 599.0,381.3 600.0,380.6 601.0,379.5 602.0,380.4 603.0,389.2 604.0,385.8 605.0,386.9 606.0,383.5 607.0,382.5 608.0,383.2 609.0,383.3 610.0,377.5 611.0,374.4 612.0,377.2 613.0,376.7 614.0,373.0 615.0,373.5 616.0,374.1 617.0,376.1 618.0,376.0 619.0,370.3 620.0,369.5 621.0,366.0 622.0,371.4 623.0,372.2 624.0,378.8 625.0,377.0 626.0,379.3 627.0,378.0 628.0,380.0 629.0,379.2 630.0,379.6 631.0,378.7 632.0,378.8 633.0,382.6 634.0,379.5 635.0,378.0 636.0,375.1 637.0,379.5 638.0,375.1 639.0,381.6 640.0,379.4 641.0,381.3 642.0,388.7 643.0,390.6 644.0,389.5 645.0,391.3 646.0,388.4 647.0,394.4 648.0,385.6 649.0,395.4 650.0,393.0 651.0,380.7 652.0,384.2 653.0,388.8 654.0,380.9 655.0,379.8 656.0,385.0 657.0,377.9 658.0,383.7 659.0,375.4 660.0,389.9 661.0,391.7 662.0,386.2 663.0,373.6 664.0,374.0 665.0,375.9 666.0,374.3 667.0,372.1 668.0,375.5 669.0,378.0 670.0,381.4 671.0,382.5 672.0,389.2 673.0,391.9 674.0,390.6 675.0,391.2 676.0,393.7 677.0,395.5 678.0,394.4 679.0,397.6 680.0,408.8 681.0,401.8 682.0,412.9 683.0,412.4 684.0,414.0 685.0,407.6 686.0,404.5 687.0,409.6 688.0,410.3 689.0,409.1 690.0,409.1 691.0,404.8 692.0,401.1 693.0,396.6 694.0,397.6 695.0,407.1 696.0,406.4 697.0,401.5 698.0,406.3 699.0,406.7 700.0,412.3 701.0,397.2 702.0,389.7 703.0,378.0 704.0,384.0 705.0,379.5 706.0,377.5 707.0,380.6 708.0,366.4 709.0,375.7 710.0,386.8 711.0,381.9 712.0,375.2 713.0,365.1 714.0,368.2 715.0,373.8 716.0,379.0 717.0,375.2 718.0,362.5 719.0,357.8 720.0,357.1 721.0,349.5 722.0,349.1 723.0,349.2 724.0,355.1 725.0,349.0 726.0,349.7 727.0,354.6 728.0,352.5 729.0,352.6 730.0,353.0 731.0,356.2 732.0,352.5 733.0,355.3 734.0,355.1 735.0,348.2 736.0,350.3 737.0,348.3 738.0,350.8 739.0,350.1 740.0,344.2 741.0,345.8 742.0,342.6 743.0,340.1 744.0,344.2 745.0,339.4 746.0,340.5 747.0,338.8 748.0,328.6 749.0,329.8 750.0,333.1 751.0,328.6 752.0,334.3 753.0,334.4 754.0,331.2 755.0,331.9 756.0,335.4 757.0,332.1 758.0,332.1 759.0,334.9 760.0,333.8 761.0,333.1 762.0,331.6 763.0,330.9 764.0,326.9 765.0,327.2 766.0,318.3 767.0,320.7 768.0,320.3 769.0,316.4 770.0,320.8 771.0,320.5 772.0,325.1 773.0,328.5 774.0,330.4 775.0,327.1 776.0,330.6 777.0,329.3 778.0,323.6 779.0,326.6 780.0,329.9 781.0,330.7 782.0,330.1 783.0,328.7 784.0,326.2 785.0,330.1 786.0,328.5 787.0,330.0 788.0,328.5 789.0,329.6 790.0,323.0 791.0,306.9 792.0,315.6 793.0,308.1 794.0,316.7 795.0,320.0 796.0,320.6 797.0,323.2 798.0,324.8 799.0,327.4 800.0,331.4 801.0,328.0 802.0,343.9 803.0,352.3 804.0,341.9 805.0,336.8 806.0,311.1 807.0,313.5 808.0,311.3 809.0,311.9 810.0,299.8 811.0,301.6 812.0,303.3 813.0,304.7 814.0,308.6 815.0,318.6 816.0,319.5 817.0,321.3 818.0,317.3 819.0,323.4 820.0,320.0 821.0,317.4 822.0,320.7 823.0,313.8 824.0,324.0 825.0,315.5 826.0,307.9 827.0,303.3 828.0,304.4 829.0,308.5 830.0,311.8 831.0,317.0 832.0,311.1 833.0,313.1 834.0,323.8 835.0,324.8 836.0,329.4 837.0,328.0 838.0,333.5 839.0,327.7 840.0,344.9 841.0,341.7 842.0,340.5 843.0,337.1 844.0,346.6 845.0,345.1 846.0,351.1 847.0,343.0 848.0,339.5 849.0,342.1 850.0,339.5 851.0,342.6 852.0,338.2 853.0,337.8 854.0,340.0 855.0,343.5 856.0,345.5 857.0,339.0 858.0,335.3 859.0,326.9 860.0,325.4 861.0,327.5 862.0,327.0 863.0,330.7 864.0,332.4 865.0,324.1 866.0,322.3 867.0,328.0 868.0,328.4 869.0,318.9 870.0,319.3 871.0,317.8 872.0,319.5 873.0,320.5 874.0,325.3 875.0,317.5 876.0,305.8 877.0,305.1 878.0,305.8 879.0,307.6 880.0,306.6 881.0,302.0 882.0,298.0 883.0,297.1 884.0,297.6 885.0,302.0 886.0,305.0 887.0,306.1 888.0,301.7 889.0,306.8 890.0,307.8 891.0,310.5 892.0,304.3 893.0,303.2 894.0,302.6" fill="none" stroke="#3987e5" stroke-width="1.6"/>
<polygon points="76.0,111.6 77.0,120.1 78.0,113.1 79.0,113.8 80.0,121.4 81.0,124.4 82.0,128.9 83.0,132.1 84.0,130.8 85.0,136.5 86.0,137.2 87.0,147.3 88.0,154.0 89.0,160.8 90.0,156.1 91.0,155.6 92.0,158.3 93.0,157.7 94.0,164.2 95.0,161.9 96.0,159.9 97.0,163.8 98.0,172.3 99.0,170.3 100.0,170.1 101.0,175.5 102.0,182.0 103.0,185.7 104.0,193.2 105.0,194.9 106.0,197.7 107.0,201.1 108.0,207.4 109.0,223.3 110.0,225.6 111.0,231.6 112.0,235.2 113.0,238.3 114.0,230.2 115.0,233.6 116.0,250.1 117.0,244.0 118.0,246.9 119.0,250.7 120.0,255.4 121.0,240.3 122.0,238.1 123.0,241.6 124.0,243.4 125.0,238.7 126.0,239.9 127.0,244.4 128.0,243.1 129.0,247.9 130.0,253.8 131.0,263.4 132.0,263.3 133.0,264.4 134.0,274.5 135.0,269.8 136.0,280.8 137.0,293.4 138.0,312.1 139.0,312.6 140.0,293.5 141.0,290.8 142.0,296.1 143.0,296.9 144.0,304.6 145.0,310.2 146.0,321.8 147.0,319.9 148.0,306.1 149.0,295.9 150.0,297.6 151.0,305.4 152.0,310.8 153.0,303.3 154.0,302.3 155.0,307.8 156.0,311.4 157.0,307.0 158.0,305.8 159.0,313.7 160.0,325.4 161.0,319.9 162.0,311.3 163.0,331.5 164.0,322.3 165.0,319.1 166.0,322.2 167.0,330.1 168.0,335.0 169.0,337.5 170.0,359.3 171.0,352.4 172.0,353.3 173.0,362.9 174.0,373.3 175.0,344.0 176.0,343.8 177.0,344.3 178.0,353.0 179.0,355.7 180.0,359.5 181.0,364.1 182.0,362.4 183.0,357.8 184.0,358.7 185.0,353.5 186.0,354.9 187.0,366.8 188.0,361.2 189.0,359.5 190.0,362.1 191.0,363.0 192.0,363.7 193.0,366.9 194.0,367.2 195.0,368.9 196.0,363.0 197.0,365.6 198.0,364.2 199.0,350.9 200.0,350.1 201.0,348.1 202.0,346.2 203.0,340.4 204.0,338.6 205.0,335.3 206.0,324.9 207.0,331.5 208.0,329.2 209.0,330.9 210.0,345.6 211.0,337.6 212.0,337.5 213.0,337.6 214.0,338.2 215.0,341.0 216.0,343.8 217.0,299.9 218.0,317.0 219.0,307.9 220.0,309.5 221.0,319.7 222.0,315.8 223.0,324.3 224.0,321.9 225.0,318.0 226.0,318.0 227.0,313.5 228.0,313.7 229.0,307.8 230.0,306.2 231.0,306.5 232.0,301.5 233.0,304.6 234.0,312.2 235.0,311.4 236.0,313.9 237.0,308.1 238.0,309.4 239.0,313.2 240.0,321.1 241.0,327.0 242.0,325.2 243.0,316.5 244.0,314.7 245.0,314.9 246.0,317.5 247.0,324.3 248.0,328.6 249.0,327.7 250.0,326.7 251.0,330.7 252.0,345.9 253.0,354.8 254.0,345.9 255.0,344.3 256.0,341.4 257.0,338.5 258.0,344.5 259.0,344.4 260.0,345.9 261.0,344.4 262.0,347.1 263.0,351.7 264.0,353.1 265.0,353.8 266.0,347.8 267.0,348.4 268.0,354.7 269.0,354.3 270.0,344.5 271.0,336.6 272.0,335.2 273.0,327.3 274.0,332.1 275.0,340.2 276.0,343.4 277.0,342.6 278.0,347.0 279.0,352.0 280.0,344.2 281.0,339.4 282.0,336.8 283.0,333.1 284.0,327.4 285.0,329.9 286.0,324.7 287.0,325.7 288.0,323.5 289.0,325.0 290.0,319.8 291.0,320.9 292.0,320.1 293.0,323.4 294.0,326.9 295.0,312.7 296.0,309.6 297.0,306.8 298.0,313.1 299.0,311.7 300.0,310.8 301.0,309.3 302.0,310.8 303.0,309.5 304.0,309.9 305.0,308.1 306.0,315.9 307.0,320.8 308.0,312.8 309.0,306.3 310.0,307.8 311.0,307.9 312.0,314.3 313.0,305.4 314.0,298.0 315.0,303.2 316.0,306.8 317.0,307.1 318.0,310.5 319.0,312.5 320.0,311.9 321.0,313.0 322.0,311.1 323.0,308.4 324.0,310.8 325.0,312.2 326.0,312.8 327.0,310.3 328.0,307.5 329.0,307.1 330.0,307.3 331.0,306.1 332.0,301.3 333.0,300.7 334.0,299.3 335.0,299.0 336.0,302.3 337.0,300.0 338.0,299.1 339.0,299.4 340.0,290.8 341.0,294.0 342.0,294.4 343.0,291.7 344.0,293.3 345.0,294.7 346.0,296.5 347.0,296.1 348.0,296.9 349.0,295.5 350.0,293.5 351.0,292.6 352.0,293.2 353.0,297.8 354.0,299.0 355.0,302.7 356.0,301.4 357.0,306.0 358.0,308.1 359.0,303.5 360.0,273.2 361.0,274.4 362.0,268.6 363.0,271.4 364.0,271.4 365.0,267.2 366.0,267.8 367.0,268.5 368.0,267.0 369.0,267.4 370.0,271.1 371.0,267.8 372.0,259.6 373.0,251.7 374.0,249.0 375.0,250.9 376.0,242.5 377.0,244.2 378.0,249.4 379.0,250.3 380.0,254.3 381.0,258.2 382.0,260.1 383.0,258.6 384.0,259.4 385.0,264.1 386.0,261.9 387.0,265.0 388.0,256.2 389.0,257.1 390.0,248.1 391.0,252.2 392.0,253.6 393.0,251.4 394.0,257.4 395.0,262.0 396.0,266.9 397.0,269.5 398.0,262.2 399.0,268.4 400.0,269.4 401.0,268.2 402.0,269.2 403.0,270.7 404.0,270.0 405.0,264.5 406.0,268.8 407.0,266.2 408.0,268.4 409.0,269.3 410.0,274.9 411.0,284.7 412.0,286.4 413.0,288.7 414.0,284.0 415.0,277.5 416.0,276.4 417.0,258.6 418.0,263.5 419.0,265.7 420.0,278.4 421.0,296.1 422.0,297.0 423.0,295.4 424.0,291.9 425.0,289.7 426.0,290.6 427.0,297.9 428.0,304.9 429.0,302.9 430.0,295.5 431.0,292.8 432.0,296.6 433.0,301.0 434.0,299.1 435.0,296.8 436.0,301.7 437.0,311.1 438.0,328.2 439.0,325.4 440.0,324.8 441.0,319.4 442.0,322.2 443.0,325.6 444.0,324.3 445.0,322.7 446.0,322.5 447.0,324.1 448.0,326.2 449.0,327.4 450.0,326.2 451.0,328.9 452.0,331.1 453.0,332.5 454.0,330.7 455.0,325.0 456.0,316.8 457.0,316.8 458.0,317.1 459.0,320.3 460.0,321.1 461.0,322.1 462.0,319.4 463.0,317.9 464.0,311.9 465.0,309.6 466.0,312.8 467.0,315.2 468.0,313.7 469.0,307.2 470.0,310.2 471.0,309.4 472.0,313.6 473.0,309.5 474.0,310.4 475.0,309.4 476.0,312.1 477.0,302.5 478.0,298.1 479.0,303.7 480.0,305.5 481.0,306.2 482.0,305.9 483.0,302.4 484.0,298.8 485.0,299.0 486.0,299.3 487.0,299.5 488.0,296.2 489.0,294.3 490.0,298.6 491.0,299.1 492.0,300.6 493.0,300.7 494.0,296.2 495.0,296.3 496.0,301.3 497.0,302.3 498.0,298.6 499.0,300.4 500.0,301.3 501.0,299.9 502.0,300.4 503.0,303.2 504.0,306.5 505.0,308.2 506.0,303.6 507.0,289.6 508.0,294.1 509.0,298.3 510.0,299.1 511.0,299.3 512.0,297.9 513.0,298.8 514.0,300.2 515.0,291.0 516.0,282.2 517.0,274.5 518.0,278.4 519.0,284.2 520.0,290.2 521.0,291.4 522.0,296.0 523.0,292.6 524.0,297.4 525.0,300.1 526.0,304.5 527.0,300.2 528.0,300.3 529.0,301.7 530.0,304.2 531.0,313.1 532.0,322.8 533.0,324.9 534.0,334.0 535.0,332.8 536.0,331.5 537.0,334.8 538.0,327.4 539.0,332.0 540.0,327.9 541.0,330.6 542.0,335.6 543.0,333.5 544.0,331.7 545.0,328.9 546.0,328.3 547.0,324.2 548.0,322.4 549.0,328.2 550.0,327.9 551.0,323.2 552.0,326.3 553.0,327.6 554.0,328.3 555.0,330.1 556.0,325.1 557.0,320.4 558.0,331.8 559.0,354.6 560.0,360.2 561.0,371.1 562.0,383.5 563.0,382.5 564.0,359.0 565.0,357.9 566.0,362.5 567.0,359.9 568.0,363.8 569.0,363.4 570.0,365.0 571.0,348.6 572.0,347.5 573.0,344.6 574.0,345.0 575.0,347.9 576.0,348.7 577.0,355.2 578.0,348.3 579.0,361.0 580.0,386.2 581.0,380.9 582.0,386.3 583.0,387.1 584.0,387.1 585.0,381.9 586.0,377.3 587.0,378.5 588.0,384.1 589.0,389.6 590.0,391.0 591.0,377.7 592.0,381.3 593.0,373.5 594.0,367.8 595.0,375.2 596.0,379.8 597.0,390.2 598.0,382.0 599.0,376.4 600.0,377.4 601.0,370.8 602.0,374.7 603.0,379.1 604.0,380.4 605.0,385.5 606.0,381.3 607.0,379.8 608.0,378.4 609.0,380.8 610.0,374.3 611.0,373.4 612.0,373.0 613.0,375.2 614.0,372.6 615.0,371.2 616.0,372.7 617.0,373.0 618.0,374.3 619.0,369.5 620.0,368.2 621.0,364.1 622.0,365.9 623.0,369.6 624.0,370.6 625.0,376.4 626.0,372.9 627.0,377.4 628.0,376.1 629.0,378.5 630.0,375.6 631.0,376.8 632.0,377.6 633.0,378.9 634.0,378.6 635.0,377.1 636.0,371.6 637.0,374.3 638.0,375.1 639.0,373.4 640.0,378.7 641.0,377.4 642.0,380.4 643.0,385.1 644.0,387.9 645.0,388.2 646.0,386.6 647.0,384.0 648.0,385.3 649.0,385.5 650.0,387.9 651.0,378.7 652.0,377.7 653.0,382.3 654.0,375.6 655.0,378.6 656.0,379.8 657.0,376.2 658.0,376.2 659.0,367.1 660.0,374.6 661.0,387.8 662.0,383.0 663.0,372.9 664.0,369.2 665.0,373.0 666.0,371.5 667.0,370.9 668.0,372.0 669.0,375.3 670.0,377.9 671.0,381.2 672.0,381.3 673.0,388.1 674.0,388.4 675.0,387.5 676.0,390.4 677.0,392.9 678.0,393.2 679.0,393.4 680.0,397.7 681.0,396.0 682.0,398.5 683.0,405.2 684.0,408.6 685.0,406.9 686.0,403.6 687.0,403.7 688.0,405.2 689.0,408.1 690.0,406.3 691.0,401.0 692.0,398.1 693.0,395.1 694.0,392.4 695.0,397.4 696.0,404.7 697.0,401.3 698.0,399.4 699.0,405.3 700.0,406.3 701.0,396.9 702.0,380.4 703.0,371.9 704.0,376.9 705.0,377.4 706.0,375.2 707.0,377.8 708.0,365.9 709.0,356.5 710.0,375.0 711.0,381.7 712.0,374.2 713.0,363.7 714.0,360.4 715.0,365.0 716.0,369.7 717.0,374.3 718.0,361.6 719.0,354.6 720.0,355.7 721.0,349.5 722.0,339.9 723.0,346.7 724.0,347.2 725.0,344.7 726.0,346.2 727.0,349.5 728.0,350.2 729.0,351.1 730.0,351.3 731.0,351.4 732.0,348.4 733.0,350.1 734.0,351.8 735.0,347.1 736.0,346.6 737.0,346.3 738.0,345.6 739.0,348.0 740.0,342.3 741.0,340.6 742.0,340.2 743.0,338.4 744.0,335.9 745.0,338.3 746.0,338.6 747.0,337.8 748.0,326.5 749.0,325.4 750.0,330.0 751.0,325.6 752.0,328.2 753.0,333.0 754.0,329.5 755.0,329.4 756.0,331.9 757.0,331.6 758.0,332.1 759.0,330.9 760.0,333.8 761.0,332.7 762.0,330.5 763.0,328.9 764.0,323.0 765.0,324.6 766.0,316.2 767.0,318.0 768.0,315.9 769.0,316.1 770.0,316.0 771.0,320.1 772.0,320.5 773.0,323.8 774.0,328.5 775.0,326.9 776.0,325.5 777.0,328.1 778.0,322.7 779.0,323.5 780.0,326.5 781.0,328.2 782.0,329.0 783.0,328.0 784.0,325.8 785.0,325.7 786.0,328.1 787.0,328.6 788.0,326.9 789.0,327.7 790.0,320.3 791.0,305.4 792.0,306.4 793.0,306.9 794.0,307.8 795.0,315.2 796.0,317.1 797.0,319.9 798.0,320.4 799.0,319.9 800.0,325.7 801.0,323.9 802.0,324.5 803.0,340.1 804.0,335.8 805.0,332.7 806.0,308.0 807.0,305.8 808.0,307.5 809.0,307.6 810.0,292.0 811.0,295.0 812.0,298.9 813.0,299.2 814.0,303.5 815.0,307.8 816.0,317.4 817.0,319.5 818.0,316.8 819.0,315.9 820.0,319.9 821.0,315.7 822.0,317.1 823.0,307.9 824.0,313.9 825.0,312.3 826.0,303.2 827.0,300.7 828.0,301.0 829.0,302.7 830.0,307.0 831.0,308.1 832.0,310.9 833.0,311.0 834.0,310.1 835.0,320.5 836.0,322.7 837.0,326.5 838.0,327.6 839.0,327.5 840.0,325.7 841.0,337.3 842.0,340.1 843.0,335.6 844.0,336.7 845.0,340.4 846.0,342.9 847.0,342.1 848.0,336.2 849.0,337.0 850.0,337.9 851.0,338.6 852.0,337.1 853.0,337.1 854.0,337.7 855.0,331.5 856.0,341.7 857.0,338.0 858.0,331.8 859.0,326.5 860.0,319.3 861.0,323.0 862.0,323.6 863.0,325.7 864.0,325.5 865.0,320.0 866.0,320.8 867.0,319.7 868.0,327.3 869.0,315.0 870.0,317.4 871.0,317.1 872.0,317.1 873.0,316.8 874.0,318.3 875.0,315.9 876.0,304.5 877.0,304.4 878.0,302.0 879.0,301.5 880.0,305.2 881.0,297.4 882.0,296.1 883.0,295.8 884.0,293.6 885.0,295.6 886.0,292.0 887.0,301.3 888.0,301.1 889.0,301.9 890.0,305.4 891.0,304.4 892.0,303.7 893.0,302.4 894.0,301.6 894.0,305.2 893.0,305.9 892.0,311.0 891.0,312.4 890.0,310.4 889.0,308.8 888.0,308.9 887.0,307.5 886.0,309.4 885.0,302.3 884.0,299.2 883.0,300.2 882.0,303.5 881.0,307.2 880.0,309.2 879.0,307.8 878.0,308.3 877.0,308.9 876.0,317.6 875.0,326.2 874.0,325.3 873.0,323.5 872.0,320.8 871.0,321.3 870.0,321.7 869.0,329.3 868.0,333.1 867.0,329.3 866.0,331.2 865.0,333.9 864.0,335.0 863.0,332.1 862.0,328.8 861.0,328.2 860.0,328.6 859.0,335.3 858.0,339.3 857.0,346.6 856.0,349.7 855.0,347.6 854.0,342.8 853.0,340.5 852.0,342.5 851.0,344.6 850.0,342.3 849.0,343.0 848.0,343.2 847.0,351.5 846.0,352.6 845.0,350.8 844.0,346.8 843.0,342.7 842.0,345.7 841.0,348.9 840.0,346.6 839.0,334.8 838.0,334.6 837.0,330.9 836.0,330.4 835.0,333.6 834.0,326.2 833.0,318.8 832.0,317.4 831.0,320.5 830.0,312.9 829.0,317.2 828.0,306.3 827.0,309.1 826.0,316.3 825.0,331.1 824.0,324.9 823.0,321.7 822.0,322.4 821.0,321.7 820.0,325.1 819.0,323.4 818.0,324.8 817.0,328.6 816.0,321.7 815.0,319.5 814.0,309.7 813.0,305.3 812.0,304.7 811.0,302.1 810.0,312.1 809.0,313.4 808.0,313.4 807.0,313.9 806.0,336.8 805.0,346.1 804.0,357.0 803.0,352.6 802.0,346.4 801.0,331.4 800.0,331.6 799.0,327.9 798.0,327.0 797.0,325.9 796.0,321.2 795.0,322.2 794.0,317.4 793.0,318.1 792.0,316.3 791.0,324.2 790.0,332.2 789.0,330.4 788.0,330.1 787.0,332.3 786.0,332.3 785.0,331.0 784.0,331.3 783.0,331.5 782.0,333.1 781.0,332.2 780.0,335.4 779.0,327.1 778.0,330.1 777.0,331.5 776.0,331.0 775.0,331.3 774.0,332.6 773.0,328.9 772.0,326.8 771.0,326.1 770.0,321.0 769.0,321.8 768.0,322.5 767.0,323.4 766.0,328.6 765.0,328.9 764.0,331.9 763.0,333.4 762.0,333.5 761.0,334.9 760.0,335.3 759.0,335.8 758.0,334.8 757.0,337.5 756.0,335.4 755.0,332.4 754.0,334.7 753.0,335.8 752.0,336.1 751.0,333.4 750.0,333.7 749.0,334.1 748.0,340.4 747.0,341.1 746.0,341.7 745.0,345.7 744.0,347.3 743.0,349.8 742.0,345.7 741.0,346.3 740.0,350.1 739.0,352.4 738.0,353.1 737.0,350.5 736.0,351.2 735.0,355.8 734.0,356.4 733.0,357.2 732.0,357.4 731.0,358.3 730.0,356.1 729.0,353.2 728.0,356.6 727.0,355.3 726.0,350.4 725.0,355.3 724.0,360.6 723.0,355.5 722.0,352.7 721.0,360.2 720.0,360.7 719.0,365.7 718.0,375.2 717.0,380.2 716.0,379.0 715.0,374.2 714.0,368.2 713.0,376.5 712.0,381.8 711.0,390.3 710.0,387.0 709.0,376.4 708.0,380.4 707.0,384.7 706.0,380.7 705.0,384.0 704.0,386.3 703.0,391.7 702.0,398.3 701.0,414.3 700.0,412.9 699.0,409.2 698.0,406.9 697.0,410.9 696.0,409.0 695.0,410.4 694.0,398.5 693.0,404.1 692.0,407.8 691.0,424.4 690.0,414.7 689.0,410.8 688.0,410.9 687.0,410.0 686.0,409.4 685.0,414.0 684.0,414.7 683.0,415.7 682.0,416.8 681.0,416.2 680.0,414.4 679.0,399.0 678.0,395.8 677.0,397.9 676.0,394.3 675.0,392.7 674.0,394.6 673.0,393.4 672.0,389.5 671.0,387.1 670.0,388.2 669.0,379.5 668.0,375.7 667.0,377.2 666.0,376.4 665.0,379.3 664.0,376.0 663.0,390.2 662.0,399.5 661.0,401.3 660.0,391.3 659.0,390.2 658.0,384.5 657.0,386.5 656.0,387.2 655.0,383.6 654.0,389.2 653.0,394.0 652.0,384.7 651.0,403.4 650.0,397.6 649.0,401.4 648.0,403.4 647.0,398.1 646.0,391.4 645.0,396.3 644.0,391.7 643.0,393.8 642.0,389.7 641.0,384.4 640.0,382.9 639.0,382.0 638.0,380.0 637.0,380.9 636.0,378.0 635.0,380.2 634.0,386.0 633.0,387.0 632.0,380.5 631.0,380.3 630.0,381.3 629.0,382.6 628.0,383.1 627.0,385.1 626.0,379.5 625.0,380.6 624.0,379.4 623.0,373.7 622.0,374.4 621.0,371.3 620.0,372.5 619.0,376.4 618.0,378.6 617.0,376.2 616.0,376.8 615.0,375.2 614.0,376.8 613.0,380.1 612.0,378.5 611.0,379.2 610.0,383.7 609.0,383.5 608.0,384.7 607.0,384.9 606.0,388.2 605.0,390.1 604.0,390.8 603.0,389.5 602.0,383.1 601.0,382.8 600.0,393.9 599.0,410.9 598.0,402.0 597.0,396.9 596.0,392.7 595.0,380.9 594.0,378.8 593.0,388.0 592.0,387.4 591.0,394.0 590.0,414.4 589.0,413.8 588.0,393.0 587.0,387.3 586.0,387.3 585.0,394.9 584.0,397.9 583.0,398.2 582.0,398.6 581.0,398.8 580.0,404.0 579.0,418.8 578.0,365.2 577.0,360.3 576.0,362.0 575.0,351.4 574.0,349.5 573.0,350.5 572.0,353.3 571.0,367.2 570.0,369.2 569.0,369.0 568.0,368.6 567.0,365.7 566.0,366.9 565.0,369.6 564.0,384.4 563.0,393.2 562.0,399.6 561.0,394.9 560.0,377.8 559.0,365.8 558.0,359.3 557.0,332.8 556.0,337.9 555.0,334.7 554.0,331.5 553.0,332.4 552.0,330.6 551.0,330.3 550.0,333.8 549.0,335.1 548.0,330.9 547.0,329.7 546.0,334.4 545.0,333.9 544.0,336.7 543.0,338.5 542.0,342.0 541.0,338.7 540.0,337.7 539.0,340.0 538.0,339.8 537.0,344.7 536.0,336.8 535.0,339.4 534.0,337.6 533.0,345.4 532.0,330.5 531.0,333.0 530.0,314.2 529.0,306.2 528.0,307.5 527.0,307.1 526.0,308.7 525.0,309.2 524.0,302.7 523.0,298.7 522.0,300.2 521.0,298.3 520.0,298.1 519.0,293.4 518.0,289.7 517.0,287.6 516.0,294.5 515.0,304.1 514.0,304.6 513.0,304.8 512.0,304.7 511.0,306.6 510.0,306.4 509.0,308.2 508.0,307.7 507.0,308.3 506.0,317.5 505.0,319.6 504.0,313.8 503.0,315.5 502.0,304.5 501.0,305.8 500.0,306.8 499.0,304.9 498.0,305.4 497.0,305.6 496.0,306.5 495.0,305.4 494.0,301.6 493.0,307.2 492.0,307.6 491.0,302.4 490.0,302.2 489.0,301.1 488.0,301.1 487.0,301.3 486.0,301.4 485.0,301.1 484.0,304.1 483.0,307.1 482.0,308.4 481.0,309.8 480.0,310.9 479.0,308.2 478.0,307.3 477.0,321.3 476.0,319.5 475.0,314.4 474.0,313.4 473.0,314.5 472.0,317.3 471.0,315.4 470.0,313.4 469.0,314.4 468.0,317.1 467.0,318.6 466.0,317.3 465.0,316.2 464.0,319.5 463.0,323.7 462.0,324.2 461.0,326.0 460.0,324.9 459.0,327.3 458.0,326.2 457.0,324.4 456.0,329.6 455.0,337.2 454.0,335.3 453.0,336.9 452.0,338.0 451.0,334.5 450.0,330.9 449.0,333.2 448.0,336.1 447.0,336.6 446.0,327.2 445.0,327.6 444.0,328.4 443.0,329.7 442.0,327.3 441.0,325.9 440.0,332.1 439.0,334.1 438.0,338.9 437.0,338.5 436.0,313.9 435.0,309.7 434.0,307.8 433.0,307.2 432.0,307.3 431.0,299.8 430.0,305.1 429.0,308.3 428.0,311.5 427.0,309.0 426.0,298.5 425.0,296.3 424.0,296.9 423.0,300.7 422.0,307.3 421.0,302.0 420.0,304.9 419.0,290.4 418.0,279.6 417.0,278.0 416.0,290.7 415.0,289.3 414.0,294.2 413.0,294.8 412.0,290.9 411.0,289.6 410.0,288.2 409.0,277.2 408.0,272.1 407.0,271.2 406.0,272.8 405.0,273.9 404.0,277.7 403.0,274.4 402.0,273.3 401.0,274.0 400.0,275.4 399.0,275.6 398.0,272.6 397.0,272.9 396.0,272.9 395.0,279.7 394.0,268.5 393.0,260.3 392.0,259.7 391.0,258.3 390.0,260.6 389.0,261.4 388.0,266.4 387.0,271.0 386.0,272.3 385.0,274.1 384.0,264.6 383.0,262.9 382.0,265.1 381.0,265.6 380.0,261.0 379.0,261.0 378.0,253.6 377.0,254.4 376.0,252.2 375.0,259.2 374.0,261.6 373.0,263.7 372.0,270.3 371.0,276.5 370.0,276.6 369.0,274.6 368.0,273.2 367.0,274.3 366.0,274.7 365.0,278.5 364.0,278.0 363.0,279.8 362.0,276.8 361.0,287.3 360.0,305.4 359.0,310.3 358.0,310.6 357.0,311.6 356.0,307.2 355.0,305.6 354.0,308.2 353.0,300.8 352.0,299.3 351.0,296.8 350.0,299.3 349.0,298.1 348.0,301.1 347.0,300.8 346.0,299.9 345.0,296.7 344.0,296.6 343.0,295.8 342.0,298.4 341.0,297.3 340.0,300.8 339.0,301.2 338.0,302.7 337.0,306.3 336.0,307.2 335.0,306.2 334.0,303.1 333.0,304.5 332.0,307.2 331.0,309.4 330.0,310.8 329.0,309.6 328.0,310.8 327.0,314.0 326.0,315.1 325.0,315.4 324.0,316.8 323.0,312.2 322.0,315.1 321.0,316.5 320.0,316.1 319.0,317.1 318.0,316.6 317.0,312.4 316.0,311.6 315.0,311.1 314.0,314.9 313.0,322.6 312.0,324.0 311.0,316.2 310.0,313.6 309.0,315.4 308.0,323.0 307.0,325.9 306.0,327.7 305.0,316.7 304.0,317.9 303.0,315.6 302.0,319.0 301.0,314.7 300.0,317.8 299.0,316.2 298.0,319.6 297.0,317.2 296.0,318.5 295.0,337.4 294.0,333.3 293.0,333.5 292.0,331.0 291.0,334.4 290.0,325.4 289.0,328.6 288.0,328.9 287.0,332.2 286.0,332.2 285.0,333.5 284.0,335.8 283.0,343.8 282.0,345.0 281.0,348.2 280.0,360.0 279.0,361.1 278.0,359.3 277.0,349.9 276.0,351.5 275.0,350.6 274.0,345.3 273.0,347.4 272.0,347.4 271.0,354.5 270.0,365.3 269.0,365.8 268.0,368.3 267.0,359.9 266.0,355.6 265.0,360.4 264.0,361.7 263.0,356.6 262.0,358.5 261.0,351.8 260.0,354.6 259.0,352.6 258.0,350.4 257.0,344.6 256.0,349.1 255.0,351.5 254.0,367.3 253.0,365.9 252.0,360.2 251.0,348.0 250.0,335.6 249.0,334.4 248.0,332.6 247.0,331.9 246.0,329.1 245.0,320.2 244.0,322.5 243.0,329.5 242.0,333.4 241.0,332.8 240.0,335.9 239.0,325.1 238.0,320.6 237.0,317.8 236.0,321.6 235.0,318.2 234.0,319.7 233.0,318.8 232.0,311.6 231.0,316.6 230.0,321.3 229.0,331.0 228.0,323.7 227.0,322.3 226.0,324.9 225.0,328.4 224.0,336.1 223.0,334.3 222.0,328.4 221.0,326.2 220.0,330.0 219.0,322.7 218.0,328.8 217.0,350.6 216.0,354.1 215.0,359.6 214.0,342.8 213.0,344.2 212.0,347.1 211.0,350.2 210.0,350.4 209.0,352.3 208.0,338.1 207.0,337.9 206.0,336.3 205.0,342.6 204.0,351.4 203.0,350.8 202.0,353.8 201.0,359.1 200.0,359.5 199.0,368.0 198.0,371.5 197.0,374.0 196.0,370.2 195.0,372.3 194.0,373.9 193.0,374.6 192.0,373.3 191.0,375.3 190.0,367.5 189.0,370.0 188.0,370.0 187.0,378.3 186.0,368.3 185.0,365.5 184.0,369.1 183.0,370.6 182.0,392.3 181.0,380.6 180.0,369.4 179.0,364.1 178.0,372.3 177.0,372.6 176.0,358.9 175.0,383.5 174.0,399.1 173.0,396.3 172.0,369.7 171.0,386.6 170.0,375.9 169.0,373.8 168.0,351.2 167.0,344.3 166.0,336.6 165.0,338.6 164.0,355.9 163.0,360.7 162.0,336.5 161.0,334.5 160.0,337.4 159.0,329.4 158.0,323.8 157.0,317.7 156.0,321.2 155.0,322.7 154.0,321.2 153.0,321.5 152.0,325.7 151.0,316.3 150.0,311.3 149.0,312.4 148.0,323.5 147.0,340.3 146.0,339.7 145.0,330.3 144.0,320.1 143.0,315.2 142.0,312.4 141.0,311.6 140.0,317.2 139.0,356.0 138.0,336.1 137.0,323.5 136.0,298.8 135.0,284.4 134.0,291.0 133.0,282.0 132.0,271.8 131.0,274.8 130.0,275.6 129.0,259.1 128.0,255.1 127.0,252.0 126.0,245.8 125.0,254.6 124.0,251.4 123.0,248.3 122.0,250.7 121.0,262.0 120.0,278.0 119.0,267.0 118.0,258.2 117.0,254.7 116.0,263.3 115.0,260.3 114.0,244.7 113.0,259.2 112.0,245.6 111.0,240.4 110.0,245.9 109.0,246.6 108.0,236.3 107.0,212.1 106.0,205.2 105.0,202.8 104.0,203.3 103.0,194.4 102.0,195.5 101.0,186.0 100.0,179.2 99.0,175.7 98.0,189.1 97.0,175.5 96.0,168.1 95.0,171.1 94.0,174.3 93.0,165.2 92.0,163.8 91.0,163.8 90.0,172.4 89.0,177.1 88.0,163.0 87.0,164.0 86.0,153.8 85.0,140.6 84.0,139.2 83.0,140.2 82.0,138.5 81.0,133.6 80.0,126.6 79.0,125.1 78.0,123.7 77.0,128.6 76.0,121.9" fill="#199e70" fill-opacity="0.3"/>
<polyline points="76.0,121.2 77.0,122.6 78.0,114.1 79.0,123.4 80.0,124.3 81.0,131.2 82.0,135.4 83.0,132.4 84.0,139.2 85.0,137.8 86.0,148.0 87.0,155.4 88.0,161.0 89.0,172.4 90.0,160.7 91.0,162.9 92.0,160.7 93.0,164.7 94.0,171.1 95.0,165.1 96.0,166.0 97.0,173.8 98.0,175.8 99.0,173.0 100.0,175.6 101.0,183.1 102.0,186.8 103.0,194.3 104.0,201.4 105.0,197.9 106.0,204.6 107.0,209.1 108.0,228.6 109.0,244.0 110.0,237.8 111.0,236.2 112.0,243.5 113.0,242.7 114.0,234.3 115.0,255.8 116.0,253.5 117.0,253.4 118.0,254.0 119.0,266.4 120.0,258.7 121.0,241.9 122.0,247.6 123.0,246.2 124.0,250.7 125.0,243.9 126.0,245.5 127.0,245.9 128.0,252.4 129.0,259.0 130.0,272.4 131.0,264.7 132.0,265.6 133.0,277.4 134.0,276.1 135.0,281.0 136.0,293.6 137.0,320.1 138.0,335.6 139.0,316.6 140.0,294.7 141.0,311.6 142.0,303.4 143.0,305.7 144.0,312.8 145.0,321.8 146.0,339.0 147.0,320.3 148.0,310.6 149.0,305.5 150.0,309.7 151.0,315.4 152.0,321.6 153.0,305.4 154.0,316.1 155.0,317.0 156.0,311.6 157.0,309.7 158.0,316.9 159.0,328.4 160.0,331.4 161.0,327.3 162.0,336.1 163.0,352.7 164.0,331.5 165.0,322.5 166.0,336.3 167.0,339.6 168.0,343.3 169.0,364.6 170.0,367.3 171.0,363.5 172.0,364.4 173.0,395.5 174.0,378.2 175.0,347.6 176.0,353.4 177.0,372.3 178.0,359.2 179.0,359.8 180.0,366.2 181.0,379.8 182.0,365.7 183.0,362.0 184.0,361.9 185.0,355.2 186.0,366.5 187.0,369.2 188.0,367.2 189.0,366.9 190.0,363.7 191.0,366.7 192.0,369.4 193.0,373.5 194.0,370.5 195.0,369.4 196.0,366.0 197.0,371.6 198.0,367.0 199.0,356.0 200.0,358.8 201.0,352.0 202.0,347.2 203.0,350.2 204.0,340.9 205.0,335.8 206.0,332.9 207.0,337.4 208.0,331.9 209.0,348.4 210.0,347.7 211.0,346.9 212.0,339.6 213.0,339.4 214.0,341.9 215.0,351.8 216.0,345.5 217.0,323.7 218.0,321.2 219.0,313.2 220.0,321.1 221.0,321.9 222.0,324.3 223.0,330.5 224.0,325.8 225.0,318.2 226.0,322.2 227.0,317.4 228.0,315.4 229.0,319.9 230.0,315.1 231.0,307.1 232.0,310.7 233.0,316.0 234.0,313.3 235.0,314.9 236.0,317.8 237.0,310.3 238.0,316.5 239.0,324.6 240.0,328.6 241.0,329.4 242.0,328.9 243.0,318.4 244.0,317.0 245.0,318.4 246.0,325.9 247.0,329.7 248.0,330.5 249.0,331.4 250.0,331.2 251.0,347.7 252.0,355.7 253.0,364.8 254.0,350.9 255.0,347.8 256.0,342.6 257.0,344.4 258.0,347.6 259.0,351.5 260.0,351.3 261.0,348.3 262.0,354.5 263.0,353.8 264.0,357.5 265.0,355.3 266.0,348.5 267.0,358.8 268.0,357.9 269.0,359.9 270.0,350.4 271.0,336.6 272.0,345.5 273.0,335.1 274.0,341.5 275.0,346.2 276.0,345.5 277.0,348.3 278.0,357.4 279.0,356.2 280.0,344.4 281.0,340.7 282.0,343.2 283.0,335.7 284.0,330.5 285.0,331.3 286.0,330.8 287.0,325.7 288.0,326.3 289.0,325.4 290.0,323.7 291.0,327.3 292.0,327.0 293.0,331.0 294.0,330.9 295.0,315.1 296.0,313.9 297.0,314.8 298.0,314.1 299.0,313.5 300.0,312.5 301.0,311.0 302.0,315.6 303.0,314.5 304.0,310.8 305.0,315.8 306.0,324.9 307.0,321.5 308.0,315.4 309.0,310.1 310.0,308.8 311.0,315.0 312.0,321.5 313.0,306.1 314.0,310.2 315.0,308.1 316.0,309.6 317.0,311.1 318.0,315.9 319.0,314.5 320.0,315.7 321.0,313.2 322.0,312.0 323.0,311.6 324.0,314.6 325.0,314.4 326.0,313.3 327.0,310.6 328.0,309.2 329.0,309.3 330.0,308.5 331.0,306.4 332.0,302.3 333.0,303.1 334.0,300.2 335.0,303.6 336.0,306.2 337.0,302.3 338.0,300.0 339.0,300.8 340.0,295.9 341.0,297.3 342.0,294.7 343.0,293.8 344.0,295.2 345.0,296.6 346.0,298.6 347.0,300.3 348.0,297.3 349.0,296.7 350.0,295.0 351.0,294.5 352.0,298.9 353.0,299.7 354.0,303.0 355.0,303.4 356.0,306.4 357.0,310.6 358.0,310.1 359.0,304.1 360.0,277.3 361.0,275.6 362.0,273.0 363.0,277.5 364.0,275.6 365.0,268.6 366.0,274.3 367.0,269.4 368.0,267.8 369.0,272.5 370.0,276.1 371.0,270.2 372.0,263.2 373.0,252.4 374.0,257.0 375.0,251.0 376.0,246.3 377.0,251.0 378.0,250.9 379.0,256.7 380.0,260.2 381.0,260.1 382.0,260.9 383.0,261.8 384.0,264.2 385.0,272.1 386.0,269.7 387.0,265.6 388.0,257.8 389.0,260.4 390.0,252.9 391.0,253.8 392.0,259.6 393.0,257.7 394.0,264.7 395.0,271.0 396.0,271.2 397.0,271.8 398.0,269.9 399.0,272.8 400.0,270.0 401.0,271.5 402.0,271.9 403.0,272.4 404.0,273.9 405.0,269.8 406.0,270.2 407.0,271.0 408.0,269.3 409.0,276.0 410.0,286.3 411.0,287.5 412.0,290.5 413.0,289.4 414.0,285.7 415.0,282.7 416.0,276.8 417.0,270.1 418.0,279.2 419.0,278.9 420.0,298.7 421.0,299.0 422.0,300.4 423.0,295.6 424.0,293.2 425.0,295.2 426.0,298.1 427.0,306.6 428.0,306.9 429.0,303.3 430.0,295.6 431.0,296.7 432.0,305.9 433.0,306.3 434.0,299.4 435.0,307.5 436.0,311.9 437.0,332.8 438.0,332.8 439.0,330.0 440.0,325.9 441.0,323.0 442.0,325.7 443.0,328.2 444.0,324.4 445.0,326.5 446.0,324.9 447.0,331.1 448.0,331.6 449.0,328.2 450.0,330.8 451.0,331.2 452.0,336.6 453.0,333.5 454.0,331.9 455.0,329.4 456.0,318.6 457.0,319.5 458.0,324.8 459.0,321.9 460.0,323.5 461.0,323.3 462.0,322.3 463.0,318.4 464.0,313.7 465.0,316.2 466.0,317.2 467.0,316.2 468.0,314.1 469.0,312.9 470.0,310.6 471.0,314.5 472.0,314.5 473.0,311.7 474.0,311.0 475.0,314.1 476.0,317.9 477.0,307.3 478.0,304.4 479.0,305.3 480.0,308.7 481.0,306.9 482.0,306.6 483.0,303.0 484.0,300.2 485.0,300.3 486.0,300.7 487.0,300.7 488.0,298.1 489.0,301.1 490.0,300.6 491.0,301.0 492.0,306.4 493.0,301.2 494.0,297.7 495.0,305.2 496.0,302.6 497.0,304.7 498.0,300.7 499.0,302.9 500.0,305.5 501.0,301.7 502.0,303.2 503.0,306.5 504.0,310.3 505.0,317.0 506.0,307.8 507.0,295.6 508.0,298.0 509.0,305.7 510.0,302.0 511.0,304.8 512.0,299.3 513.0,302.9 514.0,302.2 515.0,294.5 516.0,283.9 517.0,278.6 518.0,286.3 519.0,292.9 520.0,297.3 521.0,296.7 522.0,296.2 523.0,297.4 524.0,300.2 525.0,304.7 526.0,305.4 527.0,306.8 528.0,301.7 529.0,304.3 530.0,313.9 531.0,330.7 532.0,325.1 533.0,337.4 534.0,335.6 535.0,336.9 536.0,336.5 537.0,335.6 538.0,332.7 539.0,337.7 540.0,334.8 541.0,336.7 542.0,337.1 543.0,334.8 544.0,332.0 545.0,333.1 546.0,329.7 547.0,326.0 548.0,330.1 549.0,328.3 550.0,329.9 551.0,327.1 552.0,330.4 553.0,330.8 554.0,330.5 555.0,332.5 556.0,326.0 557.0,332.0 558.0,356.2 559.0,363.3 560.0,371.5 561.0,392.3 562.0,393.2 563.0,384.6 564.0,369.5 565.0,364.2 566.0,363.3 567.0,365.1 568.0,363.8 569.0,366.9 570.0,366.1 571.0,349.3 572.0,349.2 573.0,345.5 574.0,348.3 575.0,349.1 576.0,355.5 577.0,358.4 578.0,362.1 579.0,394.5 580.0,389.3 581.0,398.6 582.0,392.3 583.0,395.5 584.0,390.4 585.0,384.1 586.0,384.8 587.0,386.1 588.0,390.3 589.0,403.7 590.0,392.3 591.0,384.4 592.0,384.8 593.0,373.9 594.0,376.6 595.0,380.0 596.0,390.9 597.0,395.0 598.0,398.1 599.0,381.3 600.0,380.6 601.0,379.5 602.0,380.4 603.0,389.2 604.0,385.8 605.0,386.9 606.0,383.5 607.0,382.5 608.0,383.2 609.0,383.3 610.0,377.5 611.0,374.3 612.0,377.2 613.0,376.7 614.0,373.0 615.0,373.5 616.0,374.1 617.0,376.1 618.0,376.1 619.0,370.3 620.0,369.5 621.0,366.0 622.0,371.4 623.0,372.2 624.0,378.8 625.0,377.1 626.0,379.3 627.0,378.0 628.0,380.0 629.0,379.2 630.0,379.6 631.0,378.7 632.0,378.8 633.0,382.6 634.0,379.5 635.0,378.0 636.0,375.0 637.0,379.5 638.0,375.1 639.0,381.6 640.0,379.4 641.0,381.3 642.0,388.7 643.0,390.6 644.0,389.5 645.0,391.3 646.0,388.4 647.0,394.4 648.0,385.6 649.0,395.4 650.0,393.0 651.0,380.7 652.0,384.2 653.0,388.8 654.0,380.9 655.0,379.8 656.0,385.0 657.0,377.9 658.0,383.7 659.0,375.4 660.0,389.9 661.0,391.7 662.0,386.2 663.0,373.6 664.0,374.0 665.0,375.9 666.0,374.3 667.0,372.1 668.0,375.5 669.0,378.0 670.0,381.4 671.0,382.5 672.0,389.2 673.0,391.9 674.0,390.6 675.0,391.2 676.0,393.7 677.0,395.5 678.0,394.4 679.0,397.6 680.0,408.8 681.0,401.8 682.0,412.9 683.0,412.4 684.0,414.0 685.0,407.6 686.0,404.5 687.0,409.6 688.0,410.3 689.0,409.1 690.0,409.1 691.0,404.8 692.0,401.1 693.0,396.6 694.0,397.6 695.0,407.1 696.0,406.4 697.0,401.5 698.0,406.3 699.0,406.7 700.0,412.3 701.0,397.2 702.0,389.7 703.0,378.0 704.0,384.0 705.0,379.5 706.0,377.5 707.0,380.6 708.0,366.4 709.0,375.7 710.0,386.8 711.0,381.9 712.0,375.2 713.0,365.1 714.0,368.2 715.0,373.8 716.0,379.0 717.0,375.2 718.0,362.5 719.0,357.8 720.0,357.1 721.0,349.5 722.0,349.1 723.0,349.2 724.0,355.1 725.0,349.0 726.0,349.7 727.0,354.6 728.0,352.5 729.0,352.6 730.0,353.0 731.0,356.2 732.0,352.5 733.0,355.3 734.0,355.1 735.0,348.2 736.0,350.3 737.0,348.3 738.0,350.8 739.0,350.1 740.0,344.2 741.0,345.8 742.0,342.6 743.0,340.1 744.0,344.2 745.0,339.4 746.0,340.5 747.0,338.8 748.0,328.6 749.0,329.8 750.0,333.1 751.0,328.6 752.0,334.3 753.0,334.4 754.0,331.2 755.0,331.9 756.0,335.4 757.0,332.1 758.0,332.1 759.0,334.9 760.0,333.8 761.0,333.1 762.0,331.6 763.0,330.9 764.0,326.9 765.0,327.3 766.0,318.3 767.0,320.7 768.0,320.3 769.0,316.4 770.0,320.8 771.0,320.5 772.0,325.1 773.0,328.5 774.0,330.4 775.0,327.1 776.0,330.6 777.0,329.3 778.0,323.6 779.0,326.6 780.0,329.9 781.0,330.7 782.0,330.1 783.0,328.7 784.0,326.1 785.0,330.1 786.0,328.5 787.0,330.0 788.0,328.5 789.0,329.6 790.0,322.9 791.0,306.9 792.0,315.6 793.0,308.1 794.0,316.7 795.0,320.0 796.0,320.6 797.0,323.2 798.0,324.8 799.0,327.4 800.0,331.4 801.0,328.0 802.0,343.9 803.0,352.3 804.0,341.9 805.0,336.8 806.0,311.1 807.0,313.5 808.0,311.3 809.0,311.9 810.0,299.8 811.0,301.6 812.0,303.3 813.0,304.7 814.0,308.6 815.0,318.6 816.0,319.5 817.0,321.3 818.0,317.3 819.0,323.4 820.0,320.0 821.0,317.4 822.0,320.7 823.0,313.8 824.0,324.0 825.0,315.5 826.0,307.9 827.0,303.3 828.0,304.4 829.0,308.5 830.0,311.8 831.0,317.0 832.0,311.1 833.0,313.1 834.0,323.8 835.0,324.8 836.0,329.4 837.0,328.0 838.0,333.5 839.0,327.7 840.0,344.9 841.0,341.7 842.0,340.5 843.0,337.1 844.0,346.6 845.0,345.1 846.0,351.1 847.0,343.0 848.0,339.5 849.0,342.1 850.0,339.5 851.0,342.6 852.0,338.2 853.0,337.8 854.0,340.0 855.0,343.5 856.0,345.5 857.0,339.0 858.0,335.3 859.0,326.9 860.0,325.4 861.0,327.5 862.0,327.0 863.0,330.7 864.0,332.4 865.0,324.1 866.0,322.3 867.0,328.0 868.0,328.4 869.0,318.9 870.0,319.3 871.0,317.8 872.0,319.5 873.0,320.5 874.0,325.3 875.0,317.5 876.0,305.8 877.0,305.1 878.0,305.7 879.0,307.6 880.0,306.6 881.0,302.0 882.0,298.1 883.0,297.1 884.0,297.6 885.0,302.0 886.0,305.0 887.0,306.1 888.0,301.7 889.0,306.8 890.0,307.8 891.0,310.5 892.0,304.3 893.0,303.2 894.0,302.6" fill="none" stroke="#199e70" stroke-width="0.9"/>
<text x="76.0" y="462" font-size="11" fill="#898781" text-anchor="middle">1er juin</text>
<text x="219.5" y="462" font-size="11" fill="#898781" text-anchor="middle">8 juin</text>
<text x="363.0" y="462" font-size="11" fill="#898781" text-anchor="middle">15 juin</text>
<text x="506.5" y="462" font-size="11" fill="#898781" text-anchor="middle">22 juin</text>
<text x="650.0" y="462" font-size="11" fill="#898781" text-anchor="middle">29 juin</text>
<text x="793.5" y="462" font-size="11" fill="#898781" text-anchor="middle">6 juil.</text>
<text x="875.5" y="462" font-size="11" fill="#898781" text-anchor="middle">10 juil.</text>
<text x="76.0" y="496" font-size="12" fill="#c3c2b7" text-anchor="start">Une seule courbe visible : à cette échelle, les deux voies sont indiscernables — l’aqua recouvre le bleu point pour point.</text>
</svg>
