<svg xmlns="http://www.w3.org/2000/svg" viewBox="0 0 920 520" font-family="system-ui,-apple-system,'Segoe UI',sans-serif" role="img" aria-label="L’historique complet OKX par les deux voies, superposées">
<rect width="920" height="520" fill="#0d1117"/>
<text x="76" y="34" font-size="19" fill="#ffffff" text-anchor="start" font-weight="600">Quarante jours, deux historiques superposés</text>
<text x="76" y="56" font-size="12.5" fill="#c3c2b7" text-anchor="start">BTCUSDT perpétuel OKX, 1er juin → 10 juil. 2026 (UTC) — bande high-low et clôture de chaque minute, voie B tracée par-dessus la voie A</text>
<rect x="76" y="70" width="10" height="10" rx="2" fill="#3987e5"/>
<text x="92" y="79" font-size="12" fill="#ffffff" text-anchor="start">voie A — archives officielles</text>
<rect x="360" y="70" width="10" height="10" rx="2" fill="#199e70"/>
<text x="376" y="79" font-size="12" fill="#ffffff" text-anchor="start">voie B — chandelles 1 m Quantower</text>
<line x1="76.0" y1="381.2" x2="896.0" y2="381.2" stroke="#21262d"/>
<text x="68.0" y="385.2" font-size="11" fill="#898781" text-anchor="end">60 000</text>
<line x1="76.0" y1="285.4" x2="896.0" y2="285.4" stroke="#21262d"/>
<text x="68.0" y="289.4" font-size="11" fill="#898781" text-anchor="end">65 000</text>
<line x1="76.0" y1="189.5" x2="896.0" y2="189.5" stroke="#21262d"/>
<text x="68.0" y="193.5" font-size="11" fill="#898781" text-anchor="end">70 000</text>
<polygon points="76.0,111.6 77.0,120.1 78.0,113.1 79.0,113.7 80.0,121.3 81.0,124.2 82.0,128.8 83.0,131.7 84.0,130.5 85.0,136.2 86.0,136.9 87.0,147.1 88.0,153.8 89.0,160.4 90.0,155.9 91.0,155.4 92.0,157.9 93.0,157.3 94.0,164.0 95.0,161.5 96.0,159.3 97.0,163.6 98.0,171.8 99.0,169.9 100.0,169.7 101.0,175.2 102.0,181.6 103.0,185.3 104.0,192.6 105.0,194.5 106.0,197.3 107.0,200.8 108.0,206.9 109.0,222.8 110.0,225.3 111.0,231.3 112.0,234.9 113.0,237.9 114.0,229.6 115.0,233.3 116.0,249.8 117.0,243.5 118.0,246.5 119.0,250.3 120.0,254.7 121.0,240.0 122.0,237.9 123.0,241.3 124.0,243.1 125.0,238.4 126.0,239.8 127.0,244.3 128.0,242.7 129.0,247.4 130.0,253.3 131.0,263.0 132.0,262.8 133.0,264.3 134.0,274.1 135.0,269.5 136.0,280.6 137.0,293.0 138.0,311.6 139.0,312.2 140.0,293.2 141.0,290.4 142.0,295.7 143.0,296.7 144.0,303.8 145.0,309.6 146.0,321.2 147.0,319.1 148.0,305.8 149.0,295.8 150.0,297.3 151.0,304.9 152.0,310.4 153.0,302.8 154.0,301.9 155.0,307.2 156.0,310.8 157.0,306.7 158.0,305.3 159.0,313.3 160.0,325.1 161.0,319.3 162.0,311.0 163.0,331.2 164.0,321.9 165.0,318.7 166.0,321.8 167.0,329.6 168.0,334.7 169.0,337.1 170.0,359.3 171.0,351.7 172.0,352.8 173.0,362.5 174.0,372.9 175.0,342.9 176.0,343.2 177.0,344.1 178.0,352.6 179.0,355.4 180.0,359.0 181.0,363.7 182.0,362.3 183.0,357.0 184.0,358.1 185.0,352.9 186.0,354.5 187.0,365.9 188.0,360.7 189.0,358.6 190.0,361.4 191.0,362.5 192.0,363.1 193.0,366.4 194.0,366.7 195.0,368.4 196.0,362.5 197.0,365.1 198.0,363.7 199.0,350.5 200.0,349.9 201.0,347.8 202.0,346.2 203.0,339.2 204.0,338.2 205.0,334.8 206.0,324.9 207.0,331.0 208.0,329.0 209.0,330.5 210.0,345.1 211.0,336.7 212.0,337.1 213.0,337.3 214.0,337.7 215.0,340.6 216.0,343.2 217.0,296.7 218.0,316.3 219.0,307.6 220.0,309.0 221.0,319.2 222.0,315.4 223.0,323.9 224.0,321.3 225.0,317.5 226.0,317.6 227.0,312.8 228.0,313.2 229.0,307.4 230.0,306.1 231.0,306.2 232.0,300.7 233.0,304.0 234.0,311.7 235.0,311.0 236.0,313.5 237.0,307.6 238.0,309.1 239.0,312.9 240.0,320.7 241.0,326.5 242.0,324.8 243.0,316.1 244.0,314.2 245.0,314.7 246.0,317.3 247.0,324.0 248.0,328.1 249.0,327.5 250.0,326.0 251.0,330.2 252.0,345.4 253.0,354.4 254.0,345.2 255.0,343.9 256.0,340.8 257.0,338.2 258.0,344.0 259.0,343.7 260.0,345.4 261.0,343.8 262.0,346.5 263.0,351.2 264.0,352.5 265.0,353.3 266.0,347.4 267.0,347.9 268.0,354.5 269.0,353.8 270.0,343.9 271.0,336.0 272.0,334.0 273.0,326.8 274.0,331.8 275.0,339.7 276.0,343.0 277.0,342.1 278.0,346.6 279.0,351.7 280.0,344.0 281.0,338.7 282.0,335.3 283.0,332.6 284.0,327.1 285.0,329.5 286.0,323.7 287.0,325.1 288.0,322.9 289.0,324.5 290.0,319.1 291.0,320.2 292.0,319.6 293.0,322.9 294.0,326.5 295.0,310.9 296.0,308.9 297.0,306.5 298.0,312.6 299.0,311.4 300.0,310.6 301.0,309.1 302.0,310.5 303.0,309.3 304.0,309.3 305.0,307.7 306.0,315.5 307.0,320.2 308.0,312.4 309.0,305.5 310.0,307.3 311.0,307.4 312.0,313.9 313.0,304.7 314.0,297.3 315.0,302.8 316.0,306.3 317.0,306.8 318.0,310.2 319.0,312.2 320.0,311.6 321.0,312.7 322.0,310.6 323.0,308.0 324.0,310.3 325.0,311.9 326.0,312.4 327.0,310.0 328.0,307.2 329.0,306.9 330.0,306.7 331.0,305.7 332.0,300.9 333.0,300.4 334.0,299.0 335.0,298.5 336.0,301.9 337.0,299.6 338.0,298.5 339.0,299.1 340.0,290.3 341.0,293.7 342.0,294.1 343.0,291.4 344.0,293.0 345.0,294.6 346.0,296.2 347.0,295.8 348.0,296.5 349.0,295.1 350.0,293.2 351.0,292.3 352.0,293.0 353.0,297.4 354.0,298.6 355.0,302.4 356.0,301.1 357.0,305.7 358.0,307.5 359.0,303.2 360.0,272.4 361.0,274.1 362.0,267.4 363.0,271.2 364.0,271.1 365.0,266.2 366.0,267.5 367.0,268.5 368.0,266.6 369.0,267.0 370.0,270.5 371.0,267.4 372.0,259.1 373.0,251.4 374.0,248.4 375.0,250.4 376.0,241.6 377.0,243.7 378.0,248.9 379.0,249.7 380.0,253.6 381.0,257.6 382.0,259.6 383.0,257.9 384.0,258.2 385.0,263.4 386.0,261.4 387.0,264.7 388.0,255.3 389.0,256.8 390.0,247.5 391.0,251.8 392.0,253.2 393.0,251.0 394.0,257.1 395.0,261.9 396.0,266.8 397.0,269.3 398.0,261.5 399.0,267.9 400.0,269.2 401.0,267.7 402.0,268.9 403.0,270.4 404.0,269.6 405.0,264.3 406.0,268.4 407.0,265.8 408.0,268.2 409.0,268.9 410.0,274.6 411.0,284.4 412.0,285.9 413.0,288.3 414.0,283.9 415.0,277.3 416.0,276.0 417.0,258.0 418.0,262.7 419.0,265.5 420.0,278.1 421.0,295.8 422.0,296.9 423.0,295.0 424.0,291.6 425.0,289.7 426.0,290.2 427.0,297.3 428.0,304.5 429.0,302.5 430.0,295.2 431.0,292.1 432.0,295.9 433.0,300.8 434.0,298.8 435.0,296.6 436.0,301.1 437.0,310.4 438.0,327.7 439.0,325.2 440.0,324.3 441.0,318.9 442.0,321.8 443.0,325.2 444.0,323.9 445.0,322.3 446.0,322.1 447.0,323.7 448.0,325.8 449.0,326.9 450.0,325.9 451.0,328.5 452.0,330.6 453.0,332.1 454.0,330.2 455.0,324.6 456.0,316.3 457.0,316.3 458.0,316.8 459.0,319.9 460.0,320.8 461.0,321.4 462.0,318.8 463.0,317.0 464.0,311.3 465.0,309.3 466.0,312.4 467.0,314.7 468.0,313.3 469.0,306.7 470.0,309.8 471.0,309.0 472.0,313.3 473.0,309.1 474.0,310.0 475.0,309.0 476.0,311.8 477.0,301.7 478.0,297.7 479.0,303.1 480.0,304.8 481.0,305.6 482.0,305.5 483.0,302.0 484.0,298.2 485.0,298.6 486.0,299.0 487.0,299.0 488.0,296.0 489.0,293.8 490.0,298.1 491.0,298.9 492.0,300.3 493.0,300.3 494.0,295.9 495.0,296.1 496.0,300.8 497.0,301.9 498.0,298.2 499.0,300.0 500.0,300.9 501.0,299.4 502.0,300.0 503.0,302.7 504.0,306.3 505.0,307.8 506.0,303.1 507.0,288.9 508.0,293.6 509.0,297.9 510.0,298.6 511.0,298.9 512.0,297.2 513.0,298.4 514.0,299.7 515.0,290.6 516.0,281.7 517.0,273.5 518.0,277.8 519.0,283.5 520.0,289.5 521.0,290.8 522.0,295.5 523.0,292.3 524.0,297.1 525.0,299.7 526.0,304.1 527.0,299.8 528.0,299.7 529.0,301.2 530.0,303.8 531.0,312.5 532.0,322.6 533.0,324.6 534.0,333.7 535.0,332.4 536.0,330.7 537.0,334.3 538.0,327.0 539.0,331.5 540.0,327.7 541.0,330.2 542.0,335.3 543.0,333.0 544.0,331.3 545.0,328.5 546.0,327.8 547.0,323.7 548.0,321.8 549.0,327.8 550.0,327.1 551.0,322.7 552.0,325.8 553.0,327.1 554.0,327.8 555.0,329.6 556.0,324.7 557.0,319.5 558.0,331.4 559.0,354.1 560.0,359.7 561.0,370.8 562.0,383.2 563.0,382.0 564.0,358.7 565.0,357.4 566.0,361.9 567.0,359.4 568.0,363.2 569.0,362.9 570.0,364.5 571.0,348.2 572.0,347.2 573.0,344.2 574.0,344.7 575.0,347.6 576.0,348.4 577.0,354.7 578.0,347.5 579.0,360.7 580.0,385.9 581.0,380.6 582.0,385.9 583.0,386.7 584.0,386.6 585.0,381.4 586.0,376.1 587.0,378.0 588.0,383.6 589.0,389.0 590.0,390.7 591.0,377.2 592.0,380.9 593.0,372.9 594.0,366.7 595.0,374.7 596.0,379.4 597.0,389.5 598.0,381.5 599.0,376.0 600.0,376.8 601.0,370.2 602.0,374.3 603.0,378.7 604.0,379.7 605.0,385.1 606.0,380.7 607.0,379.5 608.0,378.0 609.0,380.4 610.0,373.6 611.0,372.8 612.0,372.5 613.0,374.7 614.0,372.1 615.0,370.8 616.0,372.0 617.0,372.4 618.0,373.7 619.0,369.1 620.0,367.8 621.0,363.5 622.0,365.3 623.0,369.1 624.0,370.1 625.0,375.9 626.0,372.5 627.0,376.8 628.0,375.6 629.0,378.2 630.0,375.2 631.0,376.5 632.0,377.2 633.0,378.6 634.0,378.1 635.0,376.7 636.0,371.3 637.0,373.8 638.0,374.5 639.0,373.1 640.0,378.2 641.0,377.0 642.0,379.8 643.0,384.6 644.0,387.4 645.0,387.9 646.0,386.1 647.0,383.4 648.0,384.6 649.0,385.1 650.0,387.4 651.0,378.1 652.0,377.2 653.0,381.8 654.0,374.9 655.0,378.2 656.0,379.2 657.0,375.7 658.0,375.7 659.0,366.5 660.0,374.1 661.0,387.5 662.0,382.6 663.0,372.4 664.0,368.6 665.0,372.4 666.0,371.0 667.0,370.4 668.0,371.6 669.0,374.7 670.0,377.2 671.0,380.8 672.0,380.9 673.0,387.4 674.0,388.0 675.0,387.1 676.0,390.0 677.0,392.4 678.0,392.8 679.0,393.0 680.0,397.3 681.0,395.6 682.0,398.0 683.0,404.6 684.0,408.1 685.0,406.6 686.0,403.3 687.0,403.4 688.0,404.3 689.0,407.4 690.0,405.8 691.0,400.5 692.0,397.7 693.0,394.3 694.0,392.0 695.0,397.0 696.0,404.1 697.0,400.8 698.0,398.9 699.0,404.7 700.0,405.8 701.0,396.1 702.0,380.0 703.0,370.9 704.0,376.6 705.0,376.9 706.0,374.8 707.0,377.3 708.0,365.0 709.0,355.5 710.0,374.6 711.0,381.3 712.0,373.6 713.0,362.9 714.0,359.9 715.0,364.6 716.0,369.0 717.0,373.8 718.0,360.8 719.0,353.8 720.0,355.2 721.0,349.1 722.0,339.3 723.0,346.0 724.0,346.7 725.0,343.8 726.0,345.7 727.0,348.9 728.0,349.9 729.0,350.7 730.0,350.8 731.0,351.0 732.0,348.4 733.0,349.6 734.0,351.4 735.0,346.9 736.0,345.9 737.0,345.8 738.0,345.1 739.0,347.5 740.0,341.7 741.0,340.0 742.0,339.4 743.0,337.5 744.0,335.7 745.0,337.8 746.0,338.1 747.0,337.3 748.0,326.0 749.0,325.0 750.0,329.6 751.0,325.3 752.0,327.7 753.0,332.6 754.0,328.9 755.0,329.0 756.0,331.6 757.0,331.1 758.0,331.6 759.0,330.3 760.0,333.2 761.0,332.1 762.0,329.9 763.0,328.3 764.0,322.4 765.0,324.1 766.0,315.1 767.0,317.4 768.0,315.2 769.0,315.5 770.0,315.5 771.0,319.5 772.0,320.0 773.0,323.4 774.0,328.0 775.0,325.9 776.0,324.8 777.0,327.5 778.0,322.1 779.0,322.8 780.0,326.0 781.0,327.8 782.0,328.7 783.0,327.5 784.0,325.2 785.0,325.3 786.0,327.6 787.0,327.9 788.0,326.4 789.0,327.2 790.0,319.7 791.0,304.9 792.0,306.0 793.0,306.5 794.0,307.2 795.0,314.6 796.0,316.5 797.0,319.5 798.0,322.4 799.0,319.5 800.0,325.2 801.0,323.5 802.0,324.2 803.0,339.9 804.0,335.3 805.0,332.4 806.0,307.6 807.0,305.5 808.0,307.0 809.0,307.1 810.0,290.6 811.0,294.6 812.0,298.3 813.0,298.9 814.0,302.9 815.0,307.3 816.0,317.0 817.0,319.2 818.0,316.2 819.0,315.6 820.0,319.3 821.0,314.5 822.0,316.5 823.0,307.4 824.0,313.4 825.0,311.9 826.0,302.8 827.0,300.2 828.0,300.3 829.0,302.3 830.0,306.8 831.0,307.5 832.0,310.5 833.0,310.5 834.0,309.4 835.0,320.1 836.0,322.3 837.0,326.0 838.0,327.0 839.0,327.0 840.0,325.4 841.0,337.0 842.0,339.6 843.0,335.0 844.0,336.2 845.0,340.0 846.0,342.5 847.0,341.6 848.0,335.7 849.0,336.6 850.0,337.5 851.0,338.2 852.0,336.6 853.0,336.6 854.0,337.2 855.0,330.9 856.0,341.2 857.0,337.7 858.0,331.1 859.0,326.0 860.0,318.4 861.0,322.4 862.0,322.8 863.0,325.1 864.0,325.0 865.0,319.5 866.0,320.1 867.0,319.3 868.0,326.9 869.0,314.6 870.0,316.9 871.0,316.5 872.0,316.6 873.0,316.0 874.0,318.0 875.0,315.2 876.0,303.9 877.0,304.1 878.0,301.5 879.0,301.1 880.0,304.8 881.0,297.1 882.0,295.6 883.0,295.3 884.0,293.3 885.0,295.1 886.0,291.6 887.0,300.8 888.0,300.4 889.0,301.5 890.0,304.7 891.0,304.0 892.0,303.1 893.0,301.8 894.0,301.0 894.0,304.8 893.0,305.5 892.0,310.3 891.0,311.5 890.0,310.0 889.0,308.3 888.0,308.3 887.0,307.0 886.0,309.2 885.0,301.8 884.0,298.8 883.0,299.9 882.0,303.1 881.0,306.7 880.0,308.9 879.0,307.3 878.0,308.0 877.0,308.5 876.0,317.3 875.0,326.2 874.0,325.1 873.0,323.4 872.0,320.4 871.0,320.9 870.0,321.5 869.0,328.9 868.0,332.7 867.0,328.8 866.0,330.8 865.0,333.5 864.0,334.7 863.0,331.6 862.0,328.3 861.0,327.9 860.0,328.3 859.0,334.9 858.0,339.0 857.0,346.1 856.0,349.4 855.0,347.3 854.0,342.4 853.0,340.1 852.0,342.2 851.0,344.3 850.0,341.8 849.0,342.7 848.0,342.8 847.0,351.1 846.0,352.2 845.0,350.5 844.0,346.4 843.0,342.4 842.0,345.4 841.0,348.5 840.0,346.5 839.0,334.4 838.0,334.6 837.0,330.6 836.0,330.1 835.0,333.3 834.0,326.0 833.0,318.6 832.0,316.9 831.0,320.1 830.0,312.3 829.0,316.9 828.0,306.1 827.0,308.7 826.0,315.8 825.0,330.6 824.0,324.8 823.0,321.3 822.0,322.5 821.0,321.3 820.0,324.8 819.0,323.2 818.0,324.5 817.0,328.2 816.0,321.5 815.0,319.4 814.0,309.3 813.0,304.8 812.0,304.2 811.0,301.6 810.0,311.5 809.0,312.8 808.0,312.9 807.0,313.5 806.0,336.3 805.0,345.8 804.0,356.6 803.0,352.1 802.0,346.2 801.0,331.2 800.0,331.4 799.0,327.5 798.0,326.4 797.0,325.3 796.0,320.6 795.0,321.6 794.0,317.0 793.0,317.6 792.0,315.8 791.0,323.9 790.0,331.7 789.0,329.9 788.0,329.8 787.0,331.8 786.0,331.9 785.0,330.5 784.0,331.0 783.0,331.3 782.0,332.7 781.0,331.8 780.0,335.0 779.0,326.7 778.0,329.6 777.0,331.0 776.0,330.6 775.0,330.8 774.0,331.9 773.0,328.5 772.0,326.3 771.0,325.4 770.0,320.4 769.0,321.2 768.0,321.8 767.0,322.3 766.0,328.0 765.0,328.5 764.0,331.4 763.0,332.9 762.0,332.9 761.0,334.4 760.0,334.9 759.0,335.4 758.0,334.3 757.0,337.1 756.0,335.0 755.0,332.1 754.0,334.4 753.0,335.4 752.0,335.7 751.0,333.2 750.0,333.3 749.0,333.8 748.0,340.0 747.0,340.7 746.0,341.2 745.0,345.2 744.0,346.9 743.0,349.2 742.0,345.3 741.0,346.1 740.0,349.7 739.0,352.0 738.0,352.7 737.0,350.1 736.0,350.8 735.0,355.3 734.0,356.0 733.0,357.0 732.0,357.2 731.0,357.9 730.0,355.7 729.0,352.8 728.0,355.9 727.0,354.9 726.0,350.0 725.0,355.4 724.0,360.1 723.0,355.0 722.0,352.5 721.0,359.5 720.0,360.4 719.0,365.2 718.0,374.7 717.0,379.9 716.0,378.7 715.0,373.5 714.0,368.2 713.0,375.9 712.0,381.5 711.0,389.7 710.0,386.7 709.0,376.3 708.0,379.9 707.0,384.1 706.0,380.2 705.0,383.4 704.0,385.7 703.0,391.1 702.0,397.9 701.0,414.1 700.0,412.7 699.0,408.9 698.0,407.1 697.0,410.7 696.0,408.6 695.0,409.9 694.0,398.2 693.0,403.8 692.0,407.4 691.0,424.4 690.0,414.2 689.0,410.3 688.0,410.5 687.0,409.6 686.0,409.0 685.0,413.6 684.0,414.3 683.0,415.4 682.0,416.5 681.0,416.0 680.0,414.3 679.0,398.7 678.0,395.4 677.0,397.4 676.0,393.9 675.0,392.5 674.0,394.2 673.0,392.7 672.0,388.7 671.0,386.6 670.0,387.7 669.0,379.2 668.0,375.1 667.0,376.7 666.0,375.7 665.0,378.7 664.0,375.5 663.0,389.8 662.0,399.1 661.0,401.4 660.0,391.3 659.0,389.8 658.0,383.9 657.0,386.1 656.0,386.8 655.0,383.3 654.0,388.6 653.0,393.4 652.0,384.0 651.0,403.1 650.0,397.1 649.0,400.8 648.0,403.2 647.0,397.8 646.0,391.0 645.0,396.2 644.0,391.4 643.0,393.5 642.0,389.4 641.0,384.0 640.0,382.6 639.0,381.6 638.0,379.7 637.0,380.6 636.0,377.6 635.0,379.7 634.0,385.5 633.0,386.6 632.0,380.2 631.0,379.9 630.0,380.8 629.0,382.2 628.0,382.8 627.0,384.6 626.0,379.1 625.0,380.7 624.0,379.0 623.0,373.1 622.0,374.1 621.0,370.9 620.0,372.1 619.0,375.9 618.0,378.1 617.0,375.6 616.0,376.5 615.0,374.7 614.0,376.4 613.0,379.5 612.0,378.0 611.0,378.6 610.0,383.3 609.0,383.1 608.0,384.0 607.0,384.4 606.0,387.8 605.0,390.2 604.0,390.3 603.0,389.1 602.0,382.9 601.0,382.6 600.0,393.6 599.0,410.6 598.0,401.5 597.0,396.6 596.0,392.3 595.0,380.5 594.0,378.4 593.0,387.6 592.0,387.0 591.0,393.7 590.0,413.8 589.0,413.3 588.0,392.6 587.0,386.9 586.0,386.9 585.0,394.4 584.0,397.5 583.0,398.1 582.0,398.3 581.0,398.8 580.0,403.6 579.0,419.0 578.0,365.2 577.0,360.1 576.0,361.5 575.0,351.1 574.0,349.3 573.0,350.1 572.0,353.0 571.0,366.8 570.0,368.8 569.0,368.6 568.0,368.1 567.0,365.2 566.0,366.5 565.0,369.1 564.0,384.3 563.0,393.0 562.0,399.4 561.0,394.6 560.0,377.6 559.0,365.4 558.0,359.5 557.0,332.3 556.0,337.9 555.0,334.7 554.0,331.1 553.0,331.8 552.0,330.2 551.0,329.8 550.0,333.3 549.0,334.6 548.0,330.4 547.0,329.2 546.0,334.0 545.0,333.5 544.0,336.2 543.0,338.1 542.0,341.4 541.0,338.4 540.0,337.3 539.0,339.6 538.0,339.2 537.0,344.2 536.0,336.4 535.0,339.0 534.0,337.3 533.0,345.1 532.0,330.4 531.0,332.9 530.0,313.7 529.0,305.8 528.0,307.1 527.0,306.7 526.0,308.3 525.0,309.0 524.0,302.5 523.0,298.2 522.0,299.9 521.0,298.1 520.0,297.7 519.0,293.3 518.0,289.2 517.0,287.2 516.0,294.1 515.0,303.7 514.0,304.1 513.0,304.4 512.0,304.3 511.0,306.1 510.0,306.0 509.0,307.7 508.0,307.1 507.0,308.0 506.0,317.2 505.0,319.3 504.0,313.4 503.0,314.9 502.0,304.0 501.0,305.3 500.0,306.2 499.0,304.5 498.0,304.9 497.0,305.2 496.0,306.3 495.0,305.2 494.0,301.5 493.0,306.7 492.0,307.1 491.0,302.1 490.0,301.6 489.0,300.9 488.0,300.7 487.0,301.0 486.0,301.1 485.0,300.8 484.0,303.8 483.0,306.7 482.0,307.9 481.0,309.5 480.0,310.3 479.0,307.6 478.0,307.0 477.0,320.8 476.0,319.1 475.0,313.9 474.0,312.9 473.0,314.1 472.0,317.2 471.0,315.1 470.0,313.0 469.0,314.1 468.0,316.8 467.0,318.2 466.0,316.9 465.0,315.8 464.0,319.1 463.0,323.4 462.0,323.7 461.0,325.5 460.0,324.7 459.0,327.0 458.0,326.0 457.0,324.0 456.0,329.2 455.0,336.7 454.0,334.8 453.0,336.5 452.0,337.5 451.0,333.9 450.0,330.6 449.0,332.8 448.0,335.6 447.0,336.2 446.0,326.8 445.0,327.2 444.0,328.2 443.0,329.5 442.0,326.8 441.0,325.6 440.0,332.1 439.0,333.9 438.0,338.6 437.0,338.0 436.0,313.6 435.0,309.2 434.0,307.5 433.0,307.1 432.0,306.7 431.0,299.1 430.0,304.9 429.0,308.0 428.0,310.9 427.0,308.9 426.0,298.2 425.0,296.0 424.0,296.8 423.0,300.4 422.0,306.8 421.0,301.8 420.0,304.4 419.0,290.0 418.0,279.1 417.0,277.7 416.0,290.7 415.0,289.0 414.0,293.9 413.0,294.7 412.0,290.6 411.0,289.6 410.0,287.3 409.0,276.7 408.0,271.7 407.0,270.9 406.0,272.6 405.0,273.4 404.0,277.5 403.0,274.1 402.0,272.9 401.0,273.5 400.0,275.2 399.0,275.4 398.0,272.3 397.0,272.5 396.0,272.7 395.0,279.1 394.0,268.3 393.0,259.9 392.0,259.3 391.0,257.8 390.0,260.3 389.0,261.1 388.0,266.0 387.0,270.5 386.0,271.7 385.0,273.6 384.0,263.8 383.0,262.4 382.0,264.9 381.0,264.9 380.0,260.3 379.0,260.2 378.0,253.0 377.0,254.0 376.0,251.9 375.0,258.9 374.0,261.1 373.0,263.5 372.0,269.9 371.0,275.9 370.0,276.3 369.0,274.2 368.0,273.0 367.0,274.0 366.0,274.5 365.0,278.4 364.0,277.6 363.0,279.4 362.0,276.4 361.0,287.3 360.0,305.2 359.0,309.9 358.0,310.3 357.0,311.3 356.0,306.8 355.0,305.4 354.0,307.9 353.0,300.7 352.0,299.0 351.0,296.6 350.0,299.1 349.0,297.6 348.0,301.1 347.0,300.4 346.0,299.6 345.0,296.5 344.0,296.3 343.0,295.5 342.0,298.0 341.0,297.1 340.0,300.5 339.0,301.0 338.0,302.4 337.0,305.9 336.0,307.4 335.0,305.8 334.0,302.8 333.0,304.2 332.0,306.8 331.0,309.1 330.0,310.7 329.0,309.3 328.0,310.5 327.0,313.8 326.0,314.8 325.0,315.0 324.0,316.2 323.0,311.9 322.0,314.6 321.0,316.3 320.0,315.9 319.0,317.1 318.0,316.2 317.0,312.3 316.0,311.2 315.0,310.9 314.0,314.6 313.0,322.4 312.0,323.7 311.0,315.8 310.0,313.2 309.0,315.1 308.0,322.5 307.0,325.5 306.0,327.3 305.0,316.3 304.0,317.6 303.0,315.3 302.0,318.7 301.0,314.5 300.0,317.4 299.0,315.9 298.0,319.2 297.0,316.9 296.0,318.0 295.0,336.9 294.0,332.9 293.0,333.6 292.0,330.6 291.0,334.1 290.0,324.9 289.0,328.3 288.0,328.5 287.0,331.8 286.0,331.9 285.0,333.1 284.0,335.7 283.0,343.5 282.0,344.7 281.0,347.9 280.0,359.7 279.0,360.9 278.0,359.7 277.0,349.5 276.0,351.1 275.0,350.4 274.0,345.0 273.0,347.1 272.0,347.1 271.0,354.2 270.0,364.9 269.0,365.4 268.0,369.0 267.0,359.6 266.0,355.3 265.0,359.9 264.0,361.2 263.0,356.1 262.0,358.2 261.0,351.5 260.0,354.2 259.0,352.0 258.0,349.9 257.0,344.0 256.0,348.9 255.0,351.2 254.0,367.3 253.0,365.5 252.0,359.7 251.0,347.6 250.0,335.2 249.0,334.0 248.0,332.2 247.0,331.6 246.0,328.7 245.0,319.8 244.0,322.0 243.0,329.2 242.0,333.2 241.0,332.5 240.0,335.6 239.0,324.9 238.0,320.3 237.0,317.5 236.0,321.3 235.0,317.9 234.0,319.0 233.0,318.5 232.0,311.6 231.0,316.4 230.0,321.2 229.0,330.4 228.0,323.5 227.0,322.0 226.0,324.7 225.0,327.9 224.0,335.7 223.0,334.3 222.0,328.1 221.0,326.3 220.0,329.8 219.0,322.1 218.0,328.5 217.0,350.0 216.0,353.8 215.0,359.2 214.0,342.4 213.0,343.9 212.0,346.8 211.0,349.8 210.0,349.9 209.0,352.1 208.0,338.1 207.0,337.5 206.0,335.9 205.0,342.4 204.0,351.0 203.0,350.4 202.0,353.6 201.0,359.0 200.0,359.5 199.0,367.7 198.0,371.0 197.0,373.7 196.0,369.7 195.0,371.9 194.0,373.5 193.0,374.1 192.0,373.0 191.0,374.4 190.0,367.1 189.0,369.7 188.0,369.6 187.0,378.3 186.0,368.0 185.0,365.1 184.0,368.9 183.0,370.2 182.0,391.8 181.0,380.3 180.0,369.2 179.0,363.6 178.0,371.9 177.0,372.3 176.0,358.6 175.0,383.0 174.0,398.9 173.0,396.2 172.0,369.6 171.0,386.5 170.0,376.2 169.0,373.8 168.0,350.8 167.0,344.4 166.0,336.2 165.0,338.1 164.0,355.6 163.0,360.6 162.0,336.2 161.0,334.0 160.0,337.1 159.0,329.0 158.0,323.4 157.0,317.1 156.0,320.6 155.0,322.4 154.0,320.8 153.0,320.9 152.0,325.4 151.0,316.3 150.0,311.6 149.0,311.9 148.0,323.2 147.0,339.9 146.0,339.4 145.0,329.7 144.0,319.6 143.0,315.3 142.0,312.1 141.0,311.4 140.0,316.7 139.0,355.5 138.0,335.6 137.0,323.1 136.0,298.5 135.0,284.0 134.0,291.4 133.0,281.2 132.0,272.2 131.0,274.3 130.0,275.2 129.0,258.5 128.0,254.5 127.0,251.7 126.0,245.6 125.0,254.3 124.0,251.4 123.0,248.0 122.0,250.3 121.0,261.6 120.0,277.7 119.0,267.3 118.0,257.9 117.0,254.4 116.0,263.2 115.0,260.1 114.0,244.5 113.0,259.5 112.0,245.3 111.0,240.1 110.0,245.3 109.0,246.0 108.0,235.8 107.0,211.8 106.0,204.8 105.0,202.3 104.0,203.1 103.0,194.2 102.0,195.4 101.0,185.9 100.0,178.8 99.0,175.5 98.0,188.7 97.0,175.1 96.0,167.9 95.0,170.7 94.0,173.9 93.0,164.9 92.0,163.6 91.0,163.7 90.0,172.1 89.0,176.7 88.0,162.7 87.0,163.7 86.0,153.5 85.0,140.5 84.0,139.0 83.0,139.9 82.0,138.4 81.0,133.4 80.0,126.5 79.0,125.1 78.0,123.7 77.0,128.8 76.0,121.8" fill="#3987e5" fill-opacity="0.3"/>
<polyline points="76.0,120.9 77.0,122.6 78.0,114.2 79.0,123.3 80.0,124.4 81.0,131.1 82.0,135.2 83.0,132.2 84.0,139.0 85.0,137.7 86.0,147.9 87.0,155.2 88.0,160.9 89.0,172.1 90.0,160.5 91.0,162.5 92.0,160.4 93.0,164.5 94.0,170.7 95.0,165.0 96.0,165.6 97.0,173.3 98.0,175.5 99.0,172.6 100.0,175.3 101.0,182.7 102.0,186.5 103.0,193.9 104.0,201.0 105.0,197.5 106.0,204.4 107.0,208.7 108.0,228.2 109.0,243.7 110.0,237.3 111.0,236.0 112.0,243.2 113.0,242.4 114.0,234.0 115.0,255.5 116.0,253.2 117.0,253.1 118.0,253.6 119.0,266.2 120.0,258.4 121.0,241.6 122.0,247.3 123.0,246.0 124.0,250.3 125.0,243.7 126.0,245.5 127.0,245.8 128.0,252.2 129.0,258.5 130.0,272.1 131.0,264.4 132.0,265.2 133.0,277.0 134.0,276.0 135.0,280.7 136.0,293.4 137.0,319.9 138.0,335.1 139.0,316.3 140.0,294.4 141.0,311.2 142.0,303.2 143.0,305.3 144.0,312.3 145.0,321.3 146.0,338.4 147.0,320.0 148.0,310.3 149.0,305.2 150.0,309.5 151.0,314.8 152.0,320.9 153.0,305.2 154.0,315.8 155.0,316.3 156.0,311.1 157.0,309.4 158.0,316.3 159.0,327.8 160.0,330.9 161.0,327.0 162.0,335.7 163.0,352.2 164.0,331.2 165.0,322.0 166.0,336.1 167.0,339.3 168.0,342.8 169.0,364.7 170.0,367.3 171.0,363.1 172.0,364.1 173.0,395.0 174.0,377.9 175.0,347.3 176.0,353.0 177.0,371.9 178.0,358.6 179.0,359.3 180.0,365.8 181.0,379.4 182.0,365.2 183.0,361.7 184.0,361.6 185.0,354.8 186.0,365.9 187.0,368.8 188.0,366.9 189.0,366.2 190.0,363.2 191.0,366.0 192.0,368.9 193.0,373.1 194.0,370.1 195.0,369.0 196.0,365.3 197.0,371.0 198.0,366.6 199.0,355.9 200.0,358.4 201.0,351.7 202.0,347.1 203.0,349.9 204.0,340.6 205.0,335.4 206.0,332.7 207.0,337.1 208.0,331.7 209.0,347.9 210.0,347.3 211.0,346.5 212.0,339.2 213.0,339.1 214.0,341.6 215.0,351.7 216.0,345.3 217.0,323.1 218.0,321.1 219.0,312.9 220.0,320.7 221.0,321.5 222.0,323.9 223.0,330.1 224.0,325.1 225.0,317.6 226.0,321.7 227.0,316.8 228.0,314.9 229.0,319.8 230.0,314.7 231.0,306.9 232.0,310.4 233.0,315.7 234.0,313.2 235.0,314.6 236.0,317.5 237.0,310.1 238.0,316.3 239.0,324.1 240.0,328.3 241.0,329.2 242.0,328.0 243.0,318.0 244.0,316.6 245.0,318.1 246.0,325.3 247.0,329.4 248.0,330.0 249.0,331.0 250.0,331.0 251.0,347.5 252.0,355.2 253.0,364.5 254.0,350.6 255.0,347.5 256.0,342.3 257.0,344.0 258.0,347.4 259.0,350.9 260.0,350.6 261.0,347.8 262.0,354.1 263.0,353.4 264.0,357.0 265.0,355.1 266.0,347.9 267.0,358.3 268.0,357.5 269.0,359.7 270.0,349.9 271.0,336.1 272.0,345.1 273.0,334.7 274.0,341.2 275.0,345.8 276.0,345.0 277.0,347.8 278.0,356.9 279.0,355.9 280.0,344.1 281.0,340.4 282.0,342.8 283.0,335.6 284.0,330.2 285.0,330.8 286.0,330.4 287.0,325.3 288.0,325.9 289.0,324.9 290.0,323.4 291.0,326.9 292.0,326.3 293.0,330.4 294.0,330.4 295.0,314.8 296.0,313.5 297.0,314.4 298.0,313.7 299.0,313.4 300.0,312.3 301.0,310.7 302.0,315.3 303.0,314.6 304.0,310.4 305.0,315.5 306.0,324.4 307.0,321.0 308.0,315.1 309.0,309.8 310.0,308.6 311.0,314.5 312.0,321.3 313.0,305.6 314.0,309.8 315.0,307.9 316.0,309.3 317.0,310.7 318.0,315.6 319.0,314.0 320.0,315.3 321.0,312.9 322.0,311.8 323.0,311.2 324.0,314.3 325.0,313.9 326.0,313.0 327.0,310.3 328.0,308.9 329.0,309.1 330.0,308.3 331.0,306.0 332.0,302.0 333.0,302.7 334.0,299.9 335.0,303.2 336.0,305.6 337.0,301.9 338.0,299.6 339.0,300.3 340.0,295.6 341.0,297.0 342.0,294.6 343.0,293.5 344.0,295.0 345.0,296.2 346.0,298.2 347.0,300.0 348.0,296.8 349.0,296.5 350.0,294.6 351.0,294.1 352.0,298.6 353.0,299.3 354.0,302.5 355.0,303.1 356.0,306.0 357.0,310.3 358.0,309.7 359.0,303.8 360.0,276.9 361.0,275.3 362.0,272.7 363.0,277.0 364.0,275.2 365.0,268.5 366.0,273.9 367.0,269.1 368.0,267.7 369.0,272.0 370.0,275.7 371.0,269.8 372.0,262.8 373.0,252.0 374.0,256.6 375.0,250.8 376.0,245.8 377.0,250.4 378.0,250.2 379.0,256.1 380.0,259.6 381.0,259.6 382.0,260.6 383.0,261.2 384.0,263.5 385.0,271.6 386.0,269.2 387.0,265.3 388.0,257.5 389.0,260.0 390.0,252.5 391.0,253.2 392.0,259.1 393.0,257.4 394.0,264.5 395.0,270.7 396.0,270.8 397.0,271.5 398.0,269.8 399.0,273.1 400.0,269.6 401.0,271.2 402.0,271.5 403.0,272.0 404.0,273.4 405.0,269.3 406.0,269.6 407.0,270.6 408.0,269.0 409.0,275.7 410.0,286.1 411.0,287.1 412.0,290.1 413.0,289.2 414.0,285.4 415.0,282.5 416.0,276.6 417.0,269.5 418.0,278.6 419.0,278.4 420.0,298.2 421.0,298.5 422.0,300.1 423.0,295.4 424.0,293.1 425.0,294.9 426.0,297.7 427.0,306.3 428.0,306.5 429.0,303.1 430.0,295.3 431.0,296.2 432.0,305.4 433.0,306.1 434.0,298.9 435.0,307.0 436.0,311.3 437.0,332.4 438.0,332.4 439.0,329.7 440.0,325.6 441.0,322.7 442.0,325.3 443.0,327.8 444.0,323.9 445.0,326.4 446.0,324.5 447.0,330.5 448.0,330.9 449.0,327.6 450.0,330.3 451.0,330.7 452.0,336.1 453.0,333.2 454.0,331.6 455.0,329.0 456.0,318.1 457.0,319.2 458.0,324.4 459.0,321.6 460.0,323.1 461.0,322.8 462.0,321.9 463.0,318.0 464.0,313.4 465.0,315.8 466.0,316.9 467.0,315.6 468.0,313.7 469.0,312.4 470.0,310.3 471.0,314.1 472.0,314.1 473.0,311.4 474.0,310.5 475.0,313.6 476.0,317.4 477.0,307.0 478.0,303.8 479.0,304.8 480.0,308.3 481.0,306.5 482.0,306.3 483.0,302.4 484.0,299.8 485.0,299.9 486.0,300.2 487.0,300.3 488.0,297.7 489.0,300.7 490.0,300.2 491.0,300.6 492.0,306.0 493.0,301.0 494.0,297.5 495.0,304.7 496.0,302.3 497.0,304.3 498.0,300.4 499.0,302.4 500.0,304.9 501.0,301.2 502.0,302.8 503.0,306.3 504.0,309.9 505.0,316.8 506.0,307.4 507.0,295.1 508.0,297.9 509.0,305.1 510.0,301.4 511.0,304.3 512.0,299.0 513.0,302.5 514.0,301.7 515.0,294.1 516.0,283.4 517.0,277.8 518.0,285.8 519.0,292.4 520.0,296.8 521.0,296.2 522.0,295.6 523.0,297.1 524.0,299.9 525.0,304.3 526.0,304.8 527.0,306.3 528.0,301.3 529.0,303.8 530.0,313.5 531.0,330.4 532.0,325.0 533.0,337.1 534.0,335.1 535.0,336.4 536.0,336.1 537.0,335.1 538.0,332.3 539.0,337.3 540.0,334.4 541.0,336.3 542.0,336.9 543.0,334.3 544.0,331.6 545.0,332.7 546.0,329.2 547.0,325.5 548.0,329.6 549.0,327.8 550.0,329.5 551.0,326.7 552.0,329.8 553.0,330.3 554.0,330.0 555.0,332.2 556.0,325.8 557.0,331.4 558.0,355.7 559.0,362.8 560.0,371.2 561.0,392.0 562.0,393.0 563.0,384.3 564.0,369.0 565.0,363.8 566.0,362.7 567.0,364.5 568.0,363.5 569.0,366.4 570.0,365.5 571.0,348.7 572.0,349.0 573.0,345.4 574.0,347.9 575.0,348.6 576.0,355.1 577.0,358.0 578.0,361.7 579.0,394.0 580.0,388.9 581.0,398.1 582.0,392.0 583.0,395.1 584.0,390.0 585.0,383.7 586.0,384.4 587.0,385.6 588.0,389.6 589.0,403.1 590.0,392.2 591.0,383.9 592.0,384.4 593.0,373.5 594.0,376.0 595.0,379.7 596.0,390.4 597.0,394.5 598.0,397.6 599.0,380.7 600.0,380.1 601.0,378.9 602.0,379.9 603.0,388.7 604.0,385.3 605.0,386.3 606.0,383.0 607.0,382.0 608.0,382.6 609.0,382.7 610.0,377.1 611.0,373.9 612.0,376.8 613.0,376.3 614.0,372.7 615.0,372.9 616.0,373.5 617.0,375.6 618.0,375.2 619.0,369.7 620.0,369.1 621.0,365.6 622.0,371.0 623.0,371.9 624.0,378.3 625.0,376.5 626.0,378.8 627.0,377.6 628.0,379.7 629.0,378.8 630.0,379.1 631.0,378.2 632.0,378.6 633.0,382.1 634.0,378.9 635.0,377.6 636.0,374.6 637.0,379.0 638.0,374.9 639.0,381.1 640.0,378.8 641.0,380.7 642.0,388.2 643.0,390.5 644.0,389.0 645.0,390.5 646.0,388.0 647.0,394.0 648.0,385.3 649.0,394.9 650.0,392.5 651.0,380.1 652.0,383.5 653.0,388.4 654.0,380.3 655.0,379.2 656.0,384.5 657.0,377.3 658.0,383.1 659.0,374.8 660.0,389.5 661.0,391.4 662.0,385.7 663.0,373.1 664.0,373.4 665.0,375.5 666.0,373.7 667.0,371.6 668.0,375.1 669.0,377.6 670.0,381.0 671.0,382.2 672.0,388.7 673.0,391.5 674.0,390.4 675.0,390.8 676.0,393.2 677.0,395.0 678.0,394.0 679.0,397.3 680.0,408.4 681.0,401.6 682.0,412.4 683.0,411.9 684.0,413.6 685.0,407.2 686.0,404.1 687.0,409.1 688.0,409.7 689.0,408.8 690.0,408.4 691.0,404.4 692.0,401.0 693.0,396.4 694.0,397.2 695.0,406.6 696.0,406.1 697.0,401.1 698.0,405.7 699.0,406.0 700.0,412.2 701.0,396.8 702.0,389.1 703.0,377.5 704.0,383.4 705.0,378.9 706.0,377.3 707.0,379.9 708.0,366.0 709.0,375.1 710.0,386.2 711.0,381.3 712.0,374.6 713.0,364.7 714.0,368.1 715.0,373.2 716.0,378.6 717.0,374.7 718.0,362.2 719.0,357.4 720.0,356.5 721.0,349.1 722.0,348.6 723.0,348.8 724.0,354.7 725.0,348.6 726.0,349.1 727.0,354.2 728.0,352.1 729.0,352.0 730.0,352.5 731.0,355.9 732.0,352.1 733.0,354.6 734.0,354.6 735.0,348.0 736.0,349.7 737.0,347.7 738.0,350.1 739.0,349.7 740.0,343.5 741.0,345.3 742.0,342.0 743.0,339.6 744.0,343.6 745.0,338.9 746.0,339.9 747.0,338.3 748.0,328.2 749.0,329.6 750.0,332.5 751.0,328.3 752.0,333.8 753.0,334.0 754.0,331.0 755.0,331.6 756.0,335.0 757.0,331.8 758.0,331.6 759.0,334.4 760.0,333.3 761.0,332.5 762.0,331.1 763.0,330.6 764.0,326.5 765.0,326.6 766.0,317.9 767.0,319.9 768.0,319.7 769.0,315.9 770.0,320.3 771.0,320.0 772.0,324.4 773.0,328.0 774.0,329.7 775.0,326.6 776.0,330.1 777.0,328.9 778.0,323.1 779.0,326.0 780.0,329.5 781.0,330.3 782.0,329.8 783.0,328.3 784.0,325.6 785.0,329.7 786.0,327.9 787.0,329.5 788.0,328.1 789.0,329.0 790.0,322.4 791.0,306.4 792.0,315.1 793.0,307.5 794.0,316.3 795.0,319.5 796.0,320.1 797.0,322.6 798.0,324.5 799.0,327.1 800.0,331.2 801.0,327.8 802.0,343.4 803.0,351.8 804.0,341.4 805.0,336.2 806.0,310.7 807.0,312.9 808.0,310.8 809.0,311.3 810.0,299.4 811.0,301.1 812.0,302.8 813.0,304.2 814.0,307.9 815.0,318.2 816.0,319.2 817.0,321.0 818.0,317.0 819.0,323.2 820.0,319.3 821.0,316.9 822.0,320.1 823.0,313.4 824.0,323.3 825.0,315.1 826.0,307.4 827.0,302.8 828.0,304.0 829.0,308.1 830.0,311.3 831.0,316.6 832.0,310.5 833.0,312.6 834.0,323.4 835.0,324.4 836.0,329.0 837.0,327.7 838.0,333.0 839.0,327.3 840.0,344.5 841.0,341.3 842.0,340.5 843.0,336.8 844.0,346.1 845.0,344.7 846.0,350.6 847.0,342.6 848.0,339.0 849.0,341.6 850.0,339.0 851.0,342.0 852.0,337.8 853.0,337.2 854.0,339.6 855.0,343.2 856.0,345.2 857.0,338.7 858.0,334.9 859.0,326.5 860.0,325.1 861.0,327.2 862.0,326.4 863.0,330.3 864.0,332.1 865.0,323.8 866.0,321.8 867.0,327.6 868.0,328.0 869.0,318.4 870.0,318.8 871.0,317.3 872.0,318.9 873.0,320.0 874.0,325.0 875.0,317.1 876.0,305.4 877.0,304.8 878.0,305.3 879.0,307.0 880.0,306.2 881.0,301.6 882.0,297.8 883.0,296.7 884.0,297.2 885.0,301.5 886.0,304.2 887.0,305.5 888.0,301.5 889.0,306.2 890.0,307.4 891.0,310.0 892.0,303.8 893.0,302.8 894.0,301.9" fill="none" stroke="#3987e5" stroke-width="1.6"/>
<polygon points="76.0,111.6 77.0,120.1 78.0,113.1 79.0,113.7 80.0,121.3 81.0,124.2 82.0,128.8 83.0,131.7 84.0,130.5 85.0,136.2 86.0,136.9 87.0,147.1 88.0,153.8 89.0,160.4 90.0,155.9 91.0,155.4 92.0,157.9 93.0,157.3 94.0,164.0 95.0,161.5 96.0,159.3 97.0,163.6 98.0,171.8 99.0,169.9 100.0,169.7 101.0,175.2 102.0,181.6 103.0,185.3 104.0,192.6 105.0,194.5 106.0,197.3 107.0,200.8 108.0,206.9 109.0,222.8 110.0,225.3 111.0,231.3 112.0,234.9 113.0,237.9 114.0,229.6 115.0,233.3 116.0,249.8 117.0,243.5 118.0,246.5 119.0,250.3 120.0,254.7 121.0,240.0 122.0,237.9 123.0,241.3 124.0,243.1 125.0,238.4 126.0,239.8 127.0,244.3 128.0,242.7 129.0,247.4 130.0,253.3 131.0,263.0 132.0,262.8 133.0,264.3 134.0,274.1 135.0,269.5 136.0,280.6 137.0,293.0 138.0,311.6 139.0,312.2 140.0,293.2 141.0,290.4 142.0,295.7 143.0,296.7 144.0,303.8 145.0,309.6 146.0,321.2 147.0,319.1 148.0,305.8 149.0,295.8 150.0,297.3 151.0,304.9 152.0,310.4 153.0,302.8 154.0,301.9 155.0,307.2 156.0,310.8 157.0,306.7 158.0,305.3 159.0,313.3 160.0,325.1 161.0,319.3 162.0,311.0 163.0,331.2 164.0,321.9 165.0,318.7 166.0,321.8 167.0,329.6 168.0,334.7 169.0,337.1 170.0,359.3 171.0,351.7 172.0,352.8 173.0,362.5 174.0,372.9 175.0,342.9 176.0,343.2 177.0,344.1 178.0,352.6 179.0,355.4 180.0,359.0 181.0,363.7 182.0,362.3 183.0,357.0 184.0,358.1 185.0,352.9 186.0,354.5 187.0,365.9 188.0,360.7 189.0,358.6 190.0,361.4 191.0,362.5 192.0,363.1 193.0,366.4 194.0,366.7 195.0,368.4 196.0,362.5 197.0,365.1 198.0,363.7 199.0,350.5 200.0,349.9 201.0,347.8 202.0,346.2 203.0,339.2 204.0,338.2 205.0,334.8 206.0,324.9 207.0,331.0 208.0,329.0 209.0,330.5 210.0,345.1 211.0,336.7 212.0,337.1 213.0,337.3 214.0,337.7 215.0,340.6 216.0,343.2 217.0,296.7 218.0,316.3 219.0,307.6 220.0,309.0 221.0,319.2 222.0,315.4 223.0,323.9 224.0,321.3 225.0,317.5 226.0,317.6 227.0,312.8 228.0,313.2 229.0,307.4 230.0,306.1 231.0,306.2 232.0,300.7 233.0,304.0 234.0,311.7 235.0,311.0 236.0,313.5 237.0,307.6 238.0,309.1 239.0,312.9 240.0,320.7 241.0,326.5 242.0,324.8 243.0,316.1 244.0,314.2 245.0,314.7 246.0,317.3 247.0,324.0 248.0,328.1 249.0,327.5 250.0,326.0 251.0,330.2 252.0,345.4 253.0,354.4 254.0,345.2 255.0,343.9 256.0,340.8 257.0,338.2 258.0,344.0 259.0,343.7 260.0,345.4 261.0,343.8 262.0,346.5 263.0,351.2 264.0,352.5 265.0,353.3 266.0,347.4 267.0,347.9 268.0,354.5 269.0,353.8 270.0,343.9 271.0,336.0 272.0,334.0 273.0,326.8 274.0,331.8 275.0,339.7 276.0,343.0 277.0,342.1 278.0,346.6 279.0,351.7 280.0,344.0 281.0,338.7 282.0,335.3 283.0,332.6 284.0,327.1 285.0,329.5 286.0,323.7 287.0,325.1 288.0,322.9 289.0,324.5 290.0,319.1 291.0,320.2 292.0,319.6 293.0,322.9 294.0,326.5 295.0,310.9 296.0,308.9 297.0,306.5 298.0,312.6 299.0,311.4 300.0,310.6 301.0,309.1 302.0,310.5 303.0,309.3 304.0,309.3 305.0,307.7 306.0,315.5 307.0,320.2 308.0,312.4 309.0,305.5 310.0,307.3 311.0,307.4 312.0,313.9 313.0,304.7 314.0,297.3 315.0,302.8 316.0,306.3 317.0,306.8 318.0,310.2 319.0,312.2 320.0,311.6 321.0,312.7 322.0,310.6 323.0,308.0 324.0,310.3 325.0,311.9 326.0,312.4 327.0,310.0 328.0,307.2 329.0,306.9 330.0,306.7 331.0,305.7 332.0,300.9 333.0,300.4 334.0,299.0 335.0,298.5 336.0,301.9 337.0,299.6 338.0,298.5 339.0,299.1 340.0,290.3 341.0,293.7 342.0,294.1 343.0,291.4 344.0,293.0 345.0,294.6 346.0,296.2 347.0,295.8 348.0,296.5 349.0,295.1 350.0,293.2 351.0,292.3 352.0,293.0 353.0,297.4 354.0,298.6 355.0,302.4 356.0,301.1 357.0,305.7 358.0,307.5 359.0,303.2 360.0,272.4 361.0,274.1 362.0,267.4 363.0,271.2 364.0,271.1 365.0,266.2 366.0,267.5 367.0,268.5 368.0,266.6 369.0,267.0 370.0,270.5 371.0,267.4 372.0,259.1 373.0,251.4 374.0,248.4 375.0,250.4 376.0,241.6 377.0,243.7 378.0,248.9 379.0,249.7 380.0,253.6 381.0,257.6 382.0,259.6 383.0,257.9 384.0,258.2 385.0,263.4 386.0,261.4 387.0,264.7 388.0,255.3 389.0,256.8 390.0,247.5 391.0,251.8 392.0,253.2 393.0,251.0 394.0,257.1 395.0,261.9 396.0,266.8 397.0,269.3 398.0,261.5 399.0,267.9 400.0,269.2 401.0,267.7 402.0,268.9 403.0,270.4 404.0,269.6 405.0,264.3 406.0,268.4 407.0,265.8 408.0,268.2 409.0,268.9 410.0,274.6 411.0,284.4 412.0,285.9 413.0,288.3 414.0,283.9 415.0,277.3 416.0,276.0 417.0,258.0 418.0,262.7 419.0,265.5 420.0,278.1 421.0,295.8 422.0,296.9 423.0,295.0 424.0,291.6 425.0,289.7 426.0,290.2 427.0,297.3 428.0,304.5 429.0,302.5 430.0,295.2 431.0,292.1 432.0,295.9 433.0,300.8 434.0,298.8 435.0,296.6 436.0,301.1 437.0,310.4 438.0,327.7 439.0,325.2 440.0,324.3 441.0,318.9 442.0,321.8 443.0,325.2 444.0,323.9 445.0,322.3 446.0,322.1 447.0,323.7 448.0,325.8 449.0,326.9 450.0,325.9 451.0,328.5 452.0,330.6 453.0,332.1 454.0,330.2 455.0,324.6 456.0,316.3 457.0,316.3 458.0,316.8 459.0,319.9 460.0,320.8 461.0,321.4 462.0,318.8 463.0,317.0 464.0,311.3 465.0,309.3 466.0,312.4 467.0,314.7 468.0,313.3 469.0,306.7 470.0,309.8 471.0,309.0 472.0,313.3 473.0,309.1 474.0,310.0 475.0,309.0 476.0,311.8 477.0,301.7 478.0,297.7 479.0,303.1 480.0,304.8 481.0,305.6 482.0,305.5 483.0,302.0 484.0,298.2 485.0,298.6 486.0,299.0 487.0,299.0 488.0,296.0 489.0,293.8 490.0,298.1 491.0,298.9 492.0,300.3 493.0,300.3 494.0,295.9 495.0,296.1 496.0,300.8 497.0,301.9 498.0,298.2 499.0,300.0 500.0,300.9 501.0,299.4 502.0,300.0 503.0,302.7 504.0,306.3 505.0,307.8 506.0,303.1 507.0,288.9 508.0,293.6 509.0,297.9 510.0,298.6 511.0,298.9 512.0,297.2 513.0,298.4 514.0,299.7 515.0,290.6 516.0,281.7 517.0,273.5 518.0,277.8 519.0,283.5 520.0,289.5 521.0,290.8 522.0,295.5 523.0,292.3 524.0,297.1 525.0,299.7 526.0,304.1 527.0,299.8 528.0,299.7 529.0,301.2 530.0,303.8 531.0,312.5 532.0,322.6 533.0,324.6 534.0,333.7 535.0,332.4 536.0,330.7 537.0,334.3 538.0,327.0 539.0,331.5 540.0,327.7 541.0,330.2 542.0,335.3 543.0,333.0 544.0,331.3 545.0,328.5 546.0,327.8 547.0,323.7 548.0,321.8 549.0,327.8 550.0,327.1 551.0,322.7 552.0,325.8 553.0,327.1 554.0,327.8 555.0,329.6 556.0,324.7 557.0,319.5 558.0,331.4 559.0,354.1 560.0,359.7 561.0,370.8 562.0,383.2 563.0,382.0 564.0,358.7 565.0,357.4 566.0,361.9 567.0,359.4 568.0,363.2 569.0,362.9 570.0,364.5 571.0,348.2 572.0,347.2 573.0,344.2 574.0,344.7 575.0,347.6 576.0,348.4 577.0,354.7 578.0,347.5 579.0,360.7 580.0,385.9 581.0,380.6 582.0,385.9 583.0,386.7 584.0,386.6 585.0,381.4 586.0,376.1 587.0,378.0 588.0,383.6 589.0,389.0 590.0,390.7 591.0,377.2 592.0,380.9 593.0,372.9 594.0,366.7 595.0,374.7 596.0,379.4 597.0,389.5 598.0,381.5 599.0,376.0 600.0,376.8 601.0,370.2 602.0,374.3 603.0,378.7 604.0,379.7 605.0,385.1 606.0,380.7 607.0,379.5 608.0,378.0 609.0,380.4 610.0,373.6 611.0,372.8 612.0,372.5 613.0,374.7 614.0,372.1 615.0,370.8 616.0,372.0 617.0,372.4 618.0,373.7 619.0,369.1 620.0,367.8 621.0,363.5 622.0,365.3 623.0,369.1 624.0,370.1 625.0,375.9 626.0,372.5 627.0,376.8 628.0,375.6 629.0,378.2 630.0,375.2 631.0,376.5 632.0,377.2 633.0,378.6 634.0,378.1 635.0,376.7 636.0,371.3 637.0,373.8 638.0,374.5 639.0,373.1 640.0,378.2 641.0,377.0 642.0,379.8 643.0,384.6 644.0,387.4 645.0,387.9 646.0,386.1 647.0,383.4 648.0,384.6 649.0,385.1 650.0,387.4 651.0,378.1 652.0,377.2 653.0,381.8 654.0,374.9 655.0,378.2 656.0,379.2 657.0,375.7 658.0,375.7 659.0,366.5 660.0,374.1 661.0,387.5 662.0,382.6 663.0,372.4 664.0,368.6 665.0,372.4 666.0,371.0 667.0,370.4 668.0,371.6 669.0,374.7 670.0,377.2 671.0,380.8 672.0,380.9 673.0,387.4 674.0,388.0 675.0,387.1 676.0,390.0 677.0,392.4 678.0,392.8 679.0,393.0 680.0,397.3 681.0,395.6 682.0,398.0 683.0,404.6 684.0,408.1 685.0,406.6 686.0,403.3 687.0,403.4 688.0,404.3 689.0,407.4 690.0,405.8 691.0,400.5 692.0,397.7 693.0,394.3 694.0,392.0 695.0,397.0 696.0,404.1 697.0,400.8 698.0,398.9 699.0,404.7 700.0,405.8 701.0,396.1 702.0,380.0 703.0,370.9 704.0,376.6 705.0,376.9 706.0,374.8 707.0,377.3 708.0,365.0 709.0,355.5 710.0,374.6 711.0,381.3 712.0,373.6 713.0,362.9 714.0,359.9 715.0,364.6 716.0,369.0 717.0,373.8 718.0,360.8 719.0,353.8 720.0,355.2 721.0,349.1 722.0,339.3 723.0,346.0 724.0,346.7 725.0,343.8 726.0,345.7 727.0,348.9 728.0,349.9 729.0,350.7 730.0,350.8 731.0,351.0 732.0,348.4 733.0,349.6 734.0,351.4 735.0,346.9 736.0,345.9 737.0,345.8 738.0,345.1 739.0,347.5 740.0,341.7 741.0,340.0 742.0,339.4 743.0,337.5 744.0,335.7 745.0,337.8 746.0,338.1 747.0,337.3 748.0,326.0 749.0,325.0 750.0,329.6 751.0,325.3 752.0,327.7 753.0,332.6 754.0,328.9 755.0,329.0 756.0,331.6 757.0,331.1 758.0,331.6 759.0,330.3 760.0,333.2 761.0,332.1 762.0,329.9 763.0,328.3 764.0,322.4 765.0,324.1 766.0,315.1 767.0,317.4 768.0,315.2 769.0,315.5 770.0,315.5 771.0,319.5 772.0,320.0 773.0,323.4 774.0,328.0 775.0,325.9 776.0,324.8 777.0,327.5 778.0,322.1 779.0,322.8 780.0,326.0 781.0,327.8 782.0,328.7 783.0,327.5 784.0,325.2 785.0,325.3 786.0,327.6 787.0,327.9 788.0,326.4 789.0,327.2 790.0,319.7 791.0,304.9 792.0,306.0 793.0,306.5 794.0,307.2 795.0,314.6 796.0,316.5 797.0,319.5 798.0,322.4 799.0,319.5 800.0,325.2 801.0,323.5 802.0,324.2 803.0,339.9 804.0,335.3 805.0,332.4 806.0,307.6 807.0,305.5 808.0,307.0 809.0,307.1 810.0,290.6 811.0,294.6 812.0,298.3 813.0,298.9 814.0,302.9 815.0,307.3 816.0,317.0 817.0,319.2 818.0,316.2 819.0,315.6 820.0,319.3 821.0,314.5 822.0,316.5 823.0,307.4 824.0,313.4 825.0,311.9 826.0,302.8 827.0,300.2 828.0,300.3 829.0,302.3 830.0,306.8 831.0,307.5 832.0,310.5 833.0,310.5 834.0,309.4 835.0,320.1 836.0,322.3 837.0,326.0 838.0,327.0 839.0,327.0 840.0,325.4 841.0,337.0 842.0,339.6 843.0,335.0 844.0,336.2 845.0,340.0 846.0,342.5 847.0,341.6 848.0,335.7 849.0,336.6 850.0,337.5 851.0,338.2 852.0,336.6 853.0,336.6 854.0,337.2 855.0,330.9 856.0,341.2 857.0,337.7 858.0,331.1 859.0,326.0 860.0,318.4 861.0,322.4 862.0,322.8 863.0,325.1 864.0,325.0 865.0,319.5 866.0,320.1 867.0,319.3 868.0,326.9 869.0,314.6 870.0,316.9 871.0,316.5 872.0,316.6 873.0,316.0 874.0,318.0 875.0,315.2 876.0,303.9 877.0,304.1 878.0,301.5 879.0,301.1 880.0,304.8 881.0,297.1 882.0,295.6 883.0,295.3 884.0,293.3 885.0,295.1 886.0,291.6 887.0,300.8 888.0,300.4 889.0,301.5 890.0,304.7 891.0,304.0 892.0,303.1 893.0,301.8 894.0,301.0 894.0,304.8 893.0,305.5 892.0,310.3 891.0,311.5 890.0,310.0 889.0,308.3 888.0,308.3 887.0,307.0 886.0,309.2 885.0,301.8 884.0,298.8 883.0,299.9 882.0,303.1 881.0,306.7 880.0,308.9 879.0,307.3 878.0,308.0 877.0,308.5 876.0,317.3 875.0,326.2 874.0,325.1 873.0,323.4 872.0,320.4 871.0,320.9 870.0,321.5 869.0,328.9 868.0,332.7 867.0,328.8 866.0,330.8 865.0,333.5 864.0,334.7 863.0,331.6 862.0,328.3 861.0,327.9 860.0,328.3 859.0,334.9 858.0,339.0 857.0,346.1 856.0,349.4 855.0,347.3 854.0,342.4 853.0,340.1 852.0,342.2 851.0,344.3 850.0,341.8 849.0,342.7 848.0,342.8 847.0,351.1 846.0,352.2 845.0,350.5 844.0,346.4 843.0,342.4 842.0,345.4 841.0,348.5 840.0,346.5 839.0,334.4 838.0,334.6 837.0,330.6 836.0,330.1 835.0,333.3 834.0,326.0 833.0,318.6 832.0,316.9 831.0,320.1 830.0,312.3 829.0,316.9 828.0,306.1 827.0,308.7 826.0,315.8 825.0,330.6 824.0,324.8 823.0,321.3 822.0,322.5 821.0,321.3 820.0,324.8 819.0,323.2 818.0,324.5 817.0,328.2 816.0,321.5 815.0,319.4 814.0,309.3 813.0,304.8 812.0,304.2 811.0,301.6 810.0,311.5 809.0,312.8 808.0,312.9 807.0,313.5 806.0,336.3 805.0,345.8 804.0,356.6 803.0,352.1 802.0,346.2 801.0,331.2 800.0,331.4 799.0,327.5 798.0,326.4 797.0,325.3 796.0,320.6 795.0,321.6 794.0,317.0 793.0,317.6 792.0,315.8 791.0,323.9 790.0,331.7 789.0,329.9 788.0,329.8 787.0,331.8 786.0,331.9 785.0,330.5 784.0,331.0 783.0,331.3 782.0,332.7 781.0,331.8 780.0,335.0 779.0,326.7 778.0,329.6 777.0,331.0 776.0,330.6 775.0,330.8 774.0,331.9 773.0,328.5 772.0,326.3 771.0,325.4 770.0,320.4 769.0,321.2 768.0,321.8 767.0,322.3 766.0,328.0 765.0,328.5 764.0,331.4 763.0,332.9 762.0,332.9 761.0,334.4 760.0,334.9 759.0,335.4 758.0,334.3 757.0,337.1 756.0,335.0 755.0,332.1 754.0,334.4 753.0,335.4 752.0,335.7 751.0,333.2 750.0,333.3 749.0,333.8 748.0,340.0 747.0,340.7 746.0,341.2 745.0,345.2 744.0,346.9 743.0,349.2 742.0,345.3 741.0,346.1 740.0,349.7 739.0,352.0 738.0,352.7 737.0,350.1 736.0,350.8 735.0,355.3 734.0,356.0 733.0,357.0 732.0,357.2 731.0,357.9 730.0,355.7 729.0,352.8 728.0,355.9 727.0,354.9 726.0,350.0 725.0,355.4 724.0,360.1 723.0,355.0 722.0,352.5 721.0,359.5 720.0,360.4 719.0,365.2 718.0,374.7 717.0,379.9 716.0,378.7 715.0,373.5 714.0,368.2 713.0,375.9 712.0,381.5 711.0,389.7 710.0,386.7 709.0,376.3 708.0,379.9 707.0,384.1 706.0,380.2 705.0,383.4 704.0,385.7 703.0,391.1 702.0,397.9 701.0,414.1 700.0,412.7 699.0,408.9 698.0,407.1 697.0,410.7 696.0,408.6 695.0,409.9 694.0,398.2 693.0,403.8 692.0,407.4 691.0,424.4 690.0,414.2 689.0,410.3 688.0,410.5 687.0,409.6 686.0,409.0 685.0,413.6 684.0,414.3 683.0,415.4 682.0,416.5 681.0,416.0 680.0,414.3 679.0,398.7 678.0,395.4 677.0,397.4 676.0,393.9 675.0,392.5 674.0,394.2 673.0,392.7 672.0,388.7 671.0,386.6 670.0,387.7 669.0,379.2 668.0,375.1 667.0,376.7 666.0,375.7 665.0,378.7 664.0,375.5 663.0,389.8 662.0,399.1 661.0,401.4 660.0,391.3 659.0,389.8 658.0,383.9 657.0,386.1 656.0,386.8 655.0,383.3 654.0,388.6 653.0,393.4 652.0,384.0 651.0,403.1 650.0,397.1 649.0,400.8 648.0,403.2 647.0,397.8 646.0,391.0 645.0,396.2 644.0,391.4 643.0,393.5 642.0,389.4 641.0,384.0 640.0,382.6 639.0,381.6 638.0,379.7 637.0,380.6 636.0,377.6 635.0,379.7 634.0,385.5 633.0,386.6 632.0,380.2 631.0,379.9 630.0,380.8 629.0,382.2 628.0,382.8 627.0,384.6 626.0,379.1 625.0,380.7 624.0,379.0 623.0,373.1 622.0,374.1 621.0,370.9 620.0,372.1 619.0,375.9 618.0,378.1 617.0,375.6 616.0,376.5 615.0,374.7 614.0,376.4 613.0,379.5 612.0,378.0 611.0,378.6 610.0,383.3 609.0,383.1 608.0,384.0 607.0,384.4 606.0,387.8 605.0,390.2 604.0,390.3 603.0,389.1 602.0,382.9 601.0,382.6 600.0,393.6 599.0,410.6 598.0,401.5 597.0,396.6 596.0,392.3 595.0,380.5 594.0,378.4 593.0,387.6 592.0,387.0 591.0,393.7 590.0,413.8 589.0,413.3 588.0,392.6 587.0,386.9 586.0,386.9 585.0,394.4 584.0,397.5 583.0,398.1 582.0,398.3 581.0,398.8 580.0,403.6 579.0,419.0 578.0,365.2 577.0,360.1 576.0,361.5 575.0,351.1 574.0,349.3 573.0,350.1 572.0,353.0 571.0,366.8 570.0,368.8 569.0,368.6 568.0,368.1 567.0,365.2 566.0,366.5 565.0,369.1 564.0,384.3 563.0,393.0 562.0,399.4 561.0,394.6 560.0,377.6 559.0,365.4 558.0,359.5 557.0,332.3 556.0,337.9 555.0,334.7 554.0,331.1 553.0,331.8 552.0,330.2 551.0,329.8 550.0,333.3 549.0,334.6 548.0,330.4 547.0,329.2 546.0,334.0 545.0,333.5 544.0,336.2 543.0,338.1 542.0,341.4 541.0,338.4 540.0,337.3 539.0,339.6 538.0,339.2 537.0,344.2 536.0,336.4 535.0,339.0 534.0,337.3 533.0,345.1 532.0,330.4 531.0,332.9 530.0,313.7 529.0,305.8 528.0,307.1 527.0,306.7 526.0,308.3 525.0,309.0 524.0,302.5 523.0,298.2 522.0,299.9 521.0,298.1 520.0,297.7 519.0,293.3 518.0,289.2 517.0,287.2 516.0,294.1 515.0,303.7 514.0,304.1 513.0,304.4 512.0,304.3 511.0,306.1 510.0,306.0 509.0,307.7 508.0,307.1 507.0,308.0 506.0,317.2 505.0,319.3 504.0,313.4 503.0,314.9 502.0,304.0 501.0,305.3 500.0,306.2 499.0,304.5 498.0,304.9 497.0,305.2 496.0,306.3 495.0,305.2 494.0,301.5 493.0,306.7 492.0,307.1 491.0,302.1 490.0,301.6 489.0,300.9 488.0,300.7 487.0,301.0 486.0,301.1 485.0,300.8 484.0,303.8 483.0,306.7 482.0,307.9 481.0,309.5 480.0,310.3 479.0,307.6 478.0,307.0 477.0,320.8 476.0,319.1 475.0,313.9 474.0,312.9 473.0,314.1 472.0,317.2 471.0,315.1 470.0,313.0 469.0,314.1 468.0,316.8 467.0,318.2 466.0,316.9 465.0,315.8 464.0,319.1 463.0,323.4 462.0,323.7 461.0,325.5 460.0,324.7 459.0,327.0 458.0,326.0 457.0,324.0 456.0,329.2 455.0,336.7 454.0,334.8 453.0,336.5 452.0,337.5 451.0,333.9 450.0,330.6 449.0,332.8 448.0,335.6 447.0,336.2 446.0,326.8 445.0,327.2 444.0,328.2 443.0,329.5 442.0,326.8 441.0,325.6 440.0,332.1 439.0,333.9 438.0,338.6 437.0,338.0 436.0,313.6 435.0,309.2 434.0,307.5 433.0,307.1 432.0,306.7 431.0,299.1 430.0,304.9 429.0,308.0 428.0,310.9 427.0,308.9 426.0,298.2 425.0,296.0 424.0,296.8 423.0,300.4 422.0,306.8 421.0,301.8 420.0,304.4 419.0,290.0 418.0,279.1 417.0,277.7 416.0,290.7 415.0,289.0 414.0,293.9 413.0,294.7 412.0,290.6 411.0,289.6 410.0,287.3 409.0,276.7 408.0,271.7 407.0,270.9 406.0,272.6 405.0,273.4 404.0,277.5 403.0,274.1 402.0,272.9 401.0,273.5 400.0,275.2 399.0,275.4 398.0,272.3 397.0,272.5 396.0,272.7 395.0,279.1 394.0,268.3 393.0,259.9 392.0,259.3 391.0,257.8 390.0,260.3 389.0,261.1 388.0,266.0 387.0,270.5 386.0,271.7 385.0,273.6 384.0,263.8 383.0,262.4 382.0,264.9 381.0,264.9 380.0,260.3 379.0,260.2 378.0,253.0 377.0,254.0 376.0,251.9 375.0,258.9 374.0,261.1 373.0,263.5 372.0,269.9 371.0,275.9 370.0,276.3 369.0,274.2 368.0,273.0 367.0,274.0 366.0,274.5 365.0,278.4 364.0,277.6 363.0,279.4 362.0,276.4 361.0,287.3 360.0,305.2 359.0,309.9 358.0,310.3 357.0,311.3 356.0,306.8 355.0,305.4 354.0,307.9 353.0,300.7 352.0,299.0 351.0,296.6 350.0,299.1 349.0,297.6 348.0,301.1 347.0,300.4 346.0,299.6 345.0,296.5 344.0,296.3 343.0,295.5 342.0,298.0 341.0,297.1 340.0,300.5 339.0,301.0 338.0,302.4 337.0,305.9 336.0,307.4 335.0,305.8 334.0,302.8 333.0,304.2 332.0,306.8 331.0,309.1 330.0,310.7 329.0,309.3 328.0,310.5 327.0,313.8 326.0,314.8 325.0,315.0 324.0,316.2 323.0,311.9 322.0,314.6 321.0,316.3 320.0,315.9 319.0,317.1 318.0,316.2 317.0,312.3 316.0,311.2 315.0,310.9 314.0,314.6 313.0,322.4 312.0,323.7 311.0,315.8 310.0,313.2 309.0,315.1 308.0,322.5 307.0,325.5 306.0,327.3 305.0,316.3 304.0,317.6 303.0,315.3 302.0,318.7 301.0,314.5 300.0,317.4 299.0,315.9 298.0,319.2 297.0,316.9 296.0,318.0 295.0,336.9 294.0,332.9 293.0,333.6 292.0,330.6 291.0,334.1 290.0,324.9 289.0,328.3 288.0,328.5 287.0,331.8 286.0,331.9 285.0,333.1 284.0,335.7 283.0,343.5 282.0,344.7 281.0,347.9 280.0,359.7 279.0,360.9 278.0,359.7 277.0,349.5 276.0,351.1 275.0,350.4 274.0,345.0 273.0,347.1 272.0,347.1 271.0,354.2 270.0,364.9 269.0,365.4 268.0,369.0 267.0,359.6 266.0,355.3 265.0,359.9 264.0,361.2 263.0,356.1 262.0,358.2 261.0,351.5 260.0,354.2 259.0,352.0 258.0,349.9 257.0,344.0 256.0,348.9 255.0,351.2 254.0,367.3 253.0,365.5 252.0,359.7 251.0,347.6 250.0,335.2 249.0,334.0 248.0,332.2 247.0,331.6 246.0,328.7 245.0,319.8 244.0,322.0 243.0,329.2 242.0,333.2 241.0,332.5 240.0,335.6 239.0,324.9 238.0,320.3 237.0,317.5 236.0,321.3 235.0,317.9 234.0,319.0 233.0,318.5 232.0,311.6 231.0,316.4 230.0,321.2 229.0,330.4 228.0,323.5 227.0,322.0 226.0,324.7 225.0,327.9 224.0,335.7 223.0,334.3 222.0,328.1 221.0,326.3 220.0,329.8 219.0,322.1 218.0,328.5 217.0,350.0 216.0,353.8 215.0,359.2 214.0,342.4 213.0,343.9 212.0,346.8 211.0,349.8 210.0,349.9 209.0,352.1 208.0,338.1 207.0,337.5 206.0,335.9 205.0,342.4 204.0,351.0 203.0,350.4 202.0,353.6 201.0,359.0 200.0,359.5 199.0,367.7 198.0,371.0 197.0,373.7 196.0,369.7 195.0,371.9 194.0,373.5 193.0,374.1 192.0,373.0 191.0,374.4 190.0,367.1 189.0,369.7 188.0,369.6 187.0,378.3 186.0,368.0 185.0,365.1 184.0,368.9 183.0,370.2 182.0,391.8 181.0,380.3 180.0,369.2 179.0,363.6 178.0,371.9 177.0,372.3 176.0,358.6 175.0,383.0 174.0,398.9 173.0,396.2 172.0,369.6 171.0,386.5 170.0,376.2 169.0,373.8 168.0,350.8 167.0,344.4 166.0,336.2 165.0,338.1 164.0,355.6 163.0,360.6 162.0,336.2 161.0,334.0 160.0,337.1 159.0,329.0 158.0,323.4 157.0,317.1 156.0,320.6 155.0,322.4 154.0,320.8 153.0,320.9 152.0,325.4 151.0,316.3 150.0,311.6 149.0,311.9 148.0,323.2 147.0,339.9 146.0,339.4 145.0,329.7 144.0,319.6 143.0,315.3 142.0,312.1 141.0,311.4 140.0,316.7 139.0,355.5 138.0,335.6 137.0,323.1 136.0,298.5 135.0,284.0 134.0,291.4 133.0,281.2 132.0,272.2 131.0,274.3 130.0,275.2 129.0,258.5 128.0,254.5 127.0,251.7 126.0,245.6 125.0,254.3 124.0,251.4 123.0,248.0 122.0,250.3 121.0,261.6 120.0,277.7 119.0,267.3 118.0,257.9 117.0,254.4 116.0,263.2 115.0,260.1 114.0,244.5 113.0,259.5 112.0,245.3 111.0,240.1 110.0,245.3 109.0,246.0 108.0,235.8 107.0,211.8 106.0,204.8 105.0,202.3 104.0,203.1 103.0,194.2 102.0,195.4 101.0,185.9 100.0,178.8 99.0,175.5 98.0,188.7 97.0,175.1 96.0,167.9 95.0,170.7 94.0,173.9 93.0,164.9 92.0,163.6 91.0,163.7 90.0,172.1 89.0,176.7 88.0,162.7 87.0,163.7 86.0,153.5 85.0,140.5 84.0,139.0 83.0,139.9 82.0,138.4 81.0,133.4 80.0,126.5 79.0,125.1 78.0,123.7 77.0,128.8 76.0,121.8" fill="#199e70" fill-opacity="0.3"/>
<polyline points="76.0,120.9 77.0,122.6 78.0,114.2 79.0,123.3 80.0,124.4 81.0,131.1 82.0,135.2 83.0,132.2 84.0,139.0 85.0,137.7 86.0,147.9 87.0,155.2 88.0,160.9 89.0,172.1 90.0,160.5 91.0,162.5 92.0,160.4 93.0,164.5 94.0,170.7 95.0,165.0 96.0,165.6 97.0,173.3 98.0,175.5 99.0,172.6 100.0,175.3 101.0,182.7 102.0,186.5 103.0,193.9 104.0,201.0 105.0,197.5 106.0,204.4 107.0,208.7 108.0,228.2 109.0,243.7 110.0,237.3 111.0,236.0 112.0,243.2 113.0,242.4 114.0,234.0 115.0,255.5 116.0,253.2 117.0,253.1 118.0,253.6 119.0,266.2 120.0,258.4 121.0,241.6 122.0,247.3 123.0,246.0 124.0,250.3 125.0,243.7 126.0,245.5 127.0,245.8 128.0,252.2 129.0,258.5 130.0,272.1 131.0,264.4 132.0,265.2 133.0,277.0 134.0,276.0 135.0,280.7 136.0,293.4 137.0,319.9 138.0,335.1 139.0,316.3 140.0,294.4 141.0,311.2 142.0,303.2 143.0,305.3 144.0,312.3 145.0,321.3 146.0,338.4 147.0,320.0 148.0,310.3 149.0,305.2 150.0,309.5 151.0,314.8 152.0,320.9 153.0,305.2 154.0,315.8 155.0,316.3 156.0,311.1 157.0,309.4 158.0,316.3 159.0,327.8 160.0,330.9 161.0,327.0 162.0,335.7 163.0,352.2 164.0,331.2 165.0,322.0 166.0,336.1 167.0,339.3 168.0,342.8 169.0,364.7 170.0,367.3 171.0,363.1 172.0,364.1 173.0,395.0 174.0,377.9 175.0,347.3 176.0,353.0 177.0,371.9 178.0,358.6 179.0,359.3 180.0,365.8 181.0,379.4 182.0,365.2 183.0,361.7 184.0,361.6 185.0,354.8 186.0,365.9 187.0,368.8 188.0,366.9 189.0,366.2 190.0,363.2 191.0,366.0 192.0,368.9 193.0,373.1 194.0,370.1 195.0,369.0 196.0,365.3 197.0,371.0 198.0,366.6 199.0,355.9 200.0,358.4 201.0,351.7 202.0,347.1 203.0,349.9 204.0,340.6 205.0,335.4 206.0,332.7 207.0,337.1 208.0,331.7 209.0,347.9 210.0,347.3 211.0,346.5 212.0,339.2 213.0,339.1 214.0,341.6 215.0,351.7 216.0,345.3 217.0,323.1 218.0,321.1 219.0,312.9 220.0,320.7 221.0,321.5 222.0,323.9 223.0,330.1 224.0,325.1 225.0,317.6 226.0,321.7 227.0,316.8 228.0,314.9 229.0,319.8 230.0,314.7 231.0,306.9 232.0,310.4 233.0,315.7 234.0,313.2 235.0,314.6 236.0,317.5 237.0,310.1 238.0,316.3 239.0,324.1 240.0,328.3 241.0,329.2 242.0,328.0 243.0,318.0 244.0,316.6 245.0,318.1 246.0,325.3 247.0,329.4 248.0,330.0 249.0,331.0 250.0,331.0 251.0,347.5 252.0,355.2 253.0,364.5 254.0,350.6 255.0,347.5 256.0,342.3 257.0,344.0 258.0,347.4 259.0,350.9 260.0,350.6 261.0,347.8 262.0,354.1 263.0,353.4 264.0,357.0 265.0,355.1 266.0,347.9 267.0,358.3 268.0,357.5 269.0,359.7 270.0,349.9 271.0,336.1 272.0,345.1 273.0,334.7 274.0,341.2 275.0,345.8 276.0,345.0 277.0,347.8 278.0,356.9 279.0,355.9 280.0,344.1 281.0,340.4 282.0,342.8 283.0,335.6 284.0,330.2 285.0,330.8 286.0,330.4 287.0,325.3 288.0,325.9 289.0,324.9 290.0,323.4 291.0,326.9 292.0,326.3 293.0,330.4 294.0,330.4 295.0,314.8 296.0,313.5 297.0,314.4 298.0,313.7 299.0,313.4 300.0,312.3 301.0,310.7 302.0,315.3 303.0,314.6 304.0,310.4 305.0,315.5 306.0,324.4 307.0,321.0 308.0,315.1 309.0,309.8 310.0,308.6 311.0,314.5 312.0,321.3 313.0,305.6 314.0,309.8 315.0,307.9 316.0,309.3 317.0,310.7 318.0,315.6 319.0,314.0 320.0,315.3 321.0,312.9 322.0,311.8 323.0,311.2 324.0,314.3 325.0,313.9 326.0,313.0 327.0,310.3 328.0,308.9 329.0,309.1 330.0,308.3 331.0,306.0 332.0,302.0 333.0,302.7 334.0,299.9 335.0,303.2 336.0,305.6 337.0,301.9 338.0,299.6 339.0,300.3 340.0,295.6 341.0,297.0 342.0,294.6 343.0,293.5 344.0,295.0 345.0,296.2 346.0,298.2 347.0,300.0 348.0,296.8 349.0,296.5 350.0,294.6 351.0,294.1 352.0,298.6 353.0,299.3 354.0,302.5 355.0,303.1 356.0,306.0 357.0,310.3 358.0,309.7 359.0,303.8 360.0,276.9 361.0,275.3 362.0,272.7 363.0,277.0 364.0,275.2 365.0,268.5 366.0,273.9 367.0,269.1 368.0,267.7 369.0,272.0 370.0,275.7 371.0,269.8 372.0,262.8 373.0,252.0 374.0,256.6 375.0,250.8 376.0,245.8 377.0,250.4 378.0,250.2 379.0,256.1 380.0,259.6 381.0,259.6 382.0,260.6 383.0,261.2 384.0,263.5 385.0,271.6 386.0,269.2 387.0,265.3 388.0,257.5 389.0,260.0 390.0,252.5 391.0,253.2 392.0,259.1 393.0,257.4 394.0,264.5 395.0,270.7 396.0,270.8 397.0,271.5 398.0,269.8 399.0,273.1 400.0,269.6 401.0,271.2 402.0,271.5 403.0,272.0 404.0,273.4 405.0,269.3 406.0,269.6 407.0,270.6 408.0,269.0 409.0,275.7 410.0,286.1 411.0,287.1 412.0,290.1 413.0,289.2 414.0,285.4 415.0,282.5 416.0,276.6 417.0,269.5 418.0,278.6 419.0,278.4 420.0,298.2 421.0,298.5 422.0,300.1 423.0,295.4 424.0,293.1 425.0,294.9 426.0,297.7 427.0,306.3 428.0,306.5 429.0,303.1 430.0,295.3 431.0,296.2 432.0,305.4 433.0,306.1 434.0,298.9 435.0,307.0 436.0,311.3 437.0,332.4 438.0,332.4 439.0,329.7 440.0,325.6 441.0,322.7 442.0,325.3 443.0,327.8 444.0,323.9 445.0,326.4 446.0,324.5 447.0,330.5 448.0,330.9 449.0,327.6 450.0,330.3 451.0,330.7 452.0,336.1 453.0,333.2 454.0,331.6 455.0,329.0 456.0,318.1 457.0,319.2 458.0,324.4 459.0,321.6 460.0,323.1 461.0,322.8 462.0,321.9 463.0,318.0 464.0,313.4 465.0,315.8 466.0,316.9 467.0,315.6 468.0,313.7 469.0,312.4 470.0,310.3 471.0,314.1 472.0,314.1 473.0,311.4 474.0,310.5 475.0,313.6 476.0,317.4 477.0,307.0 478.0,303.8 479.0,304.8 480.0,308.3 481.0,306.5 482.0,306.3 483.0,302.4 484.0,299.8 485.0,299.9 486.0,300.2 487.0,300.3 488.0,297.7 489.0,300.7 490.0,300.2 491.0,300.6 492.0,306.0 493.0,301.0 494.0,297.5 495.0,304.7 496.0,302.3 497.0,304.3 498.0,300.4 499.0,302.4 500.0,304.9 501.0,301.2 502.0,302.8 503.0,306.3 504.0,309.9 505.0,316.8 506.0,307.4 507.0,295.1 508.0,297.9 509.0,305.1 510.0,301.4 511.0,304.3 512.0,299.0 513.0,302.5 514.0,301.7 515.0,294.1 516.0,283.4 517.0,277.8 518.0,285.8 519.0,292.4 520.0,296.8 521.0,296.2 522.0,295.6 523.0,297.1 524.0,299.9 525.0,304.3 526.0,304.8 527.0,306.3 528.0,301.3 529.0,303.8 530.0,313.5 531.0,330.4 532.0,325.0 533.0,337.1 534.0,335.1 535.0,336.4 536.0,336.1 537.0,335.1 538.0,332.3 539.0,337.3 540.0,334.4 541.0,336.3 542.0,336.9 543.0,334.3 544.0,331.6 545.0,332.7 546.0,329.2 547.0,325.5 548.0,329.6 549.0,327.8 550.0,329.5 551.0,326.7 552.0,329.8 553.0,330.3 554.0,330.0 555.0,332.2 556.0,325.8 557.0,331.4 558.0,355.7 559.0,362.8 560.0,371.2 561.0,392.0 562.0,393.0 563.0,384.3 564.0,369.0 565.0,363.8 566.0,362.7 567.0,364.5 568.0,363.5 569.0,366.4 570.0,365.5 571.0,348.7 572.0,349.0 573.0,345.4 574.0,347.9 575.0,348.6 576.0,355.1 577.0,358.0 578.0,361.7 579.0,394.0 580.0,388.9 581.0,398.1 582.0,392.0 583.0,395.1 584.0,390.0 585.0,383.7 586.0,384.4 587.0,385.6 588.0,389.6 589.0,403.1 590.0,392.2 591.0,383.9 592.0,384.4 593.0,373.5 594.0,376.0 595.0,379.7 596.0,390.4 597.0,394.5 598.0,397.6 599.0,380.7 600.0,380.1 601.0,378.9 602.0,379.9 603.0,388.7 604.0,385.3 605.0,386.3 606.0,383.0 607.0,382.0 608.0,382.6 609.0,382.7 610.0,377.1 611.0,373.9 612.0,376.8 613.0,376.3 614.0,372.7 615.0,372.9 616.0,373.5 617.0,375.6 618.0,375.2 619.0,369.7 620.0,369.1 621.0,365.6 622.0,371.0 623.0,371.9 624.0,378.3 625.0,376.5 626.0,378.8 627.0,377.6 628.0,379.7 629.0,378.8 630.0,379.1 631.0,378.2 632.0,378.6 633.0,382.1 634.0,378.9 635.0,377.6 636.0,374.6 637.0,379.0 638.0,374.9 639.0,381.1 640.0,378.8 641.0,380.7 642.0,388.2 643.0,390.5 644.0,389.0 645.0,390.5 646.0,388.0 647.0,394.0 648.0,385.3 649.0,394.9 650.0,392.5 651.0,380.1 652.0,383.5 653.0,388.4 654.0,380.3 655.0,379.2 656.0,384.5 657.0,377.3 658.0,383.1 659.0,374.8 660.0,389.5 661.0,391.4 662.0,385.7 663.0,373.1 664.0,373.4 665.0,375.5 666.0,373.7 667.0,371.6 668.0,375.1 669.0,377.6 670.0,381.0 671.0,382.2 672.0,388.7 673.0,391.5 674.0,390.4 675.0,390.8 676.0,393.2 677.0,395.0 678.0,394.0 679.0,397.3 680.0,408.4 681.0,401.6 682.0,412.4 683.0,411.9 684.0,413.6 685.0,407.2 686.0,404.1 687.0,409.1 688.0,409.7 689.0,408.8 690.0,408.4 691.0,404.4 692.0,401.0 693.0,396.4 694.0,397.2 695.0,406.6 696.0,406.1 697.0,401.1 698.0,405.7 699.0,406.0 700.0,412.2 701.0,396.8 702.0,389.1 703.0,377.5 704.0,383.4 705.0,378.9 706.0,377.3 707.0,379.9 708.0,366.0 709.0,375.1 710.0,386.2 711.0,381.3 712.0,374.6 713.0,364.7 714.0,368.1 715.0,373.2 716.0,378.6 717.0,374.7 718.0,362.2 719.0,357.4 720.0,356.5 721.0,349.1 722.0,348.6 723.0,348.8 724.0,354.7 725.0,348.6 726.0,349.1 727.0,354.2 728.0,352.1 729.0,352.0 730.0,352.5 731.0,355.9 732.0,352.1 733.0,354.6 734.0,354.6 735.0,348.0 736.0,349.7 737.0,347.7 738.0,350.1 739.0,349.7 740.0,343.5 741.0,345.3 742.0,342.0 743.0,339.6 744.0,343.6 745.0,338.9 746.0,339.9 747.0,338.3 748.0,328.2 749.0,329.6 750.0,332.5 751.0,328.3 752.0,333.8 753.0,334.0 754.0,331.0 755.0,331.6 756.0,335.0 757.0,331.8 758.0,331.6 759.0,334.4 760.0,333.3 761.0,332.5 762.0,331.1 763.0,330.6 764.0,326.5 765.0,326.6 766.0,317.9 767.0,319.9 768.0,319.7 769.0,315.9 770.0,320.3 771.0,320.0 772.0,324.4 773.0,328.0 774.0,329.7 775.0,326.6 776.0,330.1 777.0,328.9 778.0,323.1 779.0,326.0 780.0,329.5 781.0,330.3 782.0,329.8 783.0,328.3 784.0,325.6 785.0,329.7 786.0,327.9 787.0,329.5 788.0,328.1 789.0,329.0 790.0,322.4 791.0,306.4 792.0,315.1 793.0,307.5 794.0,316.3 795.0,319.5 796.0,320.1 797.0,322.6 798.0,324.5 799.0,327.1 800.0,331.2 801.0,327.8 802.0,343.4 803.0,351.8 804.0,341.4 805.0,336.2 806.0,310.7 807.0,312.9 808.0,310.8 809.0,311.3 810.0,299.4 811.0,301.1 812.0,302.8 813.0,304.2 814.0,307.9 815.0,318.2 816.0,319.2 817.0,321.0 818.0,317.0 819.0,323.2 820.0,319.3 821.0,316.9 822.0,320.1 823.0,313.4 824.0,323.3 825.0,315.1 826.0,307.4 827.0,302.8 828.0,304.0 829.0,308.1 830.0,311.3 831.0,316.6 832.0,310.5 833.0,312.6 834.0,323.4 835.0,324.4 836.0,329.0 837.0,327.7 838.0,333.0 839.0,327.3 840.0,344.5 841.0,341.3 842.0,340.5 843.0,336.8 844.0,346.1 845.0,344.7 846.0,350.6 847.0,342.6 848.0,339.0 849.0,341.6 850.0,339.0 851.0,342.0 852.0,337.8 853.0,337.2 854.0,339.6 855.0,343.2 856.0,345.2 857.0,338.7 858.0,334.9 859.0,326.5 860.0,325.1 861.0,327.2 862.0,326.4 863.0,330.3 864.0,332.1 865.0,323.8 866.0,321.8 867.0,327.6 868.0,328.0 869.0,318.4 870.0,318.8 871.0,317.3 872.0,318.9 873.0,320.0 874.0,325.0 875.0,317.1 876.0,305.4 877.0,304.8 878.0,305.3 879.0,307.0 880.0,306.2 881.0,301.6 882.0,297.8 883.0,296.7 884.0,297.2 885.0,301.5 886.0,304.2 887.0,305.5 888.0,301.5 889.0,306.2 890.0,307.4 891.0,310.0 892.0,303.8 893.0,302.8 894.0,301.9" fill="none" stroke="#199e70" stroke-width="0.9"/>
<text x="76.0" y="462" font-size="11" fill="#898781" text-anchor="middle">1er juin</text>
<text x="219.5" y="462" font-size="11" fill="#898781" text-anchor="middle">8 juin</text>
<text x="363.0" y="462" font-size="11" fill="#898781" text-anchor="middle">15 juin</text>
<text x="506.5" y="462" font-size="11" fill="#898781" text-anchor="middle">22 juin</text>
<text x="650.0" y="462" font-size="11" fill="#898781" text-anchor="middle">29 juin</text>
<text x="793.5" y="462" font-size="11" fill="#898781" text-anchor="middle">6 juil.</text>
<text x="875.5" y="462" font-size="11" fill="#898781" text-anchor="middle">10 juil.</text>
<text x="76.0" y="496" font-size="12" fill="#c3c2b7" text-anchor="start">Une seule courbe visible : à cette échelle, les deux voies sont indiscernables — l’aqua recouvre le bleu point pour point.</text>
</svg>
