<svg xmlns="http://www.w3.org/2000/svg" viewBox="0 0 920 470" font-family="system-ui,-apple-system,'Segoe UI',sans-serif" role="img" aria-label="Corrélation temporelle OKX : pic de corrélation au décalage 0">
<rect width="920" height="470" fill="#0d1117"/>
<text x="76" y="34" font-size="19" fill="#ffffff" text-anchor="start" font-weight="600">La corrélation est au rendez-vous — et seulement au décalage zéro</text>
<text x="76" y="56" font-size="12.5" fill="#c3c2b7" text-anchor="start">Corrélation croisée des rendements 1 minute entre voie A et voie B décalée — journée témoin du 5 juin 2026, résolution 1 minute</text>
<line x1="76.0" y1="369.2" x2="896.0" y2="369.2" stroke="#21262d"/>
<text x="68.0" y="373.2" font-size="11" fill="#898781" text-anchor="end">0</text>
<line x1="76.0" y1="304.1" x2="896.0" y2="304.1" stroke="#21262d"/>
<text x="68.0" y="308.1" font-size="11" fill="#898781" text-anchor="end">0,25</text>
<line x1="76.0" y1="239.1" x2="896.0" y2="239.1" stroke="#21262d"/>
<text x="68.0" y="243.1" font-size="11" fill="#898781" text-anchor="end">0,50</text>
<line x1="76.0" y1="174.1" x2="896.0" y2="174.1" stroke="#21262d"/>
<text x="68.0" y="178.1" font-size="11" fill="#898781" text-anchor="end">0,75</text>
<line x1="76.0" y1="109.0" x2="896.0" y2="109.0" stroke="#21262d"/>
<text x="68.0" y="113.0" font-size="11" fill="#898781" text-anchor="end">1</text>
<text x="76.0" y="418" font-size="11" fill="#898781" text-anchor="middle">-30</text>
<text x="212.7" y="418" font-size="11" fill="#898781" text-anchor="middle">-20</text>
<text x="349.3" y="418" font-size="11" fill="#898781" text-anchor="middle">-10</text>
<text x="486.0" y="418" font-size="11" fill="#898781" text-anchor="middle">0</text>
<text x="622.7" y="418" font-size="11" fill="#898781" text-anchor="middle">+10</text>
<text x="759.3" y="418" font-size="11" fill="#898781" text-anchor="middle">+20</text>
<text x="896.0" y="418" font-size="11" fill="#898781" text-anchor="middle">+30</text>
<line x1="76.0" y1="369.2" x2="76.0" y2="369.7" stroke="#3987e5" stroke-width="1.4" stroke-opacity="0.75"/>
<circle cx="76.0" cy="369.7" r="2.4" fill="#3987e5"/>
<line x1="89.7" y1="369.2" x2="89.7" y2="375.7" stroke="#3987e5" stroke-width="1.4" stroke-opacity="0.75"/>
<circle cx="89.7" cy="375.7" r="2.4" fill="#3987e5"/>
<line x1="103.3" y1="369.2" x2="103.3" y2="368.0" stroke="#3987e5" stroke-width="1.4" stroke-opacity="0.75"/>
<circle cx="103.3" cy="368.0" r="2.4" fill="#3987e5"/>
<line x1="117.0" y1="369.2" x2="117.0" y2="369.5" stroke="#3987e5" stroke-width="1.4" stroke-opacity="0.75"/>
<circle cx="117.0" cy="369.5" r="2.4" fill="#3987e5"/>
<line x1="130.7" y1="369.2" x2="130.7" y2="364.5" stroke="#3987e5" stroke-width="1.4" stroke-opacity="0.75"/>
<circle cx="130.7" cy="364.5" r="2.4" fill="#3987e5"/>
<line x1="144.3" y1="369.2" x2="144.3" y2="364.6" stroke="#3987e5" stroke-width="1.4" stroke-opacity="0.75"/>
<circle cx="144.3" cy="364.6" r="2.4" fill="#3987e5"/>
<line x1="158.0" y1="369.2" x2="158.0" y2="361.2" stroke="#3987e5" stroke-width="1.4" stroke-opacity="0.75"/>
<circle cx="158.0" cy="361.2" r="2.4" fill="#3987e5"/>
<line x1="171.7" y1="369.2" x2="171.7" y2="358.0" stroke="#3987e5" stroke-width="1.4" stroke-opacity="0.75"/>
<circle cx="171.7" cy="358.0" r="2.4" fill="#3987e5"/>
<line x1="185.3" y1="369.2" x2="185.3" y2="361.8" stroke="#3987e5" stroke-width="1.4" stroke-opacity="0.75"/>
<circle cx="185.3" cy="361.8" r="2.4" fill="#3987e5"/>
<line x1="199.0" y1="369.2" x2="199.0" y2="372.9" stroke="#3987e5" stroke-width="1.4" stroke-opacity="0.75"/>
<circle cx="199.0" cy="372.9" r="2.4" fill="#3987e5"/>
<line x1="212.7" y1="369.2" x2="212.7" y2="370.5" stroke="#3987e5" stroke-width="1.4" stroke-opacity="0.75"/>
<circle cx="212.7" cy="370.5" r="2.4" fill="#3987e5"/>
<line x1="226.3" y1="369.2" x2="226.3" y2="364.6" stroke="#3987e5" stroke-width="1.4" stroke-opacity="0.75"/>
<circle cx="226.3" cy="364.6" r="2.4" fill="#3987e5"/>
<line x1="240.0" y1="369.2" x2="240.0" y2="376.4" stroke="#3987e5" stroke-width="1.4" stroke-opacity="0.75"/>
<circle cx="240.0" cy="376.4" r="2.4" fill="#3987e5"/>
<line x1="253.7" y1="369.2" x2="253.7" y2="366.1" stroke="#3987e5" stroke-width="1.4" stroke-opacity="0.75"/>
<circle cx="253.7" cy="366.1" r="2.4" fill="#3987e5"/>
<line x1="267.3" y1="369.2" x2="267.3" y2="377.2" stroke="#3987e5" stroke-width="1.4" stroke-opacity="0.75"/>
<circle cx="267.3" cy="377.2" r="2.4" fill="#3987e5"/>
<line x1="281.0" y1="369.2" x2="281.0" y2="365.3" stroke="#3987e5" stroke-width="1.4" stroke-opacity="0.75"/>
<circle cx="281.0" cy="365.3" r="2.4" fill="#3987e5"/>
<line x1="294.7" y1="369.2" x2="294.7" y2="374.4" stroke="#3987e5" stroke-width="1.4" stroke-opacity="0.75"/>
<circle cx="294.7" cy="374.4" r="2.4" fill="#3987e5"/>
<line x1="308.3" y1="369.2" x2="308.3" y2="377.2" stroke="#3987e5" stroke-width="1.4" stroke-opacity="0.75"/>
<circle cx="308.3" cy="377.2" r="2.4" fill="#3987e5"/>
<line x1="322.0" y1="369.2" x2="322.0" y2="363.5" stroke="#3987e5" stroke-width="1.4" stroke-opacity="0.75"/>
<circle cx="322.0" cy="363.5" r="2.4" fill="#3987e5"/>
<line x1="335.7" y1="369.2" x2="335.7" y2="372.8" stroke="#3987e5" stroke-width="1.4" stroke-opacity="0.75"/>
<circle cx="335.7" cy="372.8" r="2.4" fill="#3987e5"/>
<line x1="349.3" y1="369.2" x2="349.3" y2="377.2" stroke="#3987e5" stroke-width="1.4" stroke-opacity="0.75"/>
<circle cx="349.3" cy="377.2" r="2.4" fill="#3987e5"/>
<line x1="363.0" y1="369.2" x2="363.0" y2="363.6" stroke="#3987e5" stroke-width="1.4" stroke-opacity="0.75"/>
<circle cx="363.0" cy="363.6" r="2.4" fill="#3987e5"/>
<line x1="376.7" y1="369.2" x2="376.7" y2="360.9" stroke="#3987e5" stroke-width="1.4" stroke-opacity="0.75"/>
<circle cx="376.7" cy="360.9" r="2.4" fill="#3987e5"/>
<line x1="390.3" y1="369.2" x2="390.3" y2="358.5" stroke="#3987e5" stroke-width="1.4" stroke-opacity="0.75"/>
<circle cx="390.3" cy="358.5" r="2.4" fill="#3987e5"/>
<line x1="404.0" y1="369.2" x2="404.0" y2="354.6" stroke="#3987e5" stroke-width="1.4" stroke-opacity="0.75"/>
<circle cx="404.0" cy="354.6" r="2.4" fill="#3987e5"/>
<line x1="417.7" y1="369.2" x2="417.7" y2="375.0" stroke="#3987e5" stroke-width="1.4" stroke-opacity="0.75"/>
<circle cx="417.7" cy="375.0" r="2.4" fill="#3987e5"/>
<line x1="431.3" y1="369.2" x2="431.3" y2="380.4" stroke="#3987e5" stroke-width="1.4" stroke-opacity="0.75"/>
<circle cx="431.3" cy="380.4" r="2.4" fill="#3987e5"/>
<line x1="445.0" y1="369.2" x2="445.0" y2="382.5" stroke="#3987e5" stroke-width="1.4" stroke-opacity="0.75"/>
<circle cx="445.0" cy="382.5" r="2.4" fill="#3987e5"/>
<line x1="458.7" y1="369.2" x2="458.7" y2="383.0" stroke="#3987e5" stroke-width="1.4" stroke-opacity="0.75"/>
<circle cx="458.7" cy="383.0" r="2.4" fill="#3987e5"/>
<line x1="472.3" y1="369.2" x2="472.3" y2="354.2" stroke="#3987e5" stroke-width="1.4" stroke-opacity="0.75"/>
<circle cx="472.3" cy="354.2" r="2.4" fill="#3987e5"/>
<line x1="486.0" y1="369.2" x2="486.0" y2="109.0" stroke="#199e70" stroke-width="2.2"/>
<circle cx="486.0" cy="109.0" r="4.5" fill="#199e70"/>
<line x1="499.7" y1="369.2" x2="499.7" y2="354.2" stroke="#3987e5" stroke-width="1.4" stroke-opacity="0.75"/>
<circle cx="499.7" cy="354.2" r="2.4" fill="#3987e5"/>
<line x1="513.3" y1="369.2" x2="513.3" y2="383.0" stroke="#3987e5" stroke-width="1.4" stroke-opacity="0.75"/>
<circle cx="513.3" cy="383.0" r="2.4" fill="#3987e5"/>
<line x1="527.0" y1="369.2" x2="527.0" y2="382.5" stroke="#3987e5" stroke-width="1.4" stroke-opacity="0.75"/>
<circle cx="527.0" cy="382.5" r="2.4" fill="#3987e5"/>
<line x1="540.7" y1="369.2" x2="540.7" y2="380.4" stroke="#3987e5" stroke-width="1.4" stroke-opacity="0.75"/>
<circle cx="540.7" cy="380.4" r="2.4" fill="#3987e5"/>
<line x1="554.3" y1="369.2" x2="554.3" y2="375.0" stroke="#3987e5" stroke-width="1.4" stroke-opacity="0.75"/>
<circle cx="554.3" cy="375.0" r="2.4" fill="#3987e5"/>
<line x1="568.0" y1="369.2" x2="568.0" y2="354.6" stroke="#3987e5" stroke-width="1.4" stroke-opacity="0.75"/>
<circle cx="568.0" cy="354.6" r="2.4" fill="#3987e5"/>
<line x1="581.7" y1="369.2" x2="581.7" y2="358.5" stroke="#3987e5" stroke-width="1.4" stroke-opacity="0.75"/>
<circle cx="581.7" cy="358.5" r="2.4" fill="#3987e5"/>
<line x1="595.3" y1="369.2" x2="595.3" y2="360.9" stroke="#3987e5" stroke-width="1.4" stroke-opacity="0.75"/>
<circle cx="595.3" cy="360.9" r="2.4" fill="#3987e5"/>
<line x1="609.0" y1="369.2" x2="609.0" y2="363.6" stroke="#3987e5" stroke-width="1.4" stroke-opacity="0.75"/>
<circle cx="609.0" cy="363.6" r="2.4" fill="#3987e5"/>
<line x1="622.7" y1="369.2" x2="622.7" y2="377.2" stroke="#3987e5" stroke-width="1.4" stroke-opacity="0.75"/>
<circle cx="622.7" cy="377.2" r="2.4" fill="#3987e5"/>
<line x1="636.3" y1="369.2" x2="636.3" y2="372.8" stroke="#3987e5" stroke-width="1.4" stroke-opacity="0.75"/>
<circle cx="636.3" cy="372.8" r="2.4" fill="#3987e5"/>
<line x1="650.0" y1="369.2" x2="650.0" y2="363.5" stroke="#3987e5" stroke-width="1.4" stroke-opacity="0.75"/>
<circle cx="650.0" cy="363.5" r="2.4" fill="#3987e5"/>
<line x1="663.7" y1="369.2" x2="663.7" y2="377.2" stroke="#3987e5" stroke-width="1.4" stroke-opacity="0.75"/>
<circle cx="663.7" cy="377.2" r="2.4" fill="#3987e5"/>
<line x1="677.3" y1="369.2" x2="677.3" y2="374.4" stroke="#3987e5" stroke-width="1.4" stroke-opacity="0.75"/>
<circle cx="677.3" cy="374.4" r="2.4" fill="#3987e5"/>
<line x1="691.0" y1="369.2" x2="691.0" y2="365.3" stroke="#3987e5" stroke-width="1.4" stroke-opacity="0.75"/>
<circle cx="691.0" cy="365.3" r="2.4" fill="#3987e5"/>
<line x1="704.7" y1="369.2" x2="704.7" y2="377.2" stroke="#3987e5" stroke-width="1.4" stroke-opacity="0.75"/>
<circle cx="704.7" cy="377.2" r="2.4" fill="#3987e5"/>
<line x1="718.3" y1="369.2" x2="718.3" y2="366.1" stroke="#3987e5" stroke-width="1.4" stroke-opacity="0.75"/>
<circle cx="718.3" cy="366.1" r="2.4" fill="#3987e5"/>
<line x1="732.0" y1="369.2" x2="732.0" y2="376.4" stroke="#3987e5" stroke-width="1.4" stroke-opacity="0.75"/>
<circle cx="732.0" cy="376.4" r="2.4" fill="#3987e5"/>
<line x1="745.7" y1="369.2" x2="745.7" y2="364.6" stroke="#3987e5" stroke-width="1.4" stroke-opacity="0.75"/>
<circle cx="745.7" cy="364.6" r="2.4" fill="#3987e5"/>
<line x1="759.3" y1="369.2" x2="759.3" y2="370.5" stroke="#3987e5" stroke-width="1.4" stroke-opacity="0.75"/>
<circle cx="759.3" cy="370.5" r="2.4" fill="#3987e5"/>
<line x1="773.0" y1="369.2" x2="773.0" y2="372.9" stroke="#3987e5" stroke-width="1.4" stroke-opacity="0.75"/>
<circle cx="773.0" cy="372.9" r="2.4" fill="#3987e5"/>
<line x1="786.7" y1="369.2" x2="786.7" y2="361.8" stroke="#3987e5" stroke-width="1.4" stroke-opacity="0.75"/>
<circle cx="786.7" cy="361.8" r="2.4" fill="#3987e5"/>
<line x1="800.3" y1="369.2" x2="800.3" y2="358.0" stroke="#3987e5" stroke-width="1.4" stroke-opacity="0.75"/>
<circle cx="800.3" cy="358.0" r="2.4" fill="#3987e5"/>
<line x1="814.0" y1="369.2" x2="814.0" y2="361.2" stroke="#3987e5" stroke-width="1.4" stroke-opacity="0.75"/>
<circle cx="814.0" cy="361.2" r="2.4" fill="#3987e5"/>
<line x1="827.7" y1="369.2" x2="827.7" y2="364.6" stroke="#3987e5" stroke-width="1.4" stroke-opacity="0.75"/>
<circle cx="827.7" cy="364.6" r="2.4" fill="#3987e5"/>
<line x1="841.3" y1="369.2" x2="841.3" y2="364.5" stroke="#3987e5" stroke-width="1.4" stroke-opacity="0.75"/>
<circle cx="841.3" cy="364.5" r="2.4" fill="#3987e5"/>
<line x1="855.0" y1="369.2" x2="855.0" y2="369.5" stroke="#3987e5" stroke-width="1.4" stroke-opacity="0.75"/>
<circle cx="855.0" cy="369.5" r="2.4" fill="#3987e5"/>
<line x1="868.7" y1="369.2" x2="868.7" y2="368.0" stroke="#3987e5" stroke-width="1.4" stroke-opacity="0.75"/>
<circle cx="868.7" cy="368.0" r="2.4" fill="#3987e5"/>
<line x1="882.3" y1="369.2" x2="882.3" y2="375.7" stroke="#3987e5" stroke-width="1.4" stroke-opacity="0.75"/>
<circle cx="882.3" cy="375.7" r="2.4" fill="#3987e5"/>
<line x1="896.0" y1="369.2" x2="896.0" y2="369.7" stroke="#3987e5" stroke-width="1.4" stroke-opacity="0.75"/>
<circle cx="896.0" cy="369.7" r="2.4" fill="#3987e5"/>
<text x="500.0" y="93.0" font-size="22" fill="#ffffff" text-anchor="start" font-weight="600">r = 1,000 00</text>
<text x="500.0" y="113.0" font-size="12" fill="#c3c2b7" text-anchor="start">au décalage 0 — partout ailleurs, plus rien</text>
<text x="76.0" y="452" font-size="12" fill="#c3c2b7" text-anchor="start">Clôtures brutes : r = 1,000 000 00. Les rendements, eux, ne se ressemblent que si chaque minute est la même des deux côtés — le pic unique le prouve.</text>
<text x="486" y="436" font-size="11" fill="#898781" text-anchor="middle">décalage de la voie B (minutes)</text>
</svg>
